<svg xmlns="http://www.w3.org/2000/svg" viewBox="0 0 1223.78 1444.14"><defs><style>.cls-1{fill:#2f2d2c;}.cls-2{fill:#27385f;}.cls-3{fill:#ce9e74;}.cls-4{fill:#5a3768;}.cls-5{fill:#492b56;}.cls-6{fill:#304885;}.cls-7{fill:#34549a;}.cls-8{fill:#b26f4e;}.cls-9{fill:#172744;}.cls-10{fill:#223356;}.cls-11{fill:#472b28;}.cls-12{fill:#1d355d;}.cls-13{fill:#21242b;}.cls-14{fill:#25416a;}.cls-15{fill:#12161e;}.cls-16{fill:#d5c5ba;}.cls-17{fill:#fff;}.cls-18{fill:#331c1a;}.cls-19{fill:#c6948b;}.cls-20{fill:#c03c36;}</style></defs><g id="Layer_2" data-name="Layer 2"><g id="_лой_1" data-name="‘лой_1"><path class="cls-1" d="M926,30.07c-9.3,1.64-22,8.73-27.87,16.46-7.79,10.15-.83,16.67-2.37,27-1.57,10.55-10,16.72-8.12,29.7,2.24,15.83,11.51,11.62,21.57,21.54,17.37,17.16-5,43.76,8.63,60.87,8.78,11,13,7.57,9.66,24.27-1,4.75-4.43,9.19-2.49,14.44s9.67,6.7,10.63,13.13c2,13.55-13.28,12.9-21.57,13.12-4.64.14-9.8-.56-13.54,1.24-5.1,2.47-7.65,11-12.56,13.57-12,6.26-17-3.62-26.41-7.85-12.94-5.8-23.49-1.39-27.86-4.5-4-2.84-3.56-7.24-6-10.78-4.7-6.83-4-3-9.63-7.44-7.09-5.62-15.77-15.15-13-25.22,3-11,13.79-16,15.4-28.42,1.82-14-4.65-23.33,4.74-33.89,7.12-8,14.26-10.09,15.64-21.32,1-8-4.77-16.56-1.49-24s13-6.68,16.83-13.1c3.43-5.67,1.37-18.28,1.44-24.94.18-17.32,13.31-22.06,24.87-32.65,11.71-10.72,25.92-12.24,40.79-6.06.54-1.16,1-2.33,1.47-3.53Z"/><path class="cls-2" d="M569,618.72a7.08,7.08,0,0,0,6.4-4.07l23.76-51H678a7.06,7.06,0,0,0,0-14.12H594.69a7.07,7.07,0,0,0-6.4,4.08l-25.66,55.07a7.06,7.06,0,0,0,6.4,10Z"/><path class="cls-2" d="M619.58,567.24h60.55a10.71,10.71,0,0,0,10.67-10.67h0a10.71,10.71,0,0,0-10.67-10.67H619.58a10.7,10.7,0,0,0-10.67,10.67h0A10.7,10.7,0,0,0,619.58,567.24Z"/><path class="cls-3" d="M681.19,534.45c-2,1.5-37.11-3-48.41,4.17s-22.17,26.92-17.09,34,29.1-14.15,36.17-13.79,27.36-5.91,27.36-5.91Z"/><path class="cls-4" d="M670.46,531.64s-3.67,6.38-3.6,12c.1,9.38,3.6,13.86,3.6,13.86s42.49,3.39,88.23-3.21c25.43-3.68,51.87-10.45,72.56-22.6,28.1-16.53,54.2-75.36,73.63-131.51C925.49,340.59,938.57,284,938.57,284c-9.57-23.16-34.88-37.11-56.2-33.69-11.67,1.87-39.07,10.89-45.26,19-9.49,12.48-36.34,126.45-57.4,180.39C775.08,461.61,670.46,531.64,670.46,531.64Z"/><path class="cls-5" d="M758.69,554.24c25.43-3.68,51.87-10.45,72.56-22.6,28.1-16.53,54.2-75.36,73.63-131.51.31-40.56.31-74,.31-74l-46,19.08c-1.41,2.82-16.26,142.05-49.48,170.32C781.49,539.49,763.48,551.24,758.69,554.24Z"/><path class="cls-2" d="M715.71,622.48a7.07,7.07,0,0,0,6.4-4.08l23.76-51h78.79a7.06,7.06,0,1,0,0-14.12H741.37a7.05,7.05,0,0,0-6.4,4.08l-25.66,55.07a7.06,7.06,0,0,0,6.4,10Z"/><rect class="cls-2" x="749.86" y="552.81" width="90.58" height="29.27" rx="4.44" transform="translate(1590.29 1134.9) rotate(-180)"/><polygon class="cls-6" points="258.81 1022.78 595.14 1026.24 746.45 553.28 517.74 550.74 258.81 1022.78"/><rect class="cls-2" y="1307.89" width="282.29" height="22.88"/><rect class="cls-2" x="253.31" y="995.38" width="377.33" height="29.71"/><rect class="cls-2" x="345.54" y="978.43" width="31.16" height="369.29" transform="translate(629.79 -24.77) rotate(29.99)"/><path class="cls-7" d="M630.63,995.38c-6.88,0-33.09-24.71-74.2-23.37s-270.49,0-270.49,0S256,968.81,253.2,995.38Z"/><path class="cls-2" d="M232.82,1399.09a41.45,41.45,0,1,1,41.45,41.44A41.45,41.45,0,0,1,232.82,1399.09Z"/><path class="cls-6" d="M288.49,1399.09a14.23,14.23,0,1,0-14.22,14.23A14.22,14.22,0,0,0,288.49,1399.09Z"/><path class="cls-2" d="M1202.74,1326s25.35,23.14,20.4,39.57-27.82,27.4-30.91,47.49-15.46,31-26.59,31h-53.05s-8.19-14.13,11.59-18.4,27.24-27.86,26-49.78,1.85-51.13,1.85-51.13l42-9.74Z"/><path class="cls-2" d="M988.19,1335.86s9.1,99.19-2,104.67H842.51s1.26-17.92,24.13-21.57,63.06-17,69.86-46.87S988.19,1335.86,988.19,1335.86Z"/><path class="cls-3" d="M1089.68,632.81c-29.3-65.73-47.24-84.59-43.81-105,2.54-15.19-7.76-283.09-7.76-283.09-3.48-1.07-10.45-2-14.26-2.89a35.74,35.74,0,0,1-26.11-22.7c-5-14-9-34.6-8.87-60.45l-3.75.74L922,171.93s1.43,19.87,1.48,38.58V211a36.32,36.32,0,0,1-26.2,35.11c-8,2.3-14.91,4.27-14.91,4.27s-23.18,66.17-27.61,134.15,42.15,97.52-.35,233.37C811,756.62,1105.87,669.13,1089.68,632.81Z"/><path class="cls-8" d="M922,171.93s1.43,19.87,1.48,38.58c35.32-1,54-33.22,61.64-51.08Z"/><path class="cls-3" d="M910.2,189.65S993.78,191,993.83,139,1004.72,52,951.36,49s-63.75,16.77-68,34.14S888.47,188,910.2,189.65Z"/><path class="cls-1" d="M913.29,47.67s22.89,61.08,58,70.11,50.35-.38,50.35-.38S994.71,96,989.12,58.65C989.12,58.65,930.55,18.6,913.29,47.67Z"/><path class="cls-1" d="M919,52.63S902,59,895,71.35c-6.84,12.1-12.65,28.13-11.3,47.79,0,0-17.24-41.51,2.13-65C906.4,29.24,919,52.63,919,52.63Z"/><path class="cls-4" d="M866.63,515.63l82.91,24.77L975.83,534l74.78-18.33s9.67-3.22,18.23-23c1.63-3.73,4.55-15.14,7.6-28.61,3.39-15,6.89-32.5,8.87-44.89,2.9-18.24,8.7-40.94,13.77-65.41h0c3.71-17.89,7-36.72,8.51-55.45a47.06,47.06,0,0,0-41.73-50.48l-27.75-3.06c-88.09,71.86-155.75,5.62-155.75,5.62S859.19,291.56,844,350.89,866.63,515.63,866.63,515.63Z"/><path class="cls-9" d="M871.91,531.63S830.84,659.43,828.21,703s78.48,618.14,81.75,638.19c3.07,18.9,26.54,30.95,26.54,30.95s10.8,6.36,26.2,2c21.37-6,28.13-13.26,28.13-13.26s32-409.82,12.18-556.22-20-273-20-273Z"/><path class="cls-10" d="M1045.87,527.82s62.63,84,68.47,140.85,9.16,256.35,21.6,311.73,58.14,161.95,58.14,334.69c0,0-4.75,9.9-19.42,15.17a156.49,156.49,0,0,1-17.08,4.72,26.83,26.83,0,0,1-30-14.25c-30.91-62.22-129.33-262.87-134.38-304.52-3.57-29.48-34.65-224.57-102.44-339-16.27-27.49,10-136.78,10-136.78Z"/><path class="cls-2" d="M865.35,511.9s16.48,13,49.23,13.7c39.11.79,136-10,136-10a80.35,80.35,0,0,1,4.13,24.74s-118.37,29.85-187,4.35C867.78,544.72,858.94,528.08,865.35,511.9Z"/><path class="cls-5" d="M1006,511.9c32-16.37,54.61-32.51,70.41-47.87,3.39-15,6.89-32.5,8.87-44.89,2.9-18.24,13-63.35,18-87.81L970.18,523.14S964.19,533.3,1006,511.9Z"/><path class="cls-5" d="M958.88,384.08S899.66,478.1,882.5,495s70-13.43,70-13.43Z"/><path class="cls-3" d="M824.19,534.93c-2,1.5-37.1-3-48.41,4.17s-22.16,26.92-17.09,34,29.11-14.15,36.18-13.79,27.35-5.91,27.35-5.91Z"/><path class="cls-4" d="M1103.34,331.33S1040.9,497.59,983,531.63s-160.78,25.81-160.78,25.81-3-4.56-3.8-14.27c-.4-4.79,3.8-11.54,3.8-11.54s104.62-70,109.25-81.86c21.07-53.95,51.59-123,64.31-132.16S1089.05,296.69,1103.34,331.33Z"/><path class="cls-3" d="M161.57,677.68s-9.18,0-15.11-4.08c-5.33-3.69-15.23-9.92-24.68-9.22-18,1.33-52.88-18.3-54.21-9.65s19.13,39.09,46.25,39.93c10,.3,37.6,11.31,37.6,11.31Z"/><path class="cls-11" d="M385.58,481c-.95,2.58-84.87,188.14-111.31,192-33.58,4.92-121.19-5.33-121.19-5.33l-10.94,44.08s80.35,42.87,151.79,34.33S405.66,643.62,405.66,643.62Z"/><path class="cls-12" d="M210.07,1228.05s5,79.62-7.57,80.84c-1.67.16-63.76.7-63.76.7l-80.1.69s1.18-23.41,24.32-28.44,61.77-24.85,75.54-61.61C173,1181.56,210.07,1228.05,210.07,1228.05Z"/><path class="cls-13" d="M507.69,825s27.65,95-8.76,128.37c-42.46,38.9-276.08,14.36-272.79,36.81,5.63,38.45-14.27,255.11-14.27,255.11s-46.53,9.71-76.11.73c0,0-34.51-311.5,4.93-351.6,57.56-58.52,251.42-98.15,251.42-98.15Z"/><path class="cls-14" d="M294.18,1228.11s5,79.62-7.57,80.84c-1.67.16-63.77.7-63.77.7l-80.09.69s1.18-23.41,24.31-28.44,61.78-24.85,75.55-61.61C257.09,1181.62,294.18,1228.11,294.18,1228.11Z"/><path class="cls-15" d="M589.86,825s27.65,95-8.77,128.37c-42.45,38.9-275.81,14.32-272.78,36.81,8.76,65.23-10.69,260.33-10.69,260.33s-50.12,4.49-79.7-4.49c0,0-44.61-295.62,4.93-351.6,32.05-36.2,229.52-83.78,229.52-83.78Z"/><path class="cls-3" d="M442.3,363s18.6,40.66,10.24,75.26l24,92.82,71.65-93.38S520.28,395.47,514,342Z"/><path class="cls-11" d="M544,878.36c24.32,1.6,45.27.47,58-3.84,9.58-3.22,16.75-89.26,20.34-180.87,4-101.42,3.55-209.67-2.91-219.91-12.46-19.69-70.63-37.38-72.29-37.59-10.15,7.61-34.77,23.2-65.25,22.67-20.63-.34-27.23-13.84-29.34-21.68-8.56.95-33.32,11.88-40.31,14.4-34.92,12.56-34.1,71.36-34.1,71.36s-3.36,218.79-14.56,270.27C353.38,840.1,466,873.24,544,878.36Z"/><path class="cls-3" d="M428.94,386s79.92,25.86,93.49-26.73,43.47-81.89-15.9-103c-48.82-17.39-70.51.75-78.95,17.1S399.64,375,428.94,386Z"/><path class="cls-16" d="M414.44,328.33s-31.3,63.89-6.81,80.76S504.75,437.61,523.82,354c0,0-42.73,14.09-60.35,8.63s-26.53-19.78-44.94-15.51C418.53,347.14,412.62,345.06,414.44,328.33Z"/><path class="cls-16" d="M536.09,281.78c-.12-5.78-5.57-10.28-5.57-10.28-40.56-34.06-79.21-19.44-79.21-19.44,37.23-33.29,102.58-6.35,108.33,34.41C569,353,523.82,354,523.82,354S486,323.07,516,305.42c10-5.85,15.52-11.95,18.25-17.84h0A23.12,23.12,0,0,0,536.09,281.78Z"/><path class="cls-17" d="M421.49,359.56s3.29,10.63,12.68,12.78,15.68-5.24,15.68-5.24S434.86,359.63,421.49,359.56Z"/><path class="cls-18" d="M452.64,815.11,436.48,854s81.62-8.08,96.41,3.89c6.88,5.57,12.48,14.55,11.06,20.46,24.32,1.6,45.27.47,58-3.84,9.58-3.22,16.75-89.26,20.34-180.87L610.67,676,582.43,648.9c-11.74-11.24-30.27-3.48-32,13.47a176.38,176.38,0,0,0-1,17.63C549.46,723.81,483.59,785.48,452.64,815.11Z"/><path class="cls-19" d="M455.33,813.71a61,61,0,0,1-22.25,5.19c-21.92.71-29.08.78-38.45,5.9-5.23,2.86-14.35,11.64-19,17-3,3.39-6.38,17.51-3.27,19.48,5.66,3.58,36.48-8.31,44.82-6.17,6.28,1.62,17.34.36,24.54-3.22s20.61-8,20.61-8Z"/><path class="cls-3" d="M431.28,819.61s-16.36-3.75-23.39-7c0,0-3.81,2.77-1.48,5.18s9,5,9,5Z"/><path class="cls-11" d="M611.91,465.45s44.36,27.83,43.54,150.82,6.57,145.42-14,161.58S504.13,844.43,461.4,847.42c0,0-15.33-17-8.76-35.61,0,0,131.88-94.4,133.52-99.79s-40-103.83-44.1-136.15S611.91,465.45,611.91,465.45Z"/><path class="cls-3" d="M143.68,671.74s-23.18-22.72-26.2-20c-3.17,2.83,4.91,15.22,4.91,15.22Z"/><rect class="cls-2" x="630.63" y="863.87" width="23.35" height="389.54"/><path class="cls-2" d="M668.64,888.58H228.47a48.93,48.93,0,0,1,48.92-48.93h362.1a29.16,29.16,0,0,1,29.15,29.15Z"/><rect class="cls-2" x="262.59" y="874.76" width="23.35" height="488.09"/><path class="cls-7" d="M688.16,1420.67c1.74-7.78-86.22-317-96.25-352.2l-2.87.81c27,94.63,96.78,342.13,96.2,350.83Z"/><path class="cls-7" d="M815.41,1196c-7.78-1.73-317,86.22-352.2,96.26l.81,2.87c94.63-27,342.13-96.78,350.83-96.2Z"/><path class="cls-7" d="M783,1132c-7.85,1.4-259.23,201.75-287.87,224.59l1.86,2.33c76.93-61.35,278.37-221.19,286.62-224Z"/><path class="cls-7" d="M456,1221.49c7.46-2.79,325.85,41.56,362.13,46.63l-.42,3c-97.44-13.61-352.22-48.54-360.75-46.76Z"/><path class="cls-7" d="M708.38,1077.48c-6.11,5.13-124.35,304-137.82,338.11l2.77,1.1c36.17-91.5,131.28-330.43,137-337Z"/><path class="cls-7" d="M495.33,1135.82c7.87,1.3,261.9,198.29,290.84,220.74l-1.83,2.36c-77.73-60.33-281.29-217.47-289.58-220.18Z"/><path class="cls-6" d="M667.15,1249.23a24.84,24.84,0,1,0-24.84,24.84A24.84,24.84,0,0,0,667.15,1249.23Z"/><path class="cls-2" d="M642.31,1440.53c-107.66,0-195.25-87.58-195.25-195.24S534.65,1050,642.31,1050s195.25,87.59,195.25,195.25S750,1440.53,642.31,1440.53Zm0-369.62c-96.15,0-174.38,78.23-174.38,174.38s78.23,174.38,174.38,174.38,174.38-78.23,174.38-174.38S738.46,1070.91,642.31,1070.91Z"/><path d="M479,307.36a1.3,1.3,0,0,0,.19-1.82h0a16.66,16.66,0,0,0-10.1-5.77h0a13.57,13.57,0,0,0-7.93.68h0a1.29,1.29,0,0,0-.6,1.72h0a1.3,1.3,0,0,0,1.73.6h0a11.2,11.2,0,0,1,6.34-.46h0a14.07,14.07,0,0,1,8.55,4.85h0a1.24,1.24,0,0,0,.78.47h0a1.29,1.29,0,0,0,1-.27Z"/><path d="M463.91,319.39a3.12,3.12,0,1,0,3.62-2.53A3.12,3.12,0,0,0,463.91,319.39Z"/><path d="M423.28,295.43a1.3,1.3,0,0,1,.44-1.78h0a16.69,16.69,0,0,1,11.48-1.94h0a13.51,13.51,0,0,1,7.2,3.37h0a1.28,1.28,0,0,1,0,1.82h0a1.28,1.28,0,0,1-1.82,0h0a11.29,11.29,0,0,0-5.8-2.62h0a14.08,14.08,0,0,0-9.69,1.62h0a1.31,1.31,0,0,1-.9.17h0a1.31,1.31,0,0,1-.88-.61Z"/><path d="M433.34,311.93a3.12,3.12,0,1,1-2.53-3.62A3.13,3.13,0,0,1,433.34,311.93Z"/><path d="M942.17,108.94a1.29,1.29,0,0,0,.13-1.82h0A16.63,16.63,0,0,0,932,101.73h0a13.64,13.64,0,0,0-7.89,1h0a1.3,1.3,0,0,0-.53,1.75h0a1.29,1.29,0,0,0,1.74.54h0a11.15,11.15,0,0,1,6.33-.7h0a14.06,14.06,0,0,1,8.72,4.52h0a1.26,1.26,0,0,0,.8.44h0a1.25,1.25,0,0,0,1-.31Z"/><path d="M928,123.57a3.12,3.12,0,1,0,3.52-2.66A3.12,3.12,0,0,0,928,123.57Z"/><path d="M889.51,107.74a1.3,1.3,0,0,1,.12-1.83h0a16.61,16.61,0,0,1,10.94-4h0a13.62,13.62,0,0,1,7.69,2h0a1.3,1.3,0,0,1,.3,1.81h0a1.29,1.29,0,0,1-1.8.29h0a11.31,11.31,0,0,0-6.18-1.54h0a14.06,14.06,0,0,0-9.25,3.31h0a1.31,1.31,0,0,1-.85.33h0a1.28,1.28,0,0,1-1-.44Z"/><path d="M902.64,123.21a3.13,3.13,0,1,1-3.14-3.11A3.13,3.13,0,0,1,902.64,123.21Z"/><path class="cls-17" d="M900.64,154.06s5.3,9.78,14.93,10.05,14.36-8.2,14.36-8.2S913.76,151.52,900.64,154.06Z"/><path class="cls-1" d="M1053.1,54.11c.56,4.12-.31,11.51.9,15.26,2.14,6.61,3,4.32,8.78,9.56,6.91,6.26,13.29,14,15.72,23.07,2.07,7.7-3.6,20.94,0,27.32,4.86,8.66,16.42,6.77,20.14,19.13,4.34,14.44-7,14.75-9.95,26.67s8.39,12.6,14.81,20.14c5.51,6.48,10.44,19.25-2.37,20.88,7.29,5.24,15.24,16.56,10.78,25.85-6.41,13.33-19.46,8-28.88,12.42-11.44,5.38-8.34,21.16-23.68,13-10-5.3-13-11.9-26.64-10.58-5.2.51-8.26,5-14.32,3.17-8-2.41-7.56-12.05-15.94-10.63-3.87.65-10.75,10-15.28,12.1-3.87,1.77-11,4.06-15.6,3.54-8.68-1-8.56-8.22-14.08-12.07-5.77-4-7.28-1.23-13.43-2.62-13.72-3.08-13.85-16.4-7.5-28.2,5.21-9.68,20.6-14.61,23.09-25.73,3.4-15.23-17.93-19.74-19-33.29-1.12-14.23,23.18-16.69,29.45-28.72,7.55-14.46.87-27.5-6.85-39.35-3.47-5.31-9.62-8.07-7.28-16.18,2.07-7.14,5-3.92,9.61-8.3,10.6-10.09,2.1-23.41,10.73-33.35,7.84-9,16-1,24.3-4.42,4.76-1.95,6.51-9,10.79-10.92C1030.13,13.45,1051,38.24,1053.1,54.11Z"/><path class="cls-1" d="M976.35,126.2c.48,11.07,16.34,6.7,17,15.21,0,0,1.22,7.67.9,36.74l1.09,16.29s49-35.88,53.74-120.53c0,0,8.48-43.77-60.5-69.44,0,0-133.78-36.14-120.27,97.17,0,0-1-45.3,24.46-50C892.79,51.66,972.16,29.48,976.35,126.2Z"/><path class="cls-1" d="M1052.58,91.41c.2,13.6,6.53,11,11.72,21.55,4.61,9.37.65,20.17-2.42,28.49-3.68,10-7.28,13.94.29,23.37,6.27,7.84,13.86,8.44,15.32,20.09,1.39,11.12-10.46,19.49-7.21,29,2.65,7.82,18.85,13.35,12.36,26.14-4.64,9.13-24.86,5.8-33.17,7-14.65,2-12.36,9.79-21.55,19.21-9.9,10.14-21.16,6.92-31.16,3.77-4.8-1.52-9.24-4.13-14.41-3.8-6.29.4-7.81,4.95-13.13,6.32-15.21,3.91-46.48-14.75-48.28-29.1-2-15.95,10.74-12.21,15.61-25.17,3.46-9.22-1.53-19.37,3-28.5,10.05-20.42,33.11-10.87,28.74-39.83-1.37-9.09-1.86-16,.86-24.24,3.73-11.29-.69-27.51-5.41-37.88-2.39-5.25-5.32-11.06-10.17-14.48-13.6-9.61-17.17-8.63-18.12-27.47C924,42.46,915.73,33,922.68,20.49,928.26,10.43,946.27,9.08,956.3,7,981,2,1006.09,12.19,1026,27.12,1046.17,42.26,1052.27,68.89,1052.58,91.41Z"/><circle class="cls-20" cx="915.61" cy="104.44" r="3.73"/></g></g></svg>