<svg xmlns="http://www.w3.org/2000/svg" viewBox="0 0 500.25 447.33"><defs><style>.cls-1{fill:#aec3ff;}.cls-2{fill:#d4e4f8;}.cls-3{fill:#d2e0ff;}.cls-4{fill:#bbd0ff;}</style></defs><g id="Layer_2" data-name="Layer 2"><g id="_лой_1" data-name="‘лой_1"><path class="cls-1" d="M290.71,253.16s-31.15-36.35-1.92-59.44c0,0,21.35-12.92,38.76-11.87,0,0-24.67,41.37-16.69,45.48S335,179.25,335,179.25s48.59-4.71,64.23,2.8c0,0-41.54,34-32.8,36s53.62-31.34,53.62-31.34,45.23,7.7,42.82,35.29-18,36.1-24.85,35.37-46.91-16-47.78-10.42,23.24,24,40.13,24.82c0,0-31.89,35.16-53.08,25s-23-26.23-36.21-32.27-24.48-6-19,.14S351.44,276.8,359,290.16s14.33,22.38-7.6,19.08-57.56-19.34-59.12-37.71Z"/><path class="cls-1" d="M440.68,222.76s-122.84-4.73-150,30.4c0,0-6,18-24.46,34.33l-2.88,7.84s21.29-22.45,28.91-23.8C292.28,271.53,280.36,228,440.68,222.76Z"/><path class="cls-1" d="M266.25,287.49s-26.37,19.5-28.2,54.34l4.79.42s8.42-36,23.64-50.11S266.25,287.49,266.25,287.49Z"/><path class="cls-2" d="M181.78,207.45s49.56-27.76,26.43-65.42c0,0-18.5-23.13-38.32-29.07,0,0,10.57,56.16,0,57.48S162.62,107,162.62,107,110.42,81.9,89.93,83.88c0,0,32.38,54.85,21.81,53.52S64.82,80.58,64.82,80.58,11.3,70.67,2.71,102.38,8,150,15.93,151.94s58.81,1.32,57.48,7.93S37.73,177.05,18.57,171.1c0,0,21.14,52.21,48.9,49.56s36.34-19.82,53.52-21.14,29.74,3.3,21.15,7.93S104.47,209,90.59,220.76s-25.1,19.07.67,24.35,72,2,81.27-17.84Z"/><path class="cls-2" d="M27.16,112.29s138.76,44.94,154.62,95.16c0,0-.66,22.46,13.22,48.23v9.92s-14.54-33.7-22.47-38.33C172.53,227.27,203.59,183.66,27.16,112.29Z"/><path class="cls-2" d="M195,255.68s21.4,32.5,9.2,72.06l-5.51-1.48s5.35-43.57-5.85-65.48S195,255.68,195,255.68Z"/><path class="cls-3" d="M260.63,169.17s-65.33-36.58-34.84-86.23c0,0,24.39-30.49,50.52-38.33,0,0-13.94,74,0,75.78s9.58-83.62,9.58-83.62S354.7,3.67,381.7,6.29c0,0-42.68,72.29-28.74,70.55S414.8,1.93,414.8,1.93s70.56-13.06,81.88,28.75-7,62.71-17.42,65.33-77.52,1.74-75.78,10.45,47,22.64,72.29,14.81c0,0-27.87,68.81-64.45,65.32s-47.91-26.13-70.56-27.87-39.19,4.36-27.87,10.45,49.65,2,67.94,17.55,33.1,25.13-.87,32.1S285,221.43,272.82,195.3Z"/><path class="cls-2" d="M464.45,43.74S281.53,103,260.63,169.17c0,0,.87,29.62-17.42,63.59v13.06s19.16-44.42,29.61-50.52C272.82,195.3,231.88,137.81,464.45,43.74Z"/><path class="cls-2" d="M243.21,232.76s-28.21,42.83-12.13,95l7.26-1.95s-7.05-57.43,7.71-86.32S243.21,232.76,243.21,232.76Z"/><path class="cls-1" d="M258.43,440.82a128,128,0,0,0,128-128H130.46A128,128,0,0,0,258.43,440.82Z"/><path class="cls-1" d="M388.16,447.33H128.69a15.79,15.79,0,0,1,15.79-15.79H372.37a15.79,15.79,0,0,1,15.79,15.79Z"/><rect class="cls-4" x="126.25" y="312.85" width="263.05" height="3.93"/></g></g></svg>