<svg xmlns="http://www.w3.org/2000/svg" viewBox="0 0 799.33 971.96"><defs><style>.cls-1{fill:#42669b;}.cls-2{fill:#6284bf;}.cls-3{fill:#f99746;}.cls-4{fill:#f9ddbf;}.cls-5{fill:#ffefe1;}.cls-6{fill:#739be0;}</style></defs><g id="Layer_2" data-name="Layer 2"><g id="_лой_1" data-name="‘лой_1"><polygon class="cls-1" points="188.43 371.55 502.24 372.08 456.03 165.03 142.22 164.5 188.43 371.55"/><polygon class="cls-2" points="178.51 371.8 492.32 372.33 446.12 165.01 132.31 164.48 178.51 371.8"/><polygon class="cls-1" points="317.58 423.42 382.77 424.01 337.64 286.45 272.45 285.86 317.58 423.42"/><rect class="cls-1" x="274.94" y="417.46" width="105.37" height="6.56" transform="translate(655.25 841.47) rotate(180)"/><polygon class="cls-1" points="98.68 407.25 105.5 407.25 105.5 289.74 35.69 111.58 160.35 14.98 156.17 9.58 27.47 109.31 98.68 291.03 98.68 407.25"/><path class="cls-1" d="M174.44,27.29h0a7,7,0,0,0,1.65-9.71L165.71,2.94A7,7,0,0,0,156,1.28h0A7,7,0,0,0,154.35,11l10.38,14.64A7,7,0,0,0,174.44,27.29Z"/><circle class="cls-1" cx="33.13" cy="109.53" r="9.04" transform="translate(-24.37 10.59) rotate(-13.34)"/><path class="cls-1" d="M69,403.87h68.67a0,0,0,0,1,0,0v6.43a13.12,13.12,0,0,1-13.12,13.12H81.57A12.61,12.61,0,0,1,69,410.8v-6.93A0,0,0,0,1,69,403.87Z" transform="translate(206.59 827.29) rotate(180)"/><rect class="cls-1" x="94.92" y="298.06" width="14.42" height="109.19" transform="translate(204.26 705.32) rotate(180)"/><path class="cls-3" d="M159,128.64c.33.36.65.73,1,1.07l.07.08c.32.35.63.69,1,1,9.33,8.09,40.23-6.41,70.13-33.15s47.75-55.84,40.75-66c-.29-.37-.59-.72-.91-1.08l-.07-.07c-.3-.38-.63-.74-.95-1.1a74.43,74.43,0,1,0-111,99.23Z"/><path class="cls-4" d="M160,129.72l.06.06.31.38a6.86,6.86,0,0,0,.67.65c9.31,8.08,40.23-6.4,70.12-33.15s47.75-55.83,40.76-66c-.19-.25-.38-.51-.58-.73a2.19,2.19,0,0,0-.34-.34l-.07-.09c-6.35-6-23.58-.65-43.71,12.39a219.53,219.53,0,0,0-26.67,20.54,232.36,232.36,0,0,0-19,19.08C163.36,103.1,154.22,122.11,160,129.72Z"/><path class="cls-5" d="M181.5,82.51a30.69,30.69,0,0,0,45.69-39.62,219.53,219.53,0,0,0-26.67,20.54A232.36,232.36,0,0,0,181.5,82.51Z"/><path class="cls-6" d="M55,972h-.47c-2.78,0-5-3.64-4.95-8.07l7.51-518.44,22.12-4.11L60.37,963.93C60.2,968.44,57.86,972,55,972Z"/><path class="cls-6" d="M747.65,972h.48c2.78,0,5-3.64,5-8.07l-7.51-518.44-22.12-4.11,18.86,522.59C742.47,968.44,744.82,972,747.65,972Z"/><rect class="cls-6" y="423.7" width="799.33" height="31.28" rx="11.03"/></g></g></svg>