<svg xmlns="http://www.w3.org/2000/svg" viewBox="0 0 1049.52 842.52"><defs><style>.cls-1{fill:#355389;}.cls-2{fill:#96d9c9;}.cls-3{fill:#fff;}.cls-4{fill:#50bfa5;}.cls-5{fill:#f48c7f;}</style></defs><title>Human_Inner_Portraite</title><g id="Layer_2" data-name="Layer 2"><g id="Layer_1-2" data-name="Layer 1"><rect class="cls-1" width="1049.52" height="842.52"/><rect class="cls-2" x="18.68" y="26.39" width="1012.16" height="789.75"/><path class="cls-3" d="M258.54,120.5c0,26.69,14.8,48.33,33.06,48.33s33.06-21.64,33.06-48.33-14.8-48.32-33.06-48.32-33.06,21.64-33.06,48.32"/><path class="cls-3" d="M318.67,129.67c-.6,5.65,1.67,10.52,5.06,10.88s6.62-3.93,7.22-9.58-1.67-10.52-5.06-10.88-6.62,3.93-7.22,9.58"/><path class="cls-3" d="M253.73,131c.64,5.65,3.91,9.91,7.3,9.52s5.61-5.28,5-10.92-3.91-9.91-7.3-9.52-5.61,5.28-5,10.92"/><path class="cls-3" d="M166.77,452.14c4.11-10.58,12-22.92,12-22.92s1.18-57.6,5.58-71.12,9.4-26.74,10.29-34.68-1.18-63.78,2.65-80.53,13.74-32,24-37.62,46.51-17.34,49.75-24.1-.59-37.91-.59-37.91L291.6,137v0h.08v0l21.09,6.26s-3.82,31.15-.59,37.91,40.85,21.6,51.14,27.19,18.81,17.78,22.63,34.53,1.76,72.59,2.65,80.53,5.88,21.16,10.29,34.68,5.58,71.12,5.58,71.12,7.94,12.34,12.05,22.92S408,495,400.64,493s1.76-22.63-1.76-27.92-6.76-4.7-7.94-.88.59,10.87-1.47,10.87-7.05-11.46-6.17-20.87,3.82-17.63,2.06-24.69-23.07-72.2-26-84.25S356,277,353,276.09c0,0-5.58,28.51-11.46,53.49l4.7,38.79s7.05,53.2,9.11,69.65-5.58,129.61-5.58,129.61,5.88,37.91,5.58,58.19S342.74,728.7,342.74,728.7s2.94,20.87,9.4,29.68,1.76,15.87-5,19.1-19.1,5.58-22.34,4.7c0,0-2.94,0-2.06-17.34s1.76-32.62-.29-37.91.29-7.94,1.76-14.11-16.46-99.19-13.81-112.12,3.09-30,4-40.54-20.72-103-20.72-103h-4s-21.75,93.11-20.86,103.69,2,29.39,4.63,42.32-15.8,103.51-14.33,109.68,3.82,8.82,1.76,14.11-1.18,20.57-.29,37.91-2.06,17.34-2.06,17.34c-3.23.88-15.58-1.47-22.34-4.7s-11.46-10.29-5-19.1,9.41-29.68,9.41-29.68-12.34-82.59-12.64-102.86,5.58-58.19,5.58-58.19S225.84,454.49,227.9,438,237,368.38,237,368.38l4.7-38.79c-5.88-25-11.46-53.49-11.46-53.49-2.94.88-3.52,55.8-6.46,67.85s-24.1,78.51-25.87,85.57,1.18,15.28,2.06,24.69-4.11,20.87-6.17,20.87-.29-7.05-1.47-10.87-4.41-4.41-7.94.88S190,490.94,182.64,493s-20-30.27-15.87-40.85"/><rect class="cls-4" x="515.22" y="55.56" width="457.79" height="736"/><path class="cls-5" d="M347.67,264.28a21,21,0,1,1-21-21,21,21,0,0,1,21,21"/><path class="cls-5" d="M261.09,391.52a21,21,0,1,1-21-21,21,21,0,0,1,21,21"/><path class="cls-5" d="M368.66,577.8a21,21,0,1,1-21-21,21,21,0,0,1,21,21"/><path class="cls-5" d="M327.34,82.92a21,21,0,1,1-21-21,21,21,0,0,1,21,21"/><rect class="cls-2" x="553.62" y="123.91" width="404.04" height="60.34"/><path class="cls-4" d="M617.9,154.74a21,21,0,1,1-21-21,21,21,0,0,1,21,21"/><rect class="cls-2" x="553.62" y="209.18" width="404.04" height="60.34"/><path class="cls-4" d="M617.9,240a21,21,0,1,1-21-21,21,21,0,0,1,21,21"/><rect class="cls-2" x="553.62" y="298.38" width="404.04" height="60.34"/><path class="cls-4" d="M617.9,329.21a21,21,0,1,1-21-21,21,21,0,0,1,21,21"/></g></g></svg>