<svg xmlns="http://www.w3.org/2000/svg" xmlns:xlink="http://www.w3.org/1999/xlink" viewBox="0 0 618.95 946.31"><defs><style>.cls-1,.cls-18,.cls-19,.cls-20{fill:none;}.cls-2{fill:#acbfe2;}.cls-3{fill:#f68f32;}.cls-4{fill:#f37621;}.cls-5{fill:#212529;}.cls-6{fill:#f9ac74;}.cls-7{fill:#1d3865;}.cls-8{fill:#0f3f5e;}.cls-9{fill:#1b4f79;}.cls-10{fill:#f69253;}.cls-11{fill:#1d1c1a;}.cls-12{opacity:0.2;}.cls-13{clip-path:url(#clip-path);}.cls-14{clip-path:url(#clip-path-2);}.cls-15{fill:#fff;}.cls-16{clip-path:url(#clip-path-3);}.cls-17{clip-path:url(#clip-path-4);}.cls-18,.cls-19,.cls-20{stroke:#eaeae9;stroke-miterlimit:10;}.cls-18{stroke-width:4px;}.cls-19{stroke-width:3px;}.cls-20{stroke-width:2px;}.cls-21{fill:#eaeae9;}</style><clipPath id="clip-path"><rect class="cls-1" x="188.75" y="82.38" width="21.53" height="20.78"/></clipPath><clipPath id="clip-path-2"><rect class="cls-1" x="188.75" y="82.38" width="21.53" height="20.78"/></clipPath><clipPath id="clip-path-3"><rect class="cls-1" x="219.87" y="75.99" width="21.53" height="20.78"/></clipPath><clipPath id="clip-path-4"><rect class="cls-1" x="219.87" y="76" width="21.53" height="20.78"/></clipPath></defs><title>Slide_2_Left_1</title><g id="Layer_2" data-name="Layer 2"><g id="Layer_1-2" data-name="Layer 1"><polygon class="cls-2" points="185.12 932.22 163.82 932.22 157.84 661.25 190.38 661.25 185.12 932.22"/><polygon class="cls-2" points="277.66 932.22 70.56 932.22 70.56 913.51 176.12 903.99 277.66 913.51 277.66 932.22"/><path class="cls-2" d="M50.44,929.28a17,17,0,1,1,17,17,17,17,0,0,1-17-17"/><path class="cls-2" d="M257.54,929.28a17,17,0,1,1,17,17,17,17,0,0,1-17-17"/><path class="cls-2" d="M270.24,679H78a17.78,17.78,0,0,1-17.78-17.78H288A17.78,17.78,0,0,1,270.24,679"/><path class="cls-3" d="M30.21,661.25A29.56,29.56,0,0,1,.65,631.69V395.52c0-46.76,30.57-84.66,68.28-84.66h154.4c37.71,0,68.28,37.9,68.28,84.66V661.25Z"/><path class="cls-4" d="M33.26,661.25A16.21,16.21,0,0,1,17.05,645V395.52c0-46.76,30.57-84.66,68.28-84.66h154.4c37.71,0,68.28,37.9,68.28,84.66V661.25Z"/><path class="cls-3" d="M391.09,661.25H18.73a18.73,18.73,0,1,1,0-37.46H391.09a18.73,18.73,0,0,1,0,37.46"/><path class="cls-5" d="M146,17.76c-1-2.35-12.68-27.35-52.35-13.71,0,0,20.13-5.07,26.7,2.12,0,0-17.11-5.44-26.5,2s-8.5,28.55-6.21,34.73,15.81,23.74,23.23,22.83a22.13,22.13,0,0,0,8.21-3.13A98.37,98.37,0,0,0,117.42,74c-3.35,38,24.76,63.22,36.66,54.7,7.63-5.47,15.57,8.09,15.57,8.09l56.87-98.26s-54.24-51-80.52-20.78"/><path class="cls-6" d="M252.69,249.17c-53.86,24.07-94.36-60.9-90.84-61.77,5.39-6.09,10.94-27.8,7-59l2.79.19L218.47,132s.73,14.53,2.34,28.09c1.07,8.91,2.54,17.4,4.44,21.11.56,1.1,10.71,2.56,10.74,2.59.79.86,31.07,58.94,16.7,65.36"/><path class="cls-7" d="M596.52,944.95h-94.4s-2.26-14.39,2.67-25.3c4.72-10.47,7.74-13.34,2.61-25.45,6,6.17,23.52,10.64,37.17,8.8,1.67,2.71,10.79,17.22,16.38,21.23,6.17,4.43,33.68,2.85,35.58,20.72"/><path class="cls-7" d="M430.31,944.14h-94.4s-2.26-14.39,2.67-25.3c4.72-10.47,13.93-17.48,16.64-29.56,6,6.18,9.49,14.74,23.14,12.91,1.67,2.71,10.79,17.22,16.38,21.23,6.17,4.43,33.68,2.85,35.58,20.72"/><path class="cls-6" d="M540.41,203.32l11,15.27s-4.81,4.14-12.48,10.71c-2.32,2-3.72,3-3.72,3-6.2,5.2-13.82,11.25-22.1,17.88l-.1.12c-14.45,11.12-30.89,23.35-45.83,32.81-1.35.84-2.69,1.66-4,2.44-9.06,5.4-17.42,9.65-24.22,12a17.58,17.58,0,0,1-2.35.66c-19.8,5.33-59.77-1.61-99-13.58-5.41-1.64-10.75-3.39-16-5.06-19.24-6.42-37.38-13.77-52.09-21.29a152.77,152.77,0,0,1-22.37-13.15,61.26,61.26,0,0,1-5.71-4.44c-31.82-26.06-16.86-51.36-10.81-51.4,7.55-.09,18.15,1.91,30.39,5,19.3,5.21,43.08,13.48,66.39,22.09,12.81,4.69,25.52,9.49,37.46,13.66,7.14,2.66,14,5.06,20.23,7.22,12,4.07,22,7,29,8.11,4.53.73,12.92-.87,23.22-3.68,2.73-.73,5.61-1.58,8.61-2.47,16.6-5,36.52-12.42,53.83-19.3,8.52-3.33,16.45-6.59,23-9.31,10.63-4.36,17.58-7.31,17.58-7.31"/><path class="cls-8" d="M104,500.83s-21.18,66,26.08,97.33c63.33,42,238.91,6.19,258.95,27.62,5.07,5.43-10.27,8.17-18.93,85.75-12.45,111.57-22.54,174-22.54,174a28.79,28.79,0,0,0,15.46,19.34c8.72,4.32,19.78,1.65,19.78,1.65S511.82,623.36,499,584.08c-22.24-68-145.41-61.36-288.18-101.56C123.61,458,104,500.83,104,500.83"/><path class="cls-9" d="M170.88,499.4c62.69-5.8,233.77-8.75,270.77,16.67,45.53,31.28,107.42,389,107.42,389s-4.76,3.78-15.11,4.8c-9.63.94-30.54-5.22-30.54-5.22S401.69,743.56,395.57,703.25s-3-76.17-20.18-77.37-253.64,26-273.82-38.66c-15.77-50.55,3.13-99.45,3.13-99.45s8.33,17,66.17,11.63"/><path class="cls-9" d="M301.24,292.31c3.88,14.21,7.07,26.93,8.63,35.52,7.22,39.53,14.93,164.48,14.93,164.48-64,98.85-243.67,64.8-243.67,64.8-3.93-37.47,11.12-120.81,20.26-195,2.24-18.18,4.12-35.79,5.3-52a327.31,327.31,0,0,1,4.83-38c15.2-79.25,51.59-86.64,51.59-86.64,18.27,19.44,58.75,23,58.75,23,.72-20,3-28.14,3-28.14,7.3.87,42.77,8,49.72,10.59,8.21,3,76.48,34.15,76.48,34.15s2.19,50.16-49.81,67.25"/><path class="cls-10" d="M218.48,132s.72,14.52,2.35,28.09c-25.69,2.41-42.07-19.29-49.19-31.55Z"/><path class="cls-6" d="M228.59,143.83s-60.43,8.4-65.09-29.31-15.59-62,22.8-69S234,52,238.6,64.24s5.59,76.43-10,79.59"/><path class="cls-11" d="M241.23,80.64a2.82,2.82,0,0,0-.52.16A11.52,11.52,0,0,0,228.4,75.5a11.38,11.38,0,0,0-9.23,12.31l-.42.09a.29.29,0,0,1-.18-.12c0-.06-.15-.28-.25-.47-.59-1.18-1.81-3.63-4.13-3.29l-.52.11c-2.27.6-2.43,3.33-2.5,4.65,0,.21,0,.46,0,.53a.28.28,0,0,1-.11.18l-.42.09a11.39,11.39,0,0,0-13.33-7.68,11.52,11.52,0,0,0-9.22,9.73,2.82,2.82,0,0,0-.54.06c-.88.18-1.51.71-1.41,1.19l.41,2c.1.47.88.71,1.75.54a11.57,11.57,0,0,0,22.6-4.78l.24-.05.12,0a1.31,1.31,0,0,0,1-1,3.8,3.8,0,0,0,.08-.75c.07-1.14.19-3.25,1.66-3.64l.39-.08c1.51-.22,2.45,1.68,3,2.7a3.91,3.91,0,0,0,.37.66A1.31,1.31,0,0,0,219,89l.12,0,.24,0A11.57,11.57,0,0,0,242,84.36c.87-.18,1.5-.71,1.4-1.18l-.41-2c-.1-.48-.89-.72-1.77-.53M201.6,102.93a10.38,10.38,0,1,1,8.47-12.32,10.58,10.58,0,0,1-8.47,12.32m31.12-6.39a10.38,10.38,0,1,1,8.47-12.33,10.58,10.58,0,0,1-8.47,12.33"/><g class="cls-12"><g class="cls-13"><g class="cls-14"><path class="cls-15" d="M197.43,82.62a10.38,10.38,0,1,0,12.64,8,10.58,10.58,0,0,0-12.64-8"/></g></g></g><g class="cls-12"><g class="cls-16"><g class="cls-17"><path class="cls-15" d="M228.55,76.23a10.38,10.38,0,1,0,12.64,8,10.58,10.58,0,0,0-12.64-8"/></g></g></g><path class="cls-15" d="M186.74,94.2a1.28,1.28,0,0,1-.17-.29,1.76,1.76,0,0,1-.1-.33,1.68,1.68,0,0,1,0-.4,1.26,1.26,0,0,1,.08-.41.78.78,0,0,1,.09-.18.82.82,0,0,1,.12-.14.71.71,0,0,1,.13-.09.33.33,0,0,1,.11,0l.1,0-.07.07a.43.43,0,0,0-.06.08l-.06.11s0,.08-.05.13a1.49,1.49,0,0,0,0,.15,2.07,2.07,0,0,0,0,.35c0,.12,0,.24,0,.36s0,.23,0,.33,0,.33,0,.33"/><path class="cls-15" d="M211.91,87.1a2.13,2.13,0,0,1,0-.54A2.83,2.83,0,0,1,212,86a2.72,2.72,0,0,1,.12-.3,3.24,3.24,0,0,1,.16-.3,3.07,3.07,0,0,1,.21-.27,1.68,1.68,0,0,1,.25-.23,1.17,1.17,0,0,1,.26-.18,1.2,1.2,0,0,1,.26-.12l.23-.07.18,0h.16l-.14.07-.16.07-.19.11a1.69,1.69,0,0,0-.21.15,1.77,1.77,0,0,0-.21.19,2.21,2.21,0,0,0-.2.22c-.06.07-.12.16-.18.25a5.43,5.43,0,0,0-.48,1c-.1.3-.17.51-.17.51"/><path class="cls-15" d="M241.21,81.18a.84.84,0,0,1,.24-.14,1.22,1.22,0,0,1,.61-.07l.17,0a.86.86,0,0,1,.16.08.61.61,0,0,1,.2.23.41.41,0,0,1,0,.2.44.44,0,0,1,0,.07l-.05-.05-.05-.06-.07-.06-.09-.06-.1,0a1.33,1.33,0,0,0-.25-.06l-.27,0-.25,0-.27,0"/><path d="M233.07,73.28a9.8,9.8,0,0,0-6.8-.54,7.77,7.77,0,0,0-3.85,2.16A.9.9,0,1,1,221,73.77,9.41,9.41,0,0,1,225.81,71a11.56,11.56,0,0,1,8.05.66.9.9,0,0,1-.16,1.67.87.87,0,0,1-.62-.06"/><path d="M228.84,86.32a2.17,2.17,0,1,0,1.53-2.66,2.17,2.17,0,0,0-1.53,2.66"/><path d="M193.94,82a9.79,9.79,0,0,1,6-3.26,7.77,7.77,0,0,1,4.4.4.9.9,0,1,0,.81-1.6,9.42,9.42,0,0,0-5.49-.57,11.57,11.57,0,0,0-7.09,3.88.9.9,0,0,0,.83,1.46.89.89,0,0,0,.54-.31"/><path d="M203.11,92.24a2.17,2.17,0,1,1-2.48-1.8,2.17,2.17,0,0,1,2.48,1.8"/><path class="cls-5" d="M234.24,43.49c-10.75-10.2-17.52-6.85-21.06-3C177.85,26.39,159.81,55.9,159.81,55.9c-.74,27.56-18.36,45.45-18.36,45.45s11.87,5.47,36.51-4.18c7.53-2.95,13.79-9.32,18.87-16.74a142.32,142.32,0,0,1-20.68,32.67c28.68-17.77,35.72-61.53,36.39-66.15,4.1,2.87,12.27,9.19,15.36,16,4.19,9.24,8,28.85,13.65,27.47,0,0,8.81-31.6-7.3-46.91"/><path class="cls-6" d="M540.41,203.32a58.12,58.12,0,0,0,8.35-9.28c3.08-4.62,4.31-9.24,10.16-13.24s12.31-14.47,13.24-12.62-3.08,13.24-2.77,14.47,16.63,4.76,22.78,3,21.55-6.69,21.24-3.61-16.62,20.32-21.86,23.4-20.93,2.16-27.09,4.31-13.05,8.85-13.05,8.85Z"/><path class="cls-6" d="M580.78,187.77s16-12.93,23-11.29l-11.49,11.29Z"/><path class="cls-6" d="M594.74,201.32,619,185.1a15.11,15.11,0,0,0-9.39,0c-4.93,1.69-14.83,16.21-14.83,16.21"/><path class="cls-8" d="M240.4,489c-1-.58-123.86,12.84-139-126.84,2.24-18.18,4.12-35.78,5.29-52a327.58,327.58,0,0,1,4.83-38c11.06-1.71,24.32,10.18,30.27,27.84,12.24,36.35,98.3,187.48,98.62,189"/><path class="cls-6" d="M317.09,494.45,310.29,512s-6.09-1.77-15.78-4.62c-2.9-.88-4.55-1.47-4.55-1.47-7.74-2.36-17-5.45-27-8.78h-.15c-17.2-6-36.42-13.16-52.49-20.53-1.44-.68-2.85-1.35-4.23-2-9.47-4.65-17.59-9.34-23.23-13.79a17.46,17.46,0,0,1-1.83-1.61c-15.26-13.7-31.24-51-42.58-90.37-1.58-5.43-3-10.86-4.46-16.14-5.11-19.63-8.83-38.84-10.56-55.28a153.06,153.06,0,0,1-1.18-25.93,61.73,61.73,0,0,1,.61-7.21c4.49-40.89,33.86-42.13,37.19-37.09,4.19,6.28,8.3,16.25,12.34,28.22,6.16,19,12.19,43.46,17.68,67.7,3.06,13.29,6,26.57,9,38.85,1.66,7.44,3.36,14.46,5,20.9,3.16,12.31,6.11,22.31,9,28.73,1.86,4.19,7.77,10.36,15.74,17.46,2.11,1.89,4.38,3.85,6.77,5.86,13.27,11.17,30.33,23.84,45.53,34.6,7.44,5.33,14.49,10.2,20.35,14.22,9.45,6.53,15.72,10.75,15.72,10.75"/><path class="cls-6" d="M315.49,495s30.63-8.67,37.92-6.64S385.7,507,382.19,511.46s-25.54-2.69-35.67-1.33-18,6.36-25.26,5.28-20-6-20-6Z"/><path class="cls-6" d="M315.49,495s15-7.7,19.25-12.08a1.19,1.19,0,0,1,1.86.21c1.14,1.8,2.21,5.28-3,8.74-7.56,5-18.06,3.13-18.06,3.13"/><path class="cls-9" d="M156.32,214s-28.56,13.87-38.53,32.86S106.61,326.51,122,405.32c0,0,46.54-3.06,77-43.4,0,0-11.3-159.28-42.67-147.88"/><path class="cls-15" d="M210.81,123.74c.62,0,6.36,5.13,14,3.7s7.52-7.39,7.52-7.39a33.92,33.92,0,0,0-9.74,0,79.78,79.78,0,0,0-11.74,3.69"/><path class="cls-18" d="M196,330s-30.9,52.25-78.89,47"/><path class="cls-19" d="M327.68,214.74s3.84,40-26.87,45.87"/><path class="cls-18" d="M299.59,508.87s-98,65.71-219.09,31.72"/><path class="cls-20" d="M225.36,180.39s-3,8.1-3.5,28.08c0,0-32.1-.24-58.75-23"/><polyline class="cls-20" points="221.86 208.47 233.44 214.31 234.17 244.62"/><polygon class="cls-21" points="239.29 282.67 206.15 294.24 207.79 312.88 244.57 298.26 241.97 289.67 239.29 282.67"/></g></g></svg>