<svg xmlns="http://www.w3.org/2000/svg" xmlns:xlink="http://www.w3.org/1999/xlink" viewBox="0 0 345.45 956.82"><defs><style>.cls-1{fill:none;}.cls-2{fill:#2c3a64;}.cls-3{fill:#35488b;}.cls-4{fill:#f4ac75;}.cls-5{fill:#e9f2ff;}.cls-6{opacity:0.2;}.cls-7{clip-path:url(#clip-path);}.cls-8{fill:#b2cbfd;}.cls-9{fill:#c97c47;}.cls-10{fill:#b64c41;}.cls-11{fill:#d6716b;}.cls-12{clip-path:url(#clip-path-2);}.cls-13{opacity:0.5;}.cls-14{clip-path:url(#clip-path-3);}.cls-15{clip-path:url(#clip-path-4);}.cls-16{clip-path:url(#clip-path-5);}.cls-17{clip-path:url(#clip-path-6);}.cls-18{fill:#7a97f3;}.cls-19{fill:#fff;}.cls-20{clip-path:url(#clip-path-7);}</style><clipPath id="clip-path"><rect class="cls-1" x="67.3" y="240.88" width="119.56" height="390.99"/></clipPath><clipPath id="clip-path-2"><rect class="cls-1" x="111.98" y="128.99" width="66.84" height="61.85"/></clipPath><clipPath id="clip-path-3"><rect class="cls-1" x="197.74" y="247.97" width="6.75" height="6.75"/></clipPath><clipPath id="clip-path-4"><rect class="cls-1" x="197.74" y="436.96" width="6.75" height="6.74"/></clipPath><clipPath id="clip-path-5"><rect class="cls-1" x="199.44" y="350.59" width="6.75" height="6.74"/></clipPath><clipPath id="clip-path-6"><rect class="cls-1" x="199.44" y="519.07" width="6.75" height="6.75"/></clipPath><clipPath id="clip-path-7"><path class="cls-1" d="M226.72,52.41c2.1,10.62-5.9,63.28-19.1,63.72,0,0-50.58-1.42-49.21-32.9s-4.24-52.87,28.11-53.3h1.62c30.93,0,36.51,12.05,38.58,22.49"/></clipPath></defs><title>DoctorForCounter</title><g id="Layer_2" data-name="Layer 2"><g id="Layer_1-2" data-name="Layer 1"><path class="cls-2" d="M11.83,889.4S-2.42,902.61.36,912,16,927.63,17.74,939.1s8.69,17.72,14.94,17.72H62.5s4.6-8.07-6.52-10.5S40.67,930.41,41.37,917.9s-1-29.19-1-29.19l-23.63-5.56Z"/><path class="cls-2" d="M189.41,956.34a4.69,4.69,0,0,0,.94.32h79.77c-.7-2.82-3.25-8.19-12.59-9.71-12.46-2-34-9.26-38.86-25.19-.15-.51-.29-1-.41-1.57-3.83-17-31.62,5.22-31.62,5.22s-.08.68-.21,1.83c-.64,6.24-2.29,26.46,3,29.1"/><path class="cls-3" d="M254.22,500.88s-4.22,52.68-9.19,116c-6.74,86-14.86,191.68-15.66,211.7-1.39,34.76-7,90.36-7,90.36s-13.2,13.21-39.62,7.64c0,0-23.54-79.37-30.27-163.35-.1-1.38-.21-2.76-.31-4.15-6.26-85.49-16-265.51-16-265.51Z"/><path class="cls-2" d="M254.22,500.88s-4.22,52.68-9.19,116L152.54,763.24c-.1-1.38-.21-2.76-.31-4.15-6.26-85.49-16-265.51-16-265.51Z"/><path class="cls-3" d="M234.94,507.13S158.83,697.92,108.79,787.58,43.11,902.26,43.11,902.26,14.43,890.79,11.83,883c0,0,19.14-173.09,52.65-215.29,18.94-23.84,41.18-95.39,42.22-120.42s6.78-74.54,6.78-74.54Z"/><path class="cls-4" d="M211.62,153.88c-28.35,8.95-77.42-15.2-77.42-15.2s22.12-16.6,24.6-51c0-.47.07-.95.09-1.43.15-2.55.18-5.21.09-8l7.76,6.25,29.05,23.42s-1.49,11.55-2.09,30.79a60.65,60.65,0,0,1,11.09,7.8,44.48,44.48,0,0,1,6.83,7.36"/><path class="cls-4" d="M102.72,135s75-11.82,124.33,20.87c0,0,33.55,219.31,4.34,240.06s-128.67,0-128.67,0Z"/><path class="cls-5" d="M202.74,631.86H67.3S83,400.75,87.53,344.49c3.65-45.63,11.37-155,14.16-194.76l1-14.73,32.33-5.51,55.54,72s8.78,192,8.46,222.21,3.51,148.14,3.69,168,0,40.23,0,40.23"/><path class="cls-5" d="M190.59,201.47l12.14,430.39h63.81s-3-283.07-3.17-309.08,6.93-138-13-155.43c-16.65-14.53-56.7-28.65-56.7-28.65Z"/><path class="cls-5" d="M194.11,128.78s18.19,12.53,17.51,17a84.32,84.32,0,0,1-3.18,11.62l-11.13-2.26,9.39,6.61s-10.65,31.05-16.1,39.7Z"/><g class="cls-6"><g class="cls-7"><path class="cls-8" d="M94.06,257c8-49,100,23.39,92.35,87.59C172.26,463.36,112,595.8,67.3,631.86Z"/></g></g><path class="cls-9" d="M158.79,87.63a3.44,3.44,0,0,0-.41-1.31l.5-.11,7.85-1.7,29.05,23.43s-1.26,10.91-2.15,30.84c-.08-.1-29.94-16.63-34.84-51.14"/><path class="cls-4" d="M204.94,121.13S147.48,119.52,149,83.75,144.21,23.69,181,23.21s43.28,13.47,45.67,25.54-6.71,71.88-21.7,72.39"/><path class="cls-2" d="M226.69,198.75c-1.07-19.5-11.71-51.27-11.8-51.57l3,1.35c.38,1.27,8.84,30.27,9.93,50.18Z"/><path class="cls-2" d="M153,257c-1.07-1.11-27.1-26.15-21.55-43.69,2.16-6.84,6.15-9.52,10.38-11.52,3.94-1.44,13.14-2.93,17.9.06,8.68,5.46,13,20.54,14.33,45.63l-1.06.05c-1.53-29.75-9.2-40.53-14.93-43-7.21-3.05-19.84-1.79-23.82,9.74-2.74,7.94,2.64,19,7.62,26.66,5.54,8.47,11.57,16,11.64,16Z"/><path class="cls-10" d="M155.74,259.69h0a2.57,2.57,0,0,1-3.63,0l-1.78-1.78a2.56,2.56,0,1,1,3.63-3.63l1.78,1.78a2.57,2.57,0,0,1,0,3.63"/><path class="cls-10" d="M173.65,252.24h0a2.57,2.57,0,0,1-2.56-2.56v-2.52a2.56,2.56,0,0,1,5.13,0v2.52a2.57,2.57,0,0,1-2.56,2.56"/><path class="cls-2" d="M220.1,198.75a7,7,0,1,1,7,7,7,7,0,0,1-7-7"/><path class="cls-11" d="M223.78,198.75a3.54,3.54,0,1,1,3.54,3.54,3.54,3.54,0,0,1-3.54-3.54"/><path class="cls-8" d="M195.53,631.86c0-.43-4.43-43.78-3.16-81.46.53-15.92.08-34.64-.35-52.74-.62-25.82-2-50.68.08-66.9,3.57-27.74,2.86-153.86,1.39-167.52-1.43-13.32-.06-27.94,1.26-32.35s-4.42-29.08-4.49-29.33l.67-.17c.27,1,6.49,25.25,5.09,29.93-1.31,4.36-3.26,18.63-1.84,31.86,1.47,13.68,4.27,139.77.7,167.54-2.08,16.16-2.78,41.15-2.16,66.94.44,18.11.89,36.84.35,52.78-1.26,37.63,5.13,81,5.17,81.44Z"/><path class="cls-5" d="M307.69,285.66s17.14,29.5-.83,37.26-19.91-.42-19.91-.42Z"/><path class="cls-5" d="M164.1,303.83s2.72,5.56,2.42,10.55c-.32,5.22-2.77,13.1-2.77,13.1S58,350,37.39,331.17C15.32,311,56.28,159.1,73.8,144.24c7.55-6.41,23.48-10.31,38.18-12.65,8.1-1.29,15.83-2.11,21.58-2.6,5.93-.52,9.76-.68,9.76-.68l-2.39,8.82-9.28,34.29-10.82,40S88.51,278,87.47,284.23s76.63,19.6,76.63,19.6"/><g class="cls-6"><g class="cls-12"><path class="cls-8" d="M178.82,190.83s-27-11.75-46.37-22.45c-12.66-7-19.14-20.07-20.47-36.79,8.1-1.29,15.83-2.11,21.58-2.6.93.3,1.49.5,1.49.5l5.89,7.64Z"/></g></g><path class="cls-5" d="M190.59,201.47l-42-80.14s-15.67,3.18-20.94,8.11c0,0,2.68,24.1,4.76,29.43,0,0,8.11-.93,9.27-.23,0,0-3.94,6-5.1,6.72,0,0,36.53,17,54,36.1"/><path class="cls-2" d="M142,204.55c-2.87-6.34-28.18-60.39-21.73-74.14l2.47-.31c-4.88,10.42,12.66,57.4,20.28,74.23Z"/><g class="cls-13"><g class="cls-14"><path class="cls-8" d="M197.74,251.34a3.37,3.37,0,1,1,3.37,3.37,3.37,3.37,0,0,1-3.37-3.37"/></g></g><g class="cls-13"><g class="cls-15"><path class="cls-8" d="M197.74,440.33a3.37,3.37,0,1,1,3.37,3.37,3.37,3.37,0,0,1-3.37-3.37"/></g></g><g class="cls-13"><g class="cls-16"><path class="cls-8" d="M199.44,354a3.37,3.37,0,1,1,3.37,3.37,3.37,3.37,0,0,1-3.37-3.37"/></g></g><g class="cls-13"><g class="cls-17"><path class="cls-8" d="M199.44,522.44a3.37,3.37,0,1,1,3.37,3.37,3.37,3.37,0,0,1-3.37-3.37"/></g></g><path class="cls-18" d="M162.12,147.18s11.69,5.75,30.59,2.19l-2.12,52.1Z"/><polygon class="cls-3" points="236 208.82 345.42 218.62 278.65 337.23 175.66 331.32 236 208.82"/><path class="cls-8" d="M246.08,208.27s0-16.76,9.31-15.6,12.06,18,12.06,18Z"/><polygon class="cls-18" points="344.71 217.12 235.29 207.32 174.94 329.82 175.68 331.34 236.03 208.84 345.45 218.65 344.71 217.12"/><path class="cls-5" d="M255.4,192.66s15.46,7.59,10,31.92-12.27,37.67-8.31,52.05l73.71,6.77s-8-19.13.89-38.49,2.58-41.48-5.59-43.41Z"/><path class="cls-4" d="M292.21,315.15s-11.21-13.46-8.89-23.2,10.67-12,15.77-8.54,12.52,11.33,11.13,17.35-12.36,17.19-18,14.39"/><path class="cls-4" d="M158.5,307.14s19-8.35,27.68-5.91,20.42,4.17,21.34,7.3-6.25,14.72-16.93,15.3-29.45,5.56-34,0,1.88-16.69,1.88-16.69"/><path class="cls-19" d="M200.36,95.87s1.54,4.8,4.41,5.66,7.48,1.4,8.57,1,3.12-3.37,3.95-4.27A145.85,145.85,0,0,0,201,96Z"/><path d="M203.28,63.44a7.47,7.47,0,0,1,5.07-1.13,5.91,5.91,0,0,1,3.14,1.21.68.68,0,1,0,.93-1,7.19,7.19,0,0,0-3.9-1.56,8.83,8.83,0,0,0-6,1.35.68.68,0,0,0-.18.94.69.69,0,0,0,.48.29.67.67,0,0,0,.46-.11"/><path d="M207.88,72.78A1.65,1.65,0,1,1,206.43,71a1.65,1.65,0,0,1,1.44,1.83"/><path d="M221.09,72.78A1.65,1.65,0,1,0,222.53,71a1.65,1.65,0,0,0-1.44,1.83"/><g class="cls-20"><path d="M227.85,64.52a7.47,7.47,0,0,0-5.07-1.13,5.91,5.91,0,0,0-3.14,1.21.68.68,0,1,1-.93-1,7.19,7.19,0,0,1,3.9-1.56,8.83,8.83,0,0,1,6,1.35.68.68,0,1,1-.77,1.12"/></g><path d="M131,17.09c-.48-.6-1.63-1.12-4.23-1.38a10.57,10.57,0,0,1,4.92-1.16c.7-3.6,2.91-9.92,9.2-11.21a7.82,7.82,0,0,0-4,5.47c7.54-7.1,23.23-11.82,65.9-6.58C259,9.14,238.88,44.46,231.39,48.45s-25.37-8.62-39-8.13-17.1,20-21.83,22.54-2.71-2.19-8.84-5.29-7.17,7.23-5.66,14-7.46,15.31-7.46,15.31l-8.27-9.72C132,67.49,125.59,27.56,129.9,19.3L131,17.09"/></g></g></svg>