<svg xmlns="http://www.w3.org/2000/svg" xmlns:xlink="http://www.w3.org/1999/xlink" viewBox="0 0 900.27 1187.06"><defs><style>.cls-1{fill:none;}.cls-2{fill:#142d4e;}.cls-3{fill:#0b3454;}.cls-4{fill:#225682;}.cls-5{fill:#efefed;}.cls-6{fill:#f9ac74;}.cls-7{fill:#ec8b4c;}.cls-8{fill:#cececd;}.cls-9{fill:#f37621;}.cls-10{fill:#d24b40;}.cls-11{fill:#fff;}.cls-12{fill:#d7d7d7;}.cls-13{fill:#ffae73;}.cls-14{fill:#fddbba;}.cls-15{fill:#f8caa4;}.cls-16{fill:#25468f;}.cls-17{fill:#ff912b;}.cls-18{fill:#fc7600;}.cls-19{fill:#a9c2ff;}.cls-20{fill:#99aef9;}.cls-21{opacity:0.5;}.cls-22{clip-path:url(#clip-path);}.cls-23{clip-path:url(#clip-path-2);}.cls-24{fill:#1e3865;}.cls-25{fill:#f48f4e;}</style><clipPath id="clip-path"><rect class="cls-1" x="216.8" y="883.13" width="93.76" height="66.79"/></clipPath><clipPath id="clip-path-2"><rect class="cls-1" x="188.3" y="968.13" width="105.96" height="93.36"/></clipPath></defs><title>BrokenLegAndDoctor</title><g id="Layer_2" data-name="Layer 2"><g id="Layer_1-2" data-name="Layer 1"><path class="cls-2" d="M588.75,1166.27c-.18,9-1.31,17.44-4.56,20.79H453.89c1.66-4.72,6.35-11.81,19.72-14,15.2-2.46,38.9-9.78,52.73-24.4a39.24,39.24,0,0,0,10.21-18.49c6.13-27.29,50.69,8.36,50.69,8.36a220.66,220.66,0,0,1,1.51,27.71"/><path class="cls-2" d="M787,1166.27c-.18,9-1.31,17.44-4.56,20.79H652.15c1.66-4.72,6.35-11.81,19.72-14,15.2-2.46,38.89-9.78,52.73-24.4a39.26,39.26,0,0,0,10.21-18.49c6.13-27.29,50.69,8.36,50.69,8.36a220.66,220.66,0,0,1,1.51,27.71"/><path class="cls-3" d="M532.64,1153c14.56,4.65,42.39,18.83,60.07,12.15,11.42-4.3,75.29-189,79.43-269.85a206.8,206.8,0,0,1,3.27-24.07c3.78-20.85,10.4-49.51,18-81.13,20.44-84.73,48.08-190.72,47.48-224.6-.93-52.59-156.71-11-156.71-11s-10.71,43.13-12.85,105.58c-4.23,124-15.86,333.34-47.49,478.76-1.34,6.17,2.74,12.26,8.78,14.18"/><path class="cls-4" d="M640.76,565.68l68.41,591.78s52.61,14,80.74,7c0,0,21.61-317.65,19.6-394.39s17.3-205.35-4.41-219.53-164.33,15.11-164.33,15.11"/><path class="cls-5" d="M815.5,208.18s-86.54-56-148.62-27.34C657,185.4,645.71,198.12,637.63,207c-22.44,24.72-87.81,451.28-87.81,451.28s27.13,15,98.86,21.73Z"/><path class="cls-5" d="M669.42,178.15S583,205.65,571.35,245.07c-8.54,28.79-42.7,174.93-42.7,194.79s152.43,104.54,163.23,72.5c9-26.61,8.22-163.49,24.19-215.19L747.95,193Z"/><path class="cls-6" d="M680.16,206.77c19.13,3.75,47.22-.25,67.79-13.81-9.29-22.18-13.09-39.7-14.45-51-.08-.6-.14-1.19-.2-1.75a52.12,52.12,0,0,1-.24-11.69H683.62S670.1,134.68,670.1,139q0,3.43-.06,6.56c-.1,5.69-.33,10.65-.62,14.91-.94,13.87-2.53,20.41-2.53,20.41s-6,22.15,13.27,25.94"/><path class="cls-7" d="M669.42,160.42c37.46,7.24,59.21-13.23,64.08-18.48.69-.75,1-1.2,1-1.2-.4-.2-.81-.37-1.25-.55-13.94-5.65-45.59-1.16-63.26,5.32-.1,5.69-.33,10.65-.62,14.91"/><path class="cls-6" d="M745.74,120.37c-6.7,36-53.18,34.85-73.27,32.58-5.66-.63-9.21-1.35-9.21-1.35-6.37-1.7-9.93-11.74-11.58-24.9-3.28-26,.86-64.24,5.26-74C663.55,38,676,22.09,722.83,33.56s31.5,40.65,22.91,86.81"/><path d="M655.19,32.6c6.4-8.86,20-19.68,32.29-26.35,26.47-14.32,60.35.45,60.49.51,38.24,16.81,48.23,46.07,28,91.64-21.44,48.19-41.85,42.77-41.85,42.77s4.33-2.7,3.94-17.72c0-.85-.06-1.57-.09-2.18a10.09,10.09,0,0,1,3.19-8.22c4.75-4.24,7.07-17.06,3.09-20.63-4.8-4.31-11.54.92-13.69,4.95a5.87,5.87,0,0,1-8.39,1.85c-11.9-7.52-4.17-22.57-15.54-31.78S672.11,66,655,58.64c-22.33-8.32-4.68-19.36.14-26"/><path class="cls-5" d="M648.69,680c7.54,1.94,69.62,11,117.68,5.38,11.49-1.35,60.45-3.2,71-6.73,1.12-.38-.16-21.5-4.74-140.1-.47-12.24-1-24.54-1.42-36.74q-.31-7.76-.61-15.45c-4.16-104.89-8.29-199.62-9.16-204.73-2-11.54-3.85-21.38-5.87-29.91-5.92-24.85-13.28-38.48-29.32-50.2-1.56-1.19-14.39-7.66-25.7-13.28-9.37-4.66-17.7-8.72-17.7-8.72h0c-3.73,1.83-8.21,10.37-12.9,22.37-8.61,22.11-17.91,56-24.38,81.26a.66.66,0,0,0,0,.13h0c-4.16,16.33-7.15,29-8,32.69-1.44,6.16-3.35,18.09-5.6,34.26-3,22-6.69,51.87-10.53,85.76-.4,3.48-.79,7-1.19,10.57q-.68,6.1-1.37,12.33c-.15,1.34-.3,2.67-.44,4-1.48,13.42-3,27.28-4.46,41.36-1.23,11.64-18.89,20.06-20.1,31.89-.7,7,10.48,12.1-1.18,29-1.06,1.54,1.43-159.55-3,72"/><path class="cls-8" d="M777.59,324c.06.24,30.15,111.75-49.46,124.6s-53.87,10.58-53.87,10.58,156.81-10.81,159.28-14.77-56-120.42-56-120.42"/><path class="cls-5" d="M899.3,442.89,791.16,418c6.55-3.34,11.13-7.27,12.34-11.83,1-3.58-1.14-15.61-5.09-32.38-10.73-45.85-35.1-127.12-47.72-168.48-1.33-4.41-2.56-8.36-3.6-11.75-2.7-8.8-4.32-14-4.32-14h0c.25,0,4.9.19,12.12,1.05.81.09,1.63.19,2.49.31,20.56,2.69,57.79,10.52,78.19,32.85,14.33,15.7,72.89,150.85,63.72,229.1"/><path class="cls-4" d="M786.18,201.56l-29-3s-62.7,236.14-42.13,488.37h25.83S707,405.39,786.18,201.56"/><polygon class="cls-9" points="543.47 580.77 728.13 572.99 690.67 342.85 506 350.63 543.47 580.77"/><path class="cls-6" d="M713.7,433.75s-47-2.51-49.36,5.87c-5.5,19.53,40.41,35.57,55.28,34.47s4.9-41.65-5.92-40.35"/><path class="cls-6" d="M516.1,397.36s34.39-10.75,38.08-3c8.61,18-21.84,41.75-33.15,43.32s-13.28-39.65-4.93-40.3"/><path class="cls-10" d="M629.45,345.43s-1.46-6.39-9.87-5.64S564,342.85,564,342.85s-9.11-.15-8.26,5.69Z"/><path d="M670.65,79.92A14.72,14.72,0,0,0,661,76.5a11.68,11.68,0,0,0-6.44,1.63A1.35,1.35,0,1,1,653,75.94a14.18,14.18,0,0,1,8-2.14,17.41,17.41,0,0,1,11.44,4.09,1.35,1.35,0,0,1-.89,2.36,1.32,1.32,0,0,1-.88-.33"/><path d="M656.71,91.8A3.26,3.26,0,1,0,660,88.53a3.26,3.26,0,0,0-3.26,3.26"/><path class="cls-11" d="M623.88,121.73s10.23,13.84,28.09,13.34a33.41,33.41,0,0,0,26.26-13.34s-30.14-4.94-54.35,0"/><path class="cls-4" d="M899.3,442.89s.64-24.64.51-31.16l-96.51-13.35S805.15,413,791.16,418Z"/><path class="cls-8" d="M827.56,459.3l4.28,60.23s-48.38-56.37-88.65-60.23Z"/><path class="cls-6" d="M883.3,439.2,821.52,425s-40.58,16.34-113,15.44v27.35s138.28,5.45,174.76-28.56"/><path class="cls-5" d="M742.77,177.28s-67.48,34.87-80.63,15.14l-1.79,21.52,39,12.55s22.42-9.71,27.5-12.1,9.86.89,12.7-6.28,4.53-7.69,5.83-11.8-2.61-19-2.61-19"/><polygon class="cls-12" points="597.55 279.61 648.69 285.46 648.69 264.51 597.55 258.66 597.55 279.61"/><path class="cls-5" d="M744,165.82s2.24,21,2.24,21.63-85.85,31.72-85.85,31.72l-1.2-48.12s46.48,16.74,84.81-5.23"/><path class="cls-8" d="M744.41,170.06l1.73,16.61s-26,17.49-43.46,17.71-42.82.64-43.27-23l-.26-5.49s42.33,18.11,85.26-5.85"/><path class="cls-13" d="M364.57,524.38s16.8,3.33,20,11.06,7.38,16.87,3,20.64S376.21,551.2,370,550s-14.59.23-18.94-2.51-4.55-12-4.55-12Z"/><path class="cls-14" d="M364.57,524.39s-7.79,9.81-18.09,11.05c0,0-24.87-14.21-44.32-34.62h0c-10.2-10.7-18.91-23.11-21.74-36.08-.1-.41-.18-.83-.26-1.25-.82-4.3,6.51-12.78,15.93-20.52,11.21-9.23,25.38-17.42,32.3-16.29,0,0,32.85,77.6,36.18,97.72"/><path d="M141.89,299.07C138,291,225.7,262,227.09,341.56c0,0,164.21-4.39,85.8-104-27.14-34.49-24.35-63-23.54-89.54S272.45,44.31,211.67,52.08c0,0-15.92-7-35.78,4.17-45.18,25.51-146.38,272.17-34,242.82"/><path class="cls-14" d="M297.21,468.58a60.8,60.8,0,0,1-8.17-.83,24.89,24.89,0,0,1-8.63-3c-11.36-6.49-16.55-21.23-22.12-34.77-2.67-6.46-5.43-12.64-9-17.5-10.54-14.39,8.72-69.22,8.72-69.22l5.35-99.56s27.13,6.9,35.16,20.06c14.59,23.88,28.77,144.17,29.86,162.93,2.17,37.27-17.46,42.33-31.17,41.91"/><path class="cls-15" d="M302.15,500.8c-10.2-10.7-18.91-23.11-21.74-36.08-11.36-6.49-16.55-21.23-22.12-34.77-1.85-43.53,4.74-98,19.11-95.67,20.73,3.41,25.27,43.56,20.16,85A202.71,202.71,0,0,0,296.09,443c-.07,9.18.41,17.88,1.12,25.62a253.25,253.25,0,0,0,4.94,32.22"/><path class="cls-16" d="M359,361.74,361.85,381l37,250.91c3.89,26.4-12.67,51.3-36.91,55.54s-47.14-13.79-51-40.19l-8.33,1.46c4.63,31.39,31.86,52.83,60.7,47.8s48.54-34.66,43.91-66.05L370,378.4,367.15,359Z"/><path class="cls-17" d="M388.8,361.33c1.61,5.07-.85,10.58-5.5,12.33q-6.75,2.53-13.29,4.73-4.12,1.4-8.15,2.65a385.92,385.92,0,0,1-48.46,11.75,356.64,356.64,0,0,1-39.33,4.67c-3,.19-5.87.32-8.49.4a198.71,198.71,0,0,1-20.37-.2c-4.91-.39-8.59-5-8.23-10.38s4.63-9.35,9.53-9c.18,0,6,.43,16.23.16,2.56-.07,5.4-.19,8.49-.36A361.1,361.1,0,0,0,359,361.74c1.85-.59,3.71-1.19,5.59-1.82.85-.29,1.71-.57,2.56-.88q5.1-1.74,10.31-3.7c4.65-1.75,9.72.93,11.33,6"/><polygon class="cls-16" points="435.71 1149.49 424.6 1151.43 356.88 692 367.99 690.06 435.71 1149.49"/><path class="cls-18" d="M446.53,1178l-23.69,3.93a3,3,0,0,1-3.37-2.85L415.89,1140a3.16,3.16,0,0,1,2.46-3.48l18.65-3.26a3,3,0,0,1,3.33,2.4l8.62,38.41a3.2,3.2,0,0,1-2.41,3.93"/><polygon class="cls-16" points="391.5 548.65 295.23 565.46 294.04 557.4 390.31 540.59 391.5 548.65"/><path class="cls-18" d="M273.94,476.25S364.58,693,374.79,755.45c4.54,27.81-26.47,84.33-26.47,84.33L256.84,825.9s9.3-36.87,20.57-61.8c7.7-17-58.42-66.51-76.38-102-5.4-10.67-26.12-41.41-26.12-41.41l39.69-147.89Z"/><path class="cls-19" d="M351.64,847c-2.66,5.59-7.05,14.8-12.5,26.27l-10.49,22.11c-5.67,12-11.85,25-18.09,38.19-.54,1.16-1,2.2-1.49,3.14l-5,10.58c-2.66,5.65-5.32,11.25-7.89,16.77-.66,1.37-1.29,2.73-1.93,4.09-1.58,3.34-3.12,6.63-4.65,9.87l-3.87,8.27q-1.42,3-2.76,5.89c-.67,1.45-1.35,2.87-2,4.28-.18.37-.35.73-.52,1.1l-.5,1.1c-.31.65-.61,1.3-.91,1.95l-.23.48c-.36.79-.74,1.58-1.09,2.37-.06.11-.12.24-.17.35l-3.29,7.07-.27.6c-.38.79-.72,1.56-1.07,2.33-.07.13-.12.25-.18.38-.49,1.07-1,2.11-1.45,3.14l-1.36,3s0,0,0,0c-4,8.68-6.72,14.84-7.69,17.37-.85,2.21-1.14,5.55-1,9.68.21,6.82,1.51,15.81,3.14,25.6.91,5.49,1.92,11.25,2.89,17,.8,4.69,1.58,9.38,2.25,13.92,2.89,19.46,3.92,36.36-2.78,40-6,3.24-17.48-6.62-29.92-21-2.72-3.14-5.48-6.51-8.22-10-3.54-4.48-7.06-9.17-10.48-13.87-2.1-2.89-4.14-5.77-6.12-8.62-7.57-10.91-14.2-21.34-18.58-28.86-2.07-3.56-3.65-6.48-4.58-8.49a6,6,0,0,1-.43-1.68c0-.3-.07-.62-.09-1v-.07c0-.66,0-1.42,0-2.25,0-.24,0-.51,0-.77s0-.31,0-.48l0-.51q.08-1,.2-2.15c0-.38.09-.77.14-1.17s.09-.8.15-1.23.16-1.1.23-1.68c0-.18.05-.37.09-.56s.07-.45.1-.68c.07-.42.13-.86.21-1.29.15-.87.31-1.79.48-2.73a.06.06,0,0,1,0,0c.09-.51.18-1,.28-1.55.17-.91.35-1.86.54-2.82.93-4.61,2.07-9.76,3.4-15.37.48-2,1-4.13,1.53-6.28.3-1.2.61-2.42.92-3.68q.84-3.3,1.73-6.76c.23-.86.45-1.75.69-2.64l.12-.42c.17-.68.35-1.35.53-2,2-7.51,4.15-15.45,6.46-23.66,2.65-9.46,5.5-19.28,8.41-29.22q.8-2.75,1.62-5.52h0c.17-.6.35-1.21.53-1.82,3.43-11.6,7-23.28,10.43-34.65,1.58-5.14,3.14-10.24,4.68-15.2,3-9.8,6-19.18,8.71-27.93,6.32-20.06,11.63-36.6,14.79-46.38,1.55-4.8,6.81-6.7,10.73-3.94,5.84,4.11,11.57,7.75,17.13,10.94a197.46,197.46,0,0,0,65.05,23.94c3.07.56,4.74,4.21,3.31,7.21"/><path class="cls-20" d="M339.14,873.26c-7.26-1.42-68.46-3.71-98.52-18-2.75,8.74-5.69,18.13-8.71,27.93-1.54,5-3.1,10.06-4.68,15.2,6.32.49,14,1,22.49,1.39,25.75,1.18,58.31,1.15,78.93-4.36Z"/><g class="cls-21"><g class="cls-22"><path class="cls-20" d="M303.62,947.39c-29.48,8.25-67.16-5.56-86.82-14.41,3.43-11.61,7-23.29,10.43-34.65,1.58-5.14,3.14-10.23,4.68-15.2a181.11,181.11,0,0,0,17.81,16.59c24,19.52,47.91,29.09,60.84,33.84-3.49,7.39-5,10-6.94,13.83"/></g></g><g class="cls-21"><g class="cls-23"><path class="cls-20" d="M294.26,968.14c-1.58,3.34-3.12,6.63-4.65,9.87l-3.87,8.27q-1.42,3-2.76,5.89c-.67,1.45-1.35,2.87-2,4.28-.18.37-.35.73-.52,1.1s-.34.73-.52,1.1c-.37.82-.75,1.62-1.13,2.42s-.74,1.58-1.09,2.37a3.83,3.83,0,0,0-.17.35l-3.29,7.07-.27.6c-.38.79-.72,1.56-1.07,2.33-.07.13-.12.25-.18.38-.49,1.07-1,2.11-1.45,3.14l-1.36,3s0,0,0,0c-12.32,7.52-26.62,15.42-40,22.53-14.4,7.65-27.77,14.37-36.49,18.69-2.07-3.56-3.65-6.48-4.58-8.49a6,6,0,0,1-.43-1.68c0-.3-.07-.62-.09-1v-.07c0-.66,0-1.42,0-2.25,0-.24,0-.51,0-.77s0-.31,0-.48l0-.51q.08-1,.2-2.15c0-.38.09-.77.14-1.17s.09-.8.15-1.23.16-1.1.23-1.68c0-.18.05-.37.09-.56s.07-.45.1-.68c.06-.42.13-.86.21-1.29.16-.87.31-1.79.48-2.73a.06.06,0,0,1,0,0c.09-.51.18-1,.28-1.55.17-.91.35-1.86.54-2.82.93-4.61,2.07-9.76,3.4-15.37.49-2,1-4.13,1.53-6.28l.92-3.68c.56-2.2,1.14-4.45,1.73-6.76.23-.86.45-1.75.69-2.64l.12-.42c12.64-1,27.89-4.55,43.45-9.14,17.9-5.27,36.25-12,51.57-18"/></g></g><path class="cls-20" d="M269.53,1103.83a232.74,232.74,0,0,1-32.7,19c-2.71-3.14-5.47-6.5-8.22-10-3.54-4.48-7.06-9.17-10.48-13.88,18.71.65,38.1-5.07,49.15-9.06.81,4.69,1.58,9.38,2.25,13.92"/><path class="cls-20" d="M296.19,964.05c-.66,1.37-1.29,2.73-1.93,4.09-1.58,3.34-3.12,6.63-4.64,9.87l-3.87,8.27q-1.42,3-2.76,5.89c-.67,1.45-1.35,2.87-2,4.28-.18.37-.35.73-.52,1.1l-.5,1.1h0c-17.38,2.72-52,6.21-80.84-3l.12-.42c.17-.68.35-1.35.53-2,2-7.51,4.15-15.45,6.46-23.66,2.65-9.46,5.5-19.28,8.41-29.22q.8-2.75,1.62-5.52h0c18,9.34,54.21,26.66,79.92,29.25"/><path class="cls-20" d="M264.39,1072.92c-15.32,7.64-37.4,13.64-52.37,17.44-7.58-10.91-14.2-21.33-18.59-28.85-2.08-3.57-3.65-6.49-4.57-8.5-1.24-2.69-.36-10.81,2-22.62,25.45,12.47,58.28,15.62,70.4,16.93.21,6.81,1.52,15.82,3.15,25.6"/><path class="cls-24" d="M154.33,1101.31s-6.62,77.42,1.46,81.75l103.38-.23s0-13-16.61-15.87-45.78-13.47-50.71-37-37.52-28.62-37.52-28.62"/><path class="cls-14" d="M107,332.87s18.5,96,21,102.23c6.22,15.63,13.24,18.17,13.24,18.17l54.28,14.48,19.09,5.08,60.19-19.56S302.2,370,291.19,323.11s-27.83-79.43-27.83-79.43-53-10.76-113.06-4.44Z"/><path class="cls-15" d="M101.46,344.68c0,33,24,84.19,26.52,90.42,6.22,15.63,13.24,18.17,13.24,18.17l54.28,14.48,38.33-6.6s-95.32,5-98.46-113Z"/><path class="cls-17" d="M128.06,466.22S88.4,542.27,90,587.36s19.36,201.57,16,246.26,17.92,191.76,44.29,305.15c0,0,39.71,3.36,42.56-5.95,15.92-52.08,24.41-313.72,23.82-346.86-.42-23.46-2.24-119.56,34.91-216.58C260.46,546.09,240,461.14,240,461.14Z"/><path class="cls-24" d="M275.71,450.32s-12,10.3-35.74,10.82c-28.39.62-109-19.53-109-19.53s-3.06,14.57-2.93,24.6c0,0,96.1,30.18,145.89,10,0,0,6.42-13.15,1.77-25.93"/><path class="cls-11" d="M233.83,471.82c0-8.8,5.81-16,13-16s13,7.16,13,16-5.81,16-13,16-13-7.16-13-16m4.3,0c0,6.22,3.89,11.29,8.66,11.29s8.66-5.06,8.66-11.29-3.88-11.29-8.66-11.29-8.66,5.06-8.66,11.29"/><path class="cls-16" d="M137.42,361.8l-.06,19.55-.84,254.12c-.09,26.73-20.14,48.39-44.69,48.3s-44.46-21.92-44.38-48.65l.83-253,.07-19.58c-3.08-.38-5.9-.76-8.43-1.14L39.84,381,39,635.1c-.1,31.79,23.58,57.75,52.79,57.86s53.05-25.65,53.16-57.44l.84-255.34.06-19.6Z"/><path class="cls-17" d="M166.88,366.65c.84,5.29-2.41,10.29-7.26,11.2q-7,1.31-13.82,2.33-4.28.65-8.44,1.18a381.47,381.47,0,0,1-49.57,3.06,355.6,355.6,0,0,1-39.51-2.32c-3-.34-5.85-.72-8.44-1.1a201.42,201.42,0,0,1-20.08-3.79C15,376,12,370.72,13.19,365.51s6-8.41,10.74-7.16c.18,0,5.9,1.49,16,3,2.54.38,5.35.77,8.43,1.14a358.49,358.49,0,0,0,89.08-.71c1.92-.25,3.84-.52,5.79-.81.89-.13,1.77-.26,2.65-.41q5.29-.82,10.73-1.83c4.85-.91,9.46,2.63,10.29,7.9"/><rect class="cls-16" x="-141.6" y="914.38" width="465.31" height="11.25" transform="translate(-829.3 1007.46) rotate(-89.78)"/><path class="cls-18" d="M102.36,1182.7l-24-.3a3.1,3.1,0,0,1-2.9-3.4l2.28-39.2a3.06,3.06,0,0,1,2.95-3l18.89.07a3.06,3.06,0,0,1,2.92,3l2.8,39.42a3.1,3.1,0,0,1-3,3.45"/><rect class="cls-16" x="88.86" y="498.95" width="8.16" height="97.51" transform="translate(-455.12 638.52) rotate(-89.78)"/><path class="cls-13" d="M95,515.82s4.33,5.41,5.11,6.18c5.28,5.2,25.77,13.09,28.11,20,4.13,12.2,3.74,23.23-1.63,22.17-7-1.38-9.15-7.69-13.71-10.13s-16.43-3.1-22.7-8.7c-4-3.55-8-17.39-8-17.39Z"/><path class="cls-13" d="M102.84,524.38s11.22,1.55,16.16.75,2.51,3.15.76,3.78a31.82,31.82,0,0,0-4.73,2.58Z"/><path class="cls-14" d="M150.3,239.24s-21.77,1-35.88,7.56c-12.61,5.86-26.7,16.15-39.08,34.09C43.54,327-6.81,413.48.77,443.15s59.83,81.64,82.55,88.35a15.55,15.55,0,0,0,8.19-1.85c6.36-3.15,8.59-7.65,8.59-7.65S59.44,439.08,61,430.4,159.45,351,167,346.32,150.3,239.24,150.3,239.24"/><path class="cls-13" d="M172.44,239.82c.22-6.24,4.16-10.46,7.16-18.41,3.62-9.58,6.5-23.73,6.43-41.46l2.72.51L234.58,189s-1,13.63-1.07,26.46c0,.11,0,.21,0,.32-.06,11.15.26,15.14,5.18,25.26,3.22,6.62-3.31,13.75-17,14.13-37.29,1-49.42-9.48-49.21-15.38"/><path class="cls-25" d="M234.58,189s-1,13.63-1.07,26.46c-25.64-.68-39.2-22.78-44.75-35Z"/><path class="cls-13" d="M243.15,204.41s-60.67,1.09-60.71-40-7.9-68.69,30.83-71.12,46.28,13.25,49.36,27-3.7,82.84-19.48,84.19"/><path d="M240.9,92.23s-16.61,48.25-42.1,55.39-36.55-.3-36.55-.3,19.55-16.91,23.61-46.42c0,0,42.51-31.64,55-8.67"/><path d="M236.78,96.15s12.32,5,17.39,14.79a71.18,71.18,0,0,1,8.2,37.76s12.51-32.8-1.55-51.35c-14.91-19.67-24-1.2-24-1.2"/><path class="cls-13" d="M351.79,538.68s-.38,4.77,6.11,9.73,9.61,10.35,11.21,7.11-1.14-12.18-2.56-14.82-13.49-5-14.76-2"/><path d="M262.89,129.13a12.2,12.2,0,0,0-8.44-3.25,9.56,9.56,0,0,0-5.62,1.55,1.11,1.11,0,0,1-1.64-.29,1.35,1.35,0,0,1,.27-1.79,11.62,11.62,0,0,1,7-2,14.44,14.44,0,0,1,10,3.89,1.36,1.36,0,0,1,.12,1.81,1.14,1.14,0,0,1-.89.44,1.11,1.11,0,0,1-.77-.32"/><path d="M253.09,145.55a2.86,2.86,0,1,0,2.85-3.1,3,3,0,0,0-2.85,3.1"/><path d="M218.16,129.13a12.2,12.2,0,0,1,8.44-3.25,9.56,9.56,0,0,1,5.61,1.55,1.11,1.11,0,0,0,1.64-.29,1.35,1.35,0,0,0-.27-1.79,11.61,11.61,0,0,0-7-2,14.44,14.44,0,0,0-10,3.89,1.36,1.36,0,0,0-.11,1.81,1.14,1.14,0,0,0,.89.44,1.11,1.11,0,0,0,.77-.32"/><path d="M228,145.55a2.86,2.86,0,1,1-2.85-3.1,3,3,0,0,1,2.85,3.1"/><path class="cls-11" d="M223.39,177.89A23,23,0,0,0,240.29,188c6.94.71,13-7.57,13-7.57s-12.1-6.27-29.91-2.55"/></g></g></svg>