<svg xmlns="http://www.w3.org/2000/svg" xmlns:xlink="http://www.w3.org/1999/xlink" viewBox="0 0 754.76 999.79"><defs><style>.cls-1{fill:none;}.cls-2{fill:#f7a491;}.cls-3{fill:#355389;}.cls-4{fill:#25468f;}.cls-5{fill:#ed9688;}.cls-6{fill:#193871;}.cls-7{fill:#4064a6;}.cls-8{fill:#b5d1f1;}.cls-9{fill:#d1e4fc;}.cls-10{fill:#ffae73;}.cls-11{fill:#f48f4e;}.cls-12{fill:#13375b;}.cls-13{fill:#e18a72;}.cls-14{fill:#ac6000;}.cls-15{opacity:0.2;}.cls-16{clip-path:url(#clip-path);}.cls-17{fill:#fff;}.cls-18{clip-path:url(#clip-path-2);}.cls-19{clip-path:url(#clip-path-3);}.cls-20{clip-path:url(#clip-path-4);}.cls-21{clip-path:url(#clip-path-5);}.cls-22{clip-path:url(#clip-path-6);}.cls-23{clip-path:url(#clip-path-7);}.cls-24{clip-path:url(#clip-path-8);}.cls-25{fill:#1e3865;}.cls-26{fill:#ff912b;}.cls-27{fill:#fc7600;}.cls-28{fill:#06294c;}.cls-29{fill:#0b3563;}.cls-30{fill:#e6e6e6;}.cls-31{fill:#3d66b3;}</style><clipPath id="clip-path"><rect class="cls-1" x="206.55" y="110.45" width="20.82" height="14.97"/></clipPath><clipPath id="clip-path-2"><rect class="cls-1" x="206.61" y="110.68" width="20.61" height="14.73"/></clipPath><clipPath id="clip-path-3"><rect class="cls-1" x="206.61" y="110.68" width="13.21" height="13.23"/></clipPath><clipPath id="clip-path-4"><rect class="cls-1" x="210.84" y="111.86" width="16.38" height="13.55"/></clipPath><clipPath id="clip-path-5"><rect class="cls-1" x="237.77" y="113.14" width="20.83" height="15.13"/></clipPath><clipPath id="clip-path-6"><rect class="cls-1" x="238.54" y="113.14" width="19.17" height="15.13"/></clipPath><clipPath id="clip-path-7"><rect class="cls-1" x="246.36" y="113.14" width="11.35" height="14.67"/></clipPath><clipPath id="clip-path-8"><rect class="cls-1" x="238.54" y="113.38" width="14.51" height="14.89"/></clipPath></defs><title>Asset 2</title><g id="Layer_2" data-name="Layer 2"><g id="Layer_1-2" data-name="Layer 1"><path class="cls-2" d="M50.92,496.32s-19.25,1.31-27.11,6.17-15,6.73-13.55,9,15.14-2.52,15.42,0-12.13,10.09-15.6,10.66S-1.24,523.8.17,528.28s14.69,5.89,25.29,6.17,36.4-16.82,36.4-16.82Z"/><path class="cls-3" d="M64.94,520.43c19.49,0,83.81-43,105.42-60.34a64,64,0,0,0,5.34-4.67c8.06-8.21,35.85-48.72,55.57-84.8,11.35-20.78,20-40.09,20.73-50.91,2.46-38.63-17.86-92.64-17.86-92.64C174,248,167.72,296,167.72,296l-30.8,114.64a30.57,30.57,0,0,1-10,15.58L45.5,493.89c-2.75,11.59,12.94,26.55,19.44,26.54"/><path class="cls-3" d="M170.36,460.09a64.22,64.22,0,0,0,5.34-4.67c8.06-8.21,35.85-48.72,55.57-84.81,2.55-21.81.8-42.26-8.19-56.56,0,0-51.09,89.9-52.73,146"/><path class="cls-2" d="M205,817.37,215.2,860l6.32,26.37,21.05,87.78s18,5.55,36.75,0a320.26,320.26,0,0,0,7.13-65.28c.11-18.95-1.63-39.87-7.17-59.62a136.82,136.82,0,0,0-8.77-23.31c-29.7-60.66-65.53-8.54-65.53-8.54"/><path class="cls-4" d="M187.54,999.78h98.92s1.56-15-2.79-29.29a50.18,50.18,0,0,0-2.35-6.29s-22.08,5-41.13,0c0,0-17.91,15.25-28.73,19.92s-22.78,2.14-23.92,15.65"/><path class="cls-5" d="M215.2,860l6.32,26.37a152.46,152.46,0,0,0,64.93,22.5c.11-19-1.63-39.87-7.17-59.62-9.1-4.61-18.36-7-26.25-5.66-19.63,3.43-31.3,10.6-37.84,16.4"/><path class="cls-6" d="M238.92,999.78h47.54s1.56-15-2.79-29.29c-11.93,3.72-36.22,13-44.75,29.29"/><path class="cls-2" d="M283.84,817.37,294.06,860l6.32,26.37,21.05,87.78s18,5.55,36.75,0a320.14,320.14,0,0,0,7.13-65.28c.11-18.95-1.63-39.87-7.17-59.62a136.9,136.9,0,0,0-8.77-23.31c-29.7-60.66-65.53-8.54-65.53-8.54"/><path class="cls-4" d="M360.18,964.21s-22.08,5-41.13,0c0,0-17.91,15.25-28.73,19.93s-22.78,2.13-23.92,15.65h98.92s2.06-19.75-5.14-35.58"/><path class="cls-5" d="M294.06,860l6.32,26.37a152.47,152.47,0,0,0,64.93,22.5c.11-19-1.63-39.87-7.17-59.62-9.1-4.61-18.36-7-26.25-5.66-19.63,3.43-31.3,10.6-37.84,16.4"/><path class="cls-7" d="M190.72,955.82c36.95,23.46,199.24,20.76,200.5-1.94,0,0-16-160.78-18.58-184.6-1.08-9.9-1.57-17.82-.95-22,16-105.94,29.45-230.72,27.82-254.58-.23-3.36-.39-5.09-.39-5.09s-11.55-1-29.12-1.66c-51.08-2-153-1.67-170,31.74-17.26,34-17.68,231.71-17.68,231.71,0,54.37,8.39,206.38,8.39,206.38"/><path class="cls-7" d="M372.65,769.27c-1.08-9.9-1.57-17.82-.95-22,16-105.94,29.45-230.72,27.82-254.58-.23-3.36-.39-5.09-.39-5.09s-11.55-1-29.12-1.66c-26.42,15.57-43.62,42.09-43.62,42.09s5.32,198.25,46.27,241.2"/><path class="cls-8" d="M302,73.57c0-13.78-7.92-23.73-23.2-24.68-11.21-.7-26.7,6.1-26.7,19.88s11.17,29.75,25,29.75a25,25,0,0,0,25-25"/><path class="cls-9" d="M280.7,173.18s60-54,13.83-95.53a34.65,34.65,0,0,0-15.79-8.09c-16.15-3.52-52-8.47-70.17,11.58-19.54,21.59-27.27,38-11,57.7s83.11,34.33,83.11,34.33"/><path class="cls-2" d="M359,531a75,75,0,0,0-1.58,22.75c1.54,17.38,4.72,26.92,16,32.57,0,0,13,8.91,15-2.67s-2-12,1.19-28.22.77-28.58-8.57-35.89Z"/><path class="cls-10" d="M226.63,172.63s.81,8.9,2.32,20.93c.73,5.88,1.63,12.51,2.69,19.21.75,4.81,1.59,9.66,2.5,14.3l20.44,69,48-77.66s-11.28-9.33-26.56-59.9c-.15-.54-.25-.83-.25-.83Z"/><path class="cls-7" d="M198.66,513.14c-.62,7.76,1.34,9.17,1.34,9.17s29.51,10.7,103.72,7q12-.6,22.66-1.23c47.83-2.82,73.4-5.77,73.4-5.77S439,431.89,365.36,320.5A357,357,0,0,0,335.85,282c-11.92-13.59-14.55-31.78-19.06-49.07-1.29-5,2.44-6,.58-10.72,0,0-13.42-3.79-14.81-3.79-7.62,6.72-17.68,19.77-42.63,22.35-16.87,1.76-23.48-7.75-25.88-13.45-6.43,2.32-13.1,6.34-18.56,9C170.28,258,166.13,300.1,166.13,300.1s41.55,136.64,44.13,153.7c1.15,7.59-8.38,19.39-11.6,59.33"/><path class="cls-11" d="M229,193.56c.73,5.88,1.63,12.51,2.69,19.21,52.42-20.4,45.75-49,44.37-54.23-.15-.54-.25-.83-.25-.83S248.87,176.79,229,193.56"/><path class="cls-10" d="M218.06,200.39s58.69,1.88,59.3-34.68,8.6-61-28.85-63.7-45,11.08-48.13,23.24,2.43,73.71,17.68,75.15"/><path class="cls-9" d="M212.93,96.52s3.68,69.68,75.23,63.13c0,0-1.52-93.18-75.23-63.13"/><path class="cls-9" d="M226.63,102.59s-21.21,12.94-27.8,33.69c0,0-23.65-33,27.8-33.69"/><path class="cls-7" d="M326.38,528.08c47.83-2.82,73.4-5.77,73.4-5.77S439,431.89,365.36,320.5c-14.9,34.73-50,127.54-39,207.58"/><path class="cls-3" d="M302.57,218.43s56.78,11.65,82.07,40.94c19.38,22.45,40.59,132.18,40.59,150.31,0,17.33-19.92,109.45-32.35,127.11a4.11,4.11,0,0,1-3.8,1.75l-32-3.39a4.7,4.7,0,0,1-4.15-5.39l18-116.45L307.86,301.46s-37.19-44.08-5.29-83"/><path class="cls-10" d="M358.8,538.57s-8.41,24.2-6.17,26.44,8.13-7.57,8.13-7.57Z"/><path class="cls-12" d="M234.21,44.35C278.55,36.19,321,51.42,335,120.61c10.36,51,18.12,85.78,47.61,139s26.55,62.22,26.55,62.22c-90.1,4.9-123.75,60.68-190.7,42.44S133,322.66,133,322.66c54.68-121.61,49.43-173,53.59-215.74,3.82-39.29,20.78-57.64,47.61-62.57"/><path class="cls-2" d="M237.67,64.26s19.07-2.21,31,13.29S293.55,141,263.84,167s-59.05-3.44-63.4-34.71-6-69.2,37.23-68.07"/><path class="cls-13" d="M219.52,90s.4,0,1.1,0,1.7,0,2.89,0c2.39,0,5.56.21,8.73.5s6.31.73,8.66,1.16c1.18.2,2.15.43,2.84.56s1.07.25,1.07.25-.4,0-1.1,0-1.7,0-2.89,0c-2.39,0-5.56-.21-8.73-.5s-6.31-.74-8.66-1.15c-1.18-.2-2.15-.43-2.84-.56s-1.07-.25-1.07-.25"/><path class="cls-13" d="M223.94,94.53a20,20,0,0,1,2.45-.14,43.58,43.58,0,0,1,5.32.32,42.57,42.57,0,0,1,5.24,1,19.5,19.5,0,0,1,2.35.73,20.58,20.58,0,0,1-2.45.14,43.29,43.29,0,0,1-10.55-1.3,19.84,19.84,0,0,1-2.35-.73"/><path class="cls-14" d="M229.16,112.65s1,.72,4.07,1l-.27,3.45s-2.54-.58-3.34,1.53Z"/><path class="cls-14" d="M237.41,113.31s-1.12.55-4.19.38l-.27,3.45s2.6-.17,3.06,2Z"/><g class="cls-15"><g class="cls-16"><path class="cls-17" d="M224.22,124.71c2.34-1,2.76-3.6,3-5.83a20.72,20.72,0,0,0,.06-4.23c-.22-1.58-2.1-2.3-2.1-2.3-10.24-3.09-15.75-1.48-15.75-1.48a4,4,0,0,0-2.4,2.9c-.78,2.62-.42,8.5-.42,8.5a2.42,2.42,0,0,0,2,2.26s8.22,1.88,15.61.18"/></g></g><path class="cls-14" d="M229.65,113.87c-.27-1.94-2.57-2.82-2.57-2.82-12.56-3.8-19.32-1.81-19.32-1.81a4.92,4.92,0,0,0-2.94,3.55c-1,3.22-.52,10.44-.52,10.44a3,3,0,0,0,2.44,2.76s10.09,2.31,19.15.22c2.87-1.18,3.39-4.42,3.69-7.15a25.51,25.51,0,0,0,.08-5.19m-2.42,5c-.24,2.23-.67,4.87-3,5.83-7.38,1.71-15.6-.18-15.6-.18a2.42,2.42,0,0,1-2-2.26s-.36-5.88.42-8.5a4,4,0,0,1,2.4-2.9s5.51-1.61,15.75,1.48c0,0,1.88.72,2.1,2.3a20.75,20.75,0,0,1-.06,4.23"/><g class="cls-15"><g class="cls-18"><path class="cls-17" d="M217.35,110.68l-10.74,11.13c0,.29,0,.47,0,.47a2.73,2.73,0,0,0,.77,1.64L219.82,111c-.88-.16-1.7-.28-2.47-.37"/><g class="cls-15"><g class="cls-19"><path class="cls-17" d="M217.35,110.68l-10.74,11.13c0,.29,0,.47,0,.47a2.73,2.73,0,0,0,.77,1.64L219.82,111c-.88-.16-1.7-.28-2.47-.37"/></g></g><path class="cls-17" d="M225.19,112.35c-.6-.18-1.18-.34-1.75-.49l-12.61,13.07a45.53,45.53,0,0,0,5.67.48l10.71-11.09a3.63,3.63,0,0,0-2-2"/><g class="cls-15"><g class="cls-20"><path class="cls-17" d="M225.19,112.35c-.6-.18-1.18-.34-1.75-.49l-12.61,13.07a45.53,45.53,0,0,0,5.67.48l10.71-11.09a3.63,3.63,0,0,0-2-2"/></g></g></g></g><polygon class="cls-14" points="206.3 110.11 202.7 109.83 203.04 113.57 206.01 113.81 206.3 110.11"/><g class="cls-15"><g class="cls-21"><path class="cls-17" d="M239.86,125.95c-2.16-1.32-2.16-4-2.05-6.23a20.73,20.73,0,0,1,.61-4.19c.46-1.53,2.43-1.94,2.43-1.94,10.6-1.44,15.78,1,15.78,1a4,4,0,0,1,1.91,3.24c.35,2.71-.92,8.46-.92,8.46a2.42,2.42,0,0,1-2.32,1.92s-8.42.56-15.44-2.28"/></g></g><path class="cls-14" d="M235.47,119.53c-.13,2.75-.13,6,2.52,7.64,8.61,3.49,18.94,2.8,18.94,2.8a3,3,0,0,0,2.84-2.35s1.57-7.06,1.13-10.39a4.92,4.92,0,0,0-2.34-4s-6.36-3-19.36-1.25c0,0-2.42.51-3,2.38a25.39,25.39,0,0,0-.74,5.14m2.95-4c.46-1.52,2.43-1.94,2.43-1.94,10.6-1.44,15.78,1,15.78,1a4,4,0,0,1,1.91,3.24c.35,2.71-.92,8.46-.92,8.46a2.42,2.42,0,0,1-2.32,1.92s-8.42.56-15.44-2.28c-2.16-1.32-2.16-4-2.05-6.23a20.77,20.77,0,0,1,.61-4.19"/><g class="cls-15"><g class="cls-22"><path class="cls-17" d="M248.86,113.18l8.85,12.68-.1.46a2.74,2.74,0,0,1-1,1.49l-10.24-14.66c.89,0,1.72,0,2.49,0"/><g class="cls-15"><g class="cls-23"><path class="cls-17" d="M248.86,113.18l8.85,12.68-.1.46a2.74,2.74,0,0,1-1,1.49l-10.24-14.66c.89,0,1.72,0,2.49,0"/></g></g><path class="cls-17" d="M240.85,113.59c.62-.08,1.22-.15,1.8-.21L253,128.27a45.43,45.43,0,0,1-5.68-.41l-8.83-12.64a3.63,3.63,0,0,1,2.31-1.62"/><g class="cls-15"><g class="cls-24"><path class="cls-17" d="M240.85,113.59c.62-.08,1.22-.15,1.8-.21L253,128.27a45.43,45.43,0,0,1-5.68-.41l-8.83-12.64a3.63,3.63,0,0,1,2.31-1.62"/></g></g></g></g><polygon class="cls-14" points="259.86 114.35 278.42 114.64 277.5 118.28 259.56 118.05 259.86 114.35"/><path class="cls-12" d="M230.53,73.73C262.59,82.3,278,119.14,282,148.06c16.68-39.23-2.1-80.82-27.81-89.61S200.34,53.73,195.85,79s-1.16,66.52,2.48,71c4.86-47.91,19-68.48,32.21-76.31"/><path class="cls-17" d="M219,145.42s2.18,7.5,5.7,8.21,9.15,1.88,14.07,0a10.85,10.85,0,0,0,6.33-5.86,59.62,59.62,0,0,0-26.1-2.35"/><path d="M212,108.48a.91.91,0,0,1,.09-1.28,11.63,11.63,0,0,1,7.66-2.74,9.49,9.49,0,0,1,5.37,1.43.9.9,0,1,1-1.06,1.46,7.84,7.84,0,0,0-4.31-1.09,9.82,9.82,0,0,0-6.47,2.29.91.91,0,0,1-.6.22.89.89,0,0,1-.68-.31"/><path d="M220.93,118.6a2.18,2.18,0,1,1-2.18-2.18,2.18,2.18,0,0,1,2.18,2.18"/><path d="M254.63,110a.91.91,0,0,0-.09-1.28,11.63,11.63,0,0,0-7.66-2.74,9.5,9.5,0,0,0-5.37,1.44.9.9,0,1,0,1.06,1.46,7.85,7.85,0,0,1,4.31-1.09,9.82,9.82,0,0,1,6.47,2.29.91.91,0,0,0,.6.22.9.9,0,0,0,.68-.31"/><path d="M245.69,120.11a2.18,2.18,0,1,0,2.18-2.18,2.18,2.18,0,0,0-2.18,2.18"/><path class="cls-25" d="M495.41,998.48,493.8,524.41s-3.62-34.17-33.4-34.34c-31.78-.19-33.81,33.94-33.81,33.94a3.61,3.61,0,0,0,3.7,3,3.85,3.85,0,0,0,4-2.93s1.56-26.31,26.06-26.17c23,.14,25.75,26.48,25.75,26.48l-2.82,474Z"/><path class="cls-25" d="M479.21,998.39l19.77.12-1.64-20.68s.19-2.87-3.81-3.06c-3.71-.17-11-.74-11.75,1.49-.62,2-2.58,22.13-2.58,22.13"/><path class="cls-2" d="M460.31,464.94l-1.39,6.77s-33.52-.33-41.56,35.54c0,0-2.22,14.93,8.58,11.81s9.16-10.76,24.45-14.85S475.62,497,478,485.89l2.57-12.34Z"/><path class="cls-26" d="M580.57,171.73s-9.07,34.83-16.91,66.67c-3.16,12.83-6.11,25.17-8.19,34.55-2.13,9.64-3.34,16.17-2.9,16.9,6.59,10.83-6,76.56-15.7,100.4-.86,2.11-2,4.59-3.46,7.34-13.59,26.26-49.67,77.74-49.67,77.74s-10.1,1-16.68-1.53c-5.49-2.12-9.22-8.87-9.22-8.87,3.23-5.13,16.53-65.87,33.39-99.87,7.21-14.54,18.51-149.82,32.42-168,11.6-15.13,56.92-25.36,56.92-25.36"/><path class="cls-27" d="M552.57,289.85c6.58,10.83-6,76.56-15.7,100.4-.86,2.11-2,4.59-3.46,7.34-12.5-56.87,9.25-137.2,9.25-137.2,5.3,2.14,9.51,6.54,12.8,12.56-2.13,9.64-3.34,16.17-2.9,16.9"/><path class="cls-28" d="M641.69,947.13s3.11,51.42-6.6,52.08c-1.29.09-49.23-.2-49.23-.2L524,998.65s1.13-15.09,19-18.1,47.92-15.41,58.9-39c11.55-24.81,39.74,5.57,39.74,5.57"/><path class="cls-29" d="M734.7,947.69s3.11,51.42-6.6,52.08c-1.29.09-49.23-.2-49.23-.2L617,999.2s1.13-15.09,19-18.1,47.92-15.41,58.9-39c11.55-24.81,39.74,5.57,39.74,5.57"/><path class="cls-4" d="M645.36,823.25c1.39,21.75,4.33,49.71,3.07,74.9-1.76,35.22-3,64.92-3,64.92-23.27,7.76-65.83-2.07-65.83-2.07S565,871.89,552.93,800.74c-5.4-31.88-9.87-59.45-11.52-72.47C536.06,686.2,549,462.71,549,462.71s63.09-39.91,88.93-19,41.7,41.3-1.49,268.53c-3.28,17.24,5.84,62.29,9,111"/><path class="cls-25" d="M645.36,823.25c1.39,21.75,4,56.55,2.74,81.74-21.71-23.25-64.48-72.29-95.16-104.25-5.4-31.88-9.87-59.45-11.52-72.47C536.06,686.2,549,462.71,549,462.71s63.09-39.91,88.93-19,41.7,41.3-1.49,268.53c-3.28,17.24,5.84,62.29,9,111"/><path class="cls-4" d="M605.72,467.59S610,691.41,618.61,733s53.47,231.75,53.47,231.75,43.12,4.19,65.73-5.34c0,0-.91-88-8.26-139.7-6.86-48.32-19.42-92.54-17.47-110,25.6-229.87,8.22-249-19.15-267.85s-87.2,25.76-87.2,25.76"/><path class="cls-2" d="M690.9,487.69s-15.13,29.91,13.47,53c0,0,12.41,8.6,14.38-2.47s-.25-7.22,2.85-22.73-.65-31.6-9.55-38.64Z"/><path class="cls-2" d="M567.06,120.94s16.88,27.4,13.3,51.85l25.38,60.6L651,163.78s-23-27.17-31.84-63.33Z"/><path class="cls-2" d="M559.36,143.27s62.82,3.09,64.18-34.62,18.5-62.71-28.48-66.3c-38.63-3-51.57,13.08-55.09,25.56s-3.89,73.2,19.39,75.36"/><path class="cls-26" d="M711.19,479c-13.51,1.18-32.1,2.62-54.66,3.91q-6.76.38-14,.75c-68.11,3.41-95.11-7.78-95.11-7.78s-1.8-1.47-1.18-9.46c3.2-41.16,12-53.27,11-61.1C555,387.72,513.2,244,513.2,244s-.55-45.34,50-66.32a119.37,119.37,0,0,1,17.3-5.64c2.17,5.88,8.17,15.72,23.66,14,22.9-2.53,39.28-15.93,46.31-22.81,1.27,0,1.76.05,1.76.05a138,138,0,0,1,4.14,15c4,17.84,6.33,36.6,17.19,50.69a383.76,383.76,0,0,1,27.67,41A340,340,0,0,1,718,302.64c44,98.91,9.07,175-6.83,176.36"/><path class="cls-27" d="M711.19,479c-13.51,1.18-32.1,2.62-54.66,3.91-5.92-110.86,39.87-217,39.87-217a40,40,0,0,1,4.81,4C709,277.6,714.45,289,718,302.64,731.17,353,719.43,434.55,711.19,479"/><path class="cls-26" d="M652.22,163.24s43.92,1.25,66.94,31.58c17.65,23.24,35.7,147.5,35.59,166.19s-20.74,121.73-32,132.88a42.23,42.23,0,0,1-16.94-.1,34.25,34.25,0,0,1-16.28-8s6.26-114.82,6.32-125.59c.09-15.6-48.1-111.36-48.1-111.36s-25-45.59,4.48-85.57"/><path class="cls-30" d="M620.91,54.23c-1-3.86-5.77-5.91-5.77-5.91-35.3-15.62-61.25,1.09-61.25,1.09,21.86-29,74.17-22.56,85,3.76,17.75,43-15.24,51.72-15.24,51.72s-32.8-14-13.66-31.22c6.34-5.7,9.42-10.79,10.46-15.22a15.23,15.23,0,0,0,.4-4.22"/><path class="cls-17" d="M549.59,126.87s4.14,6.54,11.38,6.31a13.32,13.32,0,0,0,10.64-6.31s-12.21-2.34-22,0"/><path class="cls-13" d="M552.9,61.52s.4,0,1.1.06,1.69.11,2.88.24c2.38.25,5.52.71,8.65,1.28s6.22,1.3,8.52,1.93c1.16.3,2.1.62,2.78.81s1,.35,1,.35-.4,0-1.1-.06-1.69-.11-2.88-.24c-2.38-.25-5.52-.71-8.65-1.29s-6.22-1.3-8.52-1.93c-1.15-.31-2.1-.63-2.78-.81s-1-.35-1-.35"/><path class="cls-13" d="M556.9,66.39a20,20,0,0,1,2.45.08,43.63,43.63,0,0,1,5.27.8,42.85,42.85,0,0,1,5.13,1.44,19.44,19.44,0,0,1,2.27.94,20.44,20.44,0,0,1-2.46-.08,43.43,43.43,0,0,1-10.39-2.24,19.87,19.87,0,0,1-2.27-.94"/><path d="M585.72,80.3a1,1,0,0,0,0-1.37,12.46,12.46,0,0,0-7.91-3.65,10.17,10.17,0,0,0-5.86,1A1,1,0,0,0,573,78a8.4,8.4,0,0,1,4.7-.76,10.53,10.53,0,0,1,6.68,3.07,1,1,0,0,0,.62.3,1,1,0,0,0,.75-.27"/><path d="M575.22,90.25a2.34,2.34,0,1,0,2.54-2.12,2.34,2.34,0,0,0-2.54,2.12"/><path d="M542.71,78.16a1,1,0,0,1,.09-1.37,12.46,12.46,0,0,1,8.2-2.93,10.19,10.19,0,0,1,5.75,1.54A1,1,0,0,1,555.62,77,8.39,8.39,0,0,0,551,75.79a10.53,10.53,0,0,0-6.93,2.46,1,1,0,0,1-.64.24,1,1,0,0,1-.72-.33"/><path d="M552.28,89a2.34,2.34,0,1,1-2.34-2.34A2.34,2.34,0,0,1,552.28,89"/><path class="cls-31" d="M553.46,49.09c3.88-22.29,4.51-36.9,7.25-42.66s56.56-15.29,88.87,11.84C653.68,24.73,645.14,67.2,645,68c-56.88-11.44-91.53-18.87-91.53-18.87"/><path class="cls-30" d="M560.2,119.88s-17.45-5.08-22.84,6.63c0,0,5.52,3.15,14.74,2.52,0,0,8.62.3,8.1-9.15"/><path class="cls-30" d="M559.53,119.81s18.13-1.22,20.88,11.38c0,0-6.06,1.9-14.94-.71,0,0-8.49-1.56-5.94-10.67"/></g></g></svg>