<svg xmlns="http://www.w3.org/2000/svg" viewBox="0 0 446.38 1187.06"><defs><style>.cls-1{fill:#142d4e;}.cls-2{fill:#0b3454;}.cls-3{fill:#225682;}.cls-4{fill:#efefed;}.cls-5{fill:#f9ac74;}.cls-6{fill:#ec8b4c;}.cls-7{fill:#cececd;}.cls-8{fill:#f37621;}.cls-9{fill:#d24b40;}.cls-10{fill:#fff;}.cls-11{fill:#d7d7d7;}</style></defs><title>Palliative_Left_Docter</title><g id="Layer_2" data-name="Layer 2"><g id="Layer_1-2" data-name="Layer 1"><path class="cls-1" d="M311.52,1166.27c.18,9,1.31,17.44,4.56,20.79h130.3c-1.66-4.72-6.35-11.81-19.72-14-15.2-2.46-38.9-9.78-52.73-24.4a39.24,39.24,0,0,1-10.21-18.49c-6.13-27.29-50.69,8.36-50.69,8.36a220.66,220.66,0,0,0-1.51,27.71"/><path class="cls-1" d="M113.26,1166.27c.18,9,1.31,17.44,4.56,20.79h130.3c-1.66-4.72-6.35-11.81-19.72-14-15.2-2.46-38.89-9.78-52.73-24.4a39.26,39.26,0,0,1-10.21-18.49c-6.13-27.29-50.69,8.36-50.69,8.36a220.66,220.66,0,0,0-1.51,27.71"/><path class="cls-2" d="M367.63,1153c-14.56,4.65-42.39,18.83-60.07,12.15-11.42-4.3-75.29-189-79.43-269.85a206.8,206.8,0,0,0-3.27-24.07c-3.78-20.85-10.4-49.51-18-81.13-20.44-84.73-48.08-190.72-47.48-224.6.93-52.59,156.71-11,156.71-11s10.71,43.13,12.85,105.58c4.23,124,15.86,333.34,47.49,478.76,1.34,6.17-2.74,12.26-8.78,14.18"/><path class="cls-3" d="M259.51,565.68,191.1,1157.46s-52.61,14-80.74,7c0,0-21.61-317.65-19.6-394.39s-17.3-205.35,4.41-219.53,164.33,15.11,164.33,15.11"/><path class="cls-4" d="M84.77,208.18s86.54-56,148.62-27.34c9.89,4.56,21.18,17.28,29.25,26.19,22.44,24.72,87.81,451.28,87.81,451.28s-27.13,15-98.86,21.73Z"/><path class="cls-4" d="M230.85,178.15s86.38,27.49,98.06,66.92c8.54,28.79,42.7,174.93,42.7,194.79S219.2,544.41,208.39,512.36c-9-26.61-8.22-163.49-24.19-215.19L152.32,193Z"/><path class="cls-5" d="M220.11,206.77c-19.13,3.75-47.22-.25-67.79-13.81,9.29-22.18,13.09-39.7,14.45-51,.08-.6.14-1.19.2-1.75a52.12,52.12,0,0,0,.24-11.69h49.45s13.52,6.18,13.52,10.45q0,3.43.06,6.56c.1,5.69.33,10.65.62,14.91.94,13.87,2.53,20.41,2.53,20.41s6,22.15-13.27,25.94"/><path class="cls-6" d="M230.85,160.42c-37.46,7.24-59.21-13.23-64.08-18.48-.69-.75-1-1.2-1-1.2.4-.2.81-.37,1.25-.55,13.94-5.65,45.59-1.16,63.26,5.32.1,5.69.33,10.65.62,14.91"/><path class="cls-5" d="M154.53,120.37c6.7,36,53.18,34.85,73.27,32.58,5.66-.63,9.21-1.35,9.21-1.35,6.38-1.7,9.93-11.74,11.58-24.9,3.28-26-.86-64.24-5.26-74-6.62-14.71-19.08-30.61-65.9-19.14s-31.5,40.65-22.91,86.81"/><path d="M245.08,32.6c-6.4-8.86-20-19.68-32.29-26.35-26.47-14.32-60.35.45-60.49.51-38.24,16.81-48.23,46.07-28,91.64,21.44,48.19,41.85,42.77,41.85,42.77s-4.33-2.7-3.94-17.72c0-.85.06-1.57.09-2.18a10.09,10.09,0,0,0-3.19-8.22c-4.75-4.24-7.07-17.06-3.09-20.63,4.8-4.31,11.54.92,13.69,4.95a5.87,5.87,0,0,0,8.39,1.85c11.9-7.52,4.17-22.57,15.54-31.78s34.45-1.48,51.51-8.81c22.33-8.32,4.68-19.36-.14-26"/><path class="cls-4" d="M251.58,680C244,682,182,691.07,133.9,685.41c-11.49-1.35-60.45-3.2-71-6.73-1.12-.38.16-21.5,4.74-140.1.47-12.24,1-24.54,1.42-36.74q.31-7.76.61-15.45C73.89,381.5,78,286.77,78.89,281.67c2-11.54,3.85-21.38,5.88-29.91,5.92-24.85,13.28-38.48,29.32-50.2,1.56-1.19,14.39-7.66,25.7-13.28,9.37-4.66,17.7-8.72,17.7-8.72h0c3.73,1.83,8.21,10.37,12.9,22.37,8.61,22.11,17.91,56,24.38,81.26a.66.66,0,0,1,0,.13h0c4.16,16.33,7.15,29,8,32.69,1.44,6.16,3.35,18.09,5.6,34.26,3,22,6.69,51.87,10.53,85.76.4,3.48.79,7,1.19,10.57q.68,6.1,1.38,12.33c.15,1.34.3,2.67.44,4,1.48,13.42,3,27.28,4.46,41.36,1.23,11.64,18.89,20.06,20.1,31.89.7,7-10.48,12.1,1.18,29,1.06,1.54-1.43-159.55,3,72"/><path class="cls-7" d="M122.68,324c-.06.24-30.15,111.75,49.46,124.6S226,459.14,226,459.14,69.2,448.33,66.73,444.37s56-120.42,56-120.42"/><path class="cls-4" d="M1,442.89,109.11,418c-6.55-3.34-11.13-7.27-12.34-11.83-1-3.58,1.14-15.61,5.09-32.38,10.73-45.85,35.1-127.12,47.72-168.48,1.33-4.41,2.56-8.36,3.6-11.75,2.7-8.8,4.32-14,4.32-14h0c-.25,0-4.9.19-12.12,1.05-.81.09-1.63.19-2.49.31-20.56,2.69-57.79,10.52-78.19,32.85C50.36,229.48-8.2,364.63,1,442.89"/><path class="cls-3" d="M114.09,201.56l29-3s62.7,236.14,42.13,488.37H159.35s33.94-281.53-45.26-485.36"/><polygon class="cls-8" points="356.8 580.77 172.14 572.99 209.6 342.85 394.27 350.63 356.8 580.77"/><path class="cls-5" d="M186.57,433.75s47-2.51,49.36,5.87c5.5,19.53-40.41,35.57-55.28,34.47s-4.9-41.65,5.92-40.35"/><path class="cls-5" d="M384.17,397.36s-34.39-10.75-38.08-3c-8.61,18,21.84,41.75,33.15,43.32s13.28-39.65,4.93-40.3"/><path class="cls-9" d="M270.82,345.43s1.46-6.39,9.87-5.64,55.63,3.07,55.63,3.07,9.11-.15,8.26,5.69Z"/><path d="M229.62,79.92a14.72,14.72,0,0,1,9.67-3.43,11.68,11.68,0,0,1,6.44,1.63,1.35,1.35,0,1,0,1.58-2.18,14.18,14.18,0,0,0-8-2.14,17.41,17.41,0,0,0-11.44,4.09,1.35,1.35,0,0,0,.89,2.36,1.32,1.32,0,0,0,.88-.33"/><path d="M243.56,91.8a3.26,3.26,0,1,1-3.26-3.26,3.26,3.26,0,0,1,3.26,3.26"/><path class="cls-10" d="M276.39,121.73s-10.23,13.84-28.09,13.34A33.41,33.41,0,0,1,222,121.73s30.14-4.94,54.35,0"/><path class="cls-3" d="M1,442.89S.32,418.24.45,411.73L97,398.37S95.12,413,109.11,418Z"/><path class="cls-7" d="M72.71,459.3l-4.28,60.23s48.38-56.37,88.65-60.23Z"/><path class="cls-5" d="M17,439.2,78.75,425s40.58,16.34,113,15.44v27.35S53.45,473.21,17,439.2"/><path class="cls-4" d="M157.5,177.28s67.48,34.87,80.63,15.14l1.79,21.52-39,12.55s-22.42-9.71-27.5-12.1-9.86.89-12.7-6.28-4.53-7.69-5.83-11.8,2.61-19,2.61-19"/><polygon class="cls-11" points="302.72 279.61 251.58 285.46 251.58 264.51 302.72 258.66 302.72 279.61"/><path class="cls-4" d="M156.32,165.82s-2.24,21-2.24,21.63,85.85,31.72,85.85,31.72l1.2-48.12s-46.48,16.74-84.81-5.23"/><path class="cls-7" d="M155.86,170.06l-1.73,16.61s26,17.49,43.46,17.71,42.82.64,43.27-23l.26-5.49s-42.33,18.11-85.26-5.85"/></g></g></svg>