<svg xmlns="http://www.w3.org/2000/svg" xmlns:xlink="http://www.w3.org/1999/xlink" viewBox="0 0 345.45 956.82"><defs><style>.cls-1{fill:none;}.cls-2{fill:#2c3a64;}.cls-3{fill:#35488b;}.cls-4{fill:#cf9f75;}.cls-5{fill:#e9f2ff;}.cls-6{opacity:0.2;}.cls-7{clip-path:url(#clip-path);}.cls-8{fill:#b2cbfd;}.cls-9{fill:#c18e68;}.cls-10{fill:#b64c41;}.cls-11{fill:#d6716b;}.cls-12{clip-path:url(#clip-path-2);}.cls-13{opacity:0.5;}.cls-14{clip-path:url(#clip-path-3);}.cls-15{clip-path:url(#clip-path-4);}.cls-16{clip-path:url(#clip-path-5);}.cls-17{clip-path:url(#clip-path-6);}.cls-18{fill:#7a97f3;}.cls-19{fill:#fff;}.cls-20{clip-path:url(#clip-path-7);}</style><clipPath id="clip-path"><rect class="cls-1" x="158.59" y="240.88" width="119.56" height="390.99"/></clipPath><clipPath id="clip-path-2"><rect class="cls-1" x="166.63" y="128.99" width="66.84" height="61.85"/></clipPath><clipPath id="clip-path-3"><rect class="cls-1" x="140.96" y="247.97" width="6.75" height="6.75"/></clipPath><clipPath id="clip-path-4"><rect class="cls-1" x="140.96" y="436.96" width="6.75" height="6.74"/></clipPath><clipPath id="clip-path-5"><rect class="cls-1" x="139.26" y="350.59" width="6.75" height="6.74"/></clipPath><clipPath id="clip-path-6"><rect class="cls-1" x="139.26" y="519.07" width="6.75" height="6.75"/></clipPath><clipPath id="clip-path-7"><path class="cls-1" d="M118.73,52.41c-2.1,10.62,5.9,63.28,19.1,63.72,0,0,50.58-1.42,49.21-32.9s4.24-52.87-28.11-53.3h-1.62c-30.93,0-36.51,12.05-38.58,22.49"/></clipPath></defs><title>Palliative_Right_Doctor</title><g id="Layer_2" data-name="Layer 2"><g id="Layer_1-2" data-name="Layer 1"><path class="cls-2" d="M333.62,889.4s14.25,13.21,11.47,22.59-15.64,15.64-17.38,27.11-8.69,17.72-14.94,17.72H282.95s-4.6-8.07,6.52-10.5,15.31-15.91,14.62-28.42,1-29.19,1-29.19l23.63-5.56Z"/><path class="cls-2" d="M156,956.34a4.69,4.69,0,0,1-.94.32H75.33c.69-2.82,3.25-8.19,12.59-9.71,12.46-2,34-9.26,38.86-25.19.15-.51.29-1,.41-1.57,3.83-17,31.62,5.22,31.62,5.22s.09.68.21,1.83c.64,6.24,2.29,26.46-3,29.1"/><path class="cls-3" d="M91.23,500.88s4.22,52.68,9.18,116c6.74,86,14.86,191.68,15.66,211.7,1.39,34.76,7,90.36,7,90.36s13.2,13.21,39.62,7.64c0,0,23.54-79.37,30.27-163.35l.31-4.15c6.26-85.49,16-265.51,16-265.51Z"/><path class="cls-2" d="M91.23,500.88s4.22,52.68,9.18,116l92.49,146.35.31-4.15c6.26-85.49,16-265.51,16-265.51Z"/><path class="cls-3" d="M110.51,507.13s76.11,190.79,126.15,280.45,65.68,114.68,65.68,114.68S331,890.79,333.62,883c0,0-19.14-173.09-52.65-215.29-18.94-23.84-41.18-95.39-42.22-120.42S232,472.73,232,472.73Z"/><path class="cls-4" d="M133.83,153.88c28.35,8.95,77.42-15.2,77.42-15.2s-22.12-16.6-24.6-51c0-.47-.07-.95-.09-1.43-.15-2.55-.18-5.21-.09-8l-7.76,6.25-29.05,23.42s1.49,11.55,2.09,30.79a60.69,60.69,0,0,0-11.09,7.8,44.49,44.49,0,0,0-6.83,7.36"/><path class="cls-4" d="M242.73,135s-75-11.82-124.33,20.87c0,0-33.55,219.31-4.34,240.06s128.67,0,128.67,0Z"/><path class="cls-5" d="M142.71,631.86H278.15s-15.74-231.11-20.23-287.37c-3.65-45.63-11.37-155-14.16-194.76-.65-9.26-1-14.73-1-14.73l-32.33-5.51-55.54,72s-8.78,192-8.46,222.21-3.51,148.14-3.69,168,0,40.23,0,40.23"/><path class="cls-5" d="M154.86,201.47,142.71,631.86H78.9s3-283.07,3.17-309.08-6.93-138,13-155.43c16.65-14.53,56.7-28.65,56.7-28.65Z"/><path class="cls-5" d="M151.34,128.78s-18.19,12.53-17.51,17A84.32,84.32,0,0,0,137,157.43l11.13-2.26-9.39,6.61s10.65,31.05,16.11,39.7Z"/><g class="cls-6"><g class="cls-7"><path class="cls-8" d="M251.39,257c-8-49-100,23.39-92.35,87.59,14.16,118.79,74.43,251.23,119.12,287.29Z"/></g></g><path class="cls-9" d="M186.66,87.63a3.44,3.44,0,0,1,.41-1.31l-.5-.11-7.85-1.7-29.05,23.43s1.26,10.91,2.16,30.84c.07-.1,29.94-16.63,34.84-51.14"/><path class="cls-4" d="M140.51,121.13s57.46-1.61,55.91-37.37,4.82-60.06-31.93-60.55S121.2,36.68,118.82,48.74s6.71,71.88,21.69,72.39"/><path class="cls-2" d="M118.75,198.75c1.07-19.5,11.71-51.27,11.8-51.57l-3,1.35c-.38,1.27-8.84,30.27-9.93,50.18Z"/><path class="cls-2" d="M192.42,257c1.07-1.11,27.1-26.15,21.55-43.69-2.16-6.84-6.15-9.52-10.37-11.52-3.94-1.44-13.14-2.93-17.9.06-8.67,5.46-13,20.54-14.33,45.63l1.06.05c1.53-29.75,9.2-40.53,14.93-43,7.21-3.05,19.84-1.79,23.82,9.74,2.74,7.94-2.64,19-7.62,26.66-5.54,8.47-11.57,16-11.63,16Z"/><path class="cls-10" d="M189.71,259.69h0a2.57,2.57,0,0,0,3.63,0l1.78-1.78a2.56,2.56,0,1,0-3.63-3.63l-1.78,1.78a2.57,2.57,0,0,0,0,3.63"/><path class="cls-10" d="M171.8,252.24h0a2.57,2.57,0,0,0,2.56-2.56v-2.52a2.56,2.56,0,0,0-5.13,0v2.52a2.57,2.57,0,0,0,2.56,2.56"/><path class="cls-2" d="M125.35,198.75a7,7,0,1,0-7,7,7,7,0,0,0,7-7"/><path class="cls-11" d="M121.67,198.75a3.54,3.54,0,1,0-3.54,3.54,3.54,3.54,0,0,0,3.54-3.54"/><path class="cls-8" d="M149.92,631.86c0-.43,4.43-43.78,3.16-81.46-.53-15.92-.08-34.64.35-52.74.62-25.82,2-50.68-.08-66.9C149.79,403,150.5,276.91,152,263.24c1.43-13.32.06-27.94-1.26-32.35s4.42-29.08,4.49-29.33l-.67-.17c-.27,1-6.49,25.25-5.09,29.93,1.31,4.36,3.26,18.63,1.84,31.86-1.47,13.68-4.27,139.77-.7,167.54,2.08,16.16,2.78,41.15,2.16,66.94-.44,18.11-.89,36.84-.35,52.78,1.26,37.63-5.13,81-5.17,81.44Z"/><path class="cls-5" d="M37.76,285.66s-17.14,29.5.83,37.26,19.91-.42,19.91-.42Z"/><path class="cls-5" d="M181.35,303.83s-2.73,5.56-2.42,10.55c.32,5.22,2.77,13.1,2.77,13.1S287.5,350,308.06,331.17C330.13,311,289.17,159.1,271.65,144.24c-7.55-6.41-23.48-10.31-38.18-12.65-8.1-1.29-15.83-2.11-21.58-2.6-5.93-.52-9.77-.68-9.77-.68l2.39,8.82,9.28,34.29,10.82,40S256.94,278,258,284.23s-76.63,19.6-76.63,19.6"/><g class="cls-6"><g class="cls-12"><path class="cls-8" d="M166.62,190.83s27-11.75,46.37-22.45c12.66-7,19.14-20.07,20.47-36.79-8.1-1.29-15.83-2.11-21.58-2.6-.93.3-1.49.5-1.49.5l-5.89,7.64Z"/></g></g><path class="cls-5" d="M154.86,201.47l42-80.14s15.67,3.18,20.94,8.11c0,0-2.68,24.1-4.76,29.43,0,0-8.11-.93-9.27-.23,0,0,3.94,6,5.1,6.72,0,0-36.53,17-54,36.1"/><path class="cls-2" d="M203.48,204.55c2.87-6.34,28.18-60.39,21.73-74.14l-2.47-.31c4.88,10.42-12.66,57.4-20.28,74.23Z"/><g class="cls-13"><g class="cls-14"><path class="cls-8" d="M147.71,251.34a3.37,3.37,0,1,0-3.37,3.37,3.37,3.37,0,0,0,3.37-3.37"/></g></g><g class="cls-13"><g class="cls-15"><path class="cls-8" d="M147.71,440.33a3.37,3.37,0,1,0-3.37,3.37,3.37,3.37,0,0,0,3.37-3.37"/></g></g><g class="cls-13"><g class="cls-16"><path class="cls-8" d="M146,354a3.37,3.37,0,1,0-3.37,3.37A3.37,3.37,0,0,0,146,354"/></g></g><g class="cls-13"><g class="cls-17"><path class="cls-8" d="M146,522.44a3.37,3.37,0,1,0-3.37,3.37,3.37,3.37,0,0,0,3.37-3.37"/></g></g><path class="cls-18" d="M183.32,147.18s-11.69,5.75-30.59,2.19l2.12,52.1Z"/><polygon class="cls-3" points="109.45 208.82 0.03 218.62 66.79 337.23 169.79 331.32 109.45 208.82"/><path class="cls-8" d="M99.37,208.27s0-16.76-9.31-15.6-12.06,18-12.06,18Z"/><polygon class="cls-18" points="0.74 217.12 110.16 207.32 170.5 329.82 169.76 331.34 109.42 208.84 0 218.65 0.74 217.12"/><path class="cls-5" d="M90.05,192.66s-15.46,7.59-10,31.92,12.27,37.67,8.3,52.05L14.65,283.4s8-19.13-.89-38.49-2.58-41.48,5.59-43.41Z"/><path class="cls-4" d="M53.24,315.15s11.2-13.46,8.89-23.2-10.67-12-15.77-8.54-12.52,11.33-11.13,17.35,12.36,17.19,18,14.39"/><path class="cls-4" d="M186.95,307.14s-19-8.35-27.68-5.91-20.42,4.17-21.34,7.3,6.25,14.72,16.93,15.3,29.45,5.56,34,0-1.88-16.69-1.88-16.69"/><path class="cls-19" d="M145.09,95.87s-1.54,4.8-4.41,5.66-7.48,1.4-8.57,1-3.12-3.37-3.95-4.27A145.85,145.85,0,0,1,144.4,96Z"/><path d="M142.17,63.44a7.47,7.47,0,0,0-5.07-1.13A5.91,5.91,0,0,0,134,63.52a.68.68,0,1,1-.93-1,7.19,7.19,0,0,1,3.9-1.56,8.83,8.83,0,0,1,6,1.35.68.68,0,1,1-.77,1.13"/><path d="M137.57,72.78A1.65,1.65,0,1,0,139,71a1.65,1.65,0,0,0-1.44,1.83"/><path d="M124.36,72.78A1.65,1.65,0,1,1,122.92,71a1.65,1.65,0,0,1,1.44,1.83"/><g class="cls-20"><path d="M117.6,64.52a7.47,7.47,0,0,1,5.07-1.13,5.91,5.91,0,0,1,3.14,1.21.68.68,0,1,0,.93-1,7.19,7.19,0,0,0-3.9-1.56,8.83,8.83,0,0,0-6,1.35.68.68,0,0,0-.18.94.69.69,0,0,0,.48.29.67.67,0,0,0,.46-.11"/></g><path d="M214.41,17.09c.48-.6,1.63-1.12,4.23-1.38a10.57,10.57,0,0,0-4.92-1.16c-.7-3.6-2.91-9.92-9.2-11.21a7.82,7.82,0,0,1,4,5.47C201,1.71,185.3-3,142.63,2.23,86.4,9.14,106.57,44.46,114.06,48.45s25.37-8.62,39-8.13,17.1,20,21.83,22.54,2.71-2.19,8.84-5.29,7.17,7.23,5.66,14,7.46,15.31,7.46,15.31l8.27-9.72c8.27-9.72,14.72-49.64,10.41-57.91l-1.15-2.21"/></g></g></svg>