<svg xmlns="http://www.w3.org/2000/svg" viewBox="0 0 724.05 1024.88"><defs><style>.cls-1{fill:#2f2d2c;}.cls-2{fill:#f9ac74;}.cls-3{fill:#edeced;}.cls-4{fill:#e28648;}.cls-5{fill:#f69253;}.cls-6{fill:#fff;}.cls-7{fill:#1d3865;}.cls-8{fill:#e0e0e0;}.cls-9{fill:#9fd8d6;}.cls-10{fill:#acbfe2;}.cls-11{fill:#215683;}.cls-12{fill:#1e5075;}.cls-13{fill:#104460;}</style></defs><title>Palliative_Center_Nurse</title><g id="Layer_2" data-name="Layer 2"><g id="Layer_1-2" data-name="Layer 1"><path class="cls-1" d="M521.42,30.06c.09-2.43,2-28.68,42-30.06,0,0-19.66,2.34-23.06,11,0,0,13.39-10.68,24.29-7.24S581.91,26.28,582,32.56s-6,26.54-12.91,28.26a21.09,21.09,0,0,1-8.38,0,94.5,94.5,0,0,1,5.37,9.58c16,32.75-.5,64.76-14,61.22-8.66-2.27-11.11,12.51-11.11,12.51L456.78,76s30.91-64,64.64-46"/><path class="cls-2" d="M292.06,439.54c7,6.22,25.7-15.15,28.27-18a1.65,1.65,0,0,1,.27-.41l-5.68-15.83s-24.48-.95-28.54,3.11-2,24.49,5.68,31.11"/><path class="cls-2" d="M314.92,405.32l2.43,16.37s1.09,0,3-.14c6-.41,20.43-1.22,36.8-3,15.62-1.54,33.1-3.85,46.75-7.16,7.87-1.91,14.48-4.16,18.73-6.78,17.72-10.82,46.81-44,65.74-77.11a20.83,20.83,0,0,0,1.36-2.44c6.37-11.36,11.52-22.66,14.5-33a67.14,67.14,0,0,0,2.81-16,69.72,69.72,0,0,0-2.3-22.19,56.42,56.42,0,0,0-10-20,9.78,9.78,0,0,0-1.89-2.29,46.74,46.74,0,0,0-12.86-11c-2.59-1.08-5.34-.26-8.2,2.1-.32.25-.63.54-1,.82,0,0,0,0,0,0-.41.38-.81.79-1.22,1.23V225a40.46,40.46,0,0,0-3.22,3.88.06.06,0,0,0,0,0,74.91,74.91,0,0,0-6.09,9.89c-.13.13-.28.26-.28.41-.67,1.22-1.35,2.57-2.16,4.06a3.08,3.08,0,0,0-.53.94q-2.24,4.67-4.47,9.74c-16.63,36.26-34.35,91.18-49.1,107.55-3.44,3.81-13.52,9.58-25.71,15.71h0l-.7.34-.07,0c-10.17,5.1-21.73,10.4-32.09,15-16.63,7.3-30.16,12.72-30.16,12.72"/><path class="cls-3" d="M378,377.21c-.26.4-.47.6-.6.6"/><path class="cls-3" d="M452.76,253.93q2.24-5.06,4.47-9.73a3,3,0,0,1,.54-.94c.81-1.49,1.49-2.84,2.16-4.05,0-.15.14-.28.27-.41a74.8,74.8,0,0,1,6.08-9.89s0,0,0,0c2-2.36,3.53-4.18,4.44-5.24,0,0,0,0,0,0,.45-.52.75-.87.87-1l.08.17L504.2,292.1c-3,10.33-8.13,21.63-14.5,33a20.46,20.46,0,0,1-1.36,2.43c-2.5,4.39-13.94,45.33-16.67,49.68l-51.57-52.27Z"/><path class="cls-2" d="M492.11,994.86l17.88,6.66s77.64-107.68,87.2-202.43c1.71-16.92,1.14-33.3-2.55-48.44,0,0,.76-4.33,2.09-12,.61-3.58,1.37-7.88,2.23-12.82,2.52-14.46,6-34.25,10-56.78,9.14-51.85,21-118.14,30.17-166.87l-4.82-1.55-52.12-16.81-10.77-34.21-38.8-10.22s-8.67,17-16.42,97.06c-1.43,10.51-2.73,22.1-3.71,34.66a685.76,685.76,0,0,0,3.69,140.32q2.67,20.89,6.82,43.07c2,10.83,2.35,25.58,1.49,42.53-3.91,77.45-32.34,197.81-32.34,197.81"/><path class="cls-4" d="M512.46,571.14l84.26,167.52c.61-3.58,1.37-7.88,2.23-12.81,2.52-14.46,6-34.25,10-56.78,9.13-51.85,21-118.14,30.17-166.87l-4.82-1.55-52.11-16.81-10.77-34.21-38.81-10.22s-8.67,17-16.42,97.06c-1.43,10.51-2.73,22.09-3.71,34.66"/><path class="cls-2" d="M549.53,460.91l1.95-16.73c32.68,8.68,120-24.25,120-24.25s31.66,27.83,27.5,94.54c-2,32.56-5.73,170.92-9.61,211.86-1.4,14.84-2.62,25.4-3.12,29.62a.07.07,0,0,0,0,0,5.85,5.85,0,0,0,1,3.63,192.64,192.64,0,0,1,14.29,30c38,101.24-5.85,225.92-5.85,225.92L684.25,1011S659.3,872.24,639,810.95c-3.44-10.4-6.74-18.57-9.76-23.45-8.81-14.23-17-37.47-24.42-65.12-14-52.27-25.33-120.27-32.85-172.75-1,0-22.47-88.72-22.47-88.72"/><path class="cls-2" d="M524.73,266.82c-4.8-.26-9-6.42-12.49-14.69-7.4-17.59-11.56-44.81-11.28-45.51a0,0,0,0,0,0,0s1.91-.83,5.11-2.12c1.48-2.67-.29-12.21-2.77-22.09-3.19-12.63-7.49-25.82-7.49-25.82l40.54-19.06,2.42-1.12A148.32,148.32,0,0,0,546.59,160a50.83,50.83,0,0,0-6.86,2.83l-12.79,15.76c16.4-3.29,26.08-2.28,31.11,1.38a37.32,37.32,0,0,0,3.12,3.5,17.9,17.9,0,0,0,4,3.09c3.43-.43,15.76,83.33-40.42,80.24"/><path class="cls-5" d="M495.82,156.56s4.31,13.18,7.48,25.81c23.7-6.61,30.9-31.52,33.06-44.87Z"/><path class="cls-2" d="M490.83,170.52s56.69-13.12,48-48.3S531.55,61.64,495,68.53s-40.25,22.05-40.2,34.5,21.07,70,36,67.48"/><path class="cls-6" d="M500.39,151.6s-2.17,6.15-5.9,7.14-9.69,1.51-11.09,1-3.89-4.48-4.92-5.68a187.21,187.21,0,0,1,21-2.37Z"/><path d="M472.56,110.77a9.61,9.61,0,0,0-6.68-.45,7.6,7.6,0,0,0-3.76,2.16.88.88,0,1,1-1.38-1.1,9.24,9.24,0,0,1,4.66-2.75,11.37,11.37,0,0,1,7.91.56.88.88,0,1,1-.75,1.59"/><path d="M468.54,123.62A2.13,2.13,0,1,0,470,121a2.13,2.13,0,0,0-1.48,2.63"/><path d="M496.5,109.5a9.6,9.6,0,0,0-6.49-1.66,7.61,7.61,0,0,0-4.09,1.44.88.88,0,0,1-1.15-1.33,9.25,9.25,0,0,1,5.09-1.86,11.37,11.37,0,0,1,7.68,2,.88.88,0,0,1,.2,1.23.89.89,0,0,1-.63.36.87.87,0,0,1-.59-.17"/><path d="M490.21,121.4a2.13,2.13,0,1,0,1.93-2.31,2.13,2.13,0,0,0-1.93,2.31"/><path class="cls-1" d="M451.6,83.06c6.09-12.75,13.27-12.07,17.75-9.81,26.64-24.65,52.77-4.51,52.77-4.51C532.18,93,554,103,554,103s-8.71,8.92-34,8.72c-7.71-.06-15.47-3.6-22.52-8.48a135.77,135.77,0,0,0,29.56,22c-31.6-6-52.79-42.63-55-46.52-2.68,4-7.8,12.37-8.23,19.47-.58,9.66,2.74,28.41-2.79,29.12,0,0-18.62-25.15-9.48-44.27"/><path class="cls-7" d="M629.48,1024.88h90s2.16-13.72-2.55-24.13c-4.51-10-11.56-14.53-9.87-26.61-5.72,5.89-15,12.49-28.06,10.74-1.59,2.58-10.29,16.42-15.62,20.25-5.88,4.23-32.12,2.72-33.93,19.76"/><path class="cls-7" d="M436.17,1024.88h90s3.37-14.36-2.54-24.13c-5.23-8.64-3.23-13.57.65-20.72a35,35,0,0,1-15.16,2.85c-4.49-.26-9.23-2.29-13.39-4.71-3.88,4.42-20.47,23.22-25.65,26.95-5.88,4.23-32.12,2.72-33.93,19.76"/><path class="cls-3" d="M492.33,742.95l23.77-225.59-3.63-103L471.67,222.59l32.64-17.37s11.11,30.8,26,39.55c0,0,28-22.87,38.15-59.56,0,0,52.85-1.53,64.68,22.79,6.21,12.79,13.54,29.29,25.07,60.9,5.07,13.9,3.53,31.27,7,47.32,7.29,33.31,6.14,85.3,28.1,124.45,47.88,85.35,31.82,130.46,5,302.28,0,0-63.39-10.54-206,0"/><path class="cls-8" d="M596,226.84c-.69,2.39-87,140.19-88.89,167.63s36.3,11.93,36.89,8.35,52-176,52-176"/><path class="cls-8" d="M511.63,410.42l1.93,53.65C637,428.5,625.73,246.13,625.73,246.13L549.42,383.9l-62.32,36s-.24.32-.67.93"/><path class="cls-2" d="M431.53,432l4.74,17.31,15.43-2.84c2.84-.55,4.46-1,4.46-1,7.58-1.48,16.63-3.51,26.51-5.68h.14c16.91-4.06,35.84-8.92,51.81-14.34,1.43-.5,2.84-1,4.21-1.5,9.44-3.48,17.6-7.15,23.38-10.81a17.29,17.29,0,0,0,1.9-1.35c15.82-11.5,34.62-45.32,49.24-81.57,2-5,3.93-10,5.81-14.88a369.5,369.5,0,0,0,15.43-51.41,146,146,0,0,0,3.65-24.48,58.76,58.76,0,0,0,.13-6.9c-.26-39.23-28-43.29-31.65-38.82-4.59,5.55-9.46,14.6-14.47,25.57-7.71,17.44-15.82,40-23.4,62.49-4.2,12.31-8.26,24.63-12.31,36-2.3,6.9-4.61,13.39-6.77,19.34-4.2,11.37-8,20.57-11.36,26.38-2.17,3.79-8.39,9.07-16.65,15-2.18,1.59-4.53,3.22-7,4.9-13.69,9.29-31.1,19.65-46.58,28.37-7.58,4.33-14.75,8.26-20.7,11.5-9.6,5.27-16,8.66-16,8.66"/><path class="cls-3" d="M549.76,337.13c2.16-6,4.46-12.44,6.76-19.34,4.06-11.36,8.11-23.67,12.31-36,7.57-22.45,15.69-45.05,23.4-62.49,5-11,9.88-20,14.47-25.57,3.65-4.46,31.39-.41,31.65,38.82a59.22,59.22,0,0,1-.13,6.9c-.28,6.9,2.22,18.61.19,27.81-3.25,15.43-5.93,35.4-12.69,53.52-1.89,4.87-4.73,16.45-6.76,21.45Z"/><path class="cls-9" d="M377.18,377.59c0,.14.09.21.18.21l-.11-.25c-.11-.22-.13-.22-.07,0"/><rect class="cls-6" x="298.49" width="23.58" height="1015.58"/><path class="cls-6" d="M207,169.49h0a37.86,37.86,0,0,0,37.75-37.75V36.1h-75.5v95.64A37.86,37.86,0,0,0,207,169.49"/><path class="cls-10" d="M206.23,162.85h0a31.8,31.8,0,0,0,31.7-31.7v-20.7H174.52v20.7a31.8,31.8,0,0,0,31.7,31.7"/><rect class="cls-6" x="153.16" width="168.9" height="18.21"/><rect class="cls-6" x="199.72" y="18.21" width="13.01" height="22"/><rect class="cls-6" x="246.58" y="995.27" width="132.74" height="25.64"/><rect class="cls-6" x="298.49" y="410.42" width="108.54" height="47.24"/><rect class="cls-10" x="310.27" y="419.28" width="88.07" height="24.04"/><path class="cls-2" d="M379.15,430.25c7.45,0,19.2-.55,26-3.15,0,0-21.71-.31-17.1-7.17.84-1.25,11.63-.3,23.68-.3,4.94,0,17.15,6.77,16.52,7.08,8.73-1.15,16.67-2.85,19.24-3.4a4.32,4.32,0,0,0,.95-.27l7.71,22.46s-1.62.4-4.46.95a302.25,302.25,0,0,0-35.85,11c-19.48,7.71-33.81-1.88-40.31-8.66-4.12-4.3-7.37-10-7.14-14.15.25-4.53,6.22-4.33,10.77-4.35"/><path class="cls-6" d="M126.11,572.87c-15.46,0-33-3.05-52.28-9.18a337,337,0,0,1-64.67-29l1.93-3.18c1.14.7,114.86,68.93,165.42,19.9,38-36.82,43.76-137.79,41.92-216-2-85-13.2-162.26-13.32-163l3.68-.54c.11.77,11.36,78.22,13.35,163.48,2.69,114.86-11.8,188.46-43.06,218.77-12.89,12.49-30.82,18.78-53,18.78"/><path class="cls-6" d="M.72,540.72h0a5.39,5.39,0,0,1,2-7.34l9.51-5.49a5.38,5.38,0,0,1,5.38,9.31l-9.5,5.49a5.39,5.39,0,0,1-7.34-2"/><polyline class="cls-8" points="495.82 307.11 474.82 342.16 462.15 365.83 471.67 377.21"/><path class="cls-2" d="M558,180c-5-3.65-14.71-4.66-31.11-1.38l12.79-15.76a50.78,50.78,0,0,1,6.86-2.83A87.74,87.74,0,0,0,558,180"/><polygon class="cls-11" points="661.32 449.28 601.6 455.69 603.16 470.52 663.66 464.07 661.32 449.28"/><polygon class="cls-8" points="663.66 464.07 670.49 506.04 642.58 526.72 612.53 513.45 603.16 470.52 663.66 464.07"/><polygon class="cls-12" points="497.71 198.34 486.43 214.74 520.61 252.07 533.75 234.12 497.71 198.34"/><path class="cls-11" d="M561.2,169.49,582,182.38s-18.69,63.76-64.48,96.11l-18.47-18s53.21-47.82,62.19-91"/><polygon class="cls-13" points="561.2 169.49 552.23 171.35 558.04 179.99 561.2 169.49"/><path class="cls-13" d="M505.35,191.86l-7.64,6.48,6.6,6.88,1.77-.76s1.77-1.31-.73-12.6"/></g></g></svg>