<svg xmlns="http://www.w3.org/2000/svg" viewBox="0 0 500.77 874.17"><defs><style>.cls-1{fill:#8fadef;}.cls-2{fill:#bbd0ff;}.cls-3{fill:#aec3ff;}.cls-4{fill:#d2e0ff;}.cls-5{fill:#d4e4f8;}</style></defs><title>Palliative_Right_Flower_Pot</title><g id="Layer_2" data-name="Layer 2"><g id="Layer_1-2" data-name="Layer 1"><path class="cls-1" d="M41.25,454.53v10.65c0,3.73,1.21,6.78,2.68,6.78h388.7c1.47,0,2.68-3,2.68-6.78V454.53c0-3.72-1.21-6.77-2.68-6.77H43.94c-1.47,0-2.68,3.05-2.68,6.77"/><path class="cls-2" d="M41.25,454.53v10.65c0,3.73,1.11,6.78,2.46,6.78H352.3c1.35,0,2.46-3,2.46-6.78V454.53c0-3.72-1.11-6.77-2.46-6.77H43.71c-1.35,0-2.46,3.05-2.46,6.77"/><rect class="cls-3" x="139.63" y="471.95" width="275.95" height="402.21"/><rect class="cls-4" x="62.3" y="471.95" width="275.95" height="402.21"/><path class="cls-3" d="M77.13,483.32H323.42V852H77.13ZM320.76,486h-241V849.3h241Z"/><rect class="cls-3" x="78.46" y="605.27" width="243.64" height="2.66"/><rect class="cls-3" x="78.46" y="729.59" width="243.64" height="2.66"/><path class="cls-3" d="M175.31,507.09h45.21a4,4,0,0,0,0-8H175.31a4,4,0,0,0,0,8"/><path class="cls-3" d="M175.31,628.67h45.21a4,4,0,1,0,0-8H175.31a4,4,0,1,0,0,8"/><path class="cls-3" d="M175.31,755.41h45.21a4,4,0,0,0,0-8H175.31a4,4,0,0,0,0,8"/><path class="cls-3" d="M209.76,253.42s31.19-36.38,1.92-59.49c0,0-21.38-12.94-38.8-11.89,0,0,24.7,41.41,16.71,45.53s-24.19-48.13-24.19-48.13-48.64-4.72-64.29,2.81c0,0,41.58,34,32.83,36.05s-53.67-31.37-53.67-31.37S35,194.63,37.39,222.24s18,36.15,24.87,35.41,47-16,47.84-10.43-23.27,24-40.17,24.84c0,0,31.92,35.2,53.13,25s23-26.26,36.25-32.3,24.51-6,19.05.13-29.39,12.15-37,25.52-14.35,22.4,7.6,19.09,57.62-19.36,59.19-37.75Z"/><path class="cls-3" d="M59.64,223s123-4.74,150.12,30.43c0,0,6,18,24.49,34.36l2.88,7.85s-21.31-22.47-28.93-23.83c0,0,11.92-43.57-148.55-48.82"/><path class="cls-3" d="M234.24,287.78s26.39,19.52,28.23,54.4l-4.79.43s-8.43-36.06-23.66-50.16.23-4.66.23-4.66"/><path class="cls-5" d="M318.8,207.66s-49.61-27.78-26.46-65.48c0,0,18.52-23.15,38.36-29.11,0,0-10.58,56.23,0,57.55s7.28-63.5,7.28-63.5S390.23,82,410.74,84c0,0-32.41,54.9-21.83,53.58s47-56.89,47-56.89,53.58-9.92,62.18,21.83-5.29,47.63-13.23,49.61S426,153.42,427.28,160s35.72,17.2,54.9,11.25c0,0-21.17,52.26-48.95,49.61S396.85,201,379.65,199.72s-29.76,3.31-21.17,7.94,37.7,1.52,51.59,13.33,25.14,19.09-.66,24.38-72.1,2-81.36-17.86Z"/><path class="cls-5" d="M473.58,112.41s-138.91,45-154.78,95.25c0,0,.66,22.49-13.23,48.29v9.92s14.55-33.73,22.49-38.36c0,0-31.09-43.66,145.52-115.1"/><path class="cls-5" d="M305.57,255.95s-21.42,32.53-9.21,72.13l5.51-1.48S296.52,283,307.73,261s-2.16-5.1-2.16-5.1"/><path class="cls-4" d="M239.87,169.35s65.4-36.62,34.88-86.32c0,0-24.41-30.52-50.57-38.36,0,0,14,74.11,0,75.86s-9.59-83.7-9.59-83.7S145.7,3.68,118.67,6.29c0,0,42.72,72.37,28.77,70.63s-61.91-75-61.91-75-70.63-13.08-82,28.77S10.55,93.49,21,96.1s77.6,1.74,75.86,10.46S49.79,129.24,24.5,121.39c0,0,27.9,68.88,64.52,65.4s48-26.16,70.63-27.9,39.24,4.36,27.9,10.46-49.7,2-68,17.57-33.13,25.16.87,32.13,95,2.62,107.25-23.54Z"/><path class="cls-5" d="M35.84,43.79s183.1,59.29,204,125.56c0,0-.87,29.65,17.44,63.65v13.08s-19.18-44.47-29.65-50.57c0,0,41-57.55-191.82-151.72"/><path class="cls-5" d="M257.31,233s28.24,42.88,12.14,95.08l-7.26-2s7.05-57.49-7.72-86.41,2.85-6.72,2.85-6.72"/><path class="cls-3" d="M242.07,441.27A128.1,128.1,0,0,1,114,313.17h256.2a128.1,128.1,0,0,1-128.1,128.1"/><path class="cls-3" d="M112.21,447.79H371.94a15.8,15.8,0,0,0-15.8-15.8H128a15.8,15.8,0,0,0-15.8,15.8"/><rect class="cls-2" x="111.06" y="313.17" width="263.32" height="3.93"/></g></g></svg>