<svg xmlns="http://www.w3.org/2000/svg" viewBox="0 0 2650 1351.56"><defs><style>.cls-1{fill:#87a535;}.cls-2{fill:#83a530;}.cls-3{fill:#a8d29f;}.cls-4{fill:#88b374;}.cls-5{fill:#7a3909;}.cls-6{fill:#768c33;}.cls-7{fill:#99c049;}.cls-8{fill:#d4c7bf;}.cls-9{fill:#3f535b;}.cls-10{fill:#a08f85;}.cls-11{fill:none;stroke:#a08f85;stroke-miterlimit:10;stroke-width:3px;}</style></defs><g id="Layer_2" data-name="Layer 2"><g id="_3_elements" data-name="#3 elements"><path class="cls-1" d="M0,665.86S430.21,779.4,528.6,786.11,2487.49,702,2650,733.63c0,0-825.76,220.94-832.43,222.61s-496.92,123.55-506.92,118.47-870.26,0-870.26,0L145.07,1053.9,0,1065.15Z"/><path class="cls-2" d="M2650,733.63S1189.76,964.64,919.62,1033s500.25,32.18,500.25,32.18H2650Z"/><g id="tree"><path class="cls-3" d="M2352.26,137.71C2357.27,59.69,2385,0,2418.55,0c35.18,0,64,65.81,66.86,149.53a18.62,18.62,0,0,1,7.4-1.57c17.39,0,31.49,25.07,31.49,56a95.81,95.81,0,0,1-2,19.69c27.42,15.33,47,55.86,47,103.44,0,60.75-31.92,110-71.31,110-31.59,0-58.37-31.69-67.74-75.57-12.34,14.47-27.29,23-43.4,23-42.3,0-76.59-58.38-76.59-130.39C2310.25,203.25,2327.34,159.22,2352.26,137.71Z"/><path class="cls-4" d="M2367.82,197.09c71.52-12.78,82.14,90.39,82.14,90.39,84.72-51.09,119.24,45.21,119.24,45.21h0c-1.89,58.15-33,104.4-71.22,104.4-31.59,0-58.37-31.69-67.74-75.57-12.34,14.47-27.29,23-43.4,23-25.42,0-47.94-21.08-61.87-53.53C2324.49,328.9,2296.91,209.75,2367.82,197.09Z"/><path class="cls-5" d="M2427,994.45c2.73,0,5.56.35,5.56-3.27V281.59c0-3.62-2.21-6.55-4.94-6.55s-4.94,2.93-4.94,6.55V991.18C2422.66,994.8,2424.25,994.45,2427,994.45Z"/><path class="cls-5" d="M2427.6,533.62c15.26,0,28.34-11.9,38.9-35.39,8-17.7,14.55-42.19,19.58-72.79,8.48-51.51,9.72-103.7,9.73-104.23.08-3.61-2.06-6.63-4.79-6.73s-5,2.73-5.09,6.35c0,.51-1.23,51.64-9.53,102-7.35,44.58-21.78,97.72-48.8,97.72-2.73,0-4.94,2.94-4.94,6.55S2424.87,533.62,2427.6,533.62Z"/><path class="cls-5" d="M2427.14,682.18c.26,0,.52,0,.76,0,2.73-.23,4.8-3.33,4.63-6.95s-2.51-6.35-5.23-6.13c-.63,0-1.64-.1-3.15-2-6.16-7.83-17.17-40.26-21.61-169.46-2.56-74.48-1.61-145.42-1.6-146.13,0-3.61-2.12-6.6-4.85-6.67s-5,2.81-5,6.43c0,.71-1,72.07,1.6,147,1.52,44.1,3.94,80.82,7.21,109.13,4.28,37.09,10,59.72,17.45,69.19C2420.92,681.09,2424.53,682.18,2427.14,682.18Z"/><path class="cls-3" d="M1962,393.19a104.06,104.06,0,0,1-2-20.53c0-32.27,14.1-58.43,31.49-58.43a18.07,18.07,0,0,1,7.4,1.64c2.83-87.33,31.68-156,66.86-156,33.5,0,61.27,62.27,66.28,143.65,24.93,22.44,42,68.37,42,121.4,0,25.28-3.89,48.94-10.66,69.22a102.08,102.08,0,0,1,37.87,79.25c0,56.88-46.92,103-104.78,103A104.87,104.87,0,0,1,2000,613.71a45.66,45.66,0,0,1-13.71,2.13c-39.38,0-71.31-51.37-71.31-114.75C1915,451.46,1934.57,409.19,1962,393.19Z"/><path class="cls-4" d="M1962,393.19s69.38-35.8,122.27,27.28,89.66-36.4,72-82.63c11.09,23.59,17.77,54,17.77,87.1,0,25.28-3.89,48.94-10.66,69.22a102.08,102.08,0,0,1,37.87,79.25c0,56.88-46.92,103-104.78,103A104.87,104.87,0,0,1,2000,613.71a45.66,45.66,0,0,1-13.71,2.13c-39.38,0-71.31-51.37-71.31-114.75C1915,451.46,1934.57,409.19,1962,393.19Z"/><path class="cls-5" d="M2043.54,998.2c2.72,0,4.94-2.93,4.94-6.55V282.06c0-3.62-2.22-6.55-4.94-6.55s-5,2.93-5,6.55V991.65C2038.59,995.27,2040.81,998.2,2043.54,998.2Z"/><path class="cls-5" d="M2043.54,534.09c14,0,25.88-6.62,35.25-19.68,26.21-36.52,23.69-111.14,23.57-114.3-.14-3.61-2.45-6.4-5.19-6.21s-4.82,3.26-4.68,6.87h0c0,.72,2.41,72.2-20.88,104.63-7.53,10.49-16.71,15.59-28.07,15.59-2.73,0-5,2.94-5,6.55S2040.81,534.09,2043.54,534.09Z"/><path class="cls-5" d="M2042.84,679.16c.33,0,.67,0,1,0,2.72-.22,4.8-3.33,4.63-6.94s-2.51-6.37-5.24-6.14c-1.88.15-3.77-.91-5.75-3.27-6.1-7.25-17.69-32.77-26.7-122.22-5.21-51.72-7-100-7-100.44-.13-3.61-2.44-6.41-5.17-6.23s-4.83,3.25-4.7,6.86c0,.49,1.83,49.28,7.09,101.55,3.1,30.82,6.79,56.85,11,77.36,5.47,26.93,11.66,44.22,19,52.88C2034.59,676.93,2038.61,679.16,2042.84,679.16Z"/><path class="cls-3" d="M2352.07,382.61a149.76,149.76,0,0,0,2-24.7c0-38.8-14.1-70.26-31.49-70.26a15.5,15.5,0,0,0-7.4,2c-2.83-105-31.68-187.6-66.86-187.6-33.51,0-61.27,74.89-66.28,172.77-24.93,27-42,82.23-42,146,0,30.4,3.89,58.87,10.66,83.26-23.14,22.72-37.87,57-37.87,95.31,0,68.41,46.91,123.86,104.78,123.86,43.32,0,80.5-31.07,96.46-75.39a38.7,38.7,0,0,0,13.71,2.56c39.38,0,71.31-61.79,71.31-138C2399.07,452.69,2379.48,401.85,2352.07,382.61Z"/><path class="cls-4" d="M2150.68,504.05c-6.77-24.39-10.66-52.86-10.66-83.26,0-7.65.25-15.18.73-22.55,96.79,8.82,92.94,137.47,92.94,137.47S2313.76,491,2340.45,554s-26.4,93.87-26.4,93.87c-16,44.32-53.14,75.39-96.46,75.39-57.87,0-104.78-55.45-104.78-123.86C2112.81,561,2127.54,526.77,2150.68,504.05Z"/><path class="cls-5" d="M2249.37,999.44c2.73,0,4.94-2.93,4.94-6.55v-532c0-3.61-2.21-6.55-4.94-6.55s-4.95,2.94-4.95,6.55v532C2244.42,996.51,2246.64,999.44,2249.37,999.44Z"/><path class="cls-5" d="M2249.37,618.84c14,0,25.88-6.62,35.25-19.68,26.21-36.53,23.69-111.15,23.57-114.3-.14-3.62-2.45-6.41-5.18-6.22s-4.83,3.26-4.69,6.87c0,.78,2.4,72.22-20.88,104.63-7.53,10.49-16.71,15.59-28.07,15.59-2.73,0-4.95,2.94-4.95,6.56S2246.64,618.84,2249.37,618.84Z"/><path class="cls-5" d="M2245.39,868.11c.33,0,.66,0,1,0,2.72-.22,4.79-3.33,4.63-6.94s-2.52-6.36-5.24-6.14c-1.88.16-3.77-.91-5.75-3.27-6.11-7.25-17.69-32.77-26.7-122.21-5.21-51.73-7-100-7-100.45-.13-3.61-2.44-6.41-5.17-6.23s-4.84,3.25-4.7,6.86c0,.49,1.82,49.28,7.09,101.55,3.1,30.82,6.79,56.85,10.95,77.37,5.46,26.92,11.66,44.21,18.95,52.87C2237.14,865.88,2241.16,868.11,2245.39,868.11Z"/></g><g id="tree-2" data-name="tree"><path class="cls-3" d="M810.59,275C805,206.47,774.1,154,736.8,154c-39.17,0-71.29,57.84-74.43,131.43a25.5,25.5,0,0,0-8.24-1.39c-19.36,0-35.06,22-35.06,49.23a67,67,0,0,0,2.24,17.3C590.79,364.05,569,399.67,569,441.49c0,53.4,35.54,96.68,79.39,96.68,35.16,0,65-27.85,75.41-66.42,13.73,12.72,30.38,20.18,48.32,20.18,47.08,0,85.26-51.32,85.26-114.61C857.36,332.64,838.33,293.94,810.59,275Z"/><path class="cls-4" d="M793.27,327.23c-79.62-11.23-91.45,79.45-91.45,79.45-94.31-44.91-132.74,39.73-132.74,39.73h0c2.11,51.11,36.8,91.76,79.29,91.76,35.16,0,65-27.85,75.41-66.42,13.73,12.72,30.38,20.18,48.32,20.18,28.29,0,53.36-18.53,68.87-47.05C841.5,443.08,872.21,338.36,793.27,327.23Z"/><path class="cls-5" d="M727.41,1028.06c-3,0-6.19.3-6.19-2.88V401.5a5.51,5.51,0,1,1,11,0v623.68C732.22,1028.36,730.45,1028.06,727.41,1028.06Z"/><path class="cls-5" d="M726.72,623c-17,0-31.56-10.47-43.31-31.11-8.86-15.55-16.19-37.08-21.8-64-9.44-45.28-10.81-91.16-10.83-91.61a5.51,5.51,0,1,1,11-.34c0,.45,1.37,45.39,10.61,89.63,8.18,39.18,24.25,85.88,54.33,85.88a5.77,5.77,0,0,1,0,11.52Z"/><path class="cls-5" d="M727.23,753.59c-.29,0-.58,0-.85,0a5.67,5.67,0,0,1-5.15-6.1,5.59,5.59,0,0,1,5.83-5.39c.7,0,1.82-.09,3.49-1.77,6.87-6.88,19.13-35.38,24.07-148.94,2.85-65.46,1.79-127.82,1.78-128.44a5.51,5.51,0,1,1,11-.21c0,.62,1.07,63.35-1.79,129.17-1.69,38.76-4.39,71-8,95.93-4.76,32.59-11.11,52.48-19.41,60.81C734.16,752.64,730.14,753.59,727.23,753.59Z"/><path class="cls-3" d="M1245.06,499.59a72.85,72.85,0,0,0,2.23-18c0-28.36-15.7-51.35-35.06-51.35a24.7,24.7,0,0,0-8.23,1.44c-3.15-76.76-35.27-137.09-74.44-137.09-37.3,0-68.21,54.73-73.78,126.25C1028,440.51,1009,480.89,1009,527.49a156.83,156.83,0,0,0,11.87,60.85C995.11,604.94,978.71,630,978.71,658c0,50,52.23,90.52,116.65,90.52,48.22,0,89.61-22.71,107.37-55.1a63.51,63.51,0,0,0,15.26,1.87c43.85,0,79.39-45.15,79.39-100.85C1297.38,550.8,1275.57,513.65,1245.06,499.59Z"/><path class="cls-4" d="M1245.06,499.59s-77.24-31.47-136.11,24-99.82-32-80.17-72.63c-12.35,20.74-19.78,47.43-19.78,76.55a156.83,156.83,0,0,0,11.87,60.85C995.11,604.94,978.71,630,978.71,658c0,50,52.23,90.52,116.65,90.52,48.22,0,89.61-22.71,107.37-55.1a63.51,63.51,0,0,0,15.26,1.87c43.85,0,79.39-45.15,79.39-100.85C1297.38,550.8,1275.57,513.65,1245.06,499.59Z"/><path class="cls-5" d="M1154.27,1031.35a5.63,5.63,0,0,1-5.5-5.76V401.91a5.51,5.51,0,1,1,11,0v623.68A5.63,5.63,0,0,1,1154.27,1031.35Z"/><path class="cls-5" d="M1154.27,623.43c-15.61,0-28.82-5.82-39.25-17.3-29.17-32.1-26.37-97.68-26.23-100.46a5.59,5.59,0,0,1,5.77-5.46,5.67,5.67,0,0,1,5.22,6h0c0,.63-2.69,63.46,23.23,92,8.39,9.22,18.61,13.71,31.26,13.71a5.76,5.76,0,0,1,0,11.51Z"/><path class="cls-5" d="M1155,750.93l-1.11,0a5.67,5.67,0,0,1-5.15-6.1,5.57,5.57,0,0,1,5.83-5.39c2.1.13,4.19-.81,6.4-2.88,6.8-6.37,19.7-28.8,29.73-107.42,5.8-45.46,7.79-87.86,7.81-88.28a5.59,5.59,0,0,1,5.76-5.48,5.67,5.67,0,0,1,5.23,6c0,.43-2,43.31-7.9,89.25-3.45,27.09-7.55,50-12.19,68-6.08,23.67-13,38.87-21.1,46.48C1164.23,749,1159.75,750.93,1155,750.93Z"/><path class="cls-3" d="M810.81,490.29a104.5,104.5,0,0,1-2.24-21.71c0-34.11,15.7-61.76,35.06-61.76a21,21,0,0,1,8.24,1.73c3.15-92.32,35.26-164.88,74.43-164.88,37.3,0,68.21,65.83,73.79,151.85,27.75,23.72,46.77,72.27,46.77,128.33,0,26.72-4.33,51.74-11.86,73.17,25.75,20,42.15,50.09,42.15,83.78,0,60.12-52.22,108.86-116.65,108.86-48.22,0-89.61-27.31-107.37-66.26a53.33,53.33,0,0,1-15.26,2.25c-43.85,0-79.39-54.31-79.39-121.3C758.48,551.88,780.29,507.2,810.81,490.29Z"/><path class="cls-4" d="M1035,597c7.53-21.43,11.86-46.45,11.86-73.17q0-10.1-.81-19.82c-107.76,7.75-103.47,120.82-103.47,120.82s-89.13-39.28-118.84,16,29.39,82.5,29.39,82.5c17.76,39,59.15,66.26,107.37,66.26,64.43,0,116.65-48.74,116.65-108.86C1077.15,647.11,1060.75,617,1035,597Z"/><path class="cls-5" d="M925.13,1032.44a5.63,5.63,0,0,1-5.5-5.76V559.13a5.51,5.51,0,1,1,11,0v467.55A5.64,5.64,0,0,1,925.13,1032.44Z"/><path class="cls-5" d="M925.13,697.92c-15.61,0-28.81-5.82-39.24-17.3-29.18-32.11-26.37-97.69-26.24-100.46a5.6,5.6,0,0,1,5.77-5.47,5.67,5.67,0,0,1,5.22,6c0,.69-2.68,63.47,23.24,92,8.38,9.22,18.61,13.7,31.25,13.7a5.77,5.77,0,0,1,0,11.52Z"/><path class="cls-5" d="M929.56,917c-.37,0-.74,0-1.11,0a5.66,5.66,0,0,1-5.15-6.1,5.58,5.58,0,0,1,5.82-5.39c2.1.14,4.2-.8,6.41-2.87,6.79-6.37,19.69-28.81,29.72-107.42,5.8-45.47,7.8-87.86,7.81-88.29a5.6,5.6,0,0,1,5.77-5.47,5.67,5.67,0,0,1,5.23,6c0,.43-2,43.31-7.9,89.25-3.45,27.09-7.56,50-12.19,68-6.08,23.66-13,38.87-21.1,46.47C938.74,915.05,934.27,917,929.56,917Z"/></g><g id="green"><path class="cls-6" d="M29.46,1015.72s-13.34-65.59,7.22-63.92,40,31.94,40,31.94,5-61.4,26.68-34.72,25,33.35,25,33.35-12.79-164,46.13-157.3,68.37,143.4,68.37,143.4,22.23-78.37,45-65,21.68,79.48,21.68,79.48,25-48.91,37.79-41.69,12.79,51.14,12.79,51.14,76.15-18.67,92.82,26.79-138.4,33.24-138.4,33.24-255.68-6.11-257.35-7.78S29.46,1015.72,29.46,1015.72Z"/><path class="cls-7" d="M0,1001.94s369.35,26.84,511.92,14.33,712.85-8.36,892.94,3.32S2650,941.23,2650,941.23v147.58l-312.18,26.34S562.42,1216.8,547.17,1211.59,0,1128.61,0,1128.61Z"/><path class="cls-6" d="M2201.86,1092.14s-35.85-73.37,102.55-61.69c0,0-.83-50.86,35.85-30.85,0,0-9.17-120.9,89.21-12.51,0,0,1.67-145.07,66.7-130.9s56.7,136.74,56.7,136.74,26.05-55,41.69-40.86,0,65.87,0,65.87,30-50.86,55.44-31.68v132.56s-173,27.52-178,25.85S2201.86,1092.14,2201.86,1092.14Z"/><path class="cls-6" d="M1425.94,1027.35h60.5s31-37.42,16.32-33.44-33.83,18.41-31.84,16.57,2.86-52-7.81-51.42c-14.92.79-14.48,51.17-14.48,51.17s-19.11-33.84-25.48-27.47,3.59,33,3.59,33S1394.89,1009.83,1425.94,1027.35Z"/><path class="cls-8" d="M86,1059.91l87.36,1.46s-3-38.47-43-39.15C86.63,1021.49,86,1059.91,86,1059.91Z"/><path class="cls-9" d="M191.26,1081.06l45.36.76s-1.54-20-22.35-20.32C191.59,1061.12,191.26,1081.06,191.26,1081.06Z"/><path class="cls-8" d="M244,1041.16l37.48.63s-1.26-16.5-18.46-16.79C244.23,1024.68,244,1041.16,244,1041.16Z"/></g><g id="ground"><path class="cls-10" d="M0,1122s195.1-2.51,224.28-4.17,276.14-6.67,290.23-5.84,254.2-4.17,275.88-4.17,198.43-4.17,251.79-4.17,369.35-1.66,369.35-1.66l406-11.4,216.77-8.54s95.88-8.41,128.4-8.41,215.1-.84,215.1-.84L2650,1082v24.1L1585.79,1172l-548.61,18.34s-687-19.8-695.34-17.4S0,1190.32,0,1190.32Z"/><path class="cls-8" d="M0,1135.91s917.48-15,1108.17-14.89,850.58-12.4,938.4-24.91,603.43,0,603.43,0V1325s-641.07-8.75-701.29,0-810.43,26.27-873.15,26.27-772.8-17.51-772.8-17.51L0,1326.22Z"/><line class="cls-11" x1="572.67" y1="1117" x2="580.67" y2="1340"/><line class="cls-11" x1="729" y1="1117.5" x2="737.17" y2="1351.5"/><line class="cls-11" x1="875" y1="1109.5" x2="879.17" y2="1347.5"/><line class="cls-11" x1="1029.92" y1="1105" x2="1021.17" y2="1351.5"/><line class="cls-11" x1="1178.92" y1="1109" x2="1169.17" y2="1351.5"/><line class="cls-11" x1="1324.92" y1="1109" x2="1310.17" y2="1345.5"/><line class="cls-11" x1="1469.92" y1="1107" x2="1459.17" y2="1342.5"/><line class="cls-11" x1="1624.92" y1="1102" x2="1619.17" y2="1339.5"/><line class="cls-11" x1="1789.92" y1="1106" x2="1784.17" y2="1343.5"/><line class="cls-11" x1="1967.92" y1="1091" x2="1962.17" y2="1328.5"/><line class="cls-11" x1="2143.92" y1="1088" x2="2138.17" y2="1325.5"/><line class="cls-11" x1="2321.92" y1="1088" x2="2316.17" y2="1325.5"/><line class="cls-11" x1="2495.92" y1="1091" x2="2490.17" y2="1328.5"/></g></g></g></svg>