<svg xmlns="http://www.w3.org/2000/svg" viewBox="0 0 2650 1496.56"><defs><style>.cls-1{fill:#a8d29f;}.cls-2{fill:#88b374;}.cls-3{fill:#7a3909;}.cls-4{fill:#87a535;}.cls-5{fill:#83a530;}.cls-6{fill:#768c33;}.cls-7{fill:#99c049;}.cls-8{fill:#d4c7bf;}.cls-9{fill:#3f535b;}.cls-10{fill:#a08f85;}.cls-11{fill:none;stroke:#a08f85;stroke-miterlimit:10;stroke-width:3px;}</style></defs><g id="Layer_2" data-name="Layer 2"><g id="_3_elements" data-name="#3 elements"><g id="tree"><path class="cls-1" d="M1980.26,126.69C1985.27,54.92,2013,0,2046.55,0c35.18,0,64,60.54,66.86,137.56a20,20,0,0,1,7.4-1.45c17.39,0,31.49,23.07,31.49,51.53a81.43,81.43,0,0,1-2,18.11c27.42,14.1,47,51.38,47,95.16,0,55.89-31.92,101.19-71.31,101.19-31.59,0-58.37-29.15-67.74-69.52-12.34,13.31-27.29,21.12-43.4,21.12-42.3,0-76.59-53.71-76.59-120C1938.25,187,1955.34,146.47,1980.26,126.69Z"/><path class="cls-2" d="M1995.82,181.31c71.52-11.75,82.14,83.16,82.14,83.16,84.72-47,119.24,41.59,119.24,41.59h0c-1.89,53.49-33,96-71.22,96-31.59,0-58.37-29.15-67.74-69.52-12.34,13.31-27.29,21.12-43.4,21.12-25.42,0-47.94-19.4-61.87-49.25C1952.49,302.57,1924.91,193,1995.82,181.31Z"/><path class="cls-3" d="M2055,914.85c2.73,0,5.56.32,5.56-3V259.05c0-3.33-2.21-6-4.94-6s-4.94,2.7-4.94,6V911.84C2050.66,915.17,2052.25,914.85,2055,914.85Z"/><path class="cls-3" d="M2055.6,490.91c15.26,0,28.34-11,38.9-32.56,8-16.28,14.55-38.81,19.58-67,8.48-47.39,9.72-95.41,9.73-95.89.08-3.32-2.06-6.1-4.79-6.2s-5,2.52-5.09,5.85c0,.47-1.23,47.51-9.53,93.81-7.35,41-21.78,89.9-48.8,89.9-2.73,0-4.94,2.7-4.94,6S2052.87,490.91,2055.6,490.91Z"/><path class="cls-3" d="M2055.14,627.57c.26,0,.52,0,.76,0,2.73-.2,4.8-3.06,4.63-6.38s-2.51-5.85-5.23-5.65c-.63,0-1.64-.09-3.15-1.84-6.16-7.21-17.17-37-21.61-155.9-2.56-68.52-1.61-133.78-1.6-134.43,0-3.33-2.12-6.07-4.85-6.14s-5,2.59-5,5.92c0,.65-1,66.3,1.6,135.2,1.52,40.57,3.94,74.35,7.21,100.4,4.28,34.12,10,54.94,17.45,63.65C2048.92,626.58,2052.53,627.57,2055.14,627.57Z"/><path class="cls-1" d="M1590,361.72a88.39,88.39,0,0,1-2-18.89c0-29.69,14.1-53.75,31.49-53.75a19.31,19.31,0,0,1,7.4,1.51c2.83-80.34,31.68-143.49,66.86-143.49,33.5,0,61.27,57.28,66.28,132.15,24.93,20.64,42,62.89,42,111.67,0,23.26-3.89,45-10.66,63.69,23.14,17.38,37.87,43.58,37.87,72.9,0,52.33-46.92,94.75-104.78,94.75-43.32,0-80.5-23.77-96.46-57.67a49.27,49.27,0,0,1-13.71,1.95c-39.38,0-71.31-47.26-71.31-105.56C1543,415.32,1562.57,376.43,1590,361.72Z"/><path class="cls-2" d="M1590,361.72s69.38-32.93,122.27,25.1,89.66-33.49,72-76c11.09,21.7,17.77,49.64,17.77,80.12,0,23.26-3.89,45-10.66,63.69,23.14,17.38,37.87,43.58,37.87,72.9,0,52.33-46.92,94.75-104.78,94.75-43.32,0-80.5-23.77-96.46-57.67a49.27,49.27,0,0,1-13.71,1.95c-39.38,0-71.31-47.26-71.31-105.56C1543,415.32,1562.57,376.43,1590,361.72Z"/><path class="cls-3" d="M1671.54,918.3c2.72,0,4.94-2.7,4.94-6V259.48c0-3.33-2.22-6-4.94-6s-5,2.69-5,6V912.27C1666.59,915.6,1668.81,918.3,1671.54,918.3Z"/><path class="cls-3" d="M1671.54,491.34c14,0,25.88-6.09,35.25-18.1,26.21-33.61,23.69-102.25,23.57-105.15-.14-3.33-2.45-5.89-5.19-5.72s-4.82,3-4.68,6.32h0c0,.66,2.41,66.42-20.88,96.26-7.53,9.65-16.71,14.34-28.07,14.34-2.73,0-5,2.7-5,6S1668.81,491.34,1671.54,491.34Z"/><path class="cls-3" d="M1670.84,624.79c.33,0,.67,0,1,0,2.72-.21,4.8-3.06,4.63-6.39s-2.51-5.85-5.24-5.64c-1.88.14-3.77-.84-5.75-3-6.1-6.67-17.69-30.15-26.7-112.43-5.21-47.59-7-92-7-92.41-.13-3.32-2.44-5.9-5.17-5.73s-4.83,3-4.7,6.31c0,.45,1.83,45.33,7.09,93.42,3.1,28.35,6.79,52.3,11,71.17,5.47,24.77,11.66,40.68,19,48.65C1662.59,622.75,1666.61,624.79,1670.84,624.79Z"/><path class="cls-1" d="M1980.07,352a127.17,127.17,0,0,0,2-22.73c0-35.7-14.1-64.64-31.49-64.64a16.54,16.54,0,0,0-7.4,1.82c-2.83-96.63-31.68-172.58-66.86-172.58-33.51,0-61.27,68.89-66.28,158.93-24.93,24.83-42,75.65-42,134.32,0,28,3.89,54.15,10.66,76.59-23.14,20.9-37.87,52.42-37.87,87.69,0,62.93,46.91,113.94,104.78,113.94,43.32,0,80.5-28.58,96.46-69.35a41.85,41.85,0,0,0,13.71,2.35c39.38,0,71.31-56.84,71.31-127C2027.07,416.45,2007.48,369.68,1980.07,352Z"/><path class="cls-2" d="M1778.68,463.7c-6.77-22.44-10.66-48.62-10.66-76.59q0-10.56.73-20.74c96.79,8.11,92.94,126.45,92.94,126.45s80.07-41.11,106.76,16.8-26.4,86.36-26.4,86.36c-16,40.77-53.14,69.35-96.46,69.35-57.87,0-104.78-51-104.78-113.94C1740.81,516.12,1755.54,484.6,1778.68,463.7Z"/><path class="cls-3" d="M1877.37,919.44c2.73,0,4.94-2.69,4.94-6V424c0-3.33-2.21-6-4.94-6s-4.95,2.7-4.95,6V913.42C1872.42,916.75,1874.64,919.44,1877.37,919.44Z"/><path class="cls-3" d="M1877.37,569.3c14,0,25.88-6.09,35.25-18.1,26.21-33.61,23.69-102.25,23.57-105.15-.14-3.33-2.45-5.9-5.18-5.72s-4.83,3-4.69,6.32c0,.72,2.4,66.43-20.88,96.26-7.53,9.65-16.71,14.34-28.07,14.34-2.73,0-4.95,2.7-4.95,6S1874.64,569.3,1877.37,569.3Z"/><path class="cls-3" d="M1873.39,798.62l1,0c2.72-.21,4.79-3.07,4.63-6.39s-2.52-5.85-5.24-5.64c-1.88.14-3.77-.85-5.75-3-6.11-6.67-17.69-30.15-26.7-112.44-5.21-47.58-7-92-7-92.4-.13-3.32-2.44-5.9-5.17-5.73s-4.84,3-4.7,6.31c0,.45,1.82,45.33,7.09,93.42,3.1,28.35,6.79,52.3,11,71.17,5.46,24.77,11.66,40.68,19,48.64C1865.14,796.58,1869.16,798.62,1873.39,798.62Z"/></g><path class="cls-4" d="M0,810.86S430.21,924.4,528.6,931.11,2487.49,847,2650,878.63c0,0-825.76,220.94-832.43,222.61s-496.92,123.55-506.92,118.47-870.26,0-870.26,0L145.07,1198.9,0,1210.15Z"/><path class="cls-5" d="M2650,878.63S1189.76,1109.64,919.62,1178s500.25,32.18,500.25,32.18H2650Z"/><g id="tree-2" data-name="tree"><path class="cls-1" d="M1001.59,288.22C996,207.08,965.1,145,927.8,145c-39.17,0-71.29,68.44-74.43,155.51a22,22,0,0,0-8.24-1.63c-19.36,0-35.06,26.08-35.06,58.25a93.12,93.12,0,0,0,2.24,20.47C781.79,393.55,760,435.69,760,485.18c0,63.18,35.54,114.4,79.39,114.4,35.16,0,65-33,75.41-78.6,13.73,15.06,30.38,23.88,48.32,23.88,47.09,0,85.26-60.71,85.26-135.61C1048.36,356.38,1029.34,310.59,1001.59,288.22Z"/><path class="cls-2" d="M984.27,350c-79.62-13.28-91.45,94-91.45,94-94.31-53.14-132.74,47-132.74,47h0c2.11,60.48,36.8,108.58,79.29,108.58,35.16,0,65-33,75.41-78.6,13.73,15.06,30.38,23.88,48.32,23.88,28.29,0,53.36-21.93,68.87-55.67C1032.5,487.06,1063.21,363.14,984.27,350Z"/><path class="cls-3" d="M918.41,1179.25c-3,0-6.19.36-6.19-3.4v-738c0-3.76,2.46-6.81,5.5-6.81s5.5,3.05,5.5,6.81v738C923.22,1179.61,921.45,1179.25,918.41,1179.25Z"/><path class="cls-3" d="M917.72,700c-17,0-31.56-12.38-43.31-36.81-8.86-18.41-16.19-43.87-21.8-75.7-9.44-53.57-10.81-107.86-10.83-108.4-.09-3.76,2.3-6.9,5.34-7s5.57,2.85,5.66,6.61c0,.53,1.37,53.71,10.61,106.06,8.19,46.36,24.25,101.63,54.33,101.63,3,0,5.5,3,5.5,6.81S920.76,700,917.72,700Z"/><path class="cls-3" d="M918.23,854.48c-.29,0-.58,0-.85,0-3-.24-5.34-3.47-5.15-7.22s2.8-6.61,5.83-6.38c.7,0,1.82-.11,3.49-2.09,6.87-8.15,19.13-41.87,24.07-176.24,2.85-77.46,1.79-151.24,1.78-152-.06-3.76,2.36-6.87,5.4-6.94s5.54,2.93,5.6,6.69c0,.74,1.08,75-1.79,152.85-1.69,45.86-4.39,84.05-8,113.5-4.76,38.57-11.11,62.11-19.41,72C925.16,853.35,921.14,854.48,918.23,854.48Z"/><path class="cls-1" d="M1436.06,553.93a101.2,101.2,0,0,0,2.23-21.36c0-33.56-15.7-60.76-35.06-60.76a21.31,21.31,0,0,0-8.23,1.7c-3.15-90.82-35.27-162.22-74.44-162.22-37.3,0-68.21,64.76-73.78,149.4C1219,484,1200,531.8,1200,586.94c0,26.3,4.33,50.91,11.87,72-25.76,19.65-42.16,49.28-42.16,82.42,0,59.16,52.23,107.11,116.65,107.11,48.22,0,89.61-26.87,107.37-65.19a54.38,54.38,0,0,0,15.27,2.21c43.84,0,79.38-53.43,79.38-119.34C1488.38,614.53,1466.57,570.56,1436.06,553.93Z"/><path class="cls-2" d="M1436.06,553.93S1358.82,516.7,1300,582.3s-99.82-37.86-80.17-85.94c-12.35,24.54-19.78,56.12-19.78,90.58,0,26.3,4.33,50.91,11.87,72-25.76,19.65-42.16,49.28-42.16,82.42,0,59.16,52.23,107.11,116.65,107.11,48.22,0,89.61-26.87,107.37-65.19a54.38,54.38,0,0,0,15.27,2.21c43.84,0,79.38-53.43,79.38-119.34C1488.38,614.53,1466.57,570.56,1436.06,553.93Z"/><path class="cls-3" d="M1345.27,1183.15c-3,0-5.5-3.05-5.5-6.81v-738c0-3.77,2.46-6.82,5.5-6.82s5.5,3.05,5.5,6.82v738C1350.77,1180.1,1348.31,1183.15,1345.27,1183.15Z"/><path class="cls-3" d="M1345.27,700.47c-15.61,0-28.82-6.89-39.25-20.47-29.17-38-26.37-115.59-26.23-118.87.15-3.76,2.73-6.66,5.77-6.47s5.37,3.39,5.22,7.15h0c0,.75-2.69,75.09,23.23,108.82,8.39,10.91,18.61,16.21,31.26,16.21,3,0,5.5,3,5.5,6.82S1348.31,700.47,1345.27,700.47Z"/><path class="cls-3" d="M1346,851.34c-.37,0-.74,0-1.11,0-3-.23-5.34-3.46-5.15-7.22s2.79-6.62,5.83-6.38c2.1.16,4.19-1,6.4-3.4,6.8-7.54,19.7-34.08,29.73-127.11,5.8-53.8,7.79-104,7.81-104.46.14-3.76,2.71-6.68,5.76-6.48s5.38,3.37,5.23,7.13c0,.51-2,51.25-7.9,105.61-3.45,32.06-7.55,59.13-12.19,80.46-6.08,28-13,46-21.1,55C1355.23,849,1350.75,851.34,1346,851.34Z"/><path class="cls-1" d="M1001.81,542.92a145.35,145.35,0,0,1-2.24-25.68c0-40.36,15.7-73.08,35.06-73.08a18.23,18.23,0,0,1,8.24,2c3.15-109.24,35.26-195.1,74.43-195.1,37.3,0,68.21,77.88,73.79,179.68,27.75,28.06,46.77,85.51,46.77,151.84,0,31.62-4.33,61.22-11.86,86.59,25.75,23.63,42.15,59.26,42.15,99.13,0,71.14-52.22,128.82-116.65,128.82-48.22,0-89.61-32.32-107.37-78.41a45.72,45.72,0,0,1-15.26,2.66c-43.85,0-79.39-64.26-79.39-143.53C949.48,615.8,971.29,562.93,1001.81,542.92Z"/><path class="cls-2" d="M1226,669.22c7.53-25.37,11.86-55,11.86-86.59q0-11.94-.81-23.45c-107.76,9.18-103.47,143-103.47,143s-89.13-46.49-118.84,19,29.39,97.63,29.39,97.63c17.76,46.09,59.15,78.41,107.37,78.41,64.43,0,116.65-57.68,116.65-128.82C1268.15,728.48,1251.75,692.85,1226,669.22Z"/><path class="cls-3" d="M1116.13,1184.44c-3,0-5.5-3-5.5-6.81V624.38c0-3.76,2.46-6.81,5.5-6.81s5.51,3,5.51,6.81v553.25C1121.64,1181.39,1119.17,1184.44,1116.13,1184.44Z"/><path class="cls-3" d="M1116.13,788.6c-15.61,0-28.81-6.88-39.24-20.46-29.18-38-26.37-115.59-26.24-118.88.15-3.76,2.73-6.66,5.77-6.46s5.37,3.39,5.22,7.14c0,.81-2.68,75.11,23.24,108.82,8.38,10.91,18.61,16.22,31.25,16.22,3,0,5.51,3,5.51,6.81S1119.17,788.6,1116.13,788.6Z"/><path class="cls-3" d="M1120.56,1047.85c-.37,0-.74,0-1.11,0-3-.23-5.34-3.46-5.15-7.22s2.79-6.61,5.83-6.38c2.09.16,4.19-1,6.4-3.4,6.79-7.54,19.69-34.08,29.72-127.11,5.8-53.8,7.8-104,7.82-104.46.14-3.76,2.71-6.67,5.76-6.48s5.37,3.38,5.23,7.13c0,.51-2,51.25-7.9,105.61-3.45,32.06-7.56,59.13-12.19,80.47-6.08,28-13,46-21.1,55C1129.74,1045.54,1125.27,1047.85,1120.56,1047.85Z"/></g><g id="green"><path class="cls-6" d="M29.46,1160.72s-13.34-65.59,7.22-63.92,40,31.94,40,31.94,5-61.4,26.68-34.72,25,33.35,25,33.35-12.79-164,46.13-157.3,68.37,143.4,68.37,143.4,22.23-78.37,45-65,21.68,79.48,21.68,79.48,25-48.91,37.79-41.69,12.79,51.14,12.79,51.14,76.15-18.67,92.82,26.79-138.4,33.24-138.4,33.24-255.68-6.11-257.35-7.78S29.46,1160.72,29.46,1160.72Z"/><path class="cls-7" d="M0,1146.94s369.35,26.84,511.92,14.33,712.85-8.36,892.94,3.32S2650,1086.23,2650,1086.23v147.58l-312.18,26.34S562.42,1361.8,547.17,1356.59,0,1273.61,0,1273.61Z"/><path class="cls-6" d="M2201.86,1237.14s-35.85-73.37,102.55-61.69c0,0-.83-50.86,35.85-30.85,0,0-9.17-120.9,89.21-12.51,0,0,1.67-145.07,66.7-130.9s56.7,136.74,56.7,136.74,26.05-55,41.69-40.86,0,65.87,0,65.87,30-50.86,55.44-31.68v132.56s-173,27.52-178,25.85S2201.86,1237.14,2201.86,1237.14Z"/><path class="cls-6" d="M1425.94,1172.35h60.5s31-37.42,16.32-33.44-33.83,18.41-31.84,16.57,2.86-52-7.81-51.42c-14.92.79-14.48,51.17-14.48,51.17s-19.11-33.84-25.48-27.47,3.59,33,3.59,33S1394.89,1154.83,1425.94,1172.35Z"/><path class="cls-8" d="M86,1204.91l87.36,1.46s-3-38.47-43-39.15C86.63,1166.49,86,1204.91,86,1204.91Z"/><path class="cls-9" d="M191.26,1226.06l45.36.76s-1.54-20-22.35-20.32C191.59,1206.12,191.26,1226.06,191.26,1226.06Z"/><path class="cls-8" d="M244,1186.16l37.48.63s-1.26-16.5-18.46-16.79C244.23,1169.68,244,1186.16,244,1186.16Z"/></g><g id="ground"><path class="cls-10" d="M0,1267s195.1-2.51,224.28-4.17,276.14-6.67,290.23-5.84,254.2-4.17,275.88-4.17,198.43-4.17,251.79-4.17,369.35-1.66,369.35-1.66l406-11.4,216.77-8.54s95.88-8.41,128.4-8.41,215.1-.84,215.1-.84L2650,1227v24.1L1585.79,1317l-548.61,18.34s-687-19.8-695.34-17.4S0,1335.32,0,1335.32Z"/><path class="cls-8" d="M0,1280.91s917.48-15,1108.17-14.89,850.58-12.4,938.4-24.91,603.43,0,603.43,0V1470s-641.07-8.75-701.29,0-810.43,26.27-873.15,26.27-772.8-17.51-772.8-17.51L0,1471.22Z"/><line class="cls-11" x1="572.67" y1="1262" x2="580.67" y2="1485"/><line class="cls-11" x1="729" y1="1262.5" x2="737.17" y2="1496.5"/><line class="cls-11" x1="875" y1="1254.5" x2="879.17" y2="1492.5"/><line class="cls-11" x1="1029.92" y1="1250" x2="1021.17" y2="1496.5"/><line class="cls-11" x1="1178.92" y1="1254" x2="1169.17" y2="1496.5"/><line class="cls-11" x1="1324.92" y1="1254" x2="1310.17" y2="1490.5"/><line class="cls-11" x1="1469.92" y1="1252" x2="1459.17" y2="1487.5"/><line class="cls-11" x1="1624.92" y1="1247" x2="1619.17" y2="1484.5"/><line class="cls-11" x1="1789.92" y1="1251" x2="1784.17" y2="1488.5"/><line class="cls-11" x1="1967.92" y1="1236" x2="1962.17" y2="1473.5"/><line class="cls-11" x1="2143.92" y1="1233" x2="2138.17" y2="1470.5"/><line class="cls-11" x1="2321.92" y1="1233" x2="2316.17" y2="1470.5"/><line class="cls-11" x1="2495.92" y1="1236" x2="2490.17" y2="1473.5"/></g></g></g></svg>