<?xml version="1.0" encoding="utf-8"?>
<!-- Generator: Adobe Illustrator 24.3.0, SVG Export Plug-In . SVG Version: 6.00 Build 0)  -->
<svg version="1.1" id="Layer_1" xmlns="http://www.w3.org/2000/svg" xmlns:xlink="http://www.w3.org/1999/xlink" x="0px" y="0px"
	 viewBox="0 0 1567.7 953.5" style="enable-background:new 0 0 1567.7 953.5;" xml:space="preserve">
<style type="text/css">
	.st0{fill:#87A535;}
	.st1{fill:#83A530;}
	.st2{fill:#A8D29F;}
	.st3{fill:#88B374;}
	.st4{fill:#7A3909;}
	.st5{fill:#768C33;}
	.st6{fill:#99C049;}
	.st7{fill:#D4C7BF;}
	.st8{fill:#3F535B;}
	.st9{fill:#A08F85;}
	.st10{fill:none;stroke:#A08F85;stroke-width:3;stroke-miterlimit:10;}
</style>
<g id="Layer_2_1_">
	<g id="_3_elements">
		<path class="st0" d="M-831.4,302.4c0,0,430.2,113.5,528.6,120.2s1958.9-84.1,2121.4-52.5c0,0-825.8,220.9-832.4,222.6
			S489.2,716.3,479.2,711.3s-870.3,0-870.3,0l-295.3-20.8l-145.1,11.2V302.4z"/>
		<path class="st1" d="M1818.6,370.2c0,0-1460.2,231-1730.4,299.4s500.2,32.2,500.2,32.2h1230.1V370.2z"/>
		<g id="tree">
			<path class="st2" d="M1520.8-225.7c5-78,32.7-137.7,66.3-137.7c35.2,0,64,65.8,66.9,149.5c2.3-1,4.9-1.6,7.4-1.6
				c17.4,0,31.5,25.1,31.5,56c0,6.6-0.7,13.2-2,19.7c27.4,15.3,47,55.9,47,103.4c0,60.8-31.9,110-71.3,110
				c-31.6,0-58.4-31.7-67.7-75.6c-12.3,14.5-27.3,23-43.4,23c-42.3,0-76.6-58.4-76.6-130.4C1478.8-160.2,1495.9-204.2,1520.8-225.7z
				"/>
			<path class="st3" d="M1536.4-166.4c71.5-12.8,82.1,90.4,82.1,90.4c84.7-51.1,119.2,45.2,119.2,45.2l0,0
				c-1.9,58.1-33,104.4-71.2,104.4c-31.6,0-58.4-31.7-67.7-75.6c-12.3,14.5-27.3,23-43.4,23c-25.4,0-47.9-21.1-61.9-53.5
				C1493.1-34.6,1465.5-153.7,1536.4-166.4z"/>
			<path class="st4" d="M1595.6,631c2.7,0,5.6,0.3,5.6-3.3V-81.9c0-3.6-2.2-6.5-4.9-6.5s-4.9,2.9-4.9,6.5v709.6
				C1591.2,631.3,1592.8,631,1595.6,631z"/>
			<path class="st4" d="M1596.2,170.2c15.3,0,28.3-11.9,38.9-35.4c8-17.7,14.6-42.2,19.6-72.8c8.5-51.5,9.7-103.7,9.7-104.2
				c0.1-3.6-2.1-6.6-4.8-6.7s-5,2.7-5.1,6.4c0,0.5-1.2,51.6-9.5,102c-7.4,44.6-21.8,97.7-48.8,97.7c-2.7,0-4.9,2.9-4.9,6.5
				S1593.5,170.2,1596.2,170.2z"/>
			<path class="st4" d="M1595.7,318.7c0.3,0,0.5,0,0.8,0c2.7-0.2,4.8-3.3,4.6-7s-2.5-6.3-5.2-6.1c-0.6,0-1.6-0.1-3.1-2
				c-6.2-7.8-17.2-40.3-21.6-169.5c-2.6-74.5-1.6-145.4-1.6-146.1c0-3.6-2.1-6.6-4.9-6.7s-5,2.8-5,6.4c0,0.7-1,72.1,1.6,147
				c1.5,44.1,3.9,80.8,7.2,109.1c4.3,37.1,10,59.7,17.4,69.2C1589.5,317.6,1593.1,318.7,1595.7,318.7z"/>
			<path class="st2" d="M1130.6,29.7c-1.3-6.8-2-13.6-2-20.5c0-32.3,14.1-58.4,31.5-58.4c2.6,0,5.1,0.6,7.4,1.6
				c2.8-87.3,31.7-156,66.9-156c33.5,0,61.3,62.3,66.3,143.6c24.9,22.4,42,68.4,42,121.4c0,25.3-3.9,48.9-10.7,69.2
				c23.9,19.4,37.8,48.5,37.9,79.2c0,56.9-46.9,103-104.8,103c-41.8,0.2-79.7-24.4-96.5-62.7c-4.4,1.4-9.1,2.1-13.7,2.1
				c-39.4,0-71.3-51.4-71.3-114.8C1083.6,88,1103.2,45.7,1130.6,29.7z"/>
			<path class="st3" d="M1130.6,29.7c0,0,69.4-35.8,122.3,27.3c52.9,63.1,89.7-36.4,72-82.6c11.1,23.6,17.8,54,17.8,87.1
				c0,25.3-3.9,48.9-10.7,69.2c23.9,19.4,37.8,48.5,37.9,79.3c0,56.9-46.9,103-104.8,103c-41.8,0.2-79.7-24.5-96.5-62.7
				c-4.4,1.4-9.1,2.1-13.7,2.1c-39.4,0-71.3-51.4-71.3-114.8C1083.6,88,1103.2,45.7,1130.6,29.7z"/>
			<path class="st4" d="M1212.1,634.7c2.7,0,4.9-2.9,4.9-6.5V-81.4c0-3.6-2.2-6.5-4.9-6.5s-5,2.9-5,6.5v709.6
				C1207.2,631.8,1209.4,634.7,1212.1,634.7z"/>
			<path class="st4" d="M1212.1,170.6c14,0,25.9-6.6,35.2-19.7c26.2-36.5,23.7-111.1,23.6-114.3c-0.1-3.6-2.4-6.4-5.2-6.2
				s-4.8,3.3-4.7,6.9l0,0c0,0.7,2.4,72.2-20.9,104.6c-7.5,10.5-16.7,15.6-28.1,15.6c-2.7,0-5,2.9-5,6.5S1209.4,170.6,1212.1,170.6z"
				/>
			<path class="st4" d="M1211.4,315.7c0.3,0,0.7,0,1,0c2.7-0.2,4.8-3.3,4.6-6.9s-2.5-6.4-5.2-6.1c-1.9,0.2-3.8-0.9-5.8-3.3
				c-6.1-7.2-17.7-32.8-26.7-122.2c-5.2-51.7-7-100-7-100.4c-0.1-3.6-2.4-6.4-5.2-6.2s-4.8,3.2-4.7,6.9c0,0.5,1.8,49.3,7.1,101.6
				c3.1,30.8,6.8,56.8,11,77.4c5.5,26.9,11.7,44.2,19,52.9C1203.2,313.5,1207.2,315.7,1211.4,315.7z"/>
			<path class="st2" d="M1520.7,19.2c1.3-8.2,2-16.4,2-24.7c0-38.8-14.1-70.3-31.5-70.3c-2.6,0-5.1,0.7-7.4,2
				c-2.8-105-31.7-187.6-66.9-187.6c-33.5,0-61.3,74.9-66.3,172.8c-24.9,27-42,82.2-42,146c0,30.4,3.9,58.9,10.7,83.3
				c-23.1,22.7-37.9,57-37.9,95.3c0,68.4,46.9,123.9,104.8,123.9c43.3,0,80.5-31.1,96.5-75.4c4.4,1.7,9,2.5,13.7,2.6
				c39.4,0,71.3-61.8,71.3-138C1567.7,89.2,1548.1,38.4,1520.7,19.2z"/>
			<path class="st3" d="M1319.3,140.6c-6.8-24.4-10.7-52.9-10.7-83.3c0-7.6,0.2-15.2,0.7-22.5c96.8,8.8,92.9,137.5,92.9,137.5
				s80.1-44.7,106.8,18.3s-26.4,93.9-26.4,93.9c-16,44.3-53.1,75.4-96.5,75.4c-57.9,0-104.8-55.5-104.8-123.9
				C1281.4,197.5,1296.1,163.3,1319.3,140.6z"/>
			<path class="st4" d="M1418,636c2.7,0,4.9-2.9,4.9-6.5v-532c0-3.6-2.2-6.5-4.9-6.5s-4.9,2.9-4.9,6.5v532
				C1413,633.1,1415.2,636,1418,636z"/>
			<path class="st4" d="M1418,255.4c14,0,25.9-6.6,35.2-19.7c26.2-36.5,23.7-111.1,23.6-114.3c-0.1-3.6-2.4-6.4-5.2-6.2
				s-4.8,3.3-4.7,6.9c0,0.8,2.4,72.2-20.9,104.6c-7.5,10.5-16.7,15.6-28.1,15.6c-2.7,0-4.9,2.9-4.9,6.6S1415.2,255.4,1418,255.4z"/>
			<path class="st4" d="M1414,504.7c0.3,0,0.7,0,1,0c2.7-0.2,4.8-3.3,4.6-6.9s-2.5-6.4-5.2-6.1c-1.9,0.2-3.8-0.9-5.8-3.3
				c-6.1-7.2-17.7-32.8-26.7-122.2c-5.2-51.7-7-100-7-100.5c-0.1-3.6-2.4-6.4-5.2-6.2s-4.8,3.2-4.7,6.9c0,0.5,1.8,49.3,7.1,101.5
				c3.1,30.8,6.8,56.8,10.9,77.4c5.5,26.9,11.7,44.2,18.9,52.9C1405.7,502.4,1409.7,504.7,1414,504.7z"/>
		</g>
		<g id="tree-2">
			<path class="st2" d="M-20.8-88.5c-5.6-68.5-36.5-121-73.8-121c-39.2,0-71.3,57.8-74.4,131.4c-2.7-0.9-5.4-1.4-8.2-1.4
				c-19.4,0-35.1,22-35.1,49.2c0,5.8,0.7,11.7,2.2,17.3c-30.5,13.5-52.3,49.1-52.3,90.9c0,53.4,35.5,96.7,79.4,96.7
				c35.2,0,65-27.9,75.4-66.4c13.7,12.7,30.4,20.2,48.3,20.2c47.1,0,85.3-51.3,85.3-114.6C25.9-30.8,6.9-69.5-20.8-88.5z"/>
			<path class="st3" d="M-38.1-36.2c-79.6-11.2-91.5,79.4-91.5,79.4C-223.9-1.7-262.3,83-262.3,83l0,0c2.1,51.1,36.8,91.8,79.3,91.8
				c35.2,0,65-27.9,75.4-66.4c13.7,12.7,30.4,20.2,48.3,20.2c28.3,0,53.4-18.5,68.9-47C10.1,79.6,40.8-25.1-38.1-36.2z"/>
			<path class="st4" d="M-104,664.6c-3,0-6.2,0.3-6.2-2.9V38c-0.2-3,2.1-5.6,5.2-5.8c3-0.2,5.6,2.1,5.8,5.2c0,0.2,0,0.4,0,0.7v623.7
				C-99.2,664.9-101,664.6-104,664.6z"/>
			<path class="st4" d="M-104.7,259.5c-17,0-31.6-10.5-43.3-31.1c-8.9-15.5-16.2-37.1-21.8-64c-9.4-45.3-10.8-91.2-10.8-91.6
				c-0.3-3,2-5.7,5-5.9s5.7,2,5.9,5c0,0.2,0,0.4,0,0.6c0,0.5,1.4,45.4,10.6,89.6c8.2,39.2,24.2,85.9,54.3,85.9
				c3.2,0.2,5.6,2.9,5.4,6.1C-99.4,257-101.8,259.3-104.7,259.5L-104.7,259.5z"/>
			<path class="st4" d="M-104.2,390.1c-0.3,0-0.6,0-0.8,0c-3.1-0.3-5.4-3-5.2-6.1c0.1-3.1,2.7-5.5,5.8-5.4c0,0,0,0,0,0
				c0.7,0,1.8-0.1,3.5-1.8c6.9-6.9,19.1-35.4,24.1-148.9c2.8-65.5,1.8-127.8,1.8-128.4c-0.2-3,2-5.7,5.1-5.9c3-0.2,5.7,2,5.9,5.1
				c0,0.2,0,0.4,0,0.6c0,0.6,1.1,63.4-1.8,129.2c-1.7,38.8-4.4,71-8,95.9c-4.8,32.6-11.1,52.5-19.4,60.8
				C-97.3,389.2-101.3,390.1-104.2,390.1z"/>
			<path class="st2" d="M413.6,136.1c1.5-5.9,2.2-11.9,2.2-18c0-28.4-15.7-51.4-35.1-51.4c-2.8,0-5.6,0.5-8.2,1.4
				c-3.2-76.8-35.3-137.1-74.4-137.1c-37.3,0-68.2,54.7-73.8,126.2c-27.8,19.7-46.8,60.1-46.8,106.6c-0.1,20.9,3.9,41.6,11.9,60.8
				c-25.8,16.6-42.2,41.7-42.2,69.7c0,50,52.2,90.5,116.6,90.5c48.2,0,89.6-22.7,107.4-55.1c5,1.2,10.1,1.9,15.3,1.9
				c43.8,0,79.4-45.2,79.4-100.8C466,187.3,444.2,150.2,413.6,136.1z"/>
			<path class="st3" d="M413.6,136.1c0,0-77.2-31.5-136.1,24s-99.8-32-80.2-72.6c-12.3,20.7-19.8,47.4-19.8,76.5
				c-0.1,20.9,3.9,41.6,11.9,60.8c-25.8,16.6-42.2,41.6-42.2,69.6c0,50,52.2,90.5,116.6,90.5c48.2,0,89.6-22.7,107.4-55.1
				c5,1.2,10.1,1.9,15.3,1.9c43.8,0,79.4-45.2,79.4-100.8C466,187.3,444.2,150.2,413.6,136.1z"/>
			<path class="st4" d="M322.9,667.9c-3.1-0.1-5.6-2.6-5.5-5.8c0,0,0,0,0,0V38.5c-0.2-3,2.1-5.6,5.2-5.8s5.6,2.1,5.8,5.2
				c0,0.2,0,0.4,0,0.7v623.7C328.4,665.2,326,667.8,322.9,667.9C322.9,667.9,322.9,667.9,322.9,667.9z"/>
			<path class="st4" d="M322.9,260c-15.6,0-28.8-5.8-39.2-17.3c-29.2-32.1-26.4-97.7-26.2-100.5c0.1-3.1,2.6-5.5,5.7-5.5
				c0,0,0,0,0.1,0c3.1,0.2,5.4,2.9,5.2,6l0,0c0,0.6-2.7,63.5,23.2,92c8.4,9.2,18.6,13.7,31.3,13.7c3.2,0.1,5.6,2.8,5.5,6
				C328.2,257.5,325.8,259.8,322.9,260L322.9,260z"/>
			<path class="st4" d="M323.6,387.5h-1.1c-3.1-0.3-5.4-3-5.2-6.1c0.1-3.1,2.7-5.5,5.7-5.4c0,0,0.1,0,0.1,0c2.1,0.1,4.2-0.8,6.4-2.9
				c6.8-6.4,19.7-28.8,29.7-107.4c5.8-45.5,7.8-87.9,7.8-88.3c0.1-3.1,2.6-5.5,5.7-5.5c0,0,0,0,0.1,0c3.1,0.2,5.4,2.9,5.2,6
				c0,0.4-2,43.3-7.9,89.3c-3.4,27.1-7.6,50-12.2,68c-6.1,23.7-13,38.9-21.1,46.5C332.8,385.5,328.3,387.5,323.6,387.5z"/>
			<path class="st2" d="M-20.6,126.8c-1.5-7.1-2.3-14.4-2.2-21.7c0-34.1,15.7-61.8,35.1-61.8c2.8,0,5.6,0.6,8.2,1.7
				c3.2-92.3,35.3-164.9,74.4-164.9c37.3,0,68.2,65.8,73.8,151.9c27.8,23.7,46.8,72.3,46.8,128.3c0,26.7-4.3,51.7-11.9,73.2
				c25.8,20,42.2,50.1,42.2,83.8c0,60.1-52.2,108.9-116.7,108.9c-48.2,0-89.6-27.3-107.4-66.3c-5,1.5-10.1,2.2-15.3,2.2
				c-43.8,0-79.4-54.3-79.4-121.3C-72.9,188.4-51.1,143.7-20.6,126.8z"/>
			<path class="st3" d="M203.6,233.5c7.5-21.4,11.9-46.5,11.9-73.2c0-6.7-0.3-13.3-0.8-19.8c-107.8,7.8-103.5,120.8-103.5,120.8
				S22,222.1-7.7,277.4s29.4,82.5,29.4,82.5c17.8,39,59.2,66.3,107.4,66.3c64.4,0,116.7-48.7,116.7-108.9
				C245.7,283.7,229.3,253.5,203.6,233.5z"/>
			<path class="st4" d="M93.7,669c-3.1-0.1-5.6-2.6-5.5-5.8c0,0,0,0,0,0V195.7c-0.2-3,2.1-5.6,5.2-5.8c3-0.2,5.6,2.1,5.8,5.2
				c0,0.2,0,0.4,0,0.7v467.5C99.3,666.3,96.8,668.9,93.7,669z"/>
			<path class="st4" d="M93.7,334.5c-15.6,0-28.8-5.8-39.2-17.3c-29.2-32.1-26.4-97.7-26.2-100.5c0.1-3.1,2.6-5.5,5.7-5.5
				c0,0,0,0,0,0c3.1,0.2,5.4,2.9,5.2,6c0,0.7-2.7,63.5,23.2,92c8.4,9.2,18.6,13.7,31.3,13.7c3.2,0.2,5.6,2.9,5.4,6.1
				C99,332,96.6,334.3,93.7,334.5L93.7,334.5z"/>
			<path class="st4" d="M98.1,553.5c-0.4,0-0.7,0-1.1,0c-3.1-0.3-5.4-3-5.2-6.1c0.1-3.1,2.7-5.5,5.8-5.4c0,0,0,0,0.1,0
				c2.1,0.1,4.2-0.8,6.4-2.9c6.8-6.4,19.7-28.8,29.7-107.4c5.8-45.5,7.8-87.9,7.8-88.3c0.1-3.1,2.6-5.5,5.7-5.5c0,0,0,0,0,0
				c3.1,0.2,5.4,2.9,5.2,6c0,0.4-2,43.3-7.9,89.2c-3.5,27.1-7.6,50-12.2,68c-6.1,23.7-13,38.9-21.1,46.5
				C107.3,551.6,102.9,553.5,98.1,553.5z"/>
		</g>
		<g id="green">
			<path class="st5" d="M-802,652.3c0,0-13.3-65.6,7.2-63.9c20.6,1.7,40,31.9,40,31.9s5-61.4,26.7-34.7c21.7,26.7,25,33.3,25,33.3
				s-12.8-164,46.1-157.3c58.9,6.7,68.4,143.4,68.4,143.4s22.2-78.4,45-65c22.8,13.4,21.7,79.5,21.7,79.5s25-48.9,37.8-41.7
				s12.8,51.1,12.8,51.1s76.1-18.7,92.8,26.8S-516.9,689-516.9,689s-255.7-6.1-257.3-7.8C-775.9,679.5-802,652.3-802,652.3z"/>
			<path class="st6" d="M-831.4,638.5c0,0,369.4,26.8,511.9,14.3s712.8-8.4,892.9,3.3s1245.1-78.4,1245.1-78.4v147.6l-312.2,26.3
				c0,0-1775.4,101.7-1790.7,96.4s-547.2-83-547.2-83V638.5z"/>
			<path class="st5" d="M1370.4,728.7c0,0-35.9-73.4,102.6-61.7c0,0-0.8-50.9,35.9-30.8c0,0-9.2-120.9,89.2-12.5
				c0,0,1.7-145.1,66.7-130.9s56.7,136.7,56.7,136.7s26.1-55,41.7-40.9s0,65.9,0,65.9s30-50.9,55.4-31.7v132.6
				c0,0-173,27.5-178,25.8S1370.4,728.7,1370.4,728.7z"/>
			<path class="st5" d="M594.5,663.9H655c0,0,31-37.4,16.3-33.4s-33.8,18.4-31.8,16.6s2.9-52-7.8-51.4
				c-14.9,0.8-14.5,51.2-14.5,51.2s-19.1-33.8-25.5-27.5s3.6,33,3.6,33S563.5,646.4,594.5,663.9z"/>
			<path class="st7" d="M-745.4,696.5l87.4,1.5c0,0-3-38.5-43-39.2C-744.8,658-745.4,696.5-745.4,696.5z"/>
			<path class="st8" d="M-640.2,717.6l45.4,0.8c0,0-1.5-20-22.3-20.3C-639.8,697.7-640.2,717.6-640.2,717.6z"/>
			<path class="st7" d="M-587.4,677.7l37.5,0.6c0,0-1.3-16.5-18.5-16.8C-587.2,661.2-587.4,677.7-587.4,677.7z"/>
		</g>
		<g id="ground">
			<path class="st9" d="M-831.4,758.5c0,0,195.1-2.5,224.3-4.2s276.1-6.7,290.2-5.8c14.1,0.8,254.2-4.2,275.9-4.2
				s198.4-4.2,251.8-4.2s369.3-1.7,369.3-1.7l406-11.4l216.8-8.5c0,0,95.9-8.4,128.4-8.4s215.1-0.8,215.1-0.8l272.2,9.2v24.1
				L754.4,808.5l-548.6,18.3c0,0-687-19.8-695.3-17.4s-341.8,17.4-341.8,17.4V758.5z"/>
			<path class="st7" d="M-831.4,772.5c0,0,917.5-15,1108.2-14.9s850.6-12.4,938.4-24.9s603.4,0,603.4,0v228.9c0,0-641.1-8.8-701.3,0
				s-810.4,26.3-873.2,26.3s-772.8-17.5-772.8-17.5l-302.8-7.5V772.5z"/>
			<line class="st10" x1="-258.7" y1="753.5" x2="-250.7" y2="976.5"/>
			<line class="st10" x1="-102.4" y1="754" x2="-94.2" y2="988"/>
			<line class="st10" x1="43.6" y1="746" x2="47.8" y2="984"/>
			<line class="st10" x1="198.5" y1="741.5" x2="189.8" y2="988"/>
			<line class="st10" x1="347.5" y1="745.5" x2="337.8" y2="988"/>
			<line class="st10" x1="493.5" y1="745.5" x2="478.8" y2="982"/>
			<line class="st10" x1="638.5" y1="743.5" x2="627.8" y2="979"/>
			<line class="st10" x1="793.5" y1="738.5" x2="787.8" y2="976"/>
			<line class="st10" x1="958.5" y1="742.5" x2="952.8" y2="980"/>
			<line class="st10" x1="1136.5" y1="727.5" x2="1130.8" y2="965"/>
			<line class="st10" x1="1312.5" y1="724.5" x2="1306.8" y2="962"/>
			<line class="st10" x1="1490.5" y1="724.5" x2="1484.8" y2="962"/>
			<line class="st10" x1="1664.5" y1="727.5" x2="1658.8" y2="965"/>
		</g>
	</g>
</g>
</svg>
