<svg xmlns="http://www.w3.org/2000/svg" viewBox="0 0 2650 1357.56"><defs><style>.cls-1{fill:#87a535;}.cls-2{fill:#83a530;}.cls-3{fill:#a8d29f;}.cls-4{fill:#88b374;}.cls-5{fill:#7a3909;}.cls-6{fill:#284663;}.cls-7{fill:#739cf3;}.cls-8{fill:#768c33;}.cls-9{fill:#99c049;}.cls-10{fill:#d4c7bf;}.cls-11{fill:#3f535b;}.cls-12{fill:#a08f85;}.cls-13{fill:none;stroke:#a08f85;stroke-miterlimit:10;stroke-width:3px;}</style></defs><g id="Layer_2" data-name="Layer 2"><g id="_3_elements" data-name="#3 elements"><path class="cls-1" d="M0,671.86S430.21,785.4,528.6,792.11,2487.49,708,2650,739.63c0,0-825.76,220.94-832.43,222.61s-496.92,123.55-506.92,118.47-870.26,0-870.26,0L145.07,1059.9,0,1071.15Z"/><path class="cls-2" d="M2650,739.63S1189.76,970.64,919.62,1039s500.25,32.18,500.25,32.18H2650Z"/><g id="tree"><path class="cls-3" d="M1075.14,647.1c-3-34.61-19.28-61.1-39-61.1-20.69,0-37.66,29.2-39.32,66.34a14.14,14.14,0,0,0-4.35-.69c-10.23,0-18.52,11.12-18.52,24.85a32.47,32.47,0,0,0,1.18,8.73C959,692,947.51,710,947.51,731.13c0,27,18.78,48.8,41.94,48.8,18.57,0,34.32-14.06,39.83-33.53,7.26,6.42,16,10.19,25.53,10.19,24.87,0,45-25.91,45-57.86C1099.85,676.18,1089.8,656.64,1075.14,647.1Z"/><path class="cls-4" d="M1066,673.45c-42.06-5.67-48.3,40.1-48.3,40.1-49.83-22.67-70.13,20.06-70.13,20.06h0c1.12,25.8,19.44,46.32,41.89,46.32,18.57,0,34.32-14.06,39.83-33.53,7.26,6.42,16,10.19,25.53,10.19,14.94,0,28.19-9.36,36.38-23.75C1091.47,731.93,1107.69,679.06,1066,673.45Z"/><path class="cls-5" d="M1031.2,1027.23c-1.61,0-3.27.15-3.27-1.45V710.94a2.91,2.91,0,1,1,5.81,0v314.84C1033.74,1027.38,1032.81,1027.23,1031.2,1027.23Z"/><path class="cls-5" d="M1030.84,822.76c-9,0-16.67-5.28-22.88-15.7-4.68-7.85-8.55-18.72-11.52-32.29a290.19,290.19,0,0,1-5.72-46.25,2.92,2.92,0,0,1,2.82-3,2.89,2.89,0,0,1,3,2.82,283.27,283.27,0,0,0,5.61,45.24c4.32,19.78,12.81,43.36,28.7,43.36a2.91,2.91,0,0,1,0,5.81Z"/><path class="cls-5" d="M1031.11,888.67h-.45a2.91,2.91,0,0,1,.35-5.8,2.43,2.43,0,0,0,1.85-.89c3.63-3.48,10.1-17.87,12.71-75.19,1.51-33,1-64.52.94-64.83a2.91,2.91,0,0,1,5.82-.11c0,.31.56,32-.95,65.21-.89,19.56-2.32,35.85-4.24,48.42-2.52,16.45-5.87,26.49-10.26,30.7A8.24,8.24,0,0,1,1031.11,888.67Z"/><path class="cls-3" d="M1304.65,760.46a35.32,35.32,0,0,0,1.18-9.12c0-14.31-8.29-25.92-18.52-25.92a13.6,13.6,0,0,0-4.35.73c-1.66-38.75-18.63-69.21-39.32-69.21-19.7,0-36,27.63-39,63.74-14.66,10-24.7,30.33-24.7,53.86a76.17,76.17,0,0,0,6.26,30.72c-13.6,8.38-22.27,21-22.27,35.16,0,25.23,27.59,45.69,61.62,45.69,25.48,0,47.34-11.46,56.72-27.81a35.42,35.42,0,0,0,8.07.94c23.16,0,41.93-22.79,41.93-50.91C1332.29,786.31,1320.77,767.55,1304.65,760.46Z"/><path class="cls-4" d="M1304.65,760.46s-40.8-15.89-71.9,12.1S1180,756.41,1190.4,735.9c-6.52,10.46-10.44,23.94-10.44,38.64a76.17,76.17,0,0,0,6.26,30.72c-13.6,8.38-22.27,21-22.27,35.16,0,25.23,27.59,45.69,61.62,45.69,25.48,0,47.34-11.46,56.72-27.81a35.42,35.42,0,0,0,8.07.94c23.16,0,41.93-22.79,41.93-50.91C1332.29,786.31,1320.77,767.55,1304.65,760.46Z"/><path class="cls-5" d="M1256.69,1028.89a2.9,2.9,0,0,1-2.9-2.91V711.15a2.91,2.91,0,1,1,5.81,0V1026A2.91,2.91,0,0,1,1256.69,1028.89Z"/><path class="cls-5" d="M1256.69,823a27.57,27.57,0,0,1-20.73-8.73c-15.41-16.21-13.93-49.31-13.86-50.71a2.91,2.91,0,0,1,5.81.29h0c0,.32-1.42,32,12.27,46.42a21.64,21.64,0,0,0,16.51,6.92,2.91,2.91,0,1,1,0,5.81Z"/><path class="cls-5" d="M1257.1,887.34l-.58,0a2.91,2.91,0,1,1,.35-5.8,4.67,4.67,0,0,0,3.38-1.46c3.59-3.21,10.41-14.53,15.71-54.22,3.06-23,4.11-44.35,4.12-44.57a2.91,2.91,0,0,1,5.81.28c0,.22-1.07,21.87-4.17,45.06a277.69,277.69,0,0,1-6.44,34.32c-3.21,12-6.86,19.62-11.15,23.46A10.39,10.39,0,0,1,1257.1,887.34Z"/><path class="cls-3" d="M1075.26,755.76a50.51,50.51,0,0,1-1.18-11c0-17.22,8.29-31.17,18.51-31.17a11.5,11.5,0,0,1,4.36.87c1.66-46.6,18.63-83.23,39.32-83.23,19.7,0,36,33.22,39,76.65,14.66,12,24.71,36.48,24.71,64.78a107.73,107.73,0,0,1-6.26,36.94c13.6,10.08,22.26,25.28,22.26,42.29,0,30.35-27.58,55-61.62,55-25.47,0-47.33-13.79-56.72-33.45a29.44,29.44,0,0,1-8.06,1.13c-23.16,0-41.93-27.41-41.93-61.23C1047.62,786.85,1059.13,764.3,1075.26,755.76Z"/><path class="cls-4" d="M1193.69,809.64A107.73,107.73,0,0,0,1200,772.7c0-3.39-.14-6.73-.42-10-56.93,3.91-54.66,61-54.66,61s-47.09-19.83-62.78,8.1,15.52,41.65,15.52,41.65c9.39,19.66,31.25,33.45,56.72,33.45,34,0,61.62-24.61,61.62-55C1216,834.92,1207.29,819.72,1193.69,809.64Z"/><path class="cls-5" d="M1135.65,1029.44a2.91,2.91,0,0,1-2.91-2.9v-236a2.91,2.91,0,0,1,5.82,0v236A2.9,2.9,0,0,1,1135.65,1029.44Z"/><path class="cls-5" d="M1135.65,860.57a27.55,27.55,0,0,1-20.73-8.73c-15.41-16.21-13.93-49.31-13.86-50.71a2.9,2.9,0,1,1,5.8.29c0,.34-1.41,32,12.28,46.42a21.64,21.64,0,0,0,16.51,6.92,2.91,2.91,0,1,1,0,5.81Z"/><path class="cls-5" d="M1138,971.17a5.82,5.82,0,0,1-.59,0,2.91,2.91,0,0,1,.36-5.8,4.61,4.61,0,0,0,3.38-1.45c3.59-3.22,10.41-14.54,15.7-54.23,3.07-22.95,4.12-44.35,4.13-44.56a2.91,2.91,0,0,1,5.81.28c0,.21-1.08,21.86-4.17,45.05a279.41,279.41,0,0,1-6.44,34.33c-3.22,12-6.86,19.62-11.15,23.46A10.43,10.43,0,0,1,1138,971.17Z"/></g><g id="bench"><path class="cls-6" d="M1126.37,930.58c2.8,0,5.07-11.89,5.07-14.69V814.07a5.07,5.07,0,1,0-10.13,0V940.49C1121.31,943.29,1123.57,930.58,1126.37,930.58Z"/><path class="cls-6" d="M1329.08,945.55a5.06,5.06,0,0,0,5.07-5.06V814.07a5.07,5.07,0,1,0-10.13,0V940.49A5.05,5.05,0,0,0,1329.08,945.55Z"/><path class="cls-7" d="M1107.19,894.08h247.65a8,8,0,0,1,8,8v15.16a8,8,0,0,1-8,8H1099.17a0,0,0,0,1,0,0V902.1A8,8,0,0,1,1107.19,894.08Z" transform="translate(2462.03 1819.36) rotate(180)"/><path class="cls-7" d="M1117,946.83h290.44a6.34,6.34,0,0,0,6.34-6.34h0a6.34,6.34,0,0,0-6.34-6.35H1117Z"/><path class="cls-7" d="M1101.21,888.48h260.31l-1.23-26.59a4.62,4.62,0,0,0-4.62-4.62H1101.21a4.62,4.62,0,0,0-4.62,4.62v22A4.62,4.62,0,0,0,1101.21,888.48Z"/><path class="cls-7" d="M1093.12,819.13H1348.8a8,8,0,0,1,8,8v15.16a8,8,0,0,1-8,8H1101.15a8,8,0,0,1-8-8V819.13A0,0,0,0,1,1093.12,819.13Z" transform="translate(2449.94 1669.46) rotate(180)"/><path class="cls-6" d="M1111.7,1024.4h10.14V956.93a46.41,46.41,0,0,1,92.82,0v67.47h10.13V956.93a56.55,56.55,0,1,0-113.09,0Z"/><path class="cls-6" d="M1362.87,900.45a56.6,56.6,0,0,1,54,56.48v67.47H1406.7V956.93a46.47,46.47,0,0,0-43.83-46.34Z"/><path class="cls-6" d="M1308.55,934.14a56.14,56.14,0,0,1,4.9-8.86h12.92a46.39,46.39,0,0,0-6.49,8.86Z"/><path class="cls-6" d="M1315,946.83a46.11,46.11,0,0,0-1.12,10.1v67.47h-10.13V956.93a56,56,0,0,1,.91-10.1Z"/></g><g id="tree-2" data-name="tree"><path class="cls-3" d="M2428.26,137.71C2433.27,59.69,2461,0,2494.55,0c35.18,0,64,65.81,66.86,149.53a18.62,18.62,0,0,1,7.4-1.57c17.39,0,31.49,25.07,31.49,56a95.81,95.81,0,0,1-2,19.69c27.42,15.33,47,55.86,47,103.44,0,60.75-31.92,110-71.31,110-31.59,0-58.37-31.69-67.74-75.57-12.34,14.47-27.29,23-43.4,23-42.3,0-76.59-58.38-76.59-130.39C2386.25,203.25,2403.34,159.22,2428.26,137.71Z"/><path class="cls-4" d="M2443.82,197.09c71.52-12.78,82.14,90.39,82.14,90.39,84.72-51.09,119.24,45.21,119.24,45.21h0c-1.89,58.15-33,104.4-71.22,104.4-31.59,0-58.37-31.69-67.74-75.57-12.34,14.47-27.29,23-43.4,23-25.42,0-47.94-21.08-61.87-53.53C2400.49,328.9,2372.91,209.75,2443.82,197.09Z"/><path class="cls-5" d="M2503,994.45c2.73,0,5.56.35,5.56-3.27V281.59c0-3.62-2.21-6.55-4.94-6.55s-4.94,2.93-4.94,6.55V991.18C2498.66,994.8,2500.25,994.45,2503,994.45Z"/><path class="cls-5" d="M2503.6,533.62c15.26,0,28.34-11.9,38.9-35.39,8-17.7,14.55-42.19,19.58-72.79,8.48-51.51,9.72-103.7,9.73-104.23.08-3.61-2.06-6.63-4.79-6.73s-5,2.73-5.09,6.35c0,.51-1.23,51.64-9.53,102-7.35,44.58-21.78,97.72-48.8,97.72-2.73,0-4.94,2.94-4.94,6.55S2500.87,533.62,2503.6,533.62Z"/><path class="cls-5" d="M2503.14,682.18c.26,0,.52,0,.76,0,2.73-.23,4.8-3.33,4.63-6.95s-2.51-6.35-5.23-6.13c-.63,0-1.64-.1-3.15-2-6.16-7.83-17.17-40.26-21.61-169.46-2.56-74.48-1.61-145.42-1.6-146.13,0-3.61-2.12-6.6-4.85-6.67s-5,2.81-5,6.43c0,.71-1,72.07,1.6,147,1.52,44.1,3.94,80.82,7.21,109.13,4.28,37.09,10,59.72,17.45,69.19C2496.92,681.09,2500.53,682.18,2503.14,682.18Z"/><path class="cls-3" d="M2038,393.19a104.06,104.06,0,0,1-2-20.53c0-32.27,14.1-58.43,31.49-58.43a18.07,18.07,0,0,1,7.4,1.64c2.83-87.33,31.68-156,66.86-156,33.5,0,61.27,62.27,66.28,143.65,24.93,22.44,42,68.37,42,121.4,0,25.28-3.89,48.94-10.66,69.22a102.08,102.08,0,0,1,37.87,79.25c0,56.88-46.92,103-104.78,103A104.87,104.87,0,0,1,2076,613.71a45.66,45.66,0,0,1-13.71,2.13c-39.38,0-71.31-51.37-71.31-114.75C1991,451.46,2010.57,409.19,2038,393.19Z"/><path class="cls-4" d="M2038,393.19s69.38-35.8,122.27,27.28,89.66-36.4,72-82.63c11.09,23.59,17.77,54,17.77,87.1,0,25.28-3.89,48.94-10.66,69.22a102.08,102.08,0,0,1,37.87,79.25c0,56.88-46.92,103-104.78,103A104.87,104.87,0,0,1,2076,613.71a45.66,45.66,0,0,1-13.71,2.13c-39.38,0-71.31-51.37-71.31-114.75C1991,451.46,2010.57,409.19,2038,393.19Z"/><path class="cls-5" d="M2119.54,998.2c2.72,0,4.94-2.93,4.94-6.55V282.06c0-3.62-2.22-6.55-4.94-6.55s-4.95,2.93-4.95,6.55V991.65C2114.59,995.27,2116.81,998.2,2119.54,998.2Z"/><path class="cls-5" d="M2119.54,534.09c14,0,25.88-6.62,35.25-19.68,26.21-36.52,23.69-111.14,23.57-114.3-.14-3.61-2.45-6.4-5.19-6.21s-4.82,3.26-4.68,6.87h0c0,.72,2.41,72.2-20.88,104.63-7.53,10.49-16.71,15.59-28.07,15.59-2.73,0-4.95,2.94-4.95,6.55S2116.81,534.09,2119.54,534.09Z"/><path class="cls-5" d="M2118.84,679.16c.33,0,.67,0,1,0,2.72-.22,4.8-3.33,4.63-6.94s-2.51-6.37-5.24-6.14c-1.88.15-3.77-.91-5.75-3.27-6.1-7.25-17.69-32.77-26.7-122.22-5.21-51.72-7-100-7-100.44-.13-3.61-2.44-6.41-5.17-6.23s-4.83,3.25-4.7,6.86c0,.49,1.83,49.28,7.09,101.55,3.1,30.82,6.79,56.85,10.95,77.36,5.47,26.93,11.66,44.22,19,52.88C2110.59,676.93,2114.61,679.16,2118.84,679.16Z"/><path class="cls-3" d="M2428.07,382.61a149.76,149.76,0,0,0,2-24.7c0-38.8-14.1-70.26-31.49-70.26a15.5,15.5,0,0,0-7.4,2c-2.83-105-31.68-187.6-66.86-187.6-33.51,0-61.27,74.89-66.28,172.77-24.93,27-42,82.23-42,146,0,30.4,3.89,58.87,10.66,83.26-23.14,22.72-37.87,57-37.87,95.31,0,68.41,46.91,123.86,104.78,123.86,43.32,0,80.5-31.07,96.46-75.39a38.7,38.7,0,0,0,13.71,2.56c39.38,0,71.31-61.79,71.31-138C2475.07,452.69,2455.48,401.85,2428.07,382.61Z"/><path class="cls-4" d="M2226.68,504.05c-6.77-24.39-10.66-52.86-10.66-83.26,0-7.65.25-15.18.73-22.55,96.79,8.82,92.94,137.47,92.94,137.47S2389.76,491,2416.45,554s-26.4,93.87-26.4,93.87c-16,44.32-53.14,75.39-96.46,75.39-57.87,0-104.78-55.45-104.78-123.86C2188.81,561,2203.54,526.77,2226.68,504.05Z"/><path class="cls-5" d="M2325.37,999.44c2.73,0,4.94-2.93,4.94-6.55v-532c0-3.61-2.21-6.55-4.94-6.55s-4.95,2.94-4.95,6.55v532C2320.42,996.51,2322.64,999.44,2325.37,999.44Z"/><path class="cls-5" d="M2325.37,618.84c14,0,25.88-6.62,35.25-19.68,26.21-36.53,23.69-111.15,23.57-114.3-.14-3.62-2.45-6.41-5.18-6.22s-4.83,3.26-4.69,6.87c0,.78,2.4,72.22-20.88,104.63-7.53,10.49-16.71,15.59-28.07,15.59-2.73,0-4.95,2.94-4.95,6.56S2322.64,618.84,2325.37,618.84Z"/><path class="cls-5" d="M2321.39,868.11c.33,0,.66,0,1,0,2.72-.22,4.79-3.33,4.63-6.94s-2.52-6.36-5.24-6.14c-1.88.16-3.77-.91-5.75-3.27-6.11-7.25-17.69-32.77-26.7-122.21-5.21-51.73-7-100-7-100.45-.13-3.61-2.44-6.41-5.17-6.23s-4.84,3.25-4.7,6.86c0,.49,1.82,49.28,7.09,101.55,3.1,30.82,6.79,56.85,10.95,77.37,5.46,26.92,11.66,44.21,18.95,52.87C2313.14,865.88,2317.16,868.11,2321.39,868.11Z"/></g><g id="tree-3" data-name="tree"><path class="cls-3" d="M242.59,191.81C237,115.44,206.1,57,168.8,57c-39.17,0-71.29,64.42-74.43,146.39a23.2,23.2,0,0,0-8.24-1.54c-19.36,0-35.06,24.55-35.06,54.83A82.69,82.69,0,0,0,53.31,276C22.79,291,1,330.63,1,377.22,1,436.69,36.52,484.9,80.37,484.9c35.16,0,65-31,75.41-74,13.73,14.17,30.38,22.47,48.32,22.47,47.09,0,85.26-57.15,85.26-127.65C289.36,256,270.34,212.87,242.59,191.81Z"/><path class="cls-4" d="M225.27,249.94c-79.62-12.5-91.45,88.5-91.45,88.5C39.51,288.42,1.08,382.7,1.08,382.7h0c2.11,56.92,36.8,102.2,79.29,102.2,35.16,0,65-31,75.41-74,13.73,14.17,30.38,22.47,48.32,22.47,28.29,0,53.36-20.64,68.87-52.4C273.5,379,304.21,262.34,225.27,249.94Z"/><path class="cls-5" d="M159.41,1030.56c-3,0-6.19.33-6.19-3.21V332.67c0-3.54,2.46-6.41,5.5-6.41s5.5,2.87,5.5,6.41v694.68C164.22,1030.89,162.45,1030.56,159.41,1030.56Z"/><path class="cls-5" d="M158.72,579.41c-17,0-31.56-11.66-43.31-34.65-8.86-17.32-16.19-41.3-21.8-71.25C84.17,423.08,82.8,372,82.78,371.47c-.09-3.54,2.3-6.5,5.34-6.6s5.57,2.68,5.66,6.22c0,.5,1.37,50.55,10.61,99.83,8.18,43.64,24.25,95.67,54.33,95.67,3,0,5.5,2.87,5.5,6.41S161.76,579.41,158.72,579.41Z"/><path class="cls-5" d="M159.23,724.84c-.29,0-.58,0-.85,0-3-.22-5.34-3.26-5.15-6.79s2.8-6.23,5.83-6c.7,0,1.82-.1,3.49-2,6.87-7.66,19.13-39.41,24.07-165.89,2.85-72.92,1.79-142.37,1.78-143.06-.06-3.54,2.36-6.47,5.4-6.53s5.54,2.75,5.6,6.29c0,.7,1.07,70.56-1.79,143.88-1.69,43.17-4.39,79.12-8,106.84-4.76,36.31-11.11,58.47-19.41,67.74C166.16,723.78,162.14,724.84,159.23,724.84Z"/><path class="cls-3" d="M677.06,441.93a89.83,89.83,0,0,0,2.23-20.1c0-31.59-15.7-57.2-35.06-57.2a22.37,22.37,0,0,0-8.23,1.61c-3.15-85.5-35.27-152.7-74.44-152.7-37.3,0-68.21,61-73.78,140.63C460,376.13,441,421.1,441,473c0,24.75,4.33,47.92,11.87,67.77-25.76,18.49-42.16,46.38-42.16,77.58,0,55.69,52.23,100.83,116.65,100.83,48.22,0,89.61-25.3,107.37-61.37A57.35,57.35,0,0,0,650,659.9c43.84,0,79.38-50.29,79.38-112.33C729.38,499,707.57,457.59,677.06,441.93Z"/><path class="cls-4" d="M677.06,441.93S599.82,406.88,541,468.64s-99.82-35.64-80.17-80.9C448.43,410.84,441,440.57,441,473c0,24.75,4.33,47.92,11.87,67.77-25.76,18.49-42.16,46.38-42.16,77.58,0,55.69,52.23,100.83,116.65,100.83,48.22,0,89.61-25.3,107.37-61.37A57.35,57.35,0,0,0,650,659.9c43.84,0,79.38-50.29,79.38-112.33C729.38,499,707.57,457.59,677.06,441.93Z"/><path class="cls-5" d="M586.27,1034.23c-3,0-5.5-2.88-5.5-6.42V333.13c0-3.54,2.46-6.41,5.5-6.41s5.5,2.87,5.5,6.41v694.68C591.77,1031.35,589.31,1034.23,586.27,1034.23Z"/><path class="cls-5" d="M586.27,579.87c-15.61,0-28.82-6.48-39.25-19.27-29.17-35.76-26.37-108.8-26.23-111.89.15-3.54,2.73-6.27,5.77-6.09s5.37,3.19,5.22,6.73h0c0,.7-2.69,70.68,23.23,102.43,8.39,10.27,18.61,15.27,31.26,15.27,3,0,5.5,2.87,5.5,6.41S589.31,579.87,586.27,579.87Z"/><path class="cls-5" d="M587,721.89c-.37,0-.74,0-1.11,0-3-.22-5.34-3.26-5.15-6.8s2.79-6.23,5.83-6c2.1.15,4.19-.9,6.4-3.2,6.8-7.1,19.7-32.09,29.73-119.65,5.8-50.64,7.79-97.87,7.81-98.34.14-3.53,2.71-6.28,5.76-6.09s5.38,3.17,5.23,6.71c0,.48-2,48.24-7.9,99.41-3.45,30.18-7.55,55.66-12.19,75.74-6.08,26.36-13,43.29-21.1,51.77C596.23,719.71,591.75,721.89,587,721.89Z"/><path class="cls-3" d="M242.81,431.57a129.08,129.08,0,0,1-2.24-24.18c0-38,15.7-68.79,35.06-68.79a19.18,19.18,0,0,1,8.24,1.93C287,237.7,319.13,156.88,358.3,156.88c37.3,0,68.21,73.32,73.79,169.13,27.75,26.42,46.77,80.5,46.77,142.94,0,29.76-4.33,57.63-11.86,81.51a122.93,122.93,0,0,1,42.15,93.31c0,67-52.22,121.26-116.65,121.26-48.22,0-89.61-30.42-107.37-73.81a48.22,48.22,0,0,1-15.26,2.5c-43.85,0-79.39-60.49-79.39-135.1C190.48,500.18,212.29,450.4,242.81,431.57Z"/><path class="cls-4" d="M467,550.46c7.53-23.88,11.86-51.75,11.86-81.51,0-7.49-.28-14.86-.81-22.07-107.76,8.63-103.47,134.57-103.47,134.57s-89.13-43.76-118.84,17.87,29.39,91.9,29.39,91.9C302.89,734.61,344.28,765,392.5,765c64.43,0,116.65-54.29,116.65-121.26A122.93,122.93,0,0,0,467,550.46Z"/><path class="cls-5" d="M357.13,1035.44c-3,0-5.5-2.87-5.5-6.41V508.25c0-3.54,2.46-6.41,5.5-6.41s5.51,2.87,5.51,6.41V1029C362.64,1032.57,360.17,1035.44,357.13,1035.44Z"/><path class="cls-5" d="M357.13,662.83c-15.61,0-28.81-6.48-39.24-19.26-29.18-35.76-26.37-108.81-26.24-111.9.15-3.54,2.73-6.27,5.77-6.08s5.37,3.18,5.22,6.72c0,.76-2.68,70.7,23.24,102.43C334.26,645,344.49,650,357.13,650c3,0,5.51,2.87,5.51,6.41S360.17,662.83,357.13,662.83Z"/><path class="cls-5" d="M361.56,906.87c-.37,0-.74,0-1.11,0-3-.22-5.34-3.26-5.15-6.79s2.79-6.23,5.83-6c2.09.15,4.19-.9,6.4-3.2,6.79-7.1,19.69-32.08,29.72-119.65,5.8-50.64,7.8-97.86,7.82-98.33.14-3.54,2.71-6.28,5.76-6.1s5.37,3.17,5.23,6.71c0,.48-2,48.24-7.9,99.41-3.45,30.18-7.56,55.66-12.19,75.75-6.08,26.35-13,43.29-21.1,51.76C370.74,904.69,366.27,906.87,361.56,906.87Z"/></g><g id="green"><path class="cls-8" d="M29.46,1021.72s-13.34-65.59,7.22-63.92,40,31.94,40,31.94,5-61.4,26.68-34.72,25,33.35,25,33.35-12.79-164,46.13-157.3,68.37,143.4,68.37,143.4,22.23-78.37,45-65,21.68,79.48,21.68,79.48,25-48.91,37.79-41.69,12.79,51.14,12.79,51.14,76.15-18.67,92.82,26.79-138.4,33.24-138.4,33.24-255.68-6.11-257.35-7.78S29.46,1021.72,29.46,1021.72Z"/><path class="cls-9" d="M0,1007.94s369.35,26.84,511.92,14.33,712.85-8.36,892.94,3.32S2650,947.23,2650,947.23v147.58l-312.18,26.34S562.42,1222.8,547.17,1217.59,0,1134.61,0,1134.61Z"/><path class="cls-8" d="M2201.86,1098.14s-35.85-73.37,102.55-61.69c0,0-.83-50.86,35.85-30.85,0,0-9.17-120.9,89.21-12.51,0,0,1.67-145.07,66.7-130.9s56.7,136.74,56.7,136.74,26.05-55,41.69-40.86,0,65.87,0,65.87,30-50.86,55.44-31.68v132.56s-173,27.52-178,25.85S2201.86,1098.14,2201.86,1098.14Z"/><path class="cls-8" d="M1425.94,1033.35h60.5s31-37.42,16.32-33.44-33.83,18.41-31.84,16.57,2.86-52-7.81-51.42c-14.92.79-14.48,51.17-14.48,51.17s-19.11-33.84-25.48-27.47,3.59,33,3.59,33S1394.89,1015.83,1425.94,1033.35Z"/><path class="cls-10" d="M86,1065.91l87.36,1.46s-3-38.47-43-39.15C86.63,1027.49,86,1065.91,86,1065.91Z"/><path class="cls-11" d="M191.26,1087.06l45.36.76s-1.54-20-22.35-20.32C191.59,1067.12,191.26,1087.06,191.26,1087.06Z"/><path class="cls-10" d="M244,1047.16l37.48.63s-1.26-16.5-18.46-16.79C244.23,1030.68,244,1047.16,244,1047.16Z"/></g><g id="ground"><path class="cls-12" d="M0,1128s195.1-2.51,224.28-4.17,276.14-6.67,290.23-5.84,254.2-4.17,275.88-4.17,198.43-4.17,251.79-4.17,369.35-1.66,369.35-1.66l406-11.4,216.77-8.54s95.88-8.41,128.4-8.41,215.1-.84,215.1-.84L2650,1088v24.1L1585.79,1178l-548.61,18.34s-687-19.8-695.34-17.4S0,1196.32,0,1196.32Z"/><path class="cls-10" d="M0,1141.91s917.48-15,1108.17-14.89,850.58-12.4,938.4-24.91,603.43,0,603.43,0V1331s-641.07-8.75-701.29,0-810.43,26.27-873.15,26.27-772.8-17.51-772.8-17.51L0,1332.22Z"/><line class="cls-13" x1="572.67" y1="1123" x2="580.67" y2="1346"/><line class="cls-13" x1="729" y1="1123.5" x2="737.17" y2="1357.5"/><line class="cls-13" x1="875" y1="1115.5" x2="879.17" y2="1353.5"/><line class="cls-13" x1="1029.92" y1="1111" x2="1021.17" y2="1357.5"/><line class="cls-13" x1="1178.92" y1="1115" x2="1169.17" y2="1357.5"/><line class="cls-13" x1="1324.92" y1="1115" x2="1310.17" y2="1351.5"/><line class="cls-13" x1="1469.92" y1="1113" x2="1459.17" y2="1348.5"/><line class="cls-13" x1="1624.92" y1="1108" x2="1619.17" y2="1345.5"/></g></g></g></svg>