<svg xmlns="http://www.w3.org/2000/svg" viewBox="0 0 1049.52 842.52"><defs><style>.cls-1{fill:#355389;}.cls-2{fill:#96d9c9;}.cls-3{fill:#fff;}.cls-4{fill:#50bfa5;}</style></defs><g id="Layer_2" data-name="Layer 2"><g id="_1_elements" data-name="#1 elements"><g id="board"><rect class="cls-1" width="1049.52" height="842.52" transform="translate(1049.52 842.52) rotate(180)"/><rect class="cls-2" x="129.89" y="-84.82" width="789.75" height="1012.16" transform="translate(946.02 -103.5) rotate(90)"/><ellipse class="cls-3" cx="291.61" cy="120.5" rx="33.06" ry="48.32"/><path class="cls-3" d="M318.67,129.67c-.59,5.65,1.67,10.52,5.06,10.88s6.62-3.93,7.22-9.58-1.67-10.52-5.06-10.88S319.27,124,318.67,129.67Z"/><path class="cls-3" d="M253.73,131c.64,5.64,3.91,9.9,7.3,9.52s5.61-5.28,5-10.92-3.91-9.91-7.3-9.52S253.08,125.38,253.73,131Z"/><path class="cls-3" d="M166.77,452.14c4.11-10.58,12-22.92,12-22.92s1.18-57.61,5.58-71.13,9.41-26.74,10.29-34.68-1.18-63.77,2.65-80.53,13.73-32,24-37.61,46.51-17.34,49.74-24.1-.58-37.92-.58-37.92L291.6,137v0l0,0,0,0v0l21.08,6.25s-3.82,31.16-.59,37.92,40.85,21.6,51.14,27.18,18.81,17.78,22.63,34.53,1.77,72.6,2.65,80.53,5.88,21.16,10.28,34.68,5.59,71.13,5.59,71.13,7.93,12.34,12.05,22.92S408,495.05,400.64,493s1.76-22.63-1.77-27.92-6.76-4.7-7.93-.88.59,10.87-1.47,10.87-7.06-11.46-6.17-20.86,3.82-17.64,2.05-24.69-23.06-72.2-26-84.25S356,277,353,276.09c0,0-5.58,28.51-11.46,53.49l4.71,38.8s7.05,53.2,9.11,69.65-5.59,129.61-5.59,129.61,5.88,37.92,5.59,58.19S342.74,728.7,342.74,728.7s2.94,20.87,9.4,29.68,1.77,15.87-5,19.11-19.11,5.58-22.34,4.7c0,0-2.94,0-2.06-17.34s1.77-32.62-.29-37.91.29-7.94,1.76-14.11-16.46-99.19-13.81-112.12,3.09-30,4-40.54-20.72-103-20.72-103h-4s-21.75,93.11-20.86,103.69,2,29.39,4.62,42.32-15.8,103.51-14.33,109.68,3.82,8.82,1.77,14.11-1.18,20.57-.3,37.91-2,17.34-2,17.34c-3.24.88-15.58-1.47-22.34-4.7s-11.46-10.29-5-19.11,9.41-29.68,9.41-29.68-12.35-82.59-12.64-102.87,5.58-58.19,5.58-58.19S225.84,454.49,227.9,438,237,368.38,237,368.38l4.7-38.8c-5.87-25-11.46-53.49-11.46-53.49-2.94.89-3.52,55.8-6.46,67.85s-24.1,78.52-25.87,85.57,1.18,15.28,2.06,24.69-4.11,20.86-6.17,20.86-.3-7.05-1.47-10.87-4.41-4.41-7.94.88S190,490.94,182.64,493,162.65,462.72,166.77,452.14Z"/><rect class="cls-4" x="515.22" y="55.56" width="457.79" height="736" transform="translate(1488.23 847.12) rotate(180)"/><rect class="cls-2" x="553.62" y="123.91" width="404.04" height="60.34"/><path class="cls-4" d="M617.9,154.74a21,21,0,1,1-21-21A21,21,0,0,1,617.9,154.74Z"/><rect class="cls-2" x="553.62" y="209.18" width="404.04" height="60.34"/><path class="cls-4" d="M617.9,240a21,21,0,1,1-21-21A21,21,0,0,1,617.9,240Z"/><rect class="cls-2" x="553.62" y="298.38" width="404.04" height="60.34"/><path class="cls-4" d="M617.9,329.21a21,21,0,1,1-21-21A21,21,0,0,1,617.9,329.21Z"/></g></g></g></svg>