<svg xmlns="http://www.w3.org/2000/svg" viewBox="0 0 533.9 549.65"><defs><style>.cls-1{fill:#0b4d87;}.cls-2{fill:#0b3563;}.cls-3{opacity:0.5;}.cls-4{fill:#accefc;}.cls-5{fill:#cde3ff;}</style></defs><g id="Layer_2" data-name="Layer 2"><g id="_1_elements" data-name="#1 elements"><g id="magnifying_glass" data-name="magnifying glass"><path class="cls-1" d="M250.24,316.06,33.79,546.12a11.29,11.29,0,0,1-15.91.49L3.53,533.11A11.29,11.29,0,0,1,3,517.2L219.5,287.13a11.28,11.28,0,0,1,15.91-.48l14.35,13.49A11.3,11.3,0,0,1,250.24,316.06Z"/><path class="cls-2" d="M128.77,445.16l-95,101a11.29,11.29,0,0,1-15.91.49L3.53,533.11A11.29,11.29,0,0,1,3,517.2l95-101Z"/><path class="cls-2" d="M480,51.7c-.92-.92-1.87-1.83-2.82-2.73A180.88,180.88,0,1,0,480,51.7ZM466.68,286.6A155.27,155.27,0,1,1,460,67.21,154.45,154.45,0,0,1,466.68,286.6Z"/><g class="cls-3"><path class="cls-4" d="M466.67,286.6A155.21,155.21,0,1,1,460,67.22,154.51,154.51,0,0,1,466.67,286.6Z"/><path class="cls-5" d="M466.67,286.6a154.51,154.51,0,0,1-77.15,44.68,155.23,155.23,0,0,1-9.28-303.94A155.21,155.21,0,0,1,466.67,286.6Z"/></g></g></g></g></svg>