<svg xmlns="http://www.w3.org/2000/svg" viewBox="0 0 97.73 143.05"><defs><style>.cls-1{fill:#ffae73;}.cls-2{fill:#ee8c4d;}</style></defs><g id="Layer_2" data-name="Layer 2"><g id="human"><g id="Layer_3" data-name="Layer 3"><path class="cls-1" d="M24.85,142.14c13.15,2.57,32.46-.17,46.6-9.49-6.38-15.25-9-27.29-9.93-35.08-.06-.42-.1-.82-.14-1.21a35.63,35.63,0,0,1-.16-8h-34s-9.29,4.25-9.29,7.18c0,1.58,0,3.08,0,4.51-.07,3.91-.23,7.32-.43,10.25a93.78,93.78,0,0,1-1.74,14S11.57,139.53,24.85,142.14Z"/><path class="cls-2" d="M17.47,110.27c25.75,5,40.7-9.09,44.05-12.7.47-.52.72-.82.72-.82-.27-.14-.56-.26-.86-.39C51.8,92.48,30,95.57,17.9,100,17.83,103.93,17.67,107.34,17.47,110.27Z"/><path class="cls-1" d="M69.93,82.74c-4.6,24.77-36.56,24-50.37,22.4-3.88-.43-6.33-.93-6.33-.93C8.85,103,6.4,96.14,5.27,87.1,3,69.2,5.86,42.94,8.88,36.22c4.55-10.11,13.12-21,45.3-13.15S75.83,51,69.93,82.74Z"/><path d="M7.69,22.41C12.08,16.32,21.41,8.88,29.88,4.29c18.2-9.84,41.49.31,41.58.36,26.29,11.55,33.15,31.66,19.22,63C75.94,100.77,61.91,97,61.91,97s3-1.85,2.71-12.18c0-.58,0-1.07-.07-1.5a7,7,0,0,1,2.19-5.65C70,74.8,71.6,66,68.87,63.53c-3.3-3-7.94.64-9.42,3.4a4,4,0,0,1-5.77,1.28C45.5,63,50.82,52.69,43,46.36s-23.68-1-35.41-6.06C-7.76,34.59,4.37,27,7.69,22.41Z"/><path d="M18.31,54.94a10.08,10.08,0,0,0-6.65-2.36h0A8,8,0,0,0,7.24,53.7h0A.91.91,0,0,1,6,53.49H6a.91.91,0,0,1,.21-1.29h0a9.76,9.76,0,0,1,5.5-1.47h0a12,12,0,0,1,7.87,2.81h0a.92.92,0,0,1,.09,1.31h0a.92.92,0,0,1-.7.32h0a1,1,0,0,1-.61-.23Z"/><path d="M8.74,63.1A2.24,2.24,0,1,0,11,60.86,2.24,2.24,0,0,0,8.74,63.1Z"/></g></g></g></svg>