<svg xmlns="http://www.w3.org/2000/svg" viewBox="0 0 254.22 581.62"><defs><style>.cls-1{fill:#152d4e;}.cls-2{fill:#0b3454;}.cls-3{fill:#225683;}.cls-4{fill:#efefee;}.cls-5{fill:#cfcfce;}.cls-6{fill:#faad74;}.cls-7{fill:#d8d8d8;}</style></defs><g id="Layer_2" data-name="Layer 2"><g id="Layer_2-2" data-name="Layer 2"><path class="cls-1" d="M76.81,569.77c-.11,5.11-.75,9.94-2.6,11.85H0c.94-2.69,3.62-6.73,11.23-8,8.66-1.41,22.15-5.57,30-13.9a22.38,22.38,0,0,0,5.82-10.53C50.57,533.68,75.94,554,75.94,554a125.68,125.68,0,0,1,.87,15.78"/><path class="cls-1" d="M189.72,569.77c-.1,5.11-.75,9.94-2.6,11.85H112.91c1-2.69,3.62-6.73,11.24-8,8.65-1.41,22.15-5.57,30-13.9A22.45,22.45,0,0,0,160,549.23c3.49-15.55,28.87,4.76,28.87,4.76a126.72,126.72,0,0,1,.86,15.78"/><path class="cls-2" d="M44.85,562.22c8.29,2.64,24.14,10.72,34.21,6.92,6.51-2.45,42.88-107.67,45.24-153.69a116.88,116.88,0,0,1,1.86-13.7c2.15-11.88,5.92-28.2,10.26-46.21,11.64-48.26,27.39-108.62,27-127.92-.52-29.94-89.24-6.27-89.24-6.27s-6.1,24.56-7.32,60.13c-2.41,70.6-9,189.85-27.05,272.66a7.13,7.13,0,0,0,5,8.08"/><path class="cls-3" d="M106.42,227.73l39,337s30,8,46,4c0,0,12.3-180.91,11.16-224.62s9.85-116.95-2.51-125-93.6,8.61-93.6,8.61"/><path class="cls-4" d="M205.94,24.12c-15.41-13.59-26.06-15-31.65-14.79-3.16.14-12.42,1.13-14.72,1.37-6.2.67-11.29,1.32-14.71,1.77l-12.18-1.94-5.47-1.06a13.22,13.22,0,0,0-5.91-.92c-8.8.74-13.77,11.73-16.66,14.91-12.77,14.08-50,257-50,257s15.45,8.54,56.3,12.37Z"/><path class="cls-4" d="M122.75,7S73.55,22.68,66.9,45.13C62,61.53,42.58,144.76,42.58,156.07s86.81,59.54,93,41.29c5.11-15.15,4.68-93.11,13.78-122.55l18.15-59.35Z"/><path class="cls-4" d="M110.94,292.85c4.29,1.11,39.65,6.29,67,3.06,6.55-.77,34.43-1.82,40.41-3.83.64-.21-.09-12.24-2.7-79.79-.27-7-.54-14-.81-20.92-.12-3-.23-5.87-.35-8.8-2.37-59.74-4.72-113.69-5.22-116.6-1.13-6.57-2.19-12.17-3.34-17-3.38-14.15-7.57-21.91-16.7-28.59-.89-.67-8.2-4.36-14.64-7.56-5.34-2.65-10.08-5-10.08-5h0c-2.12,1-4.67,5.91-7.34,12.74-4.91,12.6-10.2,31.88-13.89,46.28a.26.26,0,0,0,0,.07h0c-2.37,9.3-4.07,16.54-4.56,18.62-.82,3.51-1.91,10.3-3.19,19.51-1.73,12.53-3.8,29.54-6,48.84-.22,2-.45,4-.67,6q-.39,3.48-.78,7c-.09.76-.17,1.52-.25,2.28-.85,7.64-1.7,15.53-2.54,23.55-.71,6.63-10.76,11.42-11.45,18.17-.4,4,6,6.89-.67,16.53-.61.88.81-90.87-1.73,41"/><path class="cls-5" d="M184.35,90.06c0,.14,17.17,63.64-28.17,71s-30.68,6-30.68,6,89.31-6.16,90.72-8.41-31.87-68.58-31.87-68.58"/><path class="cls-4" d="M253.67,157.79,192.08,143.6c3.73-1.9,6.34-4.14,7-6.74.55-2-.65-8.89-2.9-18.44C190.1,92.31,176.22,46,169,22.47c-.76-2.51-1.46-4.76-2.05-6.69-1.54-5-2.46-8-2.46-8h0c.14,0,2.79.11,6.9.6l1.42.18c11.71,1.53,32.91,6,44.53,18.71C225.54,36.25,258.89,113.22,253.67,157.79Z"/><path class="cls-3" d="M189.25,20.35l-16.5-1.71s-35.7,134.49-24,278.14h14.71S144.14,136.44,189.25,20.35Z"/><path class="cls-3" d="M253.67,157.79s.37-14,.29-17.74l-55-7.61s1.05,8.3-6.92,11.16Z"/><path class="cls-5" d="M212.81,167.14l2.44,34.3s-27.56-32.1-50.49-34.3Z"/><path class="cls-6" d="M244.55,155.69l-35.18-8.1s-23.11,9.3-64.34,8.79V172S223.78,175.06,244.55,155.69Z"/><path class="cls-4" d="M164.52,6.53s-38.43,19.85-45.92,8.62l-1,12.25,22.21,7.15s12.77-5.53,15.66-6.89,5.62.51,7.24-3.58,2.58-4.38,3.31-6.72S164.52,6.53,164.52,6.53Z"/><polygon class="cls-7" points="81.81 64.8 110.94 68.14 110.94 56.2 81.81 52.87 81.81 64.8"/><path class="cls-4" d="M165.2,0s1.27,11.94,1.27,12.32-48.89,18.06-48.89,18.06L116.9,3S143.37,12.51,165.2,0Z"/><path class="cls-5" d="M165.45,2.41l1,9.46s-14.82,10-24.75,10.09S117.3,22.32,117,8.87l-.14-3.13S141,16.06,165.45,2.41Z"/></g></g></svg>