<svg xmlns="http://www.w3.org/2000/svg" viewBox="0 0 254.22 676.06"><defs><style>.cls-1{fill:#152d4e;}.cls-2{fill:#0b3454;}.cls-3{fill:#225683;}.cls-4{fill:#efefee;}.cls-5{fill:#faad74;}.cls-6{fill:#ed8c4c;}.cls-7{fill:#010101;}.cls-8{fill:#cfcfce;}.cls-9{fill:#f47621;}.cls-10{fill:#d34c41;}.cls-11{fill:#fff;}.cls-12{fill:none;}.cls-13{fill:#d8d8d8;}</style></defs><g id="Layer_2" data-name="Layer 2"><g id="Layer_2-2" data-name="Layer 2"><path class="cls-1" d="M76.81,664.22c-.11,5.1-.75,9.93-2.6,11.84H0c.94-2.69,3.62-6.73,11.23-8,8.66-1.4,22.15-5.57,30-13.9a22.38,22.38,0,0,0,5.82-10.53c3.49-15.54,28.86,4.76,28.86,4.76a125.75,125.75,0,0,1,.87,15.79"/><path class="cls-1" d="M189.72,664.22c-.1,5.1-.75,9.93-2.6,11.84H112.91c1-2.69,3.62-6.73,11.24-8,8.65-1.4,22.15-5.57,30-13.9A22.45,22.45,0,0,0,160,643.67c3.49-15.54,28.87,4.76,28.87,4.76a126.79,126.79,0,0,1,.86,15.79"/><path class="cls-2" d="M44.85,656.66c8.29,2.64,24.14,10.72,34.21,6.92,6.51-2.45,42.88-107.67,45.24-153.69a116.88,116.88,0,0,1,1.86-13.7c2.15-11.88,5.92-28.2,10.26-46.21,11.64-48.26,27.39-108.62,27-127.92-.52-29.94-89.24-6.27-89.24-6.27s-6.1,24.56-7.32,60.13c-2.41,70.6-9,189.85-27.05,272.66a7.13,7.13,0,0,0,5,8.08"/><path class="cls-3" d="M106.42,322.17l39,337s30,8,46,4c0,0,12.3-180.91,11.16-224.62s9.85-116.95-2.51-125-93.6,8.61-93.6,8.61"/><path class="cls-4" d="M205.94,118.56S156.66,86.69,121.3,103c-5.63,2.6-12.06,9.84-16.66,14.91-12.77,14.08-50,257-50,257s15.45,8.54,56.3,12.37Z"/><path class="cls-4" d="M122.75,101.46s-49.2,15.66-55.85,38.12C62,156,42.58,239.2,42.58,250.51s86.81,59.54,93,41.29c5.11-15.15,4.68-93.11,13.78-122.55l18.15-59.35Z"/><path class="cls-5" d="M128.86,117.76c10.9,2.14,26.9-.14,38.61-7.86-5.29-12.63-7.46-22.61-8.23-29.06,0-.35-.08-.68-.11-1a30,30,0,0,1-.14-6.66H130.83s-7.7,3.52-7.7,6c0,1.3,0,2.54,0,3.73-.06,3.24-.19,6.07-.35,8.49A77,77,0,0,1,121.3,103s-3.44,12.62,7.56,14.77"/><path class="cls-6" d="M122.75,91.36c21.33,4.13,33.72-7.53,36.49-10.52.4-.43.6-.68.6-.68a7.65,7.65,0,0,0-.71-.32c-7.94-3.21-26-.66-36,3-.06,3.24-.19,6.07-.35,8.49"/><path class="cls-5" d="M166.21,68.55c-3.81,20.52-30.29,19.85-41.73,18.56-3.22-.36-5.24-.77-5.24-.77-3.64-1-5.66-6.69-6.6-14.18-1.87-14.82.49-36.58,3-42.15,3.77-8.37,10.87-17.43,37.53-10.9s17.94,23.15,13.05,49.44"/><path class="cls-7" d="M114.64,18.57C118.29,13.52,126,7.36,133,3.56c15.08-8.16,34.37.26,34.45.29C189.26,13.43,195,30.09,183.4,56,171.19,83.49,159.57,80.4,159.57,80.4s2.46-1.53,2.24-10.09c0-.49,0-.89-.05-1.24a5.73,5.73,0,0,1,1.81-4.68c2.71-2.41,4-9.72,1.76-11.75-2.73-2.45-6.57.53-7.8,2.82a3.34,3.34,0,0,1-4.78,1c-6.78-4.28-2.37-12.85-8.85-18.1s-19.62-.84-29.34-5c-12.71-4.73-2.66-11,.08-14.82"/><path class="cls-4" d="M110.94,387.29c4.29,1.11,39.65,6.29,67,3.07,6.55-.78,34.43-1.83,40.41-3.84.64-.21-.09-12.24-2.7-79.79-.27-7-.54-14-.81-20.92-.12-2.95-.23-5.87-.35-8.8-2.37-59.74-4.72-113.69-5.22-116.59-1.13-6.58-2.19-12.18-3.34-17-3.38-14.15-7.57-21.91-16.7-28.59-.89-.67-8.2-4.36-14.64-7.56-5.34-2.65-10.08-5-10.08-5h0c-2.12,1-4.67,5.91-7.34,12.74-4.91,12.6-10.2,31.88-13.89,46.28a.28.28,0,0,0,0,.08h0c-2.37,9.3-4.07,16.54-4.56,18.62-.82,3.51-1.91,10.3-3.19,19.51-1.73,12.53-3.8,29.54-6,48.84-.22,2-.45,4-.67,6q-.39,3.48-.78,7c-.09.76-.17,1.52-.25,2.28-.85,7.64-1.7,15.53-2.54,23.55-.71,6.63-10.76,11.43-11.45,18.17-.4,4,6,6.89-.67,16.53-.61.88.81-90.87-1.73,41"/><path class="cls-8" d="M184.35,184.5c0,.14,17.17,63.64-28.17,71s-30.68,6-30.68,6,89.31-6.16,90.72-8.41-31.87-68.58-31.87-68.58"/><path class="cls-4" d="M253.67,252.23,192.08,238c3.73-1.9,6.34-4.14,7-6.74.55-2-.65-8.89-2.9-18.44-6.11-26.11-20-72.4-27.18-96-.76-2.51-1.46-4.76-2.05-6.69-1.54-5-2.46-8-2.46-8h0c.14,0,2.79.11,6.9.6l1.42.18c11.71,1.53,32.91,6,44.53,18.71C225.54,130.69,258.89,207.66,253.67,252.23Z"/><path class="cls-3" d="M189.25,114.79l-16.5-1.71s-35.7,134.49-24,278.14h14.71S144.14,230.88,189.25,114.79Z"/><polygon class="cls-9" points="51.01 330.76 156.18 326.33 134.85 195.26 29.68 199.69 51.01 330.76"/><path class="cls-5" d="M148,247s-26.77-1.43-28.12,3.34c-3.13,11.13,23,20.26,31.49,19.64s2.79-23.72-3.37-23"/><path class="cls-5" d="M35.43,226.31s19.58-6.13,21.69-1.72c4.9,10.27-12.44,23.78-18.89,24.67s-7.56-22.59-2.8-22.95"/><path class="cls-10" d="M100,196.73s-.83-3.64-5.62-3.21-31.68,1.74-31.68,1.74-5.18-.08-4.7,3.24Z"/><path class="cls-7" d="M123.45,45.52a8.36,8.36,0,0,0-5.51-2,6.68,6.68,0,0,0-3.67.92.76.76,0,0,1-1.07-.17.77.77,0,0,1,.17-1.07A8.16,8.16,0,0,1,117.94,42a9.93,9.93,0,0,1,6.52,2.33.77.77,0,0,1-.51,1.35.73.73,0,0,1-.5-.19"/><path class="cls-7" d="M115.51,52.28a1.86,1.86,0,1,0,1.86-1.86,1.86,1.86,0,0,0-1.86,1.86"/><path class="cls-11" d="M96.81,69.33s5.83,7.88,16,7.6a19,19,0,0,0,15-7.6s-17.17-2.81-31,0"/><path class="cls-12" d="M115.63,30c-2.5,5.57-4.86,27.33-3,42.15.94,7.49,3,13.21,6.6,14.18,0,0,2,.41,5.24.77,11.44,1.29,37.92,2,41.73-18.56,4.89-26.29,13.62-42.9-13.05-49.44a68.22,68.22,0,0,0-16-2.23c-13.86,0-18.65,6.76-21.52,13.13"/><path class="cls-3" d="M253.67,252.23s.37-14,.29-17.74l-55-7.61s1.05,8.31-6.92,11.16Z"/><path class="cls-8" d="M212.81,261.58l2.44,34.3s-27.56-32.1-50.49-34.3Z"/><path class="cls-5" d="M244.55,250.13,209.37,242s-23.11,9.3-64.34,8.79V266.4S223.78,269.5,244.55,250.13Z"/><path class="cls-4" d="M164.52,101s-38.43,19.85-45.92,8.62l-1,12.25L139.79,129s12.77-5.53,15.66-6.89,5.62.51,7.24-3.58,2.58-4.38,3.31-6.72S164.52,101,164.52,101Z"/><polygon class="cls-13" points="81.81 159.24 110.94 162.58 110.94 150.65 81.81 147.31 81.81 159.24"/><path class="cls-4" d="M165.2,94.44s1.27,11.94,1.27,12.32-48.89,18.06-48.89,18.06l-.68-27.4S143.37,107,165.2,94.44Z"/><path class="cls-8" d="M165.45,96.85l1,9.46s-14.82,10-24.75,10.09-24.39.36-24.65-13.09l-.14-3.12S141,110.5,165.45,96.85Z"/></g></g></svg>