<svg xmlns="http://www.w3.org/2000/svg" viewBox="0 0 637.59 879.48"><defs><style>.cls-1{fill:#fcecdb;}.cls-2{fill:#f7e0cb;}.cls-3,.cls-4{fill:#efcbab;}.cls-4{opacity:0.5;}.cls-5{fill:#ef7e29;}.cls-6{fill:#f99746;}.cls-7{fill:#d8661a;}</style></defs><g id="Layer_2" data-name="Layer 2"><g id="_1_elements" data-name="#1 elements"><g id="meds"><path class="cls-1" d="M528.66,47.86V476.75a48,48,0,0,1-47.86,47.86H225.88a47.3,47.3,0,0,1-19.21-4.05A48,48,0,0,1,178,476.75V47.86A48,48,0,0,1,225.88,0H480.8A48,48,0,0,1,528.66,47.86Z"/><path class="cls-2" d="M415.74,161.28a52.09,52.09,0,1,1,67.08-30.45A52.08,52.08,0,0,1,415.74,161.28Z"/><path class="cls-3" d="M482.82,130.83,385.28,94.2a52.1,52.1,0,0,1,97.54,36.63Z"/><path class="cls-2" d="M239.69,152.87a52.1,52.1,0,1,1,73.3-7.41A52.09,52.09,0,0,1,239.69,152.87Z"/><path class="cls-3" d="M313,145.46,232.28,79.57A52.1,52.1,0,0,1,313,145.46Z"/><path class="cls-2" d="M415.74,479.07a52.09,52.09,0,1,1,67.08-30.46A52.09,52.09,0,0,1,415.74,479.07Z"/><path class="cls-3" d="M482.82,452.15l-97.54-36.62a52.09,52.09,0,0,1,97.54,36.62Z"/><circle class="cls-2" cx="272.63" cy="430.3" r="52.09" transform="translate(-147.36 142.04) rotate(-23.18)"/><path class="cls-3" d="M313,466.78,232.28,400.9A52.09,52.09,0,0,1,313,466.78Z"/><path class="cls-2" d="M456.36,324.4A52.09,52.09,0,1,1,481.12,255,52.1,52.1,0,0,1,456.36,324.4Z"/><path class="cls-3" d="M481.12,255,387,299.63A52.09,52.09,0,0,1,481.12,255Z"/><path class="cls-2" d="M224.27,258a52.1,52.1,0,1,1,29,67.73A52.08,52.08,0,0,1,224.27,258Z"/><path class="cls-3" d="M253.28,325.69,292,229a52.09,52.09,0,1,1-38.71,96.73Z"/><path class="cls-4" d="M528.66,106.55V479.78c0,24.65-19.7,44.83-43.79,44.83H251.6a42.4,42.4,0,0,1-17.58-3.8V158.22a52.1,52.1,0,0,1,16-37.69,50.17,50.17,0,0,1,12.33-8.72,49,49,0,0,1,22.08-5.26Z"/><rect class="cls-1" x="155.36" y="195.95" width="524.61" height="350.64" rx="47.86" transform="translate(788.94 -46.4) rotate(90)"/><path class="cls-2" d="M480.07,270.25a52.09,52.09,0,1,1,67.08-30.46A52.09,52.09,0,0,1,480.07,270.25Z"/><path class="cls-3" d="M547.15,239.79l-97.54-36.62a52.09,52.09,0,0,1,97.54,36.62Z"/><path class="cls-2" d="M304,261.84a52.1,52.1,0,1,1,73.3-7.41A52.1,52.1,0,0,1,304,261.84Z"/><path class="cls-3" d="M377.32,254.43l-80.71-65.89a52.1,52.1,0,0,1,80.71,65.89Z"/><path class="cls-2" d="M480.07,588a52.09,52.09,0,1,1,67.08-30.46A52.09,52.09,0,0,1,480.07,588Z"/><path class="cls-3" d="M547.15,561.12,449.61,524.5a52.09,52.09,0,0,1,97.54,36.62Z"/><path class="cls-2" d="M304,579.62a52.1,52.1,0,1,1,73.3-7.41A52.1,52.1,0,0,1,304,579.62Z"/><path class="cls-3" d="M377.32,575.75l-80.71-65.89a52.1,52.1,0,1,1,80.71,65.89Z"/><path class="cls-2" d="M520.69,433.37A52.09,52.09,0,1,1,545.45,364,52.1,52.1,0,0,1,520.69,433.37Z"/><path class="cls-3" d="M545.45,364,451.3,408.6A52.09,52.09,0,0,1,545.45,364Z"/><circle class="cls-2" cx="336.96" cy="386.29" r="52.09" transform="translate(-141.12 201.36) rotate(-27.75)"/><path class="cls-3" d="M317.61,434.66l38.71-96.73a52.09,52.09,0,0,1-38.71,96.73Z"/><rect class="cls-5" x="153.15" y="280.04" width="400.39" height="597.53"/><rect class="cls-6" x="208.92" y="280.04" width="400.39" height="597.54"/><polygon class="cls-7" points="208.92 314.72 189.73 344.56 153.15 344.56 153.15 280.04 208.91 280.04 208.92 314.72"/><polygon class="cls-6" points="174.71 327.12 118.94 327.12 153.15 280.04 208.91 280.04 174.71 327.12"/><polygon class="cls-4" points="415.42 879.48 208.92 879.48 208.92 307.27 415.42 327.12 415.42 879.48"/><polygon class="cls-5" points="609.31 327.12 576.82 344.56 228.22 344.56 208.92 314.72 208.92 280.04 609.31 327.12"/><polygon class="cls-6" points="637.59 327.12 237.2 327.12 208.91 280.04 609.3 280.04 637.59 327.12"/><rect class="cls-1" y="519.04" width="527.65" height="357.72" rx="48.48"/><path class="cls-2" d="M162.22,634.25c-10.17,27.48-40.38,41.38-67.47,31.07s-40.81-41-30.63-68.44,40.38-41.39,67.47-31.07S172.39,606.77,162.22,634.25Z"/><path class="cls-3" d="M131.59,565.81,94.75,665.32c-27.08-10.32-40.81-41-30.63-68.44S104.5,555.49,131.59,565.81Z"/><path class="cls-2" d="M153.76,813.84A51.89,51.89,0,0,1,80,821.41a53.67,53.67,0,0,1-7.46-74.78,51.9,51.9,0,0,1,73.73-7.56A53.66,53.66,0,0,1,153.76,813.84Z"/><path class="cls-3" d="M146.31,739.07,80,821.41a53.67,53.67,0,0,1-7.46-74.78A51.9,51.9,0,0,1,146.31,739.07Z"/><path class="cls-2" d="M481.85,634.25c-10.18,27.48-40.38,41.38-67.47,31.07s-40.81-41-30.64-68.44,40.39-41.39,67.48-31.07S492,606.77,481.85,634.25Z"/><path class="cls-3" d="M451.23,565.81l-36.84,99.51c-27.09-10.32-40.81-41-30.63-68.44S424.14,555.49,451.23,565.81Z"/><path class="cls-2" d="M473.38,813.84A51.85,51.85,0,0,1,402,823.22c-.8-.57-1.57-1.18-2.35-1.82a53.65,53.65,0,0,1-7.45-74.77,51.88,51.88,0,0,1,73.72-7.56c.76.63,1.5,1.27,2.23,1.95A53.68,53.68,0,0,1,473.38,813.84Z"/><path class="cls-3" d="M468.16,741,402,823.22c-.8-.57-1.57-1.18-2.35-1.82a53.65,53.65,0,0,1-7.45-74.77,51.88,51.88,0,0,1,73.72-7.56C466.69,739.7,467.43,740.34,468.16,741Z"/><path class="cls-2" d="M326.28,592.8c12.4,26.54,1.24,58.22-24.91,70.79a52.06,52.06,0,0,1-69.78-25.27c-12.4-26.52-1.24-58.21,24.9-70.78A52.08,52.08,0,0,1,326.28,592.8Z"/><path class="cls-3" d="M256.49,567.54l44.88,96.05a52.06,52.06,0,0,1-69.78-25.27C219.19,611.8,230.35,580.11,256.49,567.54Z"/><path class="cls-2" d="M259.46,829.58c-26.87-10.91-39.92-41.85-29.17-69.09S271.53,720,298.4,730.9s39.93,41.84,29.18,69.08A52.17,52.17,0,0,1,259.46,829.58Z"/><path class="cls-3" d="M327.58,800l-97.29-39.49C241,733.24,271.53,720,298.4,730.9S338.33,772.74,327.58,800Z"/></g></g></g></svg>