<svg xmlns="http://www.w3.org/2000/svg" viewBox="0 0 353.8 820.35"><defs><style>.cls-1{fill:#ffae73;}.cls-2{fill:#fddbba;}.cls-3{fill:#f8caa4;}.cls-4{fill:#25468f;}.cls-5{fill:#ff912b;}.cls-6{fill:#fc7600;}.cls-7{fill:#a9c2ff;}.cls-8,.cls-9{fill:#99aef9;}.cls-9{opacity:0.5;}.cls-10{fill:#1e3865;}.cls-11{fill:#fff;}.cls-12{fill:#f48f4e;}</style></defs><g id="Layer_2" data-name="Layer 2"><g id="human"><g id="Layer_1-2" data-name="Layer 1"><path class="cls-1" d="M287.24,343.5s13.24,2.41,15.79,8,5.82,12.21,2.4,14.94-9-3.53-13.93-4.43-11.5.17-14.93-1.82-3.58-8.69-3.58-8.69Z"/><path class="cls-2" d="M287.24,343.51s-6.13,7.1-14.25,8c0,0-19.6-10.29-34.92-25.07h0c-8-7.75-14.9-16.73-17.13-26.12-.08-.29-.14-.6-.21-.9-.64-3.11,5.13-9.25,12.56-14.85,8.83-6.69,20-12.61,25.45-11.8C258.74,272.76,284.61,328.94,287.24,343.51Z"/><path d="M111.79,180.39c-3-5.84,66-26.86,67.14,30.76,0,0,129.38-3.18,67.6-75.3C225.15,110.88,227.35,90.24,228,71S214.67-4,166.78,1.58c0,0-12.54-5.1-28.2,3C103,23.07,23.25,201.64,111.79,180.39Z"/><path class="cls-2" d="M234.17,303.11a53.37,53.37,0,0,1-6.43-.6,20.75,20.75,0,0,1-6.8-2.2c-8.95-4.69-13-15.37-17.43-25.17-2.11-4.68-4.28-9.15-7.09-12.67-8.3-10.41,6.87-50.11,6.87-50.11l4.22-72.08s21.37,5,27.7,14.53c11.5,17.28,22.67,104.37,23.53,118C260.44,299.74,245,303.41,234.17,303.11Z"/><path class="cls-3" d="M238.07,326.43c-8-7.75-14.9-16.73-17.13-26.12-8.95-4.69-13-15.37-17.43-25.17-1.46-31.51,3.73-71,15.06-69.26,16.33,2.47,19.91,31.54,15.88,61.51a133.62,133.62,0,0,0-1.16,17.17,171.91,171.91,0,0,0,.88,18.55A168.37,168.37,0,0,0,238.07,326.43Z"/><path class="cls-4" d="M282.86,225.76l2.25,14,29.13,181.64A35.09,35.09,0,1,1,245,432.5l-6.57,1.05a41.74,41.74,0,1,0,82.43-13.21L291.53,237.82l-2.25-14Z"/><path class="cls-5" d="M306.34,225.46a7,7,0,0,1-4.34,8.93q-5.31,1.83-10.47,3.43-3.24,1-6.42,1.92a327.59,327.59,0,0,1-38.19,8.51,307.89,307.89,0,0,1-31,3.38c-2.39.14-4.63.23-6.69.29-9.63.28-15.39-.1-16.05-.15a7,7,0,1,1,1-14c.14,0,4.76.31,12.79.12,2-.06,4.25-.14,6.69-.26a307,307,0,0,0,69.17-11.87c1.46-.43,2.93-.86,4.41-1.32.67-.21,1.34-.41,2-.63q4-1.26,8.13-2.68A7,7,0,0,1,306.34,225.46Z"/><rect class="cls-4" x="307.81" y="462.02" width="8.86" height="336.86" transform="translate(-95.93 57.43) rotate(-9.12)"/><path class="cls-6" d="M351.83,816.67l-18.67,2.85a2.33,2.33,0,0,1-2.66-2.06l-2.82-28.3a2.33,2.33,0,0,1,1.94-2.52l14.69-2.35a2.31,2.31,0,0,1,2.62,1.74l6.8,27.8A2.32,2.32,0,0,1,351.83,816.67Z"/><rect class="cls-4" x="231.66" y="361.28" width="76.83" height="5.91" transform="matrix(0.99, -0.16, 0.16, 0.99, -54.29, 47.38)"/><path class="cls-6" d="M215.84,308.66s71.42,156.88,79.46,202.13c3.58,20.13-20.86,61-20.86,61l-72.07-10s7.32-26.7,16.2-44.74c6.07-12.34-46-48.15-60.18-73.82-4.26-7.73-20.58-30-20.58-30l31.27-107.07Z"/><path class="cls-7" d="M277.06,577.05c-2.1,4.05-5.56,10.72-9.85,19l-8.27,16c-4.47,8.65-9.34,18.09-14.25,27.65-.43.83-.82,1.59-1.18,2.27l-3.92,7.66c-2.1,4.09-4.19,8.14-6.22,12.14-.52,1-1,2-1.52,3l-3.66,7.14-3.05,6c-.74,1.45-1.47,2.86-2.17,4.26-.53,1.05-1.06,2.08-1.57,3.1-.14.27-.28.53-.41.8s-.26.53-.4.79c-.24.47-.48.94-.71,1.41l-.18.34c-.29.58-.59,1.15-.86,1.72-.05.08-.09.17-.13.25l-2.59,5.12-.22.44-.84,1.68c-.05.09-.09.19-.15.28-.38.77-.76,1.53-1.14,2.27l-1.07,2.14h0c-3.12,6.28-5.29,10.75-6.05,12.57a17.64,17.64,0,0,0-.8,7,138.55,138.55,0,0,0,2.48,18.53c.71,4,1.51,8.15,2.27,12.31.63,3.39,1.25,6.79,1.78,10.07,2.27,14.09,3.08,26.33-2.2,29-4.69,2.34-13.77-4.79-23.57-15.22-2.14-2.28-4.31-4.71-6.47-7.23-2.8-3.24-5.57-6.64-8.26-10-1.65-2.09-3.26-4.19-4.82-6.24-6-7.91-11.19-15.45-14.65-20.9-1.63-2.57-2.87-4.69-3.61-6.14a4.18,4.18,0,0,1-.33-1.22c0-.21-.05-.45-.07-.69v0c0-.48,0-1,0-1.63,0-.18,0-.37,0-.56s0-.23,0-.35l0-.37q.06-.74.15-1.56c0-.27.07-.56.11-.84s.07-.58.13-.89.12-.8.18-1.21c0-.14,0-.27.07-.41s0-.33.08-.49.1-.62.17-.94c.12-.63.24-1.29.37-2a0,0,0,0,1,0,0c.07-.36.15-.74.23-1.12.13-.66.27-1.34.43-2,.73-3.33,1.63-7.06,2.68-11.12.37-1.47.77-3,1.2-4.55.23-.87.48-1.75.72-2.66q.66-2.38,1.37-4.89l.54-1.91.09-.31c.13-.49.28-1,.42-1.48,1.56-5.43,3.27-11.18,5.09-17.12,2.09-6.86,4.33-14,6.63-21.16.41-1.33.84-2.66,1.27-4h0c.13-.43.28-.87.42-1.31,2.7-8.4,5.48-16.86,8.22-25.08,1.24-3.72,2.47-7.42,3.69-11,2.37-7.1,4.69-13.89,6.86-20.22,5-14.52,9.16-26.5,11.65-33.58a5.67,5.67,0,0,1,8.45-2.85c4.6,3,9.12,5.61,13.5,7.92a164.51,164.51,0,0,0,51.26,17.33A3.62,3.62,0,0,1,277.06,577.05Z"/><path class="cls-8" d="M267.21,596.07c-5.71-1-53.94-2.68-77.62-13.06-2.17,6.32-4.48,13.12-6.86,20.21-1.22,3.6-2.45,7.28-3.69,11,5,.36,11.06.73,17.71,1,20.29.85,45.95.83,62.19-3.15Z"/><path class="cls-9" d="M239.22,649.74c-23.22,6-52.92-4-68.4-10.43,2.7-8.41,5.48-16.86,8.22-25.09,1.24-3.72,2.47-7.4,3.69-11a137.33,137.33,0,0,0,14,12c18.89,14.13,37.75,21.06,47.94,24.5C241.94,645.08,240.77,647,239.22,649.74Z"/><path class="cls-9" d="M231.85,664.76l-3.66,7.14-3.05,6c-.74,1.45-1.47,2.86-2.17,4.26-.53,1.05-1.06,2.08-1.57,3.1-.14.27-.28.53-.41.8s-.26.53-.41.79c-.29.59-.59,1.17-.88,1.75s-.59,1.15-.86,1.72c-.05.08-.09.17-.13.25l-2.59,5.12-.22.44-.84,1.68c-.05.09-.09.19-.15.28-.38.77-.76,1.53-1.14,2.27l-1.07,2.14h0c-9.7,5.45-21,11.17-31.53,16.31-11.35,5.54-21.88,10.4-28.76,13.53-1.63-2.57-2.87-4.69-3.61-6.14a4.18,4.18,0,0,1-.33-1.22c0-.21-.05-.45-.07-.69v0c0-.48,0-1,0-1.63,0-.18,0-.37,0-.56s0-.23,0-.35l0-.37q.06-.74.15-1.56c0-.27.07-.56.11-.84s.07-.58.13-.89.12-.8.18-1.21c0-.14,0-.27.07-.41s0-.33.08-.49.1-.62.17-.94c.12-.63.24-1.29.37-2a0,0,0,0,1,0,0c.07-.36.15-.74.23-1.12.13-.66.27-1.34.43-2,.73-3.33,1.63-7.06,2.68-11.12.38-1.47.78-3,1.2-4.55.23-.87.48-1.75.72-2.66q.66-2.38,1.37-4.89l.54-1.91.09-.31c10-.75,22-3.29,34.24-6.61C205.32,674,219.78,669.11,231.85,664.76Z"/><path class="cls-8" d="M212.36,763a187.88,187.88,0,0,1-25.76,13.76c-2.14-2.28-4.31-4.71-6.48-7.23-2.78-3.24-5.56-6.64-8.26-10,14.74.47,30-3.67,38.73-6.55C211.23,756.31,211.84,759.71,212.36,763Z"/><path class="cls-8" d="M233.37,661.8c-.52,1-1,2-1.52,3l-3.66,7.14-3.05,6c-.74,1.45-1.47,2.86-2.17,4.26-.53,1.05-1.06,2.08-1.57,3.1-.14.27-.28.53-.41.8s-.26.53-.4.79h0c-13.69,2-40.94,4.5-63.69-2.15l.09-.31c.13-.49.28-1,.42-1.48,1.56-5.43,3.27-11.18,5.09-17.12,2.09-6.86,4.33-14,6.63-21.16.41-1.33.84-2.66,1.27-4h0C184.56,647.38,213.11,659.92,233.37,661.8Z"/><path class="cls-8" d="M208.31,740.61c-12.07,5.53-29.46,9.88-41.26,12.62-6-7.89-11.19-15.44-14.65-20.88-1.63-2.58-2.87-4.7-3.6-6.15-1-2-.29-7.83,1.57-16.37,20,9,45.92,11.3,55.47,12.25A140,140,0,0,0,208.31,740.61Z"/><path class="cls-10" d="M121.59,761.17s-5.21,56.05,1.15,59.18l81.46-.17s0-9.4-13.08-11.49-36.07-9.75-40-26.81S121.59,761.17,121.59,761.17Z"/><path class="cls-2" d="M84.31,204.86s14.58,69.5,16.53,74c4.9,11.31,10.43,13.15,10.43,13.15L154,302.5l15,3.68L216.5,292s21.6-60.29,12.93-94.23-21.93-57.5-21.93-57.5a357.11,357.11,0,0,0-89.08-3.22Z"/><path class="cls-3" d="M79.94,213.41c0,23.86,19,61,20.9,65.46,4.9,11.31,10.43,13.15,10.43,13.15L154,302.5l30.2-4.77s-75.11,3.65-77.58-81.83Z"/><path class="cls-5" d="M100.9,301.4s-31.25,55.05-30,87.69S86.13,535,83.5,567.38,97.62,706.2,118.39,788.29c0,0,31.29,2.43,33.53-4.31,12.54-37.7,19.23-227.11,18.77-251.11-.33-17-1.77-86.55,27.5-156.79,7-16.86-9.11-78.36-9.11-78.36Z"/><path class="cls-10" d="M217.24,289.89s-9.43,7.46-28.16,7.83c-22.37.45-85.87-14.13-85.87-14.13s-2.41,10.54-2.31,17.81c0,0,75.72,21.85,114.94,7.26C215.84,308.66,220.9,299.14,217.24,289.89Z"/><path class="cls-11" d="M184.24,305.45c0-6.37,4.58-11.56,10.21-11.56s10.21,5.19,10.21,11.56S200.08,317,194.45,317,184.24,311.82,184.24,305.45Zm3.38,0c0,4.5,3.06,8.17,6.83,8.17s6.82-3.67,6.82-8.17-3.06-8.17-6.82-8.17S187.62,300.94,187.62,305.45Z"/><path class="cls-4" d="M108.28,225.81l0,14.15-.66,184a35.1,35.1,0,0,1-70.19-.25L38,240.49l.05-14.17c-2.42-.28-4.64-.55-6.64-.83l-.06,14.21-.65,184a41.74,41.74,0,1,0,83.47.3l.67-184.85.05-14.19Z"/><path class="cls-5" d="M131.49,229.32a7,7,0,0,1-5.72,8.1q-5.55,1-10.89,1.69c-2.25.31-4.46.6-6.65.85a326.87,326.87,0,0,1-39.06,2.22A302.68,302.68,0,0,1,38,240.49c-2.39-.24-4.61-.52-6.65-.79-9.55-1.28-15.17-2.59-15.81-2.75a7,7,0,1,1,3.27-13.65c.14,0,4.64,1.08,12.6,2.19,2,.28,4.22.55,6.64.83a307.21,307.21,0,0,0,70.19-.51c1.51-.19,3-.38,4.56-.59l2.09-.3q4.17-.6,8.45-1.33A7,7,0,0,1,131.49,229.32Z"/><rect class="cls-4" x="67.31" y="461.48" width="8.86" height="336.86" transform="translate(2.25 -0.25) rotate(0.2)"/><path class="cls-6" d="M80.65,820.09l-18.88-.22a2.32,2.32,0,0,1-2.29-2.46L61.28,789a2.31,2.31,0,0,1,2.32-2.17l14.88,0a2.32,2.32,0,0,1,2.3,2.14L83,817.59A2.33,2.33,0,0,1,80.65,820.09Z"/><rect class="cls-4" x="34.82" y="357.43" width="76.83" height="5.91" transform="translate(1.29 -0.26) rotate(0.2)"/><path class="cls-1" d="M74.84,337.3s3.41,3.92,4,4.48c4.16,3.76,20.31,9.47,22.15,14.47,3.26,8.83,2.95,16.81-1.29,16.05-5.52-1-7.21-5.57-10.79-7.33s-13-2.25-17.89-6.3c-3.14-2.58-6.29-12.59-6.29-12.59Z"/><path class="cls-1" d="M81,343.5s8.84,1.12,12.73.55,2,2.28.6,2.73a26.45,26.45,0,0,0-3.72,1.87Z"/><path class="cls-2" d="M118.42,137.07s-17.15.72-28.27,5.47c-9.93,4.25-21,11.7-30.79,24.68-25,33.36-64.72,96-58.76,117.47s47.14,59.1,65,64a13.19,13.19,0,0,0,6.46-1.34c5-2.28,6.76-5.53,6.76-5.53s-32-60-30.83-66.32,77.6-57.45,83.56-60.86S118.42,137.07,118.42,137.07Z"/><path class="cls-1" d="M135.87,137.49c.17-4.51,3.27-7.57,5.64-13.33,2.85-6.93,5.12-17.17,5.07-30l2.15.37,36.1,6.2s-.82,9.87-.85,19.16v.23c0,8.07.2,11,4.09,18.29,2.53,4.79-2.61,9.95-13.43,10.23C145.26,149.38,135.7,141.77,135.87,137.49Z"/><path class="cls-12" d="M184.83,100.72s-.82,9.87-.85,19.16c-20.2-.49-30.88-16.49-35.25-25.36Z"/><path class="cls-1" d="M191.58,111.86s-47.8.79-47.84-29S137.52,33.14,168,31.38,204.5,41,206.93,50.91,204,110.89,191.58,111.86Z"/><path d="M189.81,30.65s-13.09,34.93-33.18,40.1-28.79-.22-28.79-.22a56.9,56.9,0,0,0,18.6-33.6S179.94,14,189.81,30.65Z"/><path d="M186.56,33.49s9.71,3.63,13.7,10.7a48.06,48.06,0,0,1,6.46,27.34s9.87-23.74-1.22-37.18C193.75,20.11,186.56,33.49,186.56,33.49Z"/><path class="cls-1" d="M277.18,353.86s-.3,3.45,4.81,7,7.57,7.5,8.83,5.15-.89-8.82-2-10.73S278.18,351.73,277.18,353.86Z"/><path d="M207.13,57.36A10.12,10.12,0,0,0,200.48,55h0a8,8,0,0,0-4.42,1.12h0a.93.93,0,0,1-1.3-.21h0a.92.92,0,0,1,.21-1.29h0a9.71,9.71,0,0,1,5.51-1.48h0A12,12,0,0,1,208.35,56h0a.92.92,0,0,1,.09,1.3h0a.94.94,0,0,1-.7.32h0a.9.9,0,0,1-.61-.23Z"/><path d="M199.42,69.25A2.24,2.24,0,1,0,201.66,67,2.24,2.24,0,0,0,199.42,69.25Z"/><path d="M171.89,57.36A10.12,10.12,0,0,1,178.54,55h0A8,8,0,0,1,183,56.13h0a.93.93,0,0,0,1.3-.21h0a.92.92,0,0,0-.21-1.29h0a9.71,9.71,0,0,0-5.51-1.48h0A12,12,0,0,0,170.67,56h0a.93.93,0,0,0-.09,1.3h0a1,1,0,0,0,.7.32h0a.88.88,0,0,0,.61-.23Z"/><path d="M179.61,69.25A2.25,2.25,0,1,1,177.36,67,2.24,2.24,0,0,1,179.61,69.25Z"/><path class="cls-11" d="M176,92.66A18.19,18.19,0,0,0,189.33,100c5.47.52,10.24-5.47,10.24-5.47S190,90,176,92.66Z"/></g></g></g></svg>