<svg xmlns="http://www.w3.org/2000/svg" viewBox="0 0 353.8 795.75"><defs><style>.cls-1{fill:#ffae73;}.cls-2{fill:#fddbba;}.cls-3{fill:#f8caa4;}.cls-4{fill:#25468f;}.cls-5{fill:#ff912b;}.cls-6{fill:#fc7600;}.cls-7{fill:#a9c2ff;}.cls-8,.cls-9{fill:#99aef9;}.cls-9{opacity:0.5;}.cls-10{fill:#1e3865;}.cls-11{fill:#fff;}.cls-12{fill:#f48f4e;}</style></defs><g id="Layer_2" data-name="Layer 2"><g id="human"><g id="Layer_1-2" data-name="Layer 1"><path class="cls-1" d="M287.24,318.9s13.24,2.41,15.79,8,5.82,12.21,2.4,14.94-9-3.53-13.93-4.43-11.5.17-14.93-1.82-3.58-8.69-3.58-8.69Z"/><path class="cls-2" d="M287.24,318.91s-6.13,7.1-14.25,8c0,0-19.6-10.29-34.92-25.07h0c-8-7.75-14.9-16.73-17.13-26.12-.08-.29-.14-.6-.21-.9-.64-3.11,5.13-9.25,12.56-14.85,8.83-6.69,20-12.61,25.45-11.8C258.74,248.16,284.61,304.34,287.24,318.91Z"/><path class="cls-2" d="M234.17,278.51a53.37,53.37,0,0,1-6.43-.6,20.75,20.75,0,0,1-6.8-2.2c-8.95-4.69-13-15.37-17.43-25.17-2.11-4.68-4.28-9.15-7.09-12.67-8.3-10.41,6.87-50.11,6.87-50.11l4.22-72.08s21.37,5,27.7,14.53c11.5,17.28,22.67,104.37,23.53,118C260.44,275.14,245,278.81,234.17,278.51Z"/><path class="cls-3" d="M238.07,301.83c-8-7.75-14.9-16.73-17.13-26.12-8.95-4.69-13-15.37-17.43-25.17-1.46-31.51,3.73-71,15.06-69.26,16.33,2.47,19.91,31.54,15.88,61.51A133.62,133.62,0,0,0,233.29,260a171.91,171.91,0,0,0,.88,18.55A168.37,168.37,0,0,0,238.07,301.83Z"/><path class="cls-4" d="M282.86,201.16l2.25,14,29.13,181.64A35.09,35.09,0,1,1,245,407.9L238.38,409a41.74,41.74,0,1,0,82.43-13.21L291.53,213.22l-2.25-14Z"/><path class="cls-5" d="M306.34,200.86a7,7,0,0,1-4.34,8.93q-5.31,1.83-10.47,3.43-3.24,1-6.42,1.92a327.59,327.59,0,0,1-38.19,8.51,307.89,307.89,0,0,1-31,3.38c-2.39.14-4.63.23-6.69.29-9.63.28-15.39-.1-16.05-.15a7,7,0,1,1,1-14c.14,0,4.76.31,12.79.12,2-.06,4.25-.14,6.69-.26a307,307,0,0,0,69.17-11.87c1.46-.43,2.93-.86,4.41-1.32.67-.21,1.34-.41,2-.63,2.68-.84,5.39-1.74,8.13-2.68A7,7,0,0,1,306.34,200.86Z"/><rect class="cls-4" x="307.81" y="437.42" width="8.86" height="336.86" transform="translate(-92.04 57.12) rotate(-9.12)"/><path class="cls-6" d="M351.83,792.07l-18.67,2.85a2.33,2.33,0,0,1-2.66-2.07l-2.82-28.29a2.33,2.33,0,0,1,1.94-2.52l14.69-2.35a2.31,2.31,0,0,1,2.62,1.74l6.8,27.8A2.32,2.32,0,0,1,351.83,792.07Z"/><rect class="cls-4" x="231.66" y="336.68" width="76.83" height="5.91" transform="matrix(0.99, -0.16, 0.16, 0.99, -50.39, 47.07)"/><path class="cls-6" d="M215.84,284.06s71.42,156.88,79.46,202.13c3.58,20.13-20.86,61-20.86,61l-72.07-10s7.32-26.7,16.2-44.74c6.07-12.34-46-48.15-60.18-73.82-4.26-7.73-20.58-30-20.58-30l31.27-107.07Z"/><path class="cls-7" d="M277.06,552.45c-2.1,4-5.56,10.72-9.85,19l-8.27,16c-4.47,8.66-9.34,18.1-14.25,27.66-.43.83-.82,1.59-1.18,2.27l-3.92,7.66c-2.1,4.09-4.19,8.14-6.22,12.14-.52,1-1,2-1.52,3l-3.66,7.14-3.05,6c-.74,1.45-1.47,2.86-2.17,4.26-.53,1.05-1.06,2.08-1.57,3.1-.14.27-.28.53-.41.8s-.26.53-.4.79c-.24.47-.48.94-.71,1.41l-.18.34c-.29.58-.59,1.15-.86,1.72-.05.08-.09.17-.13.25l-2.59,5.12-.22.44-.84,1.68c-.05.09-.09.19-.15.28-.38.77-.76,1.53-1.14,2.27s-.72,1.45-1.07,2.14h0c-3.12,6.28-5.29,10.75-6.05,12.57a17.64,17.64,0,0,0-.8,7A138.55,138.55,0,0,0,208.32,716c.71,4,1.51,8.15,2.27,12.31.63,3.39,1.25,6.79,1.78,10.07,2.27,14.09,3.08,26.33-2.2,29-4.69,2.34-13.77-4.79-23.57-15.22-2.14-2.28-4.31-4.71-6.47-7.23-2.8-3.24-5.57-6.64-8.26-10-1.65-2.09-3.26-4.19-4.82-6.24-6-7.91-11.19-15.45-14.65-20.9-1.63-2.57-2.87-4.69-3.61-6.14a4.18,4.18,0,0,1-.33-1.22c0-.21-.05-.45-.07-.69v-.05c0-.48,0-1,0-1.63,0-.18,0-.37,0-.56s0-.23,0-.35l0-.37q.06-.74.15-1.56c0-.27.07-.56.11-.84s.07-.58.13-.89.12-.8.18-1.21c0-.14,0-.27.07-.41s0-.33.08-.49c.05-.31.1-.62.17-.94.12-.63.24-1.29.37-2a0,0,0,0,1,0,0c.07-.36.15-.74.23-1.12.13-.66.27-1.34.43-2,.73-3.33,1.63-7.06,2.68-11.12.37-1.47.77-3,1.2-4.55.23-.87.48-1.75.72-2.66q.66-2.39,1.37-4.89l.54-1.91.09-.31c.13-.49.28-1,.42-1.48,1.56-5.43,3.27-11.18,5.09-17.12,2.09-6.86,4.33-14,6.63-21.16.41-1.33.84-2.66,1.27-4h0c.13-.43.28-.87.42-1.31,2.7-8.4,5.48-16.86,8.22-25.08,1.24-3.72,2.47-7.42,3.69-11,2.37-7.1,4.69-13.89,6.86-20.22,5-14.52,9.16-26.5,11.65-33.58a5.67,5.67,0,0,1,8.45-2.85c4.6,3,9.12,5.61,13.5,7.92a164.51,164.51,0,0,0,51.26,17.33A3.62,3.62,0,0,1,277.06,552.45Z"/><path class="cls-8" d="M267.21,571.47c-5.71-1-53.94-2.68-77.62-13.06-2.17,6.32-4.48,13.12-6.86,20.21-1.22,3.6-2.45,7.28-3.69,11,5,.36,11.06.73,17.71,1,20.29.85,45.95.83,62.19-3.16Z"/><path class="cls-9" d="M239.22,625.14c-23.22,6-52.92-4-68.4-10.43,2.7-8.41,5.48-16.86,8.22-25.09,1.24-3.72,2.47-7.4,3.69-11a137.33,137.33,0,0,0,14,12c18.89,14.13,37.75,21.06,47.94,24.5C241.94,620.48,240.77,622.38,239.22,625.14Z"/><path class="cls-9" d="M231.85,640.16l-3.66,7.14-3.05,6c-.74,1.45-1.47,2.86-2.17,4.26-.53,1.05-1.06,2.08-1.57,3.1-.14.27-.28.53-.41.8s-.26.53-.41.79c-.29.59-.59,1.17-.88,1.75s-.59,1.15-.86,1.72c-.05.08-.09.17-.13.25l-2.59,5.12-.22.44-.84,1.68c-.05.09-.09.19-.15.28-.38.77-.76,1.53-1.14,2.27s-.72,1.45-1.07,2.14h0c-9.7,5.45-21,11.17-31.53,16.31-11.35,5.54-21.88,10.4-28.76,13.53-1.63-2.57-2.87-4.69-3.61-6.14a4.18,4.18,0,0,1-.33-1.22c0-.21-.05-.45-.07-.69v-.05c0-.48,0-1,0-1.63,0-.18,0-.37,0-.56s0-.23,0-.35l0-.37q.06-.74.15-1.56c0-.27.07-.56.11-.84s.07-.58.13-.89.12-.8.18-1.21c0-.14,0-.27.07-.41s0-.33.08-.49c.05-.31.1-.62.17-.94.12-.63.24-1.29.37-2a0,0,0,0,1,0,0c.07-.36.15-.74.23-1.12.13-.66.27-1.34.43-2,.73-3.33,1.63-7.06,2.68-11.12.38-1.47.78-3,1.2-4.55.23-.87.48-1.75.72-2.66q.66-2.39,1.37-4.89l.54-1.91.09-.31c10-.75,22-3.29,34.24-6.61C205.32,649.35,219.78,644.51,231.85,640.16Z"/><path class="cls-8" d="M212.36,738.39a187.88,187.88,0,0,1-25.76,13.76c-2.14-2.28-4.31-4.71-6.48-7.23-2.78-3.24-5.56-6.64-8.26-10,14.74.47,30-3.67,38.73-6.55C211.23,731.71,211.84,735.11,212.36,738.39Z"/><path class="cls-8" d="M233.37,637.2c-.52,1-1,2-1.52,3l-3.66,7.14-3.05,6c-.74,1.45-1.47,2.86-2.17,4.26-.53,1.05-1.06,2.08-1.57,3.1-.14.27-.28.53-.41.8s-.26.53-.4.79h0c-13.69,2-40.94,4.5-63.69-2.15l.09-.31c.13-.49.28-1,.42-1.48,1.56-5.43,3.27-11.18,5.09-17.12,2.09-6.86,4.33-14,6.63-21.16.41-1.33.84-2.66,1.27-4h0C184.56,622.78,213.11,635.32,233.37,637.2Z"/><path class="cls-8" d="M208.31,716c-12.07,5.53-29.46,9.88-41.26,12.62-6-7.89-11.19-15.44-14.65-20.88-1.63-2.58-2.87-4.7-3.6-6.15-1-2-.29-7.83,1.57-16.37,20,9,45.92,11.3,55.47,12.25A140,140,0,0,0,208.31,716Z"/><path class="cls-10" d="M121.59,736.57s-5.21,56,1.15,59.18l81.46-.17s0-9.4-13.08-11.49-36.07-9.75-40-26.81S121.59,736.57,121.59,736.57Z"/><path class="cls-2" d="M84.31,180.26s14.58,69.5,16.53,74c4.9,11.31,10.43,13.15,10.43,13.15L154,277.9l15,3.68,47.42-14.16s21.6-60.29,12.93-94.23-21.93-57.5-21.93-57.5a357.11,357.11,0,0,0-89.08-3.22Z"/><path class="cls-3" d="M79.94,188.81c0,23.86,19,60.95,20.9,65.46,4.9,11.31,10.43,13.15,10.43,13.15L154,277.9l30.2-4.77s-75.11,3.65-77.58-81.83Z"/><path class="cls-5" d="M100.9,276.8s-31.25,55.05-30,87.69S86.13,510.42,83.5,542.78,97.62,681.6,118.39,763.69c0,0,31.29,2.43,33.53-4.31,12.54-37.7,19.23-227.11,18.77-251.11-.33-17-1.77-86.55,27.5-156.79,7-16.86-9.11-78.36-9.11-78.36Z"/><path class="cls-10" d="M217.24,265.29s-9.43,7.45-28.16,7.83c-22.37.45-85.87-14.13-85.87-14.13s-2.41,10.54-2.31,17.81c0,0,75.72,21.85,114.94,7.26C215.84,284.06,220.9,274.54,217.24,265.29Z"/><path class="cls-11" d="M184.24,280.85c0-6.37,4.58-11.56,10.21-11.56s10.21,5.19,10.21,11.56-4.58,11.55-10.21,11.55S184.24,287.22,184.24,280.85Zm3.38,0c0,4.5,3.06,8.17,6.83,8.17s6.82-3.67,6.82-8.17-3.06-8.17-6.82-8.17S187.62,276.34,187.62,280.85Z"/><path class="cls-4" d="M108.28,201.21l0,14.15-.66,184a35.1,35.1,0,0,1-70.19-.25L38,215.89l.05-14.17c-2.42-.28-4.64-.55-6.64-.83l-.06,14.21-.65,184a41.74,41.74,0,1,0,83.47.3l.67-184.85.05-14.19Z"/><path class="cls-5" d="M131.49,204.72a7,7,0,0,1-5.72,8.1q-5.55,1-10.89,1.69c-2.25.31-4.46.6-6.65.85a326.87,326.87,0,0,1-39.06,2.22A302.68,302.68,0,0,1,38,215.89c-2.39-.24-4.61-.52-6.65-.79-9.55-1.28-15.17-2.59-15.81-2.75a7,7,0,1,1,3.27-13.65c.14,0,4.64,1.08,12.6,2.19,2,.28,4.22.55,6.64.83a307.21,307.21,0,0,0,70.19-.51c1.51-.19,3-.38,4.56-.59l2.09-.3q4.17-.6,8.45-1.33A7,7,0,0,1,131.49,204.72Z"/><rect class="cls-4" x="67.31" y="436.88" width="8.86" height="336.86" transform="translate(2.16 -0.25) rotate(0.2)"/><path class="cls-6" d="M80.65,795.49l-18.88-.22a2.32,2.32,0,0,1-2.29-2.46l1.8-28.38a2.31,2.31,0,0,1,2.32-2.17l14.88,0a2.32,2.32,0,0,1,2.3,2.14L83,793A2.33,2.33,0,0,1,80.65,795.49Z"/><rect class="cls-4" x="34.82" y="332.83" width="76.83" height="5.91" transform="translate(1.2 -0.26) rotate(0.2)"/><path class="cls-1" d="M74.84,312.7s3.41,3.92,4,4.48c4.16,3.76,20.31,9.47,22.15,14.47,3.26,8.83,2.95,16.81-1.29,16.05-5.52-1-7.21-5.57-10.79-7.33s-13-2.25-17.89-6.3c-3.14-2.58-6.29-12.59-6.29-12.59Z"/><path class="cls-1" d="M81,318.9s8.84,1.12,12.73.55,2,2.28.6,2.73a26.45,26.45,0,0,0-3.72,1.87Z"/><path class="cls-2" d="M118.42,112.47s-17.15.72-28.27,5.47c-9.93,4.25-21,11.7-30.79,24.68C34.31,176-5.36,238.62.6,260.09s47.14,59.1,65,64a13.19,13.19,0,0,0,6.46-1.34c5-2.28,6.76-5.53,6.76-5.53s-32-60-30.83-66.32,77.6-57.45,83.56-60.86S118.42,112.47,118.42,112.47Z"/><path class="cls-1" d="M135.87,112.89c.17-4.51,3.27-7.57,5.64-13.33,2.85-6.93,5.12-17.18,5.07-30l2.15.37,36.1,6.2S184,86,184,95.28v.23c0,8.07.2,11,4.09,18.29,2.53,4.79-2.61,10-13.43,10.23C145.26,124.78,135.7,117.17,135.87,112.89Z"/><path class="cls-12" d="M184.83,76.12S184,86,184,95.28c-20.2-.49-30.88-16.49-35.25-25.36Z"/><path class="cls-1" d="M191.58,87.26s-47.8.79-47.84-29S137.52,8.54,168,6.78s36.46,9.59,38.89,19.53S204,86.29,191.58,87.26Z"/><path d="M189.81,6.05S176.72,41,156.63,46.15s-28.79-.22-28.79-.22a56.9,56.9,0,0,0,18.6-33.6S179.94-10.57,189.81,6.05Z"/><path d="M186.56,8.89s9.71,3.63,13.7,10.7a48.06,48.06,0,0,1,6.46,27.34s9.87-23.74-1.22-37.18C193.75-4.49,186.56,8.89,186.56,8.89Z"/><path class="cls-1" d="M277.18,329.26s-.3,3.45,4.81,7,7.57,7.5,8.83,5.15-.89-8.82-2-10.73S278.18,327.13,277.18,329.26Z"/><path d="M207.13,32.76a10.12,10.12,0,0,0-6.65-2.35h0a8,8,0,0,0-4.42,1.12h0a.93.93,0,0,1-1.3-.21h0A.92.92,0,0,1,195,30h0a9.71,9.71,0,0,1,5.51-1.48h0a12,12,0,0,1,7.87,2.82h0a.92.92,0,0,1,.09,1.3h0a.94.94,0,0,1-.7.32h0a.9.9,0,0,1-.61-.23Z"/><path d="M199.42,44.65a2.24,2.24,0,1,0,2.24-2.24A2.24,2.24,0,0,0,199.42,44.65Z"/><path d="M171.89,32.76a10.12,10.12,0,0,1,6.65-2.35h0A8,8,0,0,1,183,31.53h0a.93.93,0,0,0,1.3-.21h0a.92.92,0,0,0-.21-1.29h0a9.71,9.71,0,0,0-5.51-1.48h0a12,12,0,0,0-7.87,2.82h0a.93.93,0,0,0-.09,1.3h0a1,1,0,0,0,.7.32h0a.88.88,0,0,0,.61-.23Z"/><path d="M179.61,44.65a2.25,2.25,0,1,1-2.25-2.24A2.24,2.24,0,0,1,179.61,44.65Z"/></g></g></g></svg>