<svg xmlns="http://www.w3.org/2000/svg" viewBox="0 0 224.6 217.9"><defs><style>.cls-1{fill:#c0d8fb;}.cls-2{fill:#dfebfd;}.cls-3{fill:#b7d3f3;}</style></defs><g id="Layer_2" data-name="Layer 2"><g id="_лой_1" data-name="‘лой_1"><rect class="cls-1" width="224.6" height="217.9" rx="16.06"/><rect class="cls-2" x="9.73" y="9.44" width="205.14" height="199.02" rx="14.67"/><path class="cls-3" d="M107.65,29.33A4.65,4.65,0,1,1,112.3,34,4.66,4.66,0,0,1,107.65,29.33Z"/><path class="cls-3" d="M145.19,35.9A4.65,4.65,0,1,1,147,42.23,4.66,4.66,0,0,1,145.19,35.9Z"/><path class="cls-3" d="M177.35,61.46A4.65,4.65,0,1,1,176,67.89,4.64,4.64,0,0,1,177.35,61.46Z"/><path class="cls-3" d="M193.28,101a4.66,4.66,0,1,1-4.65,4.66A4.66,4.66,0,0,1,193.28,101Z"/><path class="cls-3" d="M185.15,146.9a4.65,4.65,0,1,1-6.58,0A4.65,4.65,0,0,1,185.15,146.9Z"/><path class="cls-3" d="M155.93,176.19a4.65,4.65,0,1,1-6.58,0A4.65,4.65,0,0,1,155.93,176.19Z"/><path class="cls-3" d="M107.65,191.29A4.65,4.65,0,1,1,112.3,196,4.65,4.65,0,0,1,107.65,191.29Z"/><path class="cls-3" d="M79.26,35.9a4.65,4.65,0,1,0-1.8,6.33A4.65,4.65,0,0,0,79.26,35.9Z"/><path class="cls-3" d="M47.1,61.46a4.65,4.65,0,1,0,1.39,6.43A4.64,4.64,0,0,0,47.1,61.46Z"/><path class="cls-3" d="M31.17,101a4.66,4.66,0,1,0,4.65,4.66A4.66,4.66,0,0,0,31.17,101Z"/><path class="cls-3" d="M39.3,146.9a4.65,4.65,0,1,0,6.58,0A4.67,4.67,0,0,0,39.3,146.9Z"/><circle class="cls-3" cx="71.81" cy="179.48" r="4.65"/><path class="cls-3" d="M111.05,105.66a4.65,4.65,0,1,1,4.65,4.65A4.66,4.66,0,0,1,111.05,105.66Z"/><rect class="cls-3" x="115.06" y="47.53" width="1.27" height="58.12"/><rect class="cls-3" x="110.93" y="91.58" width="39.17" height="3.81" transform="translate(-29.87 100.54) rotate(-38.13)"/></g></g></svg>