<svg xmlns="http://www.w3.org/2000/svg" xmlns:xlink="http://www.w3.org/1999/xlink" viewBox="0 0 1315.85 626.62"><defs><style>.cls-1{fill:none;}.cls-2{opacity:0.4;}.cls-3{clip-path:url(#clip-path);}.cls-4{fill:#b0d4ff;}.cls-5{fill:#8bb9ef;}.cls-6{fill:#77a4e5;}.cls-7{fill:#9fc3f7;}.cls-8{fill:#8bb3ee;}.cls-9{fill:#d2e3fc;}.cls-10{fill:#afcdfb;}</style><clipPath id="clip-path" transform="translate(0)"><polyline class="cls-1" points="0 0 0 626.62 1315.85 626.62 1315.85 0"/></clipPath></defs><title>Community_Slide_Bottom_Sofa</title><g id="Layer_2" data-name="Layer 2"><g id="Layer_1-2" data-name="Layer 1"><g class="cls-2"><g class="cls-3"><path class="cls-4" d="M347,341.43c3.29,7.81,34.9,15.06,81.8,21.47,8.27,1.13,17,2.23,26.15,3.32,159.63,18.8,596.85,29.3,623.8,23.75C1116,382.3,1190.12,7.82,1190.12,7.82S971.93,4,798.66,2.19C739.38,1.57,533.18,0,494.95,0,435.73,0,341.72,328.78,347,341.43" transform="translate(0)"/><path class="cls-4" d="M407.42,293.36s67-256.6,71.82-278.16c2.15-9.61,8.79-13.09,15.48-14C483,.09,474.38,0,474.38,0c-23.18,0-43.78,15.6-51.21,38.78-16.22,50.56-48.46,147.7-78.72,242.67,1.53,0,63,11.91,63,11.91" transform="translate(0)"/><path class="cls-4" d="M1.41,520.55C12.09,584.92,82,625.91,153.6,625.91H295.52L284.52,254S149,209.88,115,248.75C85.21,282.81,4.41,417.62.16,497.41a106.14,106.14,0,0,0,1.25,23.15" transform="translate(0)"/><path class="cls-5" d="M1.41,520.55C12.09,584.92,82,625.91,153.6,625.91h69.61c-46.42-29.58-88.4-120.76-221.8-105.36" transform="translate(0)"/><path class="cls-6" d="M378.14,290.47S186.7,198.59,150.43,258.61c-19.26,31.87-72.24,159-76.15,238.79-3.8,77.53,67.63,128.5,141.11,128.5H345.91Z" transform="translate(0)"/><path class="cls-7" d="M125.89,563.26q3.18,2.54,6.52,5c27.65,20.38,63.72,36.6,105,46.65a413.44,413.44,0,0,0,101,11.36l62.06,0h.84l293.75.08,168.38,0h2.49v-.07l5.84-30.56,53.31-308.2S187.24,271,127.25,305.22C99.39,321.12,83.58,387,74.81,459.57c-4.67,38.65,15.11,74.92,51.08,103.69" transform="translate(0)"/><path class="cls-8" d="M125.89,563.26q3.18,2.54,6.52,5c27.65,20.38,63.72,36.6,105,46.65a413.44,413.44,0,0,0,101,11.36l62.06,0h.84l293.75.08,168.38,0,2.5-.07,5.84-30.56c-103.2-19.94-246-40.2-395-38.63-142.28,1.5-261.4,1.31-350.9,6.1" transform="translate(0)"/><path class="cls-9" d="M720.28,523.92c11.51,62.43,74.66,102,139.39,102H990.18L980,250.74s-124.52-40.86-155.8-2c-27.4,34.06-101.71,168.86-105.62,248.65a114.43,114.43,0,0,0,1.72,26.51" transform="translate(0)"/><path class="cls-10" d="M720.28,523.92c11.51,62.43,74.66,102,139.39,102H964.11c-48.89-31.15-114.71-117.24-243.83-102" transform="translate(0)"/><path class="cls-6" d="M795,526.53c5.19,24.65,18.45,45.62,36.61,61.86h0a142.93,142.93,0,0,0,37.07,23.79,160.4,160.4,0,0,0,54,13.45l2.92.18,2.33.09c1.3.05,2.59.09,3.89.11l2.07,0h130.51V626l7.54.09c13.43.15,27.47.3,40.49.41l6.45.05h2.35c12.86.08,24.24.12,32.35.07a228.16,228.16,0,0,0,32.28-2.34,151.22,151.22,0,0,0,36-9.68c2-.81,3.88-1.66,5.77-2.57s3.82-1.88,5.67-2.89a113.73,113.73,0,0,0,14.15-9.08,122.35,122.35,0,0,0,30.11-33.24,177.34,177.34,0,0,0,15.65-32.05,292.53,292.53,0,0,0,13.45-50c.09-.48.18-1,.27-1.43q2.35-12.91,4.07-27.17.78-6.5,1.44-13.28,2.34-24,3.11-51.56c0-1.6.08-3.22.12-4.84l0-1.08q.48-22,.05-46.26-.18-10.66-.54-21.78-.16-5.06-.36-10.21-1-25.87-2.87-54.23-.84-12.74-1.85-26-4.16-54.64-11.19-118.3c-5.28-48.25-11.38-82-20.24-89.65C1265.52,7.61,1238.24,3,1219.27,1.22h0C1207.49.09,1198.92,0,1198.92,0l-1.27,0-.9,0c-.72,0-1.44.08-2.15.14l-1.2.11-.79.09-1.19.16c-.71.1-1.4.22-2.1.35l-1.43.3-.12,0c-.34.08-.69.15-1,.24-.66.15-1.31.33-2,.51l-1.32.4-.91.3a53,53,0,0,0-10.38,4.82,56.59,56.59,0,0,0-24.46,31.39c-15.15,47.34-42.19,132-70.33,220.51l-.42,1.33L1072.09,276c-.16.51-.32,1-.49,1.55l-.25.78c-1.59-.67-3.23-1.36-4.93-2.06l-.18-.08c-6.75-2.81-14.38-5.9-22.62-9h0c-4.27-1.63-8.69-3.28-13.26-4.92-12.88-4.64-26.78-9.23-40.87-13.18-6.25-1.76-12.55-3.4-18.81-4.85-8-1.87-16-3.46-23.78-4.63l-.68-.11-2.74-.39c-5.48-.75-10.84-1.3-16-1.6h0c-26.54-1.53-48.52,3.46-58.58,20.15a314,314,0,0,0-14.52,28.58,910.11,910.11,0,0,0-38.59,100.95c-12,38.14-21.47,77.87-23,110A114.46,114.46,0,0,0,795,526.53" transform="translate(0)"/><path class="cls-9" d="M1132,293.36s67-256.6,71.82-278.16c2.15-9.61,8.79-13.09,15.48-14C1207.49.09,1198.92,0,1198.92,0c-23.18,0-43.78,15.6-51.21,38.78-16.22,50.56-46.1,143.8-76.35,238.77,1.53,0,60.61,15.81,60.61,15.81" transform="translate(0)"/></g></g></g></g></svg>