<svg xmlns="http://www.w3.org/2000/svg" xmlns:xlink="http://www.w3.org/1999/xlink" viewBox="0 0 739.5 997.96"><defs><style>.cls-1{fill:none;}.cls-2{fill:#f9ae7a;}.cls-3{fill:#e2e2e2;}.cls-4{fill:#243862;}.cls-5{fill:#2a4788;}.cls-6{fill:#eb9560;}.cls-7{fill:#f3f4f5;}.cls-8{fill:#fff;}.cls-9{fill:#6ec073;}.cls-10{fill:#cf9f75;}.cls-11{fill:#22427c;}.cls-12{fill:#1f2844;}.cls-13{fill:#2d334c;}.cls-14{fill:#2b478b;}.cls-15{fill:#243d80;}.cls-16{fill:#c65447;}.cls-17{fill:#aa6d66;}.cls-18{fill:#1d1c1a;}.cls-19{opacity:0.2;}.cls-20{clip-path:url(#clip-path);}.cls-21{clip-path:url(#clip-path-2);}.cls-22{clip-path:url(#clip-path-3);}.cls-23{clip-path:url(#clip-path-4);}.cls-24{fill:#ec2024;}.cls-25{fill:#6dbf73;}.cls-26{fill:#232e63;}.cls-27{fill:#afc6e6;}</style><clipPath id="clip-path"><rect class="cls-1" x="179.84" y="75.4" width="20.03" height="19.75"/></clipPath><clipPath id="clip-path-2"><rect class="cls-1" x="179.84" y="75.39" width="20.03" height="19.75"/></clipPath><clipPath id="clip-path-3"><rect class="cls-1" x="209.35" y="75.4" width="20.03" height="19.75"/></clipPath><clipPath id="clip-path-4"><rect class="cls-1" x="209.35" y="75.39" width="20.03" height="19.75"/></clipPath></defs><title>Community_Slide_Left_Girls_Pair</title><g id="Layer_2" data-name="Layer 2"><g id="Layer_1-2" data-name="Layer 1"><path class="cls-2" d="M656.89,276.75c1.69,3.2,13,123.29,4.11,139.09s-50.69-30.12-51.73-107.62c-.87-65.29,47.62-31.47,47.62-31.47"/><path class="cls-3" d="M573.52,176.79s-5.12-5.62-8.46-5.22-45.76-7.58-57-1.62l5,4.14s39.49,44,60.51,2.7"/><rect class="cls-4" x="552.26" y="369.87" width="173.05" height="122.02" transform="matrix(0.96, -0.3, 0.3, 0.96, -98.94, 208.46)"/><path class="cls-5" d="M660.81,969.09l-17,6.34s-74-102.57-83.06-192.81c-1.63-16.11-1.08-31.72,2.43-46.14,0,0-.72-4.13-2-11.42-.58-3.41-1.31-7.51-2.13-12.21-2.41-13.78-5.71-32.62-9.49-54.09-8.7-49.39-20-112.52-28.73-158.94l4.59-1.47,49.64-16,10.26-32.58,37-9.73s8.26,16.15,15.64,92.45c1.36,10,2.6,21,3.53,33a653.24,653.24,0,0,1-3.51,133.65q-2.54,19.89-6.49,41c-1.94,10.31-2.24,24.37-1.42,40.51,3.72,73.77,30.8,188.42,30.8,188.42"/><path class="cls-4" d="M641.43,565.49,561.17,725.06c-.58-3.41-1.31-7.51-2.13-12.21-2.4-13.78-5.71-32.62-9.49-54.09-8.7-49.39-20-112.52-28.73-158.94l4.59-1.47,49.64-16,10.26-32.58,37-9.73s8.26,16.15,15.64,92.45c1.36,10,2.6,21,3.53,33"/><path class="cls-5" d="M606.12,460.5l-1.86-15.93c-31.13,8.27-114.3-23.1-114.3-23.1s-30.15,26.51-26.2,90c1.94,31,5.46,162.8,9.15,201.8,1.33,14.13,2.5,24.19,3,28.21a.06.06,0,0,1,0,0A5.58,5.58,0,0,1,475,745a183,183,0,0,0-13.61,28.62C425.2,870.06,467,988.82,467,988.82l10.84-4.37s23.76-132.16,43.07-190.54c3.28-9.9,6.42-17.68,9.3-22.33,8.4-13.55,16.19-35.69,23.26-62C566.79,659.76,577.55,595,584.71,545c1,0,21.41-84.51,21.41-84.51"/><path class="cls-4" d="M530,997.67H444.21s-2.06-13.07,2.42-23c4.29-9.52,11-13.84,9.4-25.35,5.45,5.61,14.33,11.89,26.73,10.22,1.52,2.46,9.8,15.64,14.88,19.29,5.6,4,30.59,2.59,32.32,18.82"/><path class="cls-4" d="M714.09,997.67H628.33s-3.21-13.68,2.42-23c5-8.23,3.07-12.92-.62-19.74a33.3,33.3,0,0,0,14.44,2.72c4.27-.25,8.79-2.18,12.75-4.49,3.69,4.21,19.49,22.12,24.43,25.67,5.6,4,30.59,2.59,32.32,18.82"/><path d="M512.62,20.28C511.94,18,503.8-6.63,465.3,1.72c0,0,19.34-2.51,24.67,4.92,0,0-15.36-7-24.94-1s-11.08,25.7-9.62,31.71,12.13,23.89,19.15,23.86a20.77,20.77,0,0,0,8-2,93,93,0,0,0-2.81,10.45c-7.32,35.12,16.12,61.7,28.16,55.06,7.72-4.26,13.63,9.26,13.63,9.26l63.89-85.38s-45-53.6-72.82-28.26"/><path class="cls-2" d="M566.65,247.13c-52.9,16.52-61.35-66.43-58-66.85,5.7-5.09,13.27-24.72,13-54.3l2.58.49,43.31,8.4s-.92,13.64-.91,26.46c0,10,.63,19.57,2.69,21.76,3.36.47,5.39.79,5.39.79l0,0c.64.89,6,58.82-8.15,63.22"/><path class="cls-6" d="M567.62,134.87s-.93,13.63-.91,26.46c-24.22-.59-37.11-22.63-42.41-34.86Z"/><path class="cls-2" d="M575.75,147s-57.3,1.17-57.48-34.52-7.7-59.58,28.88-61.84S590.91,62,593.86,73.86s-3.21,71.91-18.11,73.13"/><path d="M592.08,54c-8.9-10.7-15.59-8.32-19.32-5.08-31.39-17.1-51.47,8.44-51.47,8.44C517.56,83,499.15,97.75,499.15,97.75s10.47,6.41,34.53.12C541,96,547.56,90.7,553.12,84.34a133.76,133.76,0,0,1-22.9,28.19c28.71-13.41,40.1-53.46,41.23-57.69C575,58,581.89,64.77,584,71.45c2.89,9.08,4.25,27.78,9.7,27.13,0,0,11.71-28.51-1.64-44.56"/><path class="cls-7" d="M640.44,384.93,661.14,503c-12.22,7.48-24,13.9-35.37,19.4a142.34,142.34,0,0,0-9.31-20.31c1.65,6.07-2.52,19.51-5.14,26.91C505.72,574.51,442,539.55,442,539.55c15.85-116.64,4.1-308.67,6.95-322.39,5.42-26.07,56.24-37.38,56.24-37.38C523.74,212.36,556,227.44,556,227.44c12.13-12,15.28-44.06,15.28-44.06l21.19,5.21A80.08,80.08,0,0,1,629,208.48c.91.89,1.82,1.8,2.68,2.73,10.47,11.2,37.72,83.47,37.72,83.47s-5.72,19.85-16.23,29.85c-5.38,5.11-12.37,9.95-20.68,15Z"/><path class="cls-8" d="M562.73,126.53s2.55,5.58,6.13,6.2,9.21.59,10.48,0,3.27-4.52,4.13-5.74a176,176,0,0,0-19.89-.46Z"/><path class="cls-3" d="M653.16,324.53a147.23,147.23,0,0,1-20.68,15s-15.87-59.35-11.14-63.48,13.41,34.9,31.82,48.46"/><path class="cls-2" d="M422.45,256.88s-74,100.7-66.79,134.9c5.71,27.24,80.56,89.86,80.56,89.86l19.32-12.47s-46.74-67.72-42.64-87.57c3.19-15.44,49.53-74,49.53-74Z"/><path class="cls-7" d="M471.84,192.31s-86.7,79.54-122,149.48c0,0,33.5,26.49,76.1,35.81,11.94,2.61,72-118.83,72-118.83Z"/><path class="cls-2" d="M450.54,470.44s20.87-7.94,32.54-4.83c6.59,1.76,18.82,25,11.21,28.56s-16.23-8.94-25.6-6.59-21,16-32.47-5.93Z"/><path class="cls-2" d="M451.67,467.8s8-3.63,11.64-6.15,5.82,2,0,6.15-7.91,2.31-7.91,2.31Z"/><path class="cls-2" d="M733.67,465.25S710,454,705.19,466.62s3.5,23.18,11.43,20.69,22.07-10.93,17.06-22.06"/><path d="M585.37,85.92a9,9,0,0,1,6.23-1,7.16,7.16,0,0,1,3.7,1.7.83.83,0,1,0,1.2-1.14,8.69,8.69,0,0,0-4.6-2.19,10.7,10.7,0,0,0-7.37,1.19A.83.83,0,0,0,584.8,86a.81.81,0,0,0,.57-.1"/><path d="M590.22,97.62a2,2,0,1,1-1.61-2.33,2,2,0,0,1,1.61,2.33"/><path d="M562.83,86.74a9,9,0,0,1,5.94-2.1,7.17,7.17,0,0,1,4,1,.83.83,0,0,0,1-1.34A8.71,8.71,0,0,0,568.77,83a10.68,10.68,0,0,0-7,2.51.83.83,0,0,0,.54,1.45.82.82,0,0,0,.54-.21"/><path d="M569.73,97.36a2,2,0,1,1-2-2,2,2,0,0,1,2,2"/><path class="cls-7" d="M548.53,229l-1.74-40v-9.19c17.72,6.82,26.73-3,26.73-3l8.7,10.85-2.86,23.71s-6.72,16.81-8.08,17.67-22.75,0-22.75,0"/><path class="cls-7" d="M547.41,200l-5.23-5.22V180.35A38.06,38.06,0,0,1,508,169.95l-13.48,23.13,23.63,24.25L543.3,231l9.2-.87Z"/><polygon class="cls-9" points="547.23 258.48 552.28 261.59 547.39 199.9 542.17 194.82 547.23 258.48"/><rect class="cls-3" x="478.1" y="265.38" width="51.9" height="24.62"/><path class="cls-10" d="M285.27,498.32s9.85,35.47,7.52,44.33-12.71,25.42-17.33,24.83,0-56.75,0-56.75Z"/><path d="M118,223.62c-3.59-7.09,78.28-32.63,79.58,37.36,0,0,153.37-3.86,80.14-91.46-25.35-30.33-22.74-55.4-22-78.74S240-.42,183.21,6.41c0,0-14.87-6.2-33.42,3.67C107.59,32.51,13.08,249.43,118,223.62"/><path class="cls-11" d="M14.27,915.91S-2.92,932,.43,943.4s18.86,19,21,33S31.87,998,39.42,998h36s5.56-9.82-7.86-12.78S49.06,965.81,49.9,950.59s-1.26-35.53-1.26-35.53l-28.5-6.77Z"/><path class="cls-11" d="M159.73,922.73s-6.18,68.09,1.36,71.89l96.56-.2s0-11.42-15.51-14-42.76-11.84-47.37-32.57-35-25.17-35-25.17"/><path class="cls-12" d="M238.57,364s27.84,88.79,29.63,119S215,912.46,212.77,926.39c-2.09,13.13-18,21.5-18,21.5s-7.32,4.42-17.76,1.4c-14.49-4.19-19.07-9.21-19.07-9.21-5.21-58.54-9-121.84-10.56-189.37-2.16-95.78,1-169.68,2.3-197.08L163.25,364Z"/><path class="cls-13" d="M120.63,361.32S78.16,419.71,74.2,459.17,68,637.28,59.56,675.76,20.13,788.28,20.13,908.29c0,0,3.22,6.88,13.17,10.54a106.55,106.55,0,0,0,11.58,3.28,18.07,18.07,0,0,0,20.36-9.9c21-43.22,87.69-182.64,91.1-211.57,2.42-20.48,16.64-143.41,62.6-222.94,11-19.09,10.37-102.33,10.37-102.33Z"/><path class="cls-14" d="M85.45,247a403.27,403.27,0,0,0,0,45.74c1,16.54,17.28,38.68,19.59,44.16,5.81,13.74,12.36,16,12.36,16l50.7,12.73,4.25,27.81s42.54,18.62,72-10.2c25.68-25.08,23.35-103.58,13.07-144.8s-26-69.86-26-69.86-38.11-15.41-105.6-3.9Z"/><path class="cls-15" d="M277,529.06S139.15,573,57.71,537.68L78.27,418.92l1.26-68,30.32-182.5,29.75-7.23s8.2-8.84,16.72-10.47l47.28,4.14s3.79,1.93,9.35,8.91c0,0,19.77,3.44,24.35,7.16s30.95,53.34,30.95,53.34Z"/><path class="cls-16" d="M39.54,373.93l65.17,58.15a11.12,11.12,0,0,0,16-1.13l83.16-97.86a11.79,11.79,0,0,0-1.1-16.34l-65.17-58.15a11.12,11.12,0,0,0-15.95,1.13L38.44,357.58a11.78,11.78,0,0,0,1.1,16.34"/><path class="cls-10" d="M136,366.59c.93.25,34.62,4.31,34.62,11.44,0,8.25-9.88,19.3-19.18,18.78-3.77-.21-21.15-16.59-21.15-16.59Z"/><path class="cls-10" d="M153.26,160.86c3.83-9.53,6.07-24,6-42l2.55.52,42.8,8.68s-1,13.8-1,26.8c0,.11,0,.22,0,.32-.05,11.29,7.45,22.62-10.23,27.1-5.46,1.38-48.17-1.42-40.11-21.43"/><path class="cls-17" d="M204.61,128.06s-1,13.8-1,26.8c-23.95-.69-36.61-23.08-41.8-35.49Z"/><path class="cls-10" d="M212.61,140.37s-56.66,1-56.7-35.21-7.38-60.4,28.8-62.55,43.22,11.65,46.1,23.72-3.46,72.85-18.19,74"/><path d="M223.22,71.2a10.55,10.55,0,0,0-7-2.56,8.34,8.34,0,0,0-4.69,1.22,1,1,0,0,1-1.37-.23,1,1,0,0,1,.22-1.4,10.13,10.13,0,0,1,5.84-1.6,12.49,12.49,0,0,1,8.33,3.05,1,1,0,0,1,.1,1.42,1,1,0,0,1-.74.35,1,1,0,0,1-.64-.25"/><path d="M215,84.11a2.38,2.38,0,1,0,2.38-2.43A2.41,2.41,0,0,0,215,84.11"/><path d="M185.88,71.2a10.55,10.55,0,0,1,7-2.56,8.34,8.34,0,0,1,4.69,1.22,1,1,0,0,0,1.37-.23,1,1,0,0,0-.22-1.4,10.13,10.13,0,0,0-5.84-1.6,12.49,12.49,0,0,0-8.33,3.05,1,1,0,0,0-.1,1.42,1,1,0,0,0,.74.35,1,1,0,0,0,.64-.25"/><path d="M194.05,84.11a2.38,2.38,0,1,1-2.38-2.43,2.41,2.41,0,0,1,2.38,2.43"/><path class="cls-8" d="M194.07,114.85a19.11,19.11,0,0,0,14.79,6.54c5.82,0,10.25-7,10.25-7s-10.52-3.93-25,.44"/><path class="cls-18" d="M230.08,81.94a2.5,2.5,0,0,0-.51.05,10.76,10.76,0,0,0-20.9,2.41h-.4s-.09-.06-.14-.15-.09-.29-.14-.48c-.31-1.21-1-3.73-3.14-3.86h-.49c-2.18.13-2.83,2.65-3.14,3.86,0,.19-.11.42-.14.48s-.09.14-.14.15h-.4A10.76,10.76,0,0,0,179.64,82a2.5,2.5,0,0,0-.51-.05c-.83,0-1.51.38-1.51.84v1.95c0,.46.67.83,1.5.84a10.74,10.74,0,0,0,21.46-.13h.34a1.22,1.22,0,0,0,1.09-.72,3.69,3.69,0,0,0,.22-.69c.27-1,.77-3,2.19-3.08h.37c1.41.08,1.92,2,2.19,3.08a3.71,3.71,0,0,0,.22.69,1.21,1.21,0,0,0,1.09.72h.34a10.74,10.74,0,0,0,21.46.13c.83,0,1.49-.38,1.49-.84V82.77c0-.46-.68-.84-1.51-.84m-40.23,13.2a9.87,9.87,0,1,1,10-9.87,9.94,9.94,0,0,1-10,9.87m29.52,0a9.87,9.87,0,1,1,10-9.87,9.94,9.94,0,0,1-10,9.87"/><g class="cls-19"><g class="cls-20"><g class="cls-21"><path class="cls-8" d="M189.85,75.39a9.88,9.88,0,1,0,10,9.87,9.95,9.95,0,0,0-10-9.87"/></g></g></g><g class="cls-19"><g class="cls-22"><g class="cls-23"><path class="cls-8" d="M219.37,75.39a9.88,9.88,0,1,0,10,9.87,9.94,9.94,0,0,0-10-9.87"/></g></g></g><path class="cls-8" d="M178,84.16a1.24,1.24,0,0,1-.1-.31,1.55,1.55,0,0,1,0-.33,1.7,1.7,0,0,1,0-.38,1.23,1.23,0,0,1,.15-.37.87.87,0,0,1,.12-.15.82.82,0,0,1,.13-.11l.13-.06a.33.33,0,0,1,.11,0h.09l-.07.06a.4.4,0,0,0-.07.06l-.08.09-.07.11a1.39,1.39,0,0,0-.06.14,1.87,1.87,0,0,0-.09.32c0,.11,0,.23-.07.34s0,.21-.05.31-.06.31-.06.31"/><path class="cls-8" d="M202.19,82.35a2,2,0,0,1,.1-.51,2.71,2.71,0,0,1,.21-.49,2.27,2.27,0,0,1,.16-.26c.06-.09.13-.17.2-.25a3,3,0,0,1,.24-.22,1.56,1.56,0,0,1,.27-.17,1.3,1.3,0,0,1,.27-.11,1.1,1.1,0,0,1,.26-.06l.22,0,.17,0,.14,0-.14,0-.15,0-.19.07a1.53,1.53,0,0,0-.22.1,1.58,1.58,0,0,0-.22.13,2.28,2.28,0,0,0-.22.17c-.07.06-.14.13-.21.2a5.12,5.12,0,0,0-.63.88c-.15.26-.25.44-.25.44"/><path class="cls-8" d="M230,82.43a.77.77,0,0,1,.25-.08,1.08,1.08,0,0,1,.57.05l.15.07a.81.81,0,0,1,.13.1.55.55,0,0,1,.14.26.38.38,0,0,1,0,.2.34.34,0,0,1,0,.07l0-.06,0-.07-.06-.07-.07-.07-.08-.06a1.17,1.17,0,0,0-.21-.1,2.07,2.07,0,0,0-.24-.09l-.23-.07-.24-.08"/><path d="M210.51,41.73S195,84.16,171.19,90.43,137,90.17,137,90.17A69.37,69.37,0,0,0,159.1,49.35s39.7-27.82,51.41-7.63"/><path d="M206.66,45.17s11.5,4.41,16.24,13a59.62,59.62,0,0,1,7.66,33.21s11.69-28.84-1.45-45.16c-13.93-17.3-22.45-1.05-22.45-1.05"/><path class="cls-10" d="M136,366.59s8.07-2.66,13.47-1.88,9.39-.11,9.39,1.44-7,2.27-8.45,3S136,366.59,136,366.59"/><path class="cls-24" d="M208,70.44a2.7,2.7,0,1,1-2.7-2.76,2.73,2.73,0,0,1,2.7,2.76"/><polygon class="cls-10" points="285.27 498.32 281.63 264.28 269.6 271.54 276.45 509.48 285.27 498.32"/><path class="cls-10" d="M143.19,370.77s-53.13-35.65-62.59-53.6,44.87-92.38,44.87-92.38L98.9,194.63s-64,86.91-54.61,128.09,90.29,59,90.29,59Z"/><polyline class="cls-10" points="205.1 171.3 193.37 207.99 156.78 174.13"/><path class="cls-15" d="M248,284.58,238,171.36s28.22,13.67,42.06,58c2.14,6.84,3.91,18.23,5.39,32.59Z"/><polygon class="cls-25" points="269.6 271.54 268.78 264.56 284.8 255.87 285.54 261.98 269.6 271.54"/><path class="cls-15" d="M133.41,231.45c-10,10.23-18.72,20.7-25.58,28.17l-48-28.53c3.79-9,7.37-17.58,10.4-25.16,15.41-38.4,55.63-41.3,55.63-41.3s20.6,53.42,7.53,66.83"/><polygon class="cls-9" points="59.84 231.09 62.19 225.47 112.85 254.03 107.83 259.62 59.84 231.09"/><polygon class="cls-26" points="251.4 234.09 256.3 263.37 238.99 274.43 218.92 266.89 218.92 236.04 251.4 234.09"/><path class="cls-27" d="M145.91,165.43s-49.38,8.44-59.56,33.22l-10.28-4s13.13-21.31,38.76-27.81l24.77-5.62Z"/><path class="cls-27" d="M148.78,171.3s-31.61.07-54.92,29.87c0,0,11.89,1.71,22.08,14,0,0,18.93-36.81,37.33-35.25Z"/><path class="cls-27" d="M215,179.92s21.91,13.39,34.13,32c0,0-.33-10.7,6.19-13.29,0,0-15.55-23.24-40.32-25.86"/><path class="cls-27" d="M262.76,194.25l-1.78.84s-15.1-24.74-46.55-28l-1.64-3.53s22.34,3.93,30.88,11,12.82,9.7,19.1,19.66"/><path class="cls-26" d="M156.31,150.72s-7.7,1-16.72,10.47c0,0-5.25,7.54-2.45,18.73s13.13,12.71,15.11,18.73c0,0,5.12-18,13.67-16.07,0,0-12.72-10.17-13.47-15s4.11-12.71,3.87-16.85"/><polygon class="cls-26" points="165.92 182.59 174.77 181.14 193.37 207.99 196.11 177.37 204.61 176.92 194.45 209.34 160.28 181.86 165.92 182.59"/><path class="cls-26" d="M201.63,184l-.26,38.26a6.07,6.07,0,0,1-4.84,6,5.91,5.91,0,0,1-6.18-2.76L165.07,184l29.38,25.29Z"/><path class="cls-26" d="M203.28,177l.15-.48s2-1.89,1.38-10.66-1.65-5-1.2-11c0,0,4,2.11,9.34,8.91,0,0,7.73,5.55,1.66,22.07,0,0-10-10.89-13.11-3.26"/></g></g></svg>