<svg xmlns="http://www.w3.org/2000/svg" viewBox="0 0 177.86 172.55"><defs><style>.cls-1{fill:#c0d8fb;}.cls-2{fill:#dfebfd;}.cls-3{fill:#b7d3f3;}</style></defs><title>Community_Slide_Clock</title><g id="Layer_2" data-name="Layer 2"><g id="Layer_1-2" data-name="Layer 1"><path class="cls-1" d="M165.14,172.55H12.72A12.76,12.76,0,0,1,0,159.83V12.72A12.76,12.76,0,0,1,12.72,0H165.14a12.76,12.76,0,0,1,12.72,12.72V159.83a12.76,12.76,0,0,1-12.72,12.72"/><path class="cls-2" d="M158.54,165.08H19.32A11.65,11.65,0,0,1,7.71,153.46V19.09A11.65,11.65,0,0,1,19.32,7.47H158.54a11.65,11.65,0,0,1,11.62,11.62V153.46a11.65,11.65,0,0,1-11.62,11.62"/><path class="cls-3" d="M85.25,23.22a3.68,3.68,0,1,1,3.69,3.68,3.69,3.69,0,0,1-3.69-3.68"/><path class="cls-3" d="M115,28.43a3.68,3.68,0,1,1,1.43,5,3.68,3.68,0,0,1-1.43-5"/><path class="cls-3" d="M140.44,48.67a3.68,3.68,0,1,1-1.1,5.09,3.69,3.69,0,0,1,1.1-5.09"/><path class="cls-3" d="M153.06,80a3.68,3.68,0,1,1-3.69,3.69A3.68,3.68,0,0,1,153.06,80"/><path class="cls-3" d="M146.62,116.33a3.68,3.68,0,1,1-5.21,0,3.69,3.69,0,0,1,5.21,0"/><path class="cls-3" d="M123.48,139.53a3.68,3.68,0,1,1-5.21,0,3.69,3.69,0,0,1,5.21,0"/><path class="cls-3" d="M85.25,151.48a3.68,3.68,0,1,1,3.69,3.68,3.69,3.69,0,0,1-3.69-3.68"/><path class="cls-3" d="M62.77,28.43a3.68,3.68,0,1,0-1.43,5,3.69,3.69,0,0,0,1.43-5"/><path class="cls-3" d="M37.3,48.67a3.68,3.68,0,1,0,1.1,5.09,3.69,3.69,0,0,0-1.1-5.09"/><path class="cls-3" d="M24.68,80a3.68,3.68,0,1,0,3.68,3.69A3.68,3.68,0,0,0,24.68,80"/><path class="cls-3" d="M31.12,116.33a3.68,3.68,0,1,0,5.21,0,3.68,3.68,0,0,0-5.21,0"/><path class="cls-3" d="M54.26,139.53a3.68,3.68,0,1,0,5.21,0,3.68,3.68,0,0,0-5.21,0"/><path class="cls-3" d="M87.94,83.67a3.68,3.68,0,1,1,3.68,3.68,3.68,3.68,0,0,1-3.68-3.68"/><rect class="cls-3" x="91.12" y="37.64" width="1.01" height="46.03"/><rect class="cls-3" x="87.85" y="72.52" width="31.02" height="3.02" transform="matrix(0.79, -0.62, 0.62, 0.79, -23.65, 79.64)"/></g></g></svg>