<svg xmlns="http://www.w3.org/2000/svg" viewBox="0 0 144.39 174.45"><defs><style>.cls-1{fill:#f9ddbf;}.cls-2{fill:#9fc1f4;}.cls-3{fill:#ff9843;}.cls-4{fill:#ffc48a;}</style></defs><title>Community_Slide_Top_Lamp</title><g id="Layer_2" data-name="Layer 2"><g id="Layer_1-2" data-name="Layer 1"><path class="cls-1" d="M34.57,136.82a37.62,37.62,0,1,1,37.62,37.63,37.62,37.62,0,0,1-37.62-37.62"/><path class="cls-2" d="M80.54.61V61.92c0,5-.15,9.75-.29,14.19v.09c-.44,10-1.29,18.39-2.42,23.42-.72,3.28-1.57,5.15-2.49,5.15h-.71c-.9,0-1.73-2-2.46-5.57A151.12,151.12,0,0,1,70,79.52v-.05c0-1.13-.15-2.27-.15-3.41v-.37c-.14-4.29-.29-8.89-.29-13.77V0c3.7.17,7.35.38,11,.61"/><path class="cls-3" d="M72.19,75.64C32.32,75.64,0,109.81,0,152H144.39c0-42.16-32.32-76.34-72.19-76.34"/><path class="cls-4" d="M77.95,76.57a29.72,29.72,0,0,0-6.34-.69c-26,0-47,34.07-47,76.1H37.25c0-38.55,17.72-70.4,40.7-75.41"/></g></g></svg>