<svg xmlns="http://www.w3.org/2000/svg" viewBox="0 0 461.94 868.48"><defs><style>.cls-1{fill:#9abfe2;}.cls-2{fill:#dfebfd;}.cls-3{fill:#c8dbf4;}.cls-4{fill:#b7d3f3;}.cls-5{fill:#82b378;}.cls-6{fill:#a8d29f;}.cls-7{fill:#ed7d2b;}.cls-8{fill:#f99746;}.cls-9{fill:#b5453c;}</style></defs><title>Community_Slide_Right_Flower_Pot</title><g id="Layer_2" data-name="Layer 2"><g id="Layer_1-2" data-name="Layer 1"><path class="cls-1" d="M0,425.73V437c0,3.94,1.27,7.15,2.83,7.15h410.1c1.55,0,2.83-3.21,2.83-7.15V425.73c0-3.93-1.27-7.15-2.83-7.15H2.83c-1.55,0-2.83,3.22-2.83,7.15"/><path class="cls-2" d="M0,425.73V437c0,3.94,1.17,7.15,2.6,7.15H328.17c1.43,0,2.6-3.21,2.6-7.15V425.73c0-3.93-1.17-7.15-2.6-7.15H2.6c-1.43,0-2.6,3.22-2.6,7.15"/><rect class="cls-3" x="103.8" y="444.11" width="291.15" height="424.36"/><rect class="cls-2" x="22.21" y="444.11" width="291.15" height="424.36"/><path class="cls-4" d="M37.85,456.1H297.71V845H37.85Zm257.05,2.8H40.65V842.24H294.9Z"/><rect class="cls-4" x="39.25" y="584.77" width="257.05" height="2.81"/><rect class="cls-4" x="39.25" y="715.94" width="257.05" height="2.81"/><path class="cls-4" d="M141.44,481.19h47.7a4.21,4.21,0,0,0,0-8.42h-47.7a4.21,4.21,0,1,0,0,8.42"/><path class="cls-4" d="M141.44,609.46h47.7a4.21,4.21,0,1,0,0-8.42h-47.7a4.21,4.21,0,1,0,0,8.42"/><path class="cls-4" d="M141.44,743.18h47.7a4.21,4.21,0,1,0,0-8.42h-47.7a4.21,4.21,0,1,0,0,8.42"/><path class="cls-5" d="M265.93,236.8s-29.14-34-1.8-55.59c0,0,20-12.09,36.26-11.11,0,0-23.08,38.7-15.61,42.55s22.6-45,22.6-45,45.45-4.41,60.08,2.62c0,0-38.86,31.8-30.67,33.69s50.16-29.32,50.16-29.32,42.3,7.2,40,33-16.83,33.78-23.24,33.09-43.88-15-44.7-9.74,21.74,22.41,37.54,23.21c0,0-29.82,32.89-49.65,23.4s-21.51-24.54-33.87-30.18-22.91-5.63-17.8.13,27.47,11.35,34.53,23.85,13.41,20.93-7.1,17.84S268.86,271.17,267.4,254Z"/><path class="cls-5" d="M406.21,208.37s-114.9-4.43-140.28,28.43c0,0-5.61,16.81-22.88,32.11l-2.69,7.34s19.91-21,27-22.26c0,0-11.14-40.71,138.81-45.62"/><path class="cls-5" d="M243.05,268.91s-24.66,18.24-26.38,50.83l4.48.4s7.88-33.7,22.11-46.88-.21-4.35-.21-4.35"/><path class="cls-6" d="M172.57,225.53s33.39-18.7,17.81-44.07c0,0-12.47-15.58-25.82-19.59,0,0,7.12,37.84,0,38.73s-4.9-42.74-4.9-42.74-35.17-16.92-49-15.58c0,0,21.81,36.95,14.69,36.06s-31.61-38.28-31.61-38.28-36.06-6.68-41.85,14.69,3.56,32.05,8.9,33.39,39.62.89,38.73,5.34S75.52,205,62.62,201c0,0,14.24,35.17,32.94,33.39s24.48-13.35,36.06-14.25,20,2.23,14.25,5.34-25.37,1-34.72,9-16.92,12.84.45,16.4,48.52,1.34,54.75-12Z"/><path class="cls-5" d="M68.4,161.42s93.48,30.27,104.17,64.1c0,0-.45,15.14,8.9,32.5v6.68s-9.79-22.7-15.14-25.82c0,0,20.92-29.38-97.94-77.46"/><path class="cls-5" d="M181.47,258s14.42,21.89,6.2,48.54l-3.71-1s3.6-29.35-3.94-44.12,1.45-3.43,1.45-3.43"/><path class="cls-6" d="M237.79,158.24S176.69,124,205.2,77.58c0,0,22.81-28.52,47.26-35.85,0,0-13,69.26,0,70.89s9-78.22,9-78.22S325.79,3.44,351,5.88c0,0-39.92,67.63-26.89,66S382,1.81,382,1.81s66-12.22,76.59,26.89-6.52,58.66-16.3,61.11-72.51,1.63-70.89,9.78,44,21.18,67.63,13.85c0,0-26.07,64.37-60.29,61.11s-44.81-24.44-66-26.07-36.66,4.07-26.07,9.78,46.44,1.87,63.55,16.42,31,23.51-.82,30-88.81,2.45-100.22-22Z"/><path class="cls-5" d="M428.45,40.92S257.35,96.32,237.8,158.24c0,0,.81,27.7-16.3,59.48v12.22s17.93-41.55,27.7-47.26c0,0-38.29-53.77,179.25-141.77"/><path class="cls-5" d="M221.5,217.72s-26.39,40.07-11.34,88.85l6.79-1.82S210.35,251,224.16,224s-2.66-6.28-2.66-6.28"/><path class="cls-7" d="M355.43,292.64a119.7,119.7,0,1,1-239.4,0Z"/><path class="cls-8" d="M276.64,292.64c0,44.85-10.74,90.52-47.25,111-6.07,3.41-26.39-.28-33.05,2A119.75,119.75,0,0,1,116,292.64Z"/><path class="cls-7" d="M357.09,418.43H114.38a14.77,14.77,0,0,1,14.77-14.77H342.32a14.77,14.77,0,0,1,14.77,14.77"/><path class="cls-8" d="M243.37,418.43h-129a14.77,14.77,0,0,1,14.77-14.77h99.45a14.77,14.77,0,0,1,14.77,14.77"/><rect class="cls-9" x="112.1" y="292.64" width="246.06" height="3.67"/></g></g></svg>