<svg xmlns="http://www.w3.org/2000/svg" viewBox="0 0 562.03 373.99"><defs><style>.cls-1{fill:#284663;}.cls-2{fill:#739cf3;}</style></defs><g id="Layer_2" data-name="Layer 2"><g id="_3_elements" data-name="#3 elements"><g id="bench"><path class="cls-1" d="M504.3,211.08c-4.86,0-8.79-20.63-8.79-25.49V8.8a8.8,8.8,0,1,1,17.59,0V228.29C513.1,233.15,509.16,211.08,504.3,211.08Z"/><path class="cls-1" d="M152.35,237.09a8.8,8.8,0,0,1-8.79-8.8V8.8a8.8,8.8,0,1,1,17.59,0V228.29A8.8,8.8,0,0,1,152.35,237.09Z"/><path class="cls-2" d="M93.7,147.71H543.51a8,8,0,0,1,8,8v38.13a8,8,0,0,1-8,8H101.73a8,8,0,0,1-8-8V147.71A0,0,0,0,1,93.7,147.71Z"/><path class="cls-2" d="M520.51,239.31H16.27a11,11,0,0,1-11-11h0a11,11,0,0,1,11-11H520.51Z"/><path class="cls-2" d="M548,138H96l2.14-46.16a8,8,0,0,1,8-8H548a8,8,0,0,1,8,8V130A8,8,0,0,1,548,138Z"/><path class="cls-2" d="M112.22,17.58H554a8,8,0,0,1,8,8V63.74a8,8,0,0,1-8,8H104.19a0,0,0,0,1,0,0V25.61A8,8,0,0,1,112.22,17.58Z"/><path class="cls-1" d="M529.77,374H512.18V256.84a80.58,80.58,0,1,0-161.16,0V374h-17.6V256.84a98.18,98.18,0,1,1,196.35,0Z"/><path class="cls-1" d="M93.7,158.77A98.29,98.29,0,0,0,0,256.84V374H17.59V256.84A80.68,80.68,0,0,1,93.7,176.38Z"/><path class="cls-1" d="M188,217.27a98,98,0,0,0-8.52-15.38H157.06a81.36,81.36,0,0,1,11.28,15.38Z"/><path class="cls-1" d="M176.81,239.31a80.29,80.29,0,0,1,1.94,17.53V374h17.6V256.84a98.28,98.28,0,0,0-1.59-17.53Z"/></g></g></g></svg>