<svg xmlns="http://www.w3.org/2000/svg" viewBox="0 0 2650 280.79"><defs><style>.cls-1{fill:#a08f85;}.cls-2{fill:#d4c7bf;}.cls-3{fill:none;stroke:#a08f85;stroke-miterlimit:10;stroke-width:3px;}</style></defs><g id="Layer_2" data-name="Layer 2"><g id="_3_elements" data-name="#3 elements"><g id="ground"><path class="cls-1" d="M0,49.19S195.1,46.69,224.28,45s276.14-6.67,290.23-5.83S768.71,35,790.39,35s198.43-4.17,251.79-4.17,369.35-1.67,369.35-1.67l406-11.39,216.77-8.54S2130.22.83,2162.74.83,2377.84,0,2377.84,0L2650,9.25v24.1L1585.79,99.22l-548.61,18.34s-687-19.8-695.34-17.4S0,117.56,0,117.56Z"/><path class="cls-2" d="M0,63.15s917.48-15,1108.17-14.9,850.58-12.4,938.4-24.91,603.43,0,603.43,0V252.21s-641.07-8.76-701.29,0-810.43,26.26-873.15,26.26S302.76,261,302.76,261L0,253.46Z"/><line class="cls-3" x1="1203.86" y1="48.45" x2="1211.86" y2="271.45"/><line class="cls-3" x1="1352.9" y1="38.92" x2="1361.06" y2="272.92"/><line class="cls-3" x1="1515.38" y1="34.52" x2="1519.55" y2="272.52"/><line class="cls-3" x1="1681.13" y1="34.24" x2="1672.38" y2="280.74"/><line class="cls-3" x1="1838.9" y1="34.24" x2="1829.15" y2="276.74"/><line class="cls-3" x1="1986.93" y1="21.31" x2="1972.18" y2="257.81"/><line class="cls-3" x1="2136.73" y1="22.47" x2="2125.98" y2="257.97"/><line class="cls-3" x1="2282.87" y1="18.44" x2="2277.12" y2="255.94"/></g></g></g></svg>