<svg xmlns="http://www.w3.org/2000/svg" viewBox="0 0 472.88 129.84"><defs><style>.cls-1{fill:#fff;}</style></defs><g id="Layer_2" data-name="Layer 2"><g id="_3_elements" data-name="#3 elements"><g id="cloud"><path class="cls-1" d="M472.88,129.84c-5.95-24-29.13-41.89-56.83-41.89a62.91,62.91,0,0,0-14.72,1.74C387.65,62.6,358,43.83,323.56,43.83A92,92,0,0,0,298,47.42C279.49,19,245.83,0,207.38,0c-45.75,0-84.71,26.9-99.48,64.55a76.74,76.74,0,0,0-35.29-8.49C32.51,56.06,0,86.17,0,123.32a61.06,61.06,0,0,0,.35,6.52Z"/></g></g></g></svg>