<svg xmlns="http://www.w3.org/2000/svg" viewBox="0 0 253.36 786"><defs><style>.cls-1{fill:#ffb680;}.cls-2{fill:#2b89c9;}.cls-3{fill:#1962b2;}.cls-4{fill:#fff;}.cls-5{fill:#ed8a40;}.cls-6{fill:#444;}</style></defs><g id="Layer_2" data-name="Layer 2"><g id="_3_elements" data-name="#3 elements"><path class="cls-1" d="M38,477.7c-1.18,4.9-6.6,26.22-3.53,69.51s4,93.45,3.53,115.89-6.3,44.49-6.3,44.49l41.8-6.34S68.35,688.5,76,660.79s30-130.29,24.79-166.95S38,477.7,38,477.7Z"/><path class="cls-2" d="M28.06,780.39c7.11-1.49,24.89-15.16,31.08-24.62s8.55-13.82,8.24-23.11c-.18-5.36,6.52-12.39,8.3-17.7l-1.77-11.09L33.2,701.22s-13.67,23.49-22.05,37.41C5,748.82.33,762,0,770.48c3.25-1.18,7.11-2.24,10-1.91C15.93,769.26,20.94,781.88,28.06,780.39Z"/><path class="cls-3" d="M44.89,776.79c15.33-13,22.39-22.08,27.54-33.83s3.25-28,3.25-28l-.88-5.48c-8.21,7.07-7.6,17.82-7.42,23.18.31,9.29-2,13.64-8.24,23.11s-24,23.13-31.08,24.62S15.93,769.26,10,768.57c-2.86-.33-6.72.73-10,1.91-.11,2.9.28,5.28,1.3,6.81C8.6,788.15,29.57,789.82,44.89,776.79Z"/><path class="cls-4" d="M34.26,706.32s-11.55,19.47-15.84,31c-2.72,7.33-3.28,14.71.61,17s12.94-4,17.59-12.21,11.5-35.82,11.5-35.82Z"/><path class="cls-3" d="M30.22,706.32s7.34,4.44,24.83,3.16a43.13,43.13,0,0,0,18.86-5.61l-1.7-11.08s-7,2-15.27,3.67c-9.11,1.82-22.32-2.34-22.32-2.34Z"/><path class="cls-5" d="M73.91,518.56s-8.63,11.88-11.27,23.1,8-.61,11.27-8.88S73.91,518.56,73.91,518.56Z"/><path class="cls-1" d="M215.35,477.7c1.18,4.9,6.61,26.22,3.53,69.51s-4,93.45-3.53,115.89,6.31,44.49,6.31,44.49l-41.81-6.34s5.16-12.75-2.5-40.46-30-130.29-24.8-166.95S215.35,477.7,215.35,477.7Z"/><path class="cls-2" d="M225.3,780.39c-7.11-1.49-24.89-15.16-31.08-24.62S185.68,742,186,732.66c.18-5.36-6.53-12.39-8.3-17.7l1.76-11.09,40.71-2.65s13.67,23.49,22.05,37.41c6.13,10.19,10.82,23.33,11.13,31.85-3.25-1.18-7.11-2.24-10-1.91C237.43,769.26,232.42,781.88,225.3,780.39Z"/><path class="cls-3" d="M208.47,776.79c-15.33-13-22.39-22.08-27.53-33.83s-3.25-28-3.25-28l.87-5.48c8.21,7.07,7.61,17.82,7.43,23.18-.31,9.29,2,13.64,8.23,23.11s24,23.13,31.08,24.62,12.13-11.13,18.07-11.82c2.86-.33,6.72.73,10,1.91.11,2.9-.28,5.28-1.3,6.81C244.77,788.15,223.79,789.82,208.47,776.79Z"/><path class="cls-4" d="M219.1,706.32s11.55,19.47,15.84,31c2.72,7.33,3.29,14.71-.61,17s-12.93-4-17.59-12.21-11.5-35.82-11.5-35.82Z"/><path class="cls-3" d="M223.14,706.32s-7.34,4.44-24.83,3.16a43.13,43.13,0,0,1-18.86-5.61l1.7-11.08s7,2,15.27,3.67c9.11,1.82,22.32-2.34,22.32-2.34Z"/><path class="cls-5" d="M179.45,518.56s8.63,11.88,11.27,23.1-8-.61-11.27-8.88S179.45,518.56,179.45,518.56Z"/><path class="cls-2" d="M146,493c.56,3.26,1.13,6.49,1.7,9.67,33,24,77.27-8.16,77.27-8.16s-.33-5.22-.88-13.74a77.24,77.24,0,0,1-36.3,15.7C171.13,498.91,155.81,495.86,146,493Z"/><path class="cls-2" d="M66.06,496.42A77.06,77.06,0,0,1,26.13,477.7c-.74,7.59-1.16,11.95-1.16,11.95s32.34,37,81.18,11.22c.44-2.33.89-5,1.34-7.82C97.7,495.93,82.54,498.88,66.06,496.42Z"/><path class="cls-2" d="M125.27,313.93C90,312.47,63.1,304.16,46.08,297c-2.28,18-5,36.29-7.25,56.7C34,397.93,29.6,442.43,27.09,468a90.1,90.1,0,0,0,39.46,17.1c16,2.75,31.88.56,42.36-1.71,7-51.8,13.83-151.5,13.83-151.5s9.85,81.14,21.63,151.37c10.46,2.32,26.68,4.64,43,1.84a91.66,91.66,0,0,0,36.12-14.66c-2.29-35.05-6.54-98.8-8.9-124.85-.84-9.19-2.6-25.5-4.45-42C188.74,309.55,158.81,315.32,125.27,313.93Z"/><path class="cls-3" d="M192.27,249.78l-119.65.74c-10,2.43-18.11,5.93-23,10.9-.78,12-2.08,23.72-3.59,35.58,17,7.16,43.88,15.47,79.19,16.93,33.54,1.39,63.47-4.38,84.83-10.39-2.9-25.93-6-52.34-6-52.34S199.66,250.59,192.27,249.78Z"/><path class="cls-6" d="M66.55,485.05A90.1,90.1,0,0,1,27.09,468c-.36,3.62-.69,7-1,9.75a77.06,77.06,0,0,0,39.93,18.72c16.48,2.46,31.64-.49,41.43-3.37.47-3,.94-6.24,1.42-9.71C98.43,485.62,82.51,487.8,66.55,485.05Z"/><path class="cls-6" d="M187.33,485.05c-16.28,2.8-32.5.48-43-1.84q.82,4.91,1.66,9.74c9.78,2.91,25.1,6,41.79,3.47a77.24,77.24,0,0,0,36.3-15.7c-.2-3-.42-6.53-.67-10.33A91.66,91.66,0,0,1,187.33,485.05Z"/><path class="cls-6" d="M212,263.71c-.05-44.31.06-144.46.06-144.46a149.37,149.37,0,0,1-23-41.72C180.3,52.81,183.77,3.6,183.77,3.6l-17-2.54c-2,15-9.73,49.06-37.48,49.06-32,0-38.5-40.44-39.49-48.59L77.29,3.6S80.76,52.81,72,77.53s-27.73,41.72-27.73,41.72,0,97.84-.15,140.61C62,265,98,274.17,129.31,274.17,153.7,274.17,187.17,268.62,212,263.71Z"/><path class="cls-6" d="M44.09,270.4c0,4.58-.23,11.15-.25,12.19,0,0,46.46,19.3,84.19,19.3,48.48,0,84-15,84-15,0-1.48,0-8,0-11.8-23.3,5.66-54.92,11.8-82.68,11.8C93.41,286.87,60.65,276.61,44.09,270.4Z"/><path class="cls-2" d="M129.31,274.17C98,274.17,62,265,44.13,259.86c0,4.05,0,7.61,0,10.54,16.56,6.21,49.32,16.47,85.22,16.47,27.76,0,59.38-6.14,82.68-11.8,0-3.14,0-7,0-11.36C187.17,268.62,153.7,274.17,129.31,274.17Z"/><path class="cls-2" d="M129.31,249.92c-31.32,0-67.29-9.13-85.18-14.31,0,4,0,7.6,0,10.53,16.56,6.21,49.32,16.47,85.22,16.47,27.76,0,59.38-6.14,82.68-11.8,0-3.13,0-7,0-11.35C187.17,244.37,153.7,249.92,129.31,249.92Z"/><path class="cls-2" d="M129.31,50.12c27.75,0,35.43-34,37.48-49.06L159.69,0c-1.49,29.52-18.88,40.55-30.38,40.55S100.56,29.52,99.07,0L89.82,1.53C90.81,9.68,97.3,50.12,129.31,50.12Z"/><polygon class="cls-4" points="126.38 79.48 94.54 103.9 99.88 115.12 126.38 97.3 119.68 152.08 135.52 154.06 142.93 80.81 126.38 79.48"/></g></g></svg>