<svg xmlns="http://www.w3.org/2000/svg" viewBox="0 0 111.46 195.13"><defs><style>.cls-1{fill:#ed8a40;}.cls-2{fill:#ffb680;}.cls-3{fill:#fff;}.cls-4{fill:#e5e5e5;}.cls-5{fill:#2b89c9;}</style></defs><g id="Layer_2" data-name="Layer 2"><g id="_3_elements" data-name="#3 elements"><path class="cls-1" d="M100.54,146.48s-19.42-7.6-20.64-19.82c-1.4-13.91,0-36.81,0-36.81H34.7s1,22.86,0,36.81c-.92,12.25-20.64,19.82-20.64,19.82s11.19,42.75,33.28,48.26c1.94,1.17,23.14-.55,25.08-1.72C94.5,187.51,100.54,146.48,100.54,146.48Z"/><path class="cls-2" d="M108.85,66.49c-2.52-7.69-8.49-5.58-8.49-5.58S110.69.12,58,0C12.69-.1,17.28,33.46,14.12,60.51c-1.88-.4-5.31-.3-7.82,4.72-3.54,7.08,2.77,18.19,8.89,19,5,23.77,21.61,41.23,41.31,41.23s36.42-17.61,41.38-41.54C104,83.39,111.24,73.76,108.85,66.49Z"/><path class="cls-3" d="M45.12,93l22.07,2.51S65.73,103.8,56,103C44.12,102,45.12,93,45.12,93Z"/><path class="cls-4" d="M72,89.43c-3.27-5.9-13.16-5.82-15.72-5.7-2.57-.12-12.46-.2-15.73,5.7a19,19,0,0,0-1.89,7.16H73.86A19,19,0,0,0,72,89.43Z"/><path class="cls-4" d="M24.18,13.09S16.12,26,18.36,38.48c3.23,17.87,1.21,25.4,1.21,25.4s-4.74-3.61-7.85-3.41C10.64,60.54,8,62.69,8,62.69A46.16,46.16,0,0,1,5.78,30.93C10.8,12.89,24.18,13.09,24.18,13.09Z"/><path class="cls-4" d="M90.29,13.09S99.13,26,96.88,38.48c-3.22,17.87-3.09,25.4-3.09,25.4s4.41-2.76,6.57-3a27.55,27.55,0,0,1,5.29.83s6.24-12.77,1.21-30.81S90.29,13.09,90.29,13.09Z"/><path class="cls-5" d="M104.2,26.72H7.26c-6.78-.73-10.85,23-2.87,23H107.07C115,49.76,111,26,104.2,26.72Z"/><path d="M78.37,55.32a.83.83,0,0,0-.08-1.18h0a10.7,10.7,0,0,0-7.05-2.52h0a8.76,8.76,0,0,0-4.95,1.32h0a.83.83,0,0,0-.19,1.16h0a.83.83,0,0,0,1.16.19h0a7.28,7.28,0,0,1,4-1h0a9.07,9.07,0,0,1,6,2.12h0a.87.87,0,0,0,.55.2h0a.8.8,0,0,0,.62-.28Z"/><path d="M70.14,64.65a2,2,0,1,0,2-2A2,2,0,0,0,70.14,64.65Z"/><path d="M34.6,55.32a.83.83,0,0,1,.08-1.18h0a10.7,10.7,0,0,1,7-2.52h0a8.76,8.76,0,0,1,5,1.32h0a.83.83,0,0,1,.19,1.16h0a.83.83,0,0,1-1.16.19h0a7.3,7.3,0,0,0-4-1h0a9,9,0,0,0-6,2.12h0a.87.87,0,0,1-.55.2h0a.8.8,0,0,1-.62-.28Z"/><path d="M42.83,64.65a2,2,0,1,1-2-2A2,2,0,0,1,42.83,64.65Z"/></g></g></svg>