<svg xmlns="http://www.w3.org/2000/svg" viewBox="0 0 359.4 196.87"><defs><style>.cls-1{fill:#ffb680;}.cls-2{fill:#ed8a40;}</style></defs><g id="Layer_2" data-name="Layer 2"><g id="_3_elements" data-name="#3 elements"><path class="cls-1" d="M4.18,0C10.42.34,37-1.61,73.77,10.15c28.9,9.24,83.15,1.49,116.45,2.95,16.16.71,57.67,7.87,81.64,9.6,25.41,1.84,47.74,3.16,56.53,3.3,17.08.28,42.8,6.9,25,18.5-8.1,5.27-32.66-1.77-46.77,6.57-4.9,2.89,8.95,15.22,1.48,23.76s-5.44-3.18-13.36-10.89c-9.18-8.93-16.33-14.85-32.5-15.82-10-.6-64,7.68-93.91,9.39S102.05,65.33,75.11,63C51.69,61,50.24,75.79,45.23,89.32S31.89,123.83,31.8,149.15C31.72,172.43,0,196.87,0,196.87Z"/><path class="cls-2" d="M53.44,59s-9.9-5.45-15.84,0-5,24.25-5,24.25S48.49,70.87,53.44,59Z"/></g></g></svg>