<svg xmlns="http://www.w3.org/2000/svg" viewBox="0 0 359.4 196.87"><defs><style>.cls-1{fill:#ffb680;}.cls-2{fill:#ed8a40;}</style></defs><g id="Layer_2" data-name="Layer 2"><g id="_3_elements" data-name="#3 elements"><path class="cls-1" d="M355.21,0c-6.23.34-32.78-1.61-69.59,10.15-28.89,9.24-83.14,1.49-116.44,2.95C153,13.81,111.51,21,87.54,22.7,62.12,24.54,39.79,25.86,31,26c-17.07.28-42.79,6.9-25,18.5,8.09,5.27,32.65-1.77,46.77,6.57,4.89,2.89-9,15.22-1.49,23.76s5.44-3.18,13.37-10.89C73.85,55,81,49.09,97.17,48.12c10-.6,64,7.68,93.92,9.39s66.25,7.82,93.2,5.49c23.42-2,24.86,12.79,29.88,26.32s13.34,34.51,13.43,59.83c.08,23.28,31.8,47.72,31.8,47.72Z"/><path class="cls-2" d="M306.72,59s9.9-5.45,15.84,0,5,24.25,5,24.25S311.67,70.87,306.72,59Z"/></g></g></svg>