<svg xmlns="http://www.w3.org/2000/svg" viewBox="0 0 804.28 924.89"><defs><style>.cls-1{fill:#ffb680;}.cls-2{fill:#2b89c9;}.cls-3{fill:#1962b2;}.cls-4{fill:#fff;}.cls-5{fill:#ed8a40;}.cls-6{fill:#e5e5e5;}.cls-7{fill:#444;}</style></defs><g id="Layer_2" data-name="Layer 2"><g id="human"><g id="Layer_8" data-name="Layer 8"><path class="cls-1" d="M311.34,616.58c-1.18,4.91-6.6,26.22-3.52,69.51s4,93.45,3.52,115.89-6.3,44.49-6.3,44.49l41.8-6.34s-5.15-12.74,2.51-40.46,30-130.29,24.79-166.94S311.34,616.58,311.34,616.58Z"/><path class="cls-2" d="M301.39,919.27c7.11-1.49,24.89-15.16,31.08-24.62s8.55-13.82,8.24-23.11c-.18-5.36,6.52-12.39,8.3-17.7l-1.77-11.09-40.71-2.65s-13.67,23.49-22,37.41c-6.13,10.19-10.82,23.33-11.13,31.85,3.25-1.18,7.12-2.23,10-1.9C289.26,908.15,294.28,920.76,301.39,919.27Z"/><path class="cls-3" d="M318.22,915.67c15.33-13,22.4-22.08,27.54-33.82s3.25-28,3.25-28l-.88-5.48c-8.21,7.08-7.6,17.82-7.42,23.18.31,9.29-2,13.65-8.24,23.11s-24,23.13-31.08,24.62-12.13-11.12-18.07-11.81c-2.85-.33-6.72.72-10,1.9-.11,2.9.28,5.28,1.3,6.81C281.93,927,302.9,928.7,318.22,915.67Z"/><path class="cls-4" d="M307.59,845.21s-11.55,19.47-15.84,31c-2.72,7.32-3.28,14.7.62,17s12.93-4,17.58-12.22,11.5-35.81,11.5-35.81Z"/><path class="cls-3" d="M303.55,845.21s7.34,4.43,24.83,3.15a43,43,0,0,0,18.86-5.61l-1.7-11.07s-7,2-15.27,3.66C321.16,837.17,308,833,308,833Z"/><path class="cls-5" d="M347.24,657.45s-8.63,11.88-11.27,23.1,8-.61,11.27-8.89S347.24,657.45,347.24,657.45Z"/><path class="cls-1" d="M488.69,616.58c1.17,4.91,6.6,26.22,3.52,69.51s-4,93.45-3.52,115.89,6.3,44.49,6.3,44.49l-41.81-6.34s5.16-12.74-2.5-40.46-30-130.29-24.79-166.94S488.69,616.58,488.69,616.58Z"/><path class="cls-2" d="M498.64,919.27c-7.12-1.49-24.9-15.16-31.09-24.62s-8.54-13.82-8.23-23.11c.18-5.36-6.53-12.39-8.3-17.7l1.76-11.09,40.71-2.65s13.67,23.49,22,37.41c6.14,10.19,10.82,23.33,11.14,31.85-3.26-1.18-7.12-2.23-10-1.9C510.77,908.15,505.75,920.76,498.64,919.27Z"/><path class="cls-3" d="M481.8,915.67c-15.33-13-22.39-22.08-27.53-33.82s-3.25-28-3.25-28l.87-5.48c8.21,7.08,7.61,17.82,7.43,23.18-.31,9.29,2,13.65,8.23,23.11s24,23.13,31.09,24.62,12.13-11.12,18.06-11.81c2.86-.33,6.72.72,10,1.9.1,2.9-.29,5.28-1.31,6.81C518.1,927,497.13,928.7,481.8,915.67Z"/><path class="cls-4" d="M492.43,845.21s11.55,19.47,15.84,31c2.72,7.32,3.29,14.7-.61,17s-12.93-4-17.59-12.22-11.5-35.81-11.5-35.81Z"/><path class="cls-3" d="M496.47,845.21s-7.33,4.43-24.83,3.15a43,43,0,0,1-18.86-5.61l1.7-11.07s7,2,15.27,3.66c9.11,1.83,22.32-2.34,22.32-2.34Z"/><path class="cls-5" d="M452.78,657.45s8.63,11.88,11.27,23.1-8-.61-11.27-8.89S452.78,657.45,452.78,657.45Z"/><path class="cls-5" d="M445.88,146.48s-19.42-7.6-20.64-19.82c-1.4-13.91,0-36.81,0-36.81H380s1,22.86,0,36.81c-.93,12.25-20.64,19.82-20.64,19.82s11.19,42.75,33.27,48.26c1.94,1.17,23.15-.55,25.09-1.72C439.84,187.51,445.88,146.48,445.88,146.48Z"/><path class="cls-1" d="M454.19,66.49c-2.52-7.69-8.49-5.58-8.49-5.58S456,.12,403.37,0C358-.1,362.61,33.46,359.46,60.51c-1.88-.4-5.31-.3-7.82,4.72-3.54,7.08,2.76,18.19,8.89,19,5,23.77,21.6,41.23,41.31,41.23s36.42-17.61,41.38-41.54C449.29,83.39,456.58,73.76,454.19,66.49Z"/><path class="cls-4" d="M390.46,93l22.07,2.51s-1.46,8.32-11.2,7.5C389.46,102,390.46,93,390.46,93Z"/><path class="cls-6" d="M417.31,89.43c-3.28-5.9-13.16-5.82-15.73-5.7-2.56-.12-12.45-.2-15.73,5.7A18.91,18.91,0,0,0,384,96.59H419.2A19,19,0,0,0,417.31,89.43Z"/><path class="cls-6" d="M369.52,13.09S361.45,26,363.7,38.48c3.22,17.87,1.2,25.4,1.2,25.4s-4.73-3.61-7.85-3.41c-1.07.07-3.7,2.22-3.7,2.22a46.19,46.19,0,0,1-2.24-31.76C356.14,12.89,369.52,13.09,369.52,13.09Z"/><path class="cls-6" d="M435.62,13.09s8.84,12.93,6.6,25.39c-3.23,17.87-3.1,25.4-3.1,25.4s4.42-2.76,6.58-3a27.56,27.56,0,0,1,5.28.83S457.22,49,452.2,30.93,435.62,13.09,435.62,13.09Z"/><path class="cls-2" d="M449.54,26.72h-97c-6.77-.73-10.84,23-2.86,23H452.4C460.38,49.76,456.31,26,449.54,26.72Z"/><path class="cls-1" d="M355.21,141.73c-6.23.34-32.78-1.61-69.59,10.15-28.89,9.24-83.14,1.49-116.44,3-16.16.71-57.67,7.87-81.64,9.6-25.42,1.84-47.75,3.15-56.54,3.3-17.07.28-42.79,6.89-25,18.5,8.09,5.27,32.65-1.78,46.77,6.56,4.89,2.9-9,15.23-1.49,23.76s5.44-3.18,13.37-10.89c9.17-8.93,16.33-14.85,32.49-15.81,10-.6,64,7.68,93.92,9.39s66.25,7.82,93.2,5.49c23.42-2,24.86,12.78,29.88,26.32s13.34,34.51,13.43,59.83c.08,23.28,31.8,47.72,31.8,47.72Z"/><path class="cls-1" d="M449.07,141.73c6.24.34,32.78-1.61,69.59,10.15,28.9,9.24,83.15,1.49,116.44,3,16.17.71,57.68,7.87,81.64,9.6,25.42,1.84,47.75,3.15,56.54,3.3,17.07.28,42.79,6.89,25,18.5-8.1,5.27-32.66-1.78-46.77,6.56-4.9,2.9,9,15.23,1.48,23.76s-5.44-3.18-13.36-10.89c-9.18-8.93-16.34-14.85-32.5-15.81-10-.6-64,7.68-93.91,9.39s-66.26,7.82-93.2,5.49c-23.43-2-24.87,12.78-29.89,26.32s-13.33,34.51-13.42,59.83c-.08,23.28-31.8,47.72-31.8,47.72Z"/><path class="cls-2" d="M419.36,631.83c.56,3.26,1.13,6.5,1.7,9.68,33,24,77.27-8.17,77.27-8.17s-.33-5.22-.88-13.74a77.14,77.14,0,0,1-36.3,15.7C444.46,637.79,429.14,634.74,419.36,631.83Z"/><path class="cls-2" d="M339.39,635.3a77.06,77.06,0,0,1-39.93-18.72c-.74,7.59-1.16,12-1.16,12s32.34,37,81.18,11.22c.45-2.34.89-5,1.34-7.82C371,634.81,355.87,637.76,339.39,635.3Z"/><path class="cls-2" d="M398.6,452.82c-35.31-1.46-62.17-9.78-79.19-16.93-2.27,17.95-5,36.28-7.25,56.69-4.78,44.23-9.23,88.73-11.74,114.26a90.24,90.24,0,0,0,39.46,17.09c16,2.75,31.88.57,42.36-1.71,7.05-51.8,13.83-151.5,13.83-151.5s9.85,81.15,21.63,151.37c10.46,2.32,26.68,4.64,43,1.84a91.36,91.36,0,0,0,36.12-14.66c-2.28-35-6.54-98.8-8.9-124.84-.83-9.19-2.6-25.5-4.45-42C462.08,448.43,432.14,454.2,398.6,452.82Z"/><path class="cls-3" d="M465.6,388.66,346,389.4c-10,2.43-18.11,5.93-22.95,10.91-.78,12-2.08,23.71-3.59,35.58,17,7.15,43.88,15.47,79.19,16.93,33.54,1.38,63.48-4.39,84.83-10.39-2.9-25.94-6-52.34-6-52.34S473,389.48,465.6,388.66Z"/><path class="cls-7" d="M339.88,623.93a90.24,90.24,0,0,1-39.46-17.09c-.36,3.61-.69,6.95-1,9.74a77.06,77.06,0,0,0,39.93,18.72c16.48,2.46,31.64-.49,41.43-3.36.47-3,.94-6.25,1.42-9.72C371.76,624.5,355.84,626.68,339.88,623.93Z"/><path class="cls-7" d="M460.66,623.93c-16.28,2.8-32.5.48-43-1.84.55,3.28,1.1,6.52,1.66,9.74,9.78,2.91,25.1,6,41.79,3.47a77.14,77.14,0,0,0,36.3-15.7c-.2-3-.42-6.52-.67-10.33A91.36,91.36,0,0,1,460.66,623.93Z"/><path class="cls-7" d="M485.3,402.6c-.05-44.32.06-144.47.06-144.47a149.19,149.19,0,0,1-23-41.72c-8.75-24.72-5.28-73.92-5.28-73.92l-17-2.54c-2.05,15-9.73,49.05-37.48,49.05-32,0-38.5-40.44-39.49-48.59l-12.53,2.08s3.47,49.2-5.28,73.92-27.73,41.72-27.73,41.72,0,97.84-.15,140.62c17.89,5.18,53.86,14.31,85.18,14.31C427,413.06,460.5,407.5,485.3,402.6Z"/><path class="cls-7" d="M317.42,409.28c0,4.58-.22,11.15-.25,12.19,0,0,46.46,19.31,84.19,19.31,48.48,0,84-15,84-15,0-1.48,0-8,0-11.8-23.3,5.66-54.92,11.8-82.68,11.8C366.74,425.75,334,415.49,317.42,409.28Z"/><path class="cls-2" d="M402.64,413.06c-31.32,0-67.29-9.13-85.18-14.31,0,4.05,0,7.6,0,10.53,16.56,6.21,49.32,16.47,85.22,16.47,27.76,0,59.38-6.14,82.68-11.8,0-3.14,0-7,0-11.35C460.5,407.5,427,413.06,402.64,413.06Z"/><path class="cls-2" d="M402.64,388.8c-31.32,0-67.29-9.13-85.18-14.31,0,4.05,0,7.61,0,10.54,16.56,6.21,49.32,16.47,85.22,16.47,27.76,0,59.38-6.14,82.68-11.8,0-3.14,0-7,0-11.35C460.5,383.25,427,388.8,402.64,388.8Z"/><path class="cls-2" d="M402.64,189c27.75,0,35.43-34,37.48-49.05l-7.1-1.07c-1.49,29.52-18.87,40.55-30.38,40.55s-28.75-11-30.24-40.55l-9.25,1.53C364.14,148.56,370.63,189,402.64,189Z"/><polygon class="cls-4" points="399.71 218.37 367.87 242.79 373.21 254.01 399.71 236.19 393.01 290.96 408.85 292.94 416.26 219.69 399.71 218.37"/><path class="cls-5" d="M306.72,200.71s9.9-5.44,15.84,0,5,24.26,5,24.26S311.67,212.59,306.72,200.71Z"/><path class="cls-5" d="M498.33,200.71s-9.9-5.44-15.84,0-5,24.26-5,24.26S493.38,212.59,498.33,200.71Z"/><path d="M423.71,55.32a.84.84,0,0,0-.08-1.18h0a10.71,10.71,0,0,0-7.06-2.52h0a8.75,8.75,0,0,0-4.94,1.32h0a.83.83,0,0,0-.19,1.16h0a.83.83,0,0,0,1.16.19h0a7.26,7.26,0,0,1,4-1h0a9,9,0,0,1,6,2.12h0a.89.89,0,0,0,.56.2h0a.8.8,0,0,0,.62-.28Z"/><path d="M415.48,64.65a2,2,0,1,0,2-2A2,2,0,0,0,415.48,64.65Z"/><path d="M379.93,55.32a.85.85,0,0,1,.08-1.18h0a10.72,10.72,0,0,1,7.06-2.52h0A8.79,8.79,0,0,1,392,52.94h0a.83.83,0,0,1,.18,1.16h0a.83.83,0,0,1-1.16.19h0a7.24,7.24,0,0,0-4-1h0a9,9,0,0,0-6,2.12h0a.89.89,0,0,1-.55.2h0a.84.84,0,0,1-.63-.28Z"/><path d="M388.17,64.65a2,2,0,1,1-2-2A2,2,0,0,1,388.17,64.65Z"/></g></g></g></svg>