<svg xmlns="http://www.w3.org/2000/svg" viewBox="0 0 254.27 742.49"><defs><style>.cls-1{fill:#ffb680;}.cls-2{fill:#ff6c4a;}.cls-3{fill:#ed4a2f;}.cls-4{fill:#fff;}.cls-5{fill:#ed8a40;}.cls-6{fill:#444;}</style></defs><g id="Layer_2" data-name="Layer 2"><g id="_3_elements" data-name="#3 elements"><path class="cls-1" d="M41.08,440s0,51.24-.3,88.85S29.93,645.35,31.31,659.51c.93,9.58,9.62,45.92,9.62,45.92s20.41-7,26.78-54.88c2.57-19.35,21-74.67,24.53-95.57s4.89-44.92,5.66-67.9,6.63-45.42,6.63-45.42Z"/><path class="cls-1" d="M213.19,440s0,51.24.3,88.85S224.35,645.35,223,659.51c-.94,9.58-9.63,45.92-9.63,45.92s-20.4-7-26.77-54.88C184,631.2,165.6,575.88,162,555s-4.89-44.92-5.66-67.9-6.63-45.42-6.63-45.42Z"/><path class="cls-2" d="M228.18,737.27c-6.61-1.39-23.15-14.1-28.9-22.9s-7.95-12.85-7.66-21.49c.17-5-6.07-11.52-7.72-16.46l1.64-10.31,37.86-2.47s12.71,21.85,20.5,34.79c5.71,9.48,10.06,21.7,10.36,29.62-3-1.09-6.62-2.08-9.28-1.77C239.46,726.92,234.8,738.65,228.18,737.27Z"/><path class="cls-3" d="M212.53,733.92c-14.26-12.12-20.83-20.54-25.61-31.46s-3-26-3-26l.81-5.1c7.64,6.58,7.08,16.58,6.91,21.56-.29,8.64,1.9,12.69,7.66,21.49s22.29,21.51,28.9,22.9,11.28-10.35,16.8-11c2.66-.31,6.25.68,9.28,1.77.1,2.7-.26,4.91-1.22,6.33C246.28,744.49,226.78,746,212.53,733.92Z"/><path class="cls-4" d="M222.41,668.39s10.74,18.11,14.73,28.85c2.53,6.81,3.06,13.67-.57,15.82s-12-3.73-16.35-11.36-10.7-33.31-10.7-33.31Z"/><path class="cls-3" d="M226.17,668.39s-6.82,4.12-23.09,2.93a40,40,0,0,1-17.54-5.21l1.58-10.3s6.53,1.88,14.2,3.41c8.48,1.69,20.76-2.18,20.76-2.18Z"/><path class="cls-5" d="M170.51,471.79s7.52,10.35,9.83,20.13-7-.53-9.83-7.74S170.51,471.79,170.51,471.79Z"/><path class="cls-6" d="M49.27,233.86c-1.48,12.34-2.48,23.63-3.2,37.84-2.5,49.27-5.29,181.94-5.29,181.94s19,10,32.05,10c15.15,0,29.24-5.51,29.24-5.51l24.82-166.93V231.47Z"/><path class="cls-6" d="M204.81,233.86l-77.92-2.39v59.77l24.82,166.93s16.71,5.54,30.82,5.54c15.15,0,30.47-10.07,30.47-10.07S210.21,321,207.71,271.7C207,257.49,206.29,246.2,204.81,233.86Z"/><path class="cls-2" d="M188.1,57c-4.18-20.9-4.79-53.11-4.79-53.11L163.38.52c-4.7,27.66-22.9,36.28-33.31,36.24-10.13,0-32.27-4-37.83-36.76L72.31,3.37s-.41,30.54-4,51.54c-4.18,24.38-11,30.41-11,30.41S66,137.88,64.82,155.2c-1.47,21.36-15.55,78.66-15.55,78.66s32.52,15.37,77.85,15.37c49.38,0,77.69-15.37,77.69-15.37S189.22,172,190.19,151.72c.94-19.69,7.59-66.4,7.59-66.4S192.28,77.89,188.1,57Z"/><path class="cls-3" d="M74.69,108.9c-9.12-1.23-16.72,7.88,10.88,15.71s85.84,7.1,97-3.35,6.93-16.55-6-12.48c-14.05,4.43-17.34,15.35-49.72,12.21S94.09,111.51,74.69,108.9Z"/><path class="cls-2" d="M26.09,737.27c6.62-1.39,23.15-14.1,28.91-22.9s7.94-12.85,7.65-21.49c-.16-5,6.07-11.52,7.72-16.46l-1.64-10.31-37.85-2.47s-12.72,21.85-20.51,34.79C4.67,707.91.31,720.13,0,728.05,3,727,6.63,726,9.29,726.28,14.81,726.92,19.48,738.65,26.09,737.27Z"/><path class="cls-3" d="M41.75,733.92C56,721.8,62.57,713.38,67.35,702.46s3-26,3-26l-.81-5.1c-7.63,6.58-7.07,16.58-6.91,21.56.29,8.64-1.9,12.69-7.65,21.49s-22.29,21.51-28.91,22.9-11.28-10.35-16.8-11C6.63,726,3,727,0,728.05c-.1,2.7.26,4.91,1.21,6.33C8,744.49,27.5,746,41.75,733.92Z"/><path class="cls-4" d="M31.86,668.39S21.12,686.5,17.13,697.24c-2.53,6.81-3,13.67.57,15.82s12-3.73,16.35-11.36,10.7-33.31,10.7-33.31Z"/><path class="cls-3" d="M28.11,668.39s6.82,4.12,23.08,2.93a40,40,0,0,0,17.54-5.21l-1.58-10.3s-6.53,1.88-14.2,3.41C44.48,660.91,32.2,657,32.2,657Z"/><path class="cls-5" d="M83.76,471.79s-7.52,10.35-9.82,20.13,7-.53,9.82-7.74S83.76,471.79,83.76,471.79Z"/></g></g></svg>