<svg xmlns="http://www.w3.org/2000/svg" viewBox="0 0 97.96 228.73"><defs><style>.cls-1{fill:#bfbfbf;}.cls-2{fill:#e5e5e5;}.cls-3{fill:#ed8a40;}.cls-4{fill:#ffb680;}.cls-5{fill:#ff6c4a;}.cls-6,.cls-8{fill:#fff;}.cls-7{fill:#1d1d1b;}.cls-8{opacity:0.2;}</style></defs><g id="Layer_2" data-name="Layer 2"><g id="_3_elements" data-name="#3 elements"><path class="cls-1" d="M74.75,25.4c0,14-11.87,25.39-26.51,25.39S21.73,39.42,21.73,25.4,33.6,0,48.24,0,74.75,11.37,74.75,25.4Z"/><path class="cls-2" d="M5.23,98.62s-16-70.94,43.12-70.94S92.1,98.62,92.1,98.62Z"/><path class="cls-3" d="M90.5,181.39S71.52,174,70.32,162c-1.36-13.59,0-36,0-36H26.15s1,22.35,0,36C25.25,174,6,181.39,6,181.39s9.83,41.1,31.41,46.48c1.9,1.15,19.8,1.15,21.69,0C80.66,222.49,90.5,181.39,90.5,181.39Z"/><path class="cls-4" d="M10.8,93.11s-5.71-3-9.4,4.36S4.52,116.62,10.89,117,10.8,93.11,10.8,93.11Z"/><path class="cls-4" d="M88,93.07s6.08-2.15,8.65,5.68-5.89,18.49-12.24,17.89S88,93.07,88,93.07Z"/><path class="cls-4" d="M89.67,101.4c0,31.74-27.1,50.23-41.43,50.23C34.52,151.63,7,133.14,7,101.4s18.5-57.46,41.32-57.46S89.67,69.67,89.67,101.4Z"/><path class="cls-2" d="M89.11,92.5c1.72-11.86,2.12-39.34-28.74-48.79C18.23,30.81,5.05,73.07,7.27,92.5c0,0,24.47-8.21,45-23.42C58.5,81,89.11,92.5,89.11,92.5Z"/><path class="cls-5" d="M57,61.15c7.15-.77,11.45,24.32,3,24.31H4.15c-9.34-8.55,0-24.32,0-24.32Z"/><path class="cls-5" d="M41.54,61.15c-7.15-.77-11.45,24.32-3,24.31H94.35C103.69,76.91,92,61.14,92,61.14Z"/><path d="M69.2,94.1a.85.85,0,0,0-.08-1.18h0a10.72,10.72,0,0,0-7.06-2.52h0a8.79,8.79,0,0,0-5,1.32h0a.83.83,0,0,0-.18,1.16h0a.83.83,0,0,0,1.16.19h0a7.24,7.24,0,0,1,4-1h0a9,9,0,0,1,6,2.12h0a.89.89,0,0,0,.55.2h0a.82.82,0,0,0,.63-.28Z"/><path d="M61,106a2,2,0,1,0,2-2A2,2,0,0,0,61,106Z"/><path d="M28,94.1a.83.83,0,0,1,.08-1.18h0a10.7,10.7,0,0,1,7.05-2.52h0a8.76,8.76,0,0,1,4.95,1.32h0a.83.83,0,0,1,.19,1.16h0a.83.83,0,0,1-1.16.19h0a7.28,7.28,0,0,0-4-1h0a9.07,9.07,0,0,0-6,2.12h0a.87.87,0,0,1-.55.2h0A.8.8,0,0,1,28,94.1Z"/><path d="M36.23,106a2,2,0,1,1-2-2A2,2,0,0,1,36.23,106Z"/><path class="cls-6" d="M60.57,127.25l-22.07,2.5s1.46,8.32,11.2,7.5C61.57,136.25,60.57,127.25,60.57,127.25Z"/><path class="cls-7" d="M88.57,98.54a35.24,35.24,0,0,1-4.48-.15c-2.55-.46-5-1.35-7.54-1.69a37.93,37.93,0,0,0-7.9-.09c-4.72.36-9.56,1-13.52,3.66-.72.47-1.8,1.5-2.76,1.5s-1.43-.1-2.28-.14l-.58,0-.57,0c-.85,0-1.47.14-2.29.14s-2-1-2.75-1.5c-4-2.62-8.8-3.3-13.52-3.66a37.93,37.93,0,0,0-7.9.09c-2.58.34-5,1.23-7.54,1.69a35.4,35.4,0,0,1-4.49.15c-.93,0-.78,2.59-.78,2.59.16,1.08-.26,1.56,2.45,2.15s2.86,4.64,4.74,8.16,7.87,7.23,15.52,6.3,9.53-3,11.67-5.91,2-4.4,3.28-5.67a2.87,2.87,0,0,1,1.61-.84l.57,0,.58,0a2.9,2.9,0,0,1,1.61.84C53,107.43,52.84,109,55,111.83s4,5,11.67,5.91,13.64-2.78,15.52-6.3,2-7.57,4.74-8.16,2.29-1.07,2.45-2.15C89.36,101.13,89.51,98.59,88.57,98.54ZM41.12,112.12a11,11,0,0,1-3.07,2.36,17,17,0,0,1-14.44.31,12.09,12.09,0,0,1-2.63-1.7,13.92,13.92,0,0,1-4.61-9.75,4.06,4.06,0,0,1,3.22-4A14.52,14.52,0,0,1,21.07,99a29.9,29.9,0,0,1,4.19-.37,44.81,44.81,0,0,1,6,.19A48.48,48.48,0,0,1,40,100.48a8.16,8.16,0,0,1,3.11,1.71C45.91,104.88,43.14,109.77,41.12,112.12Zm36.92,1a11.79,11.79,0,0,1-2.62,1.7A17,17,0,0,1,61,114.48a11,11,0,0,1-3.07-2.36c-2-2.35-4.79-7.24-2-9.93a8.12,8.12,0,0,1,3.1-1.71,48.65,48.65,0,0,1,8.72-1.67,44.81,44.81,0,0,1,6-.19A29.91,29.91,0,0,1,78,99a13.72,13.72,0,0,1,1.47.36c2,.63,3.24,2,3.23,4A14,14,0,0,1,78,113.09Z"/><path class="cls-8" d="M40,100.48a48.48,48.48,0,0,0-8.72-1.67,44.81,44.81,0,0,0-6-.19,29.9,29.9,0,0,0-4.19.37,14.52,14.52,0,0,0-1.48.36,4.06,4.06,0,0,0-3.22,4A13.92,13.92,0,0,0,21,113.09a12.09,12.09,0,0,0,2.63,1.7,17,17,0,0,0,14.44-.31,11,11,0,0,0,3.07-2.36c2-2.35,4.79-7.24,2-9.93A8.16,8.16,0,0,0,40,100.48Z"/><path class="cls-8" d="M79.43,99.35A13.72,13.72,0,0,0,78,99a29.91,29.91,0,0,0-4.2-.37,44.81,44.81,0,0,0-6,.19A48.65,48.65,0,0,0,59,100.48a8.12,8.12,0,0,0-3.1,1.71c-2.8,2.69,0,7.58,2,9.93A11,11,0,0,0,61,114.48a17,17,0,0,0,14.44.31,11.79,11.79,0,0,0,2.62-1.7,14,14,0,0,0,4.62-9.75C82.67,101.33,81.44,100,79.43,99.35Z"/><path class="cls-6" d="M10.55,99.47l.24,0,.66,0c.28,0,.62,0,1,0s.83-.05,1.31-.11a7.15,7.15,0,0,0,.75-.11c.25-.05.52-.09.78-.16.53-.15,1.08-.31,1.66-.5s1.18-.37,1.79-.55,1.25-.35,1.89-.46,1.29-.25,1.93-.31,1.26-.16,1.88-.18,1.2-.08,1.76-.06l1.58,0a12.67,12.67,0,0,1,1.33.09l1,.1.89.09h-.89l-1,0c-.39,0-.84,0-1.32,0l-1.57,0c-.28,0-.56,0-.85.05l-.89.07a17.3,17.3,0,0,0-1.86.2c-.63.07-1.26.21-1.89.33s-1.25.29-1.87.43-1.21.33-1.79.52c-.29.08-.57.18-.85.25l-.85.21c-.27.06-.55.08-.81.13s-.52.06-.76.08a10.31,10.31,0,0,1-1.34,0c-.4,0-.75,0-1-.06l-.66-.08Z"/><path class="cls-6" d="M88.75,99.47l-.23,0-.65.08c-.29,0-.63,0-1,.06a10.31,10.31,0,0,1-1.34,0c-.24,0-.5,0-.76-.08s-.54-.07-.81-.13l-.85-.21c-.29-.06-.56-.17-.85-.25-.58-.19-1.18-.35-1.79-.52S79.2,98.1,78.57,98s-1.26-.26-1.89-.33a17.3,17.3,0,0,0-1.86-.2l-.89-.07c-.29,0-.57-.05-.85-.05l-1.57,0c-.48,0-.93,0-1.32,0l-1,0h-.89l.89-.09,1-.1a12.67,12.67,0,0,1,1.33-.09l1.58,0c.56,0,1.15,0,1.76.06s1.24.1,1.88.18,1.28.19,1.93.31,1.26.31,1.89.46,1.22.36,1.79.55,1.13.35,1.66.5c.26.07.53.11.78.16a7.15,7.15,0,0,0,.75.11c.47.06.92.08,1.31.11s.74,0,1,0l.66,0Z"/><path class="cls-6" d="M46,103.51a1.83,1.83,0,0,1,.43-.57,3.57,3.57,0,0,1,.61-.44,3.62,3.62,0,0,1,.8-.33,5.31,5.31,0,0,1,.86-.14,4.63,4.63,0,0,1,.76,0,3.44,3.44,0,0,1,.52.1l.19,0-.2,0-.52,0-.33,0-.38.05-.39.08c-.13,0-.26.06-.39.09l-.39.13a3.84,3.84,0,0,0-.36.14,4.63,4.63,0,0,0-.63.31A4.53,4.53,0,0,0,46,103.51Z"/></g></g></svg>