<svg xmlns="http://www.w3.org/2000/svg" viewBox="0 0 356.76 82.88"><defs><style>.cls-1{fill:#ffb680;}.cls-2{fill:#ed8a40;}.cls-3{fill:#ff6c4a;}</style></defs><g id="Layer_2" data-name="Layer 2"><g id="_3_elements" data-name="#3 elements"><path class="cls-1" d="M7.18.93s25.59-2.09,48.58,0,56.41,9.4,79.92,9.4c20.09,0,65.29,1.05,84.1,2.09s86.71,1.33,111.78,1.19S368.48,29.32,341,36.45c-10.93,2.83-25.08,4-27.17,8.36s1.21,10.61,2.62,13.84c3.55,8.19-2.62,10.71-9.93,1.31s-19.33-19.53-27.68-21.42-53.27,5.56-68.43,7.31c-34.91,4-59.73,5.71-77.31,2.95C98.59,43.39,56.8,53.16,44.26,62c-5.3,3.72-22.1,20.92-22.1,20.92S-15.29,72,7.18.93Z"/><path class="cls-2" d="M41.25,44S30.8,38.25,24.53,44s-5.29,25.59-5.29,25.59S36,56.53,41.25,44Z"/><polygon class="cls-3" points="79.03 3.93 69.55 52.32 59.05 55.28 50.05 58.75 42.38 63.43 32.02 73.03 22.16 82.88 4.52 73.93 0 36.08 4 0.83 13.32 0.53 27.7 0 37.72 0 44.59 0 57.75 1.16 79.03 3.93"/></g></g></svg>