<svg xmlns="http://www.w3.org/2000/svg" viewBox="0 0 359.06 85.71"><defs><style>.cls-1{fill:#ffb680;}.cls-2{fill:#ed8a40;}.cls-3{fill:#ff6c4a;}</style></defs><g id="Layer_2" data-name="Layer 2"><g id="_3_elements" data-name="#3 elements"><path class="cls-1" d="M349.59,1.21S324-.88,301,1.21s-56.42,9.41-79.92,9.41c-20.1,0-65.3,1-84.1,2.08S50.27,14,25.2,13.89s-36.91,15.72-9.4,22.84c10.92,2.83,25.07,4,27.16,8.36S41.75,55.7,40.35,58.93c-3.56,8.19,2.61,10.71,9.92,1.31S69.6,40.71,78,38.82s53.27,5.56,68.43,7.32c34.9,4,59.72,5.7,77.31,2.94,34.47-5.41,76.26,4.37,88.8,13.16,5.31,3.73,22.11,20.93,22.11,20.93S372.05,72.25,349.59,1.21Z"/><path class="cls-2" d="M315.52,44.28s10.44-5.75,16.71,0,5.29,25.6,5.29,25.6S320.74,56.82,315.52,44.28Z"/><polygon class="cls-3" points="278.57 4.09 286.91 52.53 309.01 60.16 315.52 64.68 328.23 76.75 335.02 85.71 359.06 41.73 356.76 0 347.62 0 326.55 0 308.31 0 298.77 0.28 278.57 4.09"/></g></g></svg>