<svg xmlns="http://www.w3.org/2000/svg" viewBox="0 0 809.67 919.98"><defs><style>.cls-1{fill:#bfbfbf;}.cls-2{fill:#e5e5e5;}.cls-3{fill:#ed8a40;}.cls-4{fill:#ffb680;}.cls-5{fill:#ff6c4a;}.cls-6{fill:#ed4a2f;}.cls-10,.cls-7{fill:#fff;}.cls-8{fill:#444;}.cls-9{fill:#1d1d1b;}.cls-10{opacity:0.2;}</style></defs><g id="Layer_2" data-name="Layer 2"><g id="human"><g id="Layer_8" data-name="Layer 8"><path class="cls-1" d="M430.57,25.4c0,14-11.87,25.39-26.51,25.39S377.55,39.42,377.55,25.4,389.42,0,404.06,0,430.57,11.37,430.57,25.4Z"/><path class="cls-2" d="M361.05,98.62S345,27.68,404.17,27.68s43.75,70.94,43.75,70.94Z"/><path class="cls-3" d="M446.32,181.39s-19-7.42-20.18-19.37c-1.36-13.59,0-36,0-36H382s1,22.35,0,36c-.9,12-20.17,19.37-20.17,19.37s9.83,41.1,31.42,46.48c1.89,1.15,19.79,1.15,21.68,0C436.48,222.49,446.32,181.39,446.32,181.39Z"/><path class="cls-4" d="M366.62,93.11s-5.71-3-9.39,4.36,3.11,19.15,9.48,19.48S366.62,93.11,366.62,93.11Z"/><path class="cls-4" d="M443.78,93.07s6.08-2.15,8.65,5.68-5.88,18.49-12.24,17.89S443.78,93.07,443.78,93.07Z"/><path class="cls-4" d="M445.49,101.4c0,31.74-27.1,50.23-41.43,50.23-13.72,0-41.21-18.49-41.21-50.23s18.5-57.46,41.32-57.46S445.49,69.67,445.49,101.4Z"/><path class="cls-2" d="M444.93,92.5c1.73-11.86,2.13-39.34-28.74-48.79-42.14-12.9-55.32,29.36-53.1,48.79,0,0,24.47-8.21,45-23.42C414.33,81,444.93,92.5,444.93,92.5Z"/><path class="cls-5" d="M412.78,61.15c7.15-.77,11.45,24.32,3,24.31H360c-9.34-8.55,0-24.32,0-24.32Z"/><path class="cls-5" d="M397.36,61.15c-7.15-.77-11.45,24.32-3,24.31h55.84c9.34-8.55-2.38-24.32-2.38-24.32Z"/><path class="cls-4" d="M318.36,617.51s0,51.24-.3,88.85S307.21,822.85,308.59,837c.93,9.58,9.62,45.92,9.62,45.92s20.41-7,26.78-54.88c2.57-19.35,21-74.67,24.53-95.56s4.89-44.93,5.66-67.91,6.63-45.42,6.63-45.42Z"/><path class="cls-4" d="M490.47,617.51s0,51.24.3,88.85S501.62,822.85,500.25,837c-.94,9.58-9.63,45.92-9.63,45.92s-20.41-7-26.77-54.88c-2.58-19.35-21-74.67-24.54-95.56s-4.89-44.93-5.66-67.91S427,619.15,427,619.15Z"/><path class="cls-5" d="M505.46,914.76c-6.61-1.39-23.15-14.1-28.9-22.9s-7.95-12.85-7.66-21.49c.17-5-6.07-11.52-7.72-16.46l1.64-10.31,37.86-2.46s12.71,21.84,20.5,34.79c5.71,9.47,10.06,21.69,10.36,29.62-3-1.1-6.62-2.08-9.28-1.78C516.74,904.41,512.08,916.14,505.46,914.76Z"/><path class="cls-6" d="M489.81,911.41C475.55,899.29,469,890.88,464.2,880s-3-26.05-3-26.05l.81-5.09c7.64,6.58,7.08,16.57,6.91,21.55-.29,8.64,1.9,12.69,7.66,21.49s22.29,21.51,28.9,22.9,11.28-10.35,16.8-11c2.66-.3,6.25.68,9.28,1.78.1,2.69-.26,4.9-1.22,6.33C523.56,922,504.06,923.53,489.81,911.41Z"/><path class="cls-7" d="M499.69,845.88s10.74,18.11,14.73,28.85c2.53,6.81,3.06,13.68-.57,15.82s-12-3.73-16.35-11.36-10.7-33.31-10.7-33.31Z"/><path class="cls-6" d="M503.45,845.88s-6.82,4.12-23.09,2.94a40.1,40.1,0,0,1-17.54-5.22l1.58-10.3s6.53,1.88,14.2,3.41c8.48,1.7,20.76-2.17,20.76-2.17Z"/><path class="cls-3" d="M447.79,649.29s7.52,10.35,9.82,20.12-7-.53-9.82-7.74S447.79,649.29,447.79,649.29Z"/><path class="cls-8" d="M326.55,411.35c-1.48,12.34-2.48,23.63-3.2,37.84-2.5,49.27-5.29,181.94-5.29,181.94s19,10,32.05,10c15.15,0,29.24-5.51,29.24-5.51l24.82-166.94V409Z"/><path class="cls-8" d="M482.09,411.35,404.17,409v59.77L429,635.67s16.71,5.53,30.82,5.53c15.15,0,30.47-10.07,30.47-10.07S487.49,498.46,485,449.19C484.27,435,483.57,423.69,482.09,411.35Z"/><path class="cls-4" d="M349.59,180.86s-25.6-2.09-48.58,0-56.42,9.4-79.92,9.4c-20.1,0-65.3,1.05-84.1,2.09s-86.72,1.33-111.79,1.19-36.91,15.71-9.4,22.84c10.92,2.83,25.07,4,27.16,8.36s-1.21,10.61-2.61,13.84c-3.56,8.19,2.61,10.71,9.92,1.31S69.6,220.36,78,218.47s53.27,5.56,68.43,7.31c34.9,4,59.72,5.71,77.31,2.95,34.47-5.41,76.26,4.37,88.8,13.16,5.31,3.72,22.11,20.93,22.11,20.93S372.05,251.9,349.59,180.86Z"/><path class="cls-3" d="M315.52,223.93s10.44-5.75,16.71,0,5.29,25.59,5.29,25.59S320.74,236.46,315.52,223.93Z"/><path class="cls-4" d="M460.08,180.86s25.59-2.09,48.58,0,56.41,9.4,79.92,9.4c20.1,0,65.3,1.05,84.1,2.09s86.71,1.33,111.79,1.19,36.91,15.71,9.4,22.84c-10.93,2.83-25.07,4-27.16,8.36s1.2,10.61,2.61,13.84c3.55,8.19-2.61,10.71-9.93,1.31s-19.32-19.53-27.68-21.42-53.27,5.56-68.43,7.31c-34.91,4-59.72,5.71-77.31,2.95-34.48-5.41-76.27,4.37-88.8,13.16-5.31,3.72-22.11,20.93-22.11,20.93S437.62,251.9,460.08,180.86Z"/><path class="cls-3" d="M494.15,223.93s-10.45-5.75-16.72,0-5.29,25.59-5.29,25.59S488.93,236.46,494.15,223.93Z"/><path class="cls-5" d="M465.38,234.49c-4.18-20.89-4.79-53.11-4.79-53.11L440.66,178c-4.7,27.67-22.9,36.28-33.31,36.24-10.13,0-32.27-4-37.83-36.76l-19.93,3.37s-.41,30.54-4,51.54c-4.18,24.38-11,30.42-11,30.42s8.68,52.55,7.49,69.87c-1.47,21.36-15.55,78.66-15.55,78.66s32.51,15.37,77.85,15.37c49.38,0,77.69-15.37,77.69-15.37s-15.59-61.91-14.62-82.14c.94-19.68,7.59-66.39,7.59-66.39S469.56,255.38,465.38,234.49Z"/><path class="cls-6" d="M352,286.39c-9.12-1.23-16.72,7.88,10.88,15.72s85.84,7.09,97-3.36,6.93-16.55-6-12.47c-14,4.42-17.34,15.34-49.72,12.2S371.37,289,352,286.39Z"/><path class="cls-5" d="M303.37,914.76c6.62-1.39,23.15-14.1,28.91-22.9s7.94-12.85,7.65-21.49c-.16-5,6.07-11.52,7.72-16.46L346,843.6l-37.86-2.46s-12.71,21.84-20.5,34.79c-5.7,9.47-10.06,21.69-10.35,29.62,3-1.1,6.61-2.08,9.27-1.78C292.09,904.41,296.76,916.14,303.37,914.76Z"/><path class="cls-6" d="M319,911.41c14.25-12.12,20.82-20.53,25.6-31.45s3-26.05,3-26.05l-.81-5.09c-7.63,6.58-7.07,16.57-6.91,21.55.29,8.64-1.9,12.69-7.65,21.49s-22.29,21.51-28.91,22.9-11.28-10.35-16.8-11c-2.66-.3-6.25.68-9.27,1.78-.1,2.69.26,4.9,1.21,6.33C285.27,922,304.78,923.53,319,911.41Z"/><path class="cls-7" d="M309.14,845.88S298.4,864,294.41,874.73c-2.53,6.81-3.05,13.68.57,15.82s12-3.73,16.35-11.36S322,845.88,322,845.88Z"/><path class="cls-6" d="M305.38,845.88s6.83,4.12,23.09,2.94A40,40,0,0,0,346,843.6l-1.58-10.3s-6.53,1.88-14.2,3.41c-8.47,1.7-20.75-2.17-20.75-2.17Z"/><path class="cls-3" d="M361,649.29s-7.52,10.35-9.82,20.12,7-.53,9.82-7.74S361,649.29,361,649.29Z"/><path d="M425,94.1a.84.84,0,0,0-.08-1.18h0a10.71,10.71,0,0,0-7.06-2.52h0a8.75,8.75,0,0,0-4.94,1.32h0a.83.83,0,0,0-.19,1.16h0a.83.83,0,0,0,1.16.19h0a7.26,7.26,0,0,1,4-1h0a9,9,0,0,1,6,2.12h0a.89.89,0,0,0,.56.2h0a.8.8,0,0,0,.62-.28Z"/><path d="M416.79,106a2,2,0,1,0,2-2A2,2,0,0,0,416.79,106Z"/><path d="M383.82,94.1a.84.84,0,0,1,.08-1.18h0A10.71,10.71,0,0,1,391,90.4h0a8.75,8.75,0,0,1,4.94,1.32h0a.83.83,0,0,1,.19,1.16h0a.83.83,0,0,1-1.16.19h0a7.26,7.26,0,0,0-4-1h0a9.08,9.08,0,0,0-6,2.12h0a.87.87,0,0,1-.55.2h0a.8.8,0,0,1-.62-.28Z"/><path d="M392.05,106a2,2,0,1,1-2-2A2,2,0,0,1,392.05,106Z"/><path class="cls-7" d="M416.4,127.25l-22.08,2.5s1.46,8.32,11.2,7.5C417.4,136.25,416.4,127.25,416.4,127.25Z"/><path class="cls-9" d="M444.4,98.54a35.4,35.4,0,0,1-4.49-.15c-2.55-.46-5-1.35-7.54-1.69a37.93,37.93,0,0,0-7.9-.09c-4.72.36-9.56,1-13.52,3.66-.72.47-1.8,1.5-2.75,1.5s-1.44-.1-2.29-.14l-.57,0-.58,0c-.85,0-1.46.14-2.28.14s-2-1-2.76-1.5c-4-2.62-8.8-3.3-13.52-3.66a37.93,37.93,0,0,0-7.9.09c-2.58.34-5,1.23-7.54,1.69a35.4,35.4,0,0,1-4.49.15c-.93,0-.78,2.59-.78,2.59.16,1.08-.26,1.56,2.45,2.15s2.87,4.64,4.74,8.16,7.87,7.23,15.52,6.3,9.54-3,11.67-5.91,2-4.4,3.28-5.67a2.9,2.9,0,0,1,1.61-.84l.58,0,.57,0a2.9,2.9,0,0,1,1.61.84c1.25,1.27,1.14,2.79,3.28,5.67s4,5,11.67,5.91,13.64-2.78,15.52-6.3,2-7.57,4.74-8.16,2.29-1.07,2.45-2.15C445.18,101.13,445.33,98.59,444.4,98.54Zm-47.46,13.58a11,11,0,0,1-3.07,2.36,17,17,0,0,1-14.44.31,11.79,11.79,0,0,1-2.62-1.7,14,14,0,0,1-4.62-9.75,4.06,4.06,0,0,1,3.22-4,14.52,14.52,0,0,1,1.48-.36,29.91,29.91,0,0,1,4.2-.37,44.61,44.61,0,0,1,6,.19,48.48,48.48,0,0,1,8.72,1.67,8.09,8.09,0,0,1,3.11,1.71C401.73,104.88,399,109.77,396.94,112.12Zm36.92,1a11.79,11.79,0,0,1-2.62,1.7,17,17,0,0,1-14.44-.31,11,11,0,0,1-3.07-2.36c-2-2.35-4.79-7.24-2-9.93a8.16,8.16,0,0,1,3.11-1.71,48.48,48.48,0,0,1,8.72-1.67,44.75,44.75,0,0,1,6-.19,29.9,29.9,0,0,1,4.19.37,14.52,14.52,0,0,1,1.48.36,4.06,4.06,0,0,1,3.22,4A13.94,13.94,0,0,1,433.86,113.09Z"/><path class="cls-10" d="M395.82,100.48a48.48,48.48,0,0,0-8.72-1.67,44.61,44.61,0,0,0-6-.19,29.91,29.91,0,0,0-4.2.37,14.52,14.52,0,0,0-1.48.36,4.06,4.06,0,0,0-3.22,4,14,14,0,0,0,4.62,9.75,11.79,11.79,0,0,0,2.62,1.7,17,17,0,0,0,14.44-.31,11,11,0,0,0,3.07-2.36c2-2.35,4.79-7.24,2-9.93A8.09,8.09,0,0,0,395.82,100.48Z"/><path class="cls-10" d="M435.26,99.35a14.52,14.52,0,0,0-1.48-.36,29.9,29.9,0,0,0-4.19-.37,44.75,44.75,0,0,0-6,.19,48.48,48.48,0,0,0-8.72,1.67,8.16,8.16,0,0,0-3.11,1.71c-2.8,2.69,0,7.58,2,9.93a11,11,0,0,0,3.07,2.36,17,17,0,0,0,14.44.31,11.79,11.79,0,0,0,2.62-1.7,13.94,13.94,0,0,0,4.62-9.75A4.06,4.06,0,0,0,435.26,99.35Z"/><path class="cls-7" d="M366.38,99.47l.23,0,.66,0c.28,0,.63,0,1,0s.84-.05,1.31-.11a7.15,7.15,0,0,0,.75-.11c.25-.05.52-.09.78-.16.53-.15,1.08-.31,1.66-.5s1.18-.37,1.79-.55,1.25-.35,1.89-.46,1.29-.25,1.93-.31,1.26-.16,1.88-.18,1.2-.08,1.76-.06l1.58,0a12.67,12.67,0,0,1,1.33.09l1,.1.89.09H386l-1,0c-.39,0-.84,0-1.32,0l-1.57,0c-.28,0-.56,0-.85.05l-.89.07a17.3,17.3,0,0,0-1.86.2c-.63.07-1.26.21-1.89.33s-1.25.29-1.87.43-1.21.33-1.79.52c-.29.08-.56.18-.85.25l-.85.21c-.27.06-.55.08-.81.13s-.52.06-.76.08a10.31,10.31,0,0,1-1.34,0c-.4,0-.74,0-1-.06l-.65-.08Z"/><path class="cls-7" d="M444.58,99.47l-.23,0-.66.08c-.28,0-.63,0-1,.06a10.31,10.31,0,0,1-1.34,0c-.24,0-.5,0-.76-.08s-.54-.07-.81-.13l-.85-.21c-.28-.06-.56-.17-.85-.25-.58-.19-1.18-.35-1.79-.52S435,98.1,434.39,98s-1.26-.26-1.89-.33a17.3,17.3,0,0,0-1.86-.2l-.88-.07c-.3,0-.58-.05-.86-.05l-1.57,0c-.48,0-.93,0-1.32,0l-1,0h-.89l.89-.09,1-.1a12.67,12.67,0,0,1,1.33-.09l1.58,0c.56,0,1.15,0,1.76.06s1.24.1,1.88.18,1.29.19,1.93.31,1.27.31,1.89.46,1.22.36,1.79.55,1.13.35,1.66.5c.26.07.53.11.78.16a7.15,7.15,0,0,0,.75.11c.48.06.92.08,1.31.11s.74,0,1,0l.66,0Z"/><path class="cls-7" d="M401.86,103.51a2.05,2.05,0,0,1,.43-.57,3.57,3.57,0,0,1,.61-.44,4.07,4.07,0,0,1,.8-.33,5.31,5.31,0,0,1,.86-.14,4.63,4.63,0,0,1,.76,0,3.44,3.44,0,0,1,.52.1l.19,0-.2,0-.51,0-.34,0-.37.05-.39.08c-.14,0-.27.06-.4.09l-.39.13a3.84,3.84,0,0,0-.36.14,4.63,4.63,0,0,0-.63.31A4.53,4.53,0,0,0,401.86,103.51Z"/><polygon class="cls-5" points="531.93 183.86 522.45 232.25 511.95 235.21 502.95 238.68 495.29 243.36 484.93 252.97 475.06 262.82 457.42 253.86 452.9 216.01 456.91 180.76 466.22 180.47 480.61 179.93 490.62 179.93 497.49 179.93 510.66 181.09 531.93 183.86"/><polygon class="cls-5" points="278.57 183.74 286.91 232.18 309.01 239.81 315.52 244.33 328.23 256.39 335.02 265.36 359.06 221.37 356.76 179.65 347.62 179.65 326.55 179.65 308.31 179.65 298.77 179.93 278.57 183.74"/></g></g></g></svg>