<svg xmlns="http://www.w3.org/2000/svg" viewBox="0 0 2650 545.92"><defs><style>.cls-1{fill:#87a535;}.cls-2{fill:#768c33;}.cls-3{fill:#83a530;}.cls-4{fill:#99c049;}.cls-5{fill:#d4c7bf;}.cls-6{fill:#3f535b;}</style></defs><g id="Layer_2" data-name="Layer 2"><g id="_3_elements" data-name="#3 elements"><g id="green"><path class="cls-1" d="M0,0S430.21,113.54,528.6,120.25,2487.49,36.09,2650,67.77c0,0-825.76,220.94-832.43,222.61s-496.92,123.55-506.92,118.47-870.26,0-870.26,0L145.07,388,0,399.29Z"/><path class="cls-2" d="M29.46,349.85s-13.34-65.58,7.22-63.92,40,31.95,40,31.95,5-61.41,26.68-34.73,25,33.35,25,33.35-12.79-164,46.13-157.3S242.9,302.61,242.9,302.61s22.23-78.37,45-65,21.68,79.48,21.68,79.48,25-48.91,37.79-41.69,12.79,51.14,12.79,51.14S436.33,307.83,453,353.3s-138.4,33.24-138.4,33.24-255.68-6.12-257.35-7.78S29.46,349.85,29.46,349.85Z"/><path class="cls-3" d="M2650,67.77s-1460.24,231-1730.38,299.34,500.25,32.18,500.25,32.18H2650Z"/><path class="cls-4" d="M0,336.08s369.35,26.84,511.92,14.33,712.85-8.36,892.94,3.32S2650,275.37,2650,275.37V423l-312.18,26.34S562.42,550.94,547.17,545.72,0,462.75,0,462.75Z"/><path class="cls-2" d="M2201.86,426.28s-35.85-73.37,102.55-61.7c0,0-.83-50.86,35.85-30.84,0,0-9.17-120.9,89.21-12.51,0,0,1.67-145.07,66.7-130.9s56.7,136.74,56.7,136.74,26.05-55.05,41.69-40.86,0,65.87,0,65.87,30-50.86,55.44-31.68V453s-173,27.51-178,25.85S2201.86,426.28,2201.86,426.28Z"/><path class="cls-2" d="M1425.94,361.48h60.5s31-37.41,16.32-33.43-33.83,18.41-31.84,16.57,2.86-52-7.81-51.42c-14.92.79-14.48,51.17-14.48,51.17s-19.11-33.84-25.48-27.47,3.59,33,3.59,33S1394.89,344,1425.94,361.48Z"/><path class="cls-5" d="M86,394l87.36,1.47s-3-38.47-43-39.15C86.63,355.63,86,394,86,394Z"/><path class="cls-6" d="M191.26,415.2l45.36.76s-1.54-20-22.35-20.32C191.59,395.25,191.26,415.2,191.26,415.2Z"/><path class="cls-5" d="M244,375.3l37.48.63s-1.26-16.51-18.46-16.8C244.23,358.82,244,375.3,244,375.3Z"/></g></g></g></svg>