<svg xmlns="http://www.w3.org/2000/svg" viewBox="0 0 654.31 754.06"><defs><style>.cls-1{fill:#a8d29f;}.cls-2{fill:#88b374;}.cls-3{fill:#7a3909;}</style></defs><g id="Layer_2" data-name="Layer 2"><g id="_3_elements" data-name="#3 elements"><g id="tree"><path class="cls-1" d="M437.28,103.9C442.29,45,470.06,0,503.56,0c35.18,0,64,49.65,66.86,112.82a24,24,0,0,1,7.41-1.19c17.39,0,31.49,18.92,31.49,42.26a55.26,55.26,0,0,1-2,14.85c27.41,11.57,47,42.14,47,78,0,45.84-31.93,83-71.31,83-31.59,0-58.37-23.91-67.74-57-12.34,10.92-27.29,17.32-43.41,17.32-42.29,0-76.58-44-76.58-98.38C395.27,153.35,412.35,120.12,437.28,103.9Z"/><path class="cls-2" d="M452.83,148.7c71.53-9.64,82.15,68.2,82.15,68.2C619.7,178.35,654.22,251,654.22,251h0c-1.89,43.87-33.05,78.77-71.22,78.77-31.59,0-58.37-23.91-67.74-57-12.34,10.92-27.29,17.32-43.41,17.32-25.41,0-47.93-15.91-61.86-40.39C409.51,248.15,381.93,158.25,452.83,148.7Z"/><path class="cls-3" d="M512,750.3c2.73,0,5.56.25,5.56-2.47V212.45a4.95,4.95,0,0,0-9.89,0V747.83C507.67,750.55,509.27,750.3,512,750.3Z"/><path class="cls-3" d="M512.62,402.61c15.25,0,28.34-9,38.9-26.7,8-13.36,14.54-31.83,19.58-54.92,8.48-38.87,9.72-78.25,9.73-78.64a4.94,4.94,0,0,0-9.88-.29c0,.39-1.23,39-9.53,76.94-7.35,33.63-21.78,73.72-48.8,73.72a4.95,4.95,0,1,0,0,9.89Z"/><path class="cls-3" d="M512.16,514.69l.76,0a4.94,4.94,0,0,0-.61-9.87c-.62,0-1.64-.08-3.14-1.51C503,497.38,492,472.91,487.56,375.43,485,319.24,486,265.71,486,265.18a4.95,4.95,0,0,0-9.89-.18c0,.54-1,54.38,1.61,110.88,1.52,33.27,3.94,61,7.21,82.34,4.28,28,10,45.06,17.44,52.2A14,14,0,0,0,512.16,514.69Z"/><path class="cls-1" d="M47,296.66a60,60,0,0,1-2-15.5c0-24.34,14.09-44.08,31.48-44.08a23.18,23.18,0,0,1,7.41,1.24c2.82-65.89,31.68-117.68,66.86-117.68,33.5,0,61.27,47,66.28,108.38,24.93,16.92,42,51.58,42,91.59a129.64,129.64,0,0,1-10.65,52.23c23.13,14.25,37.86,35.74,37.86,59.79,0,42.91-46.91,77.7-104.78,77.7C138.15,510.33,101,490.84,85,463a60,60,0,0,1-13.71,1.6C31.93,464.64,0,425.88,0,378.07,0,340.62,19.59,308.72,47,296.66Z"/><path class="cls-2" d="M47,296.66s69.38-27,122.26,20.58,89.67-27.47,72-62.34C252.37,272.7,259,295.61,259,320.61a129.64,129.64,0,0,1-10.65,52.23c23.13,14.25,37.86,35.74,37.86,59.79,0,42.91-46.91,77.7-104.78,77.7C138.15,510.33,101,490.84,85,463a60,60,0,0,1-13.71,1.6C31.93,464.64,0,425.88,0,378.07,0,340.62,19.59,308.72,47,296.66Z"/><path class="cls-3" d="M128.55,753.12a5,5,0,0,0,4.95-4.94V212.81a4.95,4.95,0,0,0-9.89,0V748.18A4.94,4.94,0,0,0,128.55,753.12Z"/><path class="cls-3" d="M128.55,403c14,0,25.89-5,35.26-14.84,26.2-27.56,23.69-83.86,23.57-86.24a4.95,4.95,0,0,0-9.88.49h0c0,.55,2.42,54.48-20.87,78.95-7.53,7.91-16.72,11.76-28.08,11.76a4.94,4.94,0,0,0,0,9.88Z"/><path class="cls-3" d="M127.86,512.41l1,0a4.94,4.94,0,1,0-.61-9.86c-1.89.11-3.77-.69-5.75-2.47-6.11-5.47-17.69-24.73-26.7-92.21-5.21-39-7-75.42-7-75.78a4.94,4.94,0,1,0-9.87.47c0,.37,1.82,37.18,7.09,76.62,3.1,23.25,6.79,42.89,11,58.37,5.46,20.31,11.66,33.36,19,39.89C119.61,510.73,123.63,512.41,127.86,512.41Z"/><path class="cls-1" d="M437.08,288.67a85.32,85.32,0,0,0,2-18.63c0-29.28-14.1-53-31.49-53a19.63,19.63,0,0,0-7.4,1.49C397.37,139.26,368.52,77,333.34,77c-33.51,0-61.28,56.51-66.28,130.35-24.93,20.36-42,62-42,110.16,0,22.94,3.89,44.41,10.66,62.82-23.14,17.14-37.87,43-37.87,71.91,0,51.61,46.91,93.45,104.78,93.45,43.32,0,80.5-23.45,96.45-56.88a50.05,50.05,0,0,0,13.71,1.92c39.39,0,71.31-46.61,71.31-104.12C484.08,341.54,464.5,303.19,437.08,288.67Z"/><path class="cls-2" d="M235.7,380.3C228.93,361.89,225,340.42,225,317.48c0-5.77.25-11.45.73-17,96.79,6.65,92.94,103.71,92.94,103.71S398.78,370.46,425.46,418s-26.4,70.83-26.4,70.83c-15.95,33.43-53.13,56.88-96.45,56.88-57.87,0-104.78-41.84-104.78-93.45C197.83,423.29,212.56,397.44,235.7,380.3Z"/><path class="cls-3" d="M334.38,754.06a5,5,0,0,0,4.95-4.94V347.77a4.95,4.95,0,1,0-9.89,0V749.12A4.94,4.94,0,0,0,334.38,754.06Z"/><path class="cls-3" d="M334.38,466.9c14,0,25.89-5,35.26-14.85,26.21-27.56,23.69-83.85,23.57-86.24a4.94,4.94,0,0,0-9.87.5c0,.59,2.4,54.48-20.88,78.94-7.53,7.92-16.71,11.77-28.08,11.77a4.94,4.94,0,1,0,0,9.88Z"/><path class="cls-3" d="M330.41,655l1,0a4.94,4.94,0,0,0-.6-9.86c-1.89.11-3.77-.69-5.75-2.47-6.11-5.47-17.7-24.73-26.7-92.21-5.22-39-7-75.42-7-75.78a4.95,4.95,0,0,0-9.88.47c0,.37,1.83,37.18,7.1,76.62,3.1,23.25,6.79,42.89,10.95,58.37,5.46,20.31,11.66,33.36,18.95,39.89C322.16,653.29,326.18,655,330.41,655Z"/></g></g></g></svg>