<svg xmlns="http://www.w3.org/2000/svg" viewBox="0 0 406.12 99.82"><defs><style>.cls-1{fill:#ffb680;}.cls-2{fill:#ed8a40;}</style></defs><g id="Layer_2" data-name="Layer 2"><g id="_3_elements" data-name="#3 elements"><g id="woman"><path class="cls-1" d="M379.32,1.1s-27.76-2.36-52.7-.17-61.23,10-86.73,9.9c-21.8-.07-70.84.9-91.24,2s-94.07,1.13-121.27.88S-12.72,30.58,17.1,38.41c11.84,3.11,27.18,4.41,29.43,9.17s-1.35,11.5-2.88,15C39.76,71.45,46.44,74.21,54.41,64s21-21.11,30.11-23.13,57.76,6.22,74.21,8.18c37.85,4.5,64.76,6.41,83.85,3.48,37.42-5.74,82.72,5,96.29,14.6,5.74,4.06,23.9,22.78,23.9,22.78,14.51,10.8,22.71,10.9,27.55,8.81,20.24-8.74,23.45-73.55-4.68-94A34.67,34.67,0,0,0,379.32,1.1Z"/><path class="cls-2" d="M342.43,48s11.33-6.24,18.13,0S366.3,75.8,366.3,75.8,348.1,61.64,342.43,48Z"/></g></g></g></svg>