<svg xmlns="http://www.w3.org/2000/svg" viewBox="0 0 406.12 99.82"><defs><style>.cls-1{fill:#ffb680;}.cls-2{fill:#ed8a40;}</style></defs><g id="Layer_2" data-name="Layer 2"><g id="_3_elements" data-name="#3 elements"><g id="woman"><path class="cls-1" d="M26.8,1.1S54.56-1.26,79.5.93s61.24,10,86.74,9.9c21.8-.07,70.83.9,91.23,2s94.08,1.13,121.27.88S418.85,30.58,389,38.41c-11.84,3.11-27.19,4.41-29.44,9.17s1.35,11.5,2.89,15c3.89,8.87-2.8,11.63-10.76,1.46s-21-21.11-30.12-23.13-57.76,6.22-74.2,8.18c-37.85,4.5-64.77,6.41-83.86,3.48-37.42-5.74-82.71,5-96.28,14.6C61.52,71.23,43.35,90,43.35,90c-14.51,10.8-22.7,10.9-27.55,8.81C-4.44,90-7.65,25.21,20.49,4.74A35,35,0,0,1,26.8,1.1Z"/><path class="cls-2" d="M63.7,48S52.36,41.8,45.56,48,39.82,75.8,39.82,75.8,58,61.64,63.7,48Z"/></g></g></g></svg>