<svg xmlns="http://www.w3.org/2000/svg" viewBox="0 0 168.73 239.56"><defs><style>.cls-1{fill:#ffb680;}.cls-2{fill:#e8945b;}.cls-3{fill:#ffb27d;}.cls-4{fill:#fff;}</style></defs><g id="Layer_2" data-name="Layer 2"><g id="_3_elements" data-name="#3 elements"><g id="woman"><path d="M80.16.05S43.85.23,21.34,33.64-3,150.87,2.82,164.67c0,0,36.07,11.12,83.24,11.11,24.56,0,64.3-2.54,81.65-17.53C172,154.56,166.44-3.17,80.16.05Z"/><path class="cls-1" d="M132.33,188.2s-20.59-8-21.89-21c-1.48-14.75,0-39,0-39H62.52s1.11,24.24,0,39c-1,13-21.88,21-21.88,21s10.67,44.58,34.08,50.43c2,1.24,21.47,1.24,23.52,0C121.65,232.78,132.33,188.2,132.33,188.2Z"/><path class="cls-2" d="M62,148.28S72,171.4,88.34,170s23.12-22.25,23.12-22.25Z"/><path class="cls-3" d="M117.51,142.14c-13.37,12.71-30,29.66-65.6-1.87-7-6.17-9.41-18.78-9.78-32.35-.44-16.07-1.33-22.75.49-32,2.16-11.07,14.43-31.5,34.1-33.15,36.11-3,48.23,20.45,49.08,38.51C127.65,120.35,131.11,129.22,117.51,142.14Z"/><path d="M60,53.14s14,16.33,26.7,24,33.67,7.45,33.67,7.45-10.5-9.76-11.93-17.21c0,0,20.89,27,26.57,26.71s-5-49.57-23.57-53.68S45.46,33.48,60,53.14Z"/><path d="M74.92,47.6S51.06,56.37,49.6,73.71c-1.31,15.66-17.86,40.41-17.86,40.41s-.41-22.3,3.36-36.34S41.54,49.69,50,44.56s22.12-5.83,22.12-5.83Z"/><path d="M60.26,89.94a.92.92,0,0,1,.09-1.28h0A11.64,11.64,0,0,1,68,85.93h0a9.5,9.5,0,0,1,5.36,1.43h0a.91.91,0,0,1,.21,1.26h0a.9.9,0,0,1-1.26.2h0A7.87,7.87,0,0,0,68,87.73h0A9.82,9.82,0,0,0,61.54,90h0a.91.91,0,0,1-.6.22h0a.92.92,0,0,1-.68-.31Z"/><path d="M69.2,102.85A2.19,2.19,0,1,1,67,100.67,2.19,2.19,0,0,1,69.2,102.85Z"/><path d="M112,89.94a.92.92,0,0,0-.09-1.28h0a11.64,11.64,0,0,0-7.66-2.73h0a9.5,9.5,0,0,0-5.36,1.43h0a.91.91,0,0,0-.21,1.26h0a.9.9,0,0,0,1.26.2h0a7.87,7.87,0,0,1,4.31-1.09h0a9.82,9.82,0,0,1,6.47,2.3h0a.91.91,0,0,0,.6.22h0a.92.92,0,0,0,.68-.31Z"/><path d="M103,102.85a2.19,2.19,0,1,0,2.19-2.18A2.19,2.19,0,0,0,103,102.85Z"/><path class="cls-4" d="M73.81,131.52l27.8,3.16s-1.84,10.48-14.1,9.45C72.55,142.87,73.81,131.52,73.81,131.52Z"/></g></g></g></svg>