<svg xmlns="http://www.w3.org/2000/svg" viewBox="0 0 275.84 805.46"><defs><style>.cls-1{fill:#ffb680;}.cls-2{fill:#008873;}.cls-3{fill:#076855;}.cls-4{fill:#fff;}.cls-5{fill:#ed8a40;}.cls-6{fill:#02b08d;}.cls-7{fill:#2c4255;}.cls-8{fill:#1c303f;}</style></defs><g id="Layer_2" data-name="Layer 2"><g id="_3_elements" data-name="#3 elements"><g id="woman"><path class="cls-1" d="M48.26,368.46s-5,166.55-5.41,207.35S31.07,702.18,32.56,717.54c1,10.39,10.45,49.81,10.45,49.81s22.13-7.61,29-59.53c2.79-21,22.74-81,26.62-103.67s5.31-48.74,6.14-73.67,22.38-159.93,22.38-159.93Z"/><path class="cls-1" d="M229.88,365.66s1.35,167.26,1.72,208.06,11.77,126.36,10.28,141.72c-1,10.4-10.45,49.81-10.45,49.81s-22.13-7.61-29-59.53c-2.79-21-22.74-81-26.62-103.67s-5.3-48.73-6.14-73.66-20.08-172.51-20.08-172.51Z"/><path class="cls-2" d="M247.53,799.79c-7.17-1.5-25.11-15.29-31.35-24.83s-8.62-13.94-8.31-23.32c.18-5.4-6.58-12.5-8.37-17.85l1.78-11.19,41.07-2.67s13.78,23.7,22.24,37.74c6.19,10.28,10.91,23.53,11.23,32.13-3.28-1.19-7.18-2.26-10.06-1.92C259.77,788.57,254.71,801.29,247.53,799.79Z"/><path class="cls-3" d="M230.55,796.16C215.09,783,208,773.88,202.77,762s-3.27-28.25-3.27-28.25l.88-5.53c8.28,7.14,7.67,18,7.49,23.38-.31,9.38,2.06,13.77,8.31,23.32s24.18,23.33,31.35,24.83,12.24-11.22,18.23-11.91c2.88-.34,6.78.73,10.06,1.92.11,2.93-.28,5.32-1.32,6.86C267.17,807.62,246,809.31,230.55,796.16Z"/><path class="cls-4" d="M241.28,725.08s11.65,19.64,16,31.29c2.75,7.39,3.32,14.84-.61,17.16s-13-4-17.74-12.32-11.61-36.13-11.61-36.13Z"/><path class="cls-3" d="M245.35,725.08s-7.4,4.47-25,3.18a43.35,43.35,0,0,1-19-5.66L203,711.43s7.08,2,15.41,3.7c9.19,1.84,22.51-2.36,22.51-2.36Z"/><path class="cls-5" d="M185,511.81s8.15,11.22,10.65,21.83-7.58-.58-10.65-8.4S185,511.81,185,511.81Z"/><path class="cls-6" d="M53.45,253.69c-1.6,13.39-2.7,25.64-3.48,41.05C47.26,348.19,47,385.23,47,385.23s20.6,10.9,34.76,10.9c16.44,0,42.6-3.22,42.6-3.22l13.25-77V251.1Z"/><path class="cls-6" d="M222.18,253.69l-84.53-2.59v64.84l15.39,77s29.67-1.65,45-1.65c16.43,0,33.05-10.92,33.05-10.92s-3-32.15-5.73-85.6C224.55,279.33,223.78,267.08,222.18,253.69Z"/><path class="cls-7" d="M204.05,61.83c-4.53-22.66-5.19-57.61-5.19-57.61L177.23.57c-5.1,30-24.84,39.35-36.13,39.31-11-.05-35-4.36-41-39.88L78.44,3.65S78,36.78,74.1,59.57c-4.54,26.44-11.91,33-11.91,33s9.42,57,8.13,75.8c-1.6,23.17-16.87,85.33-16.87,85.33s35.27,16.67,84.45,16.67c53.57,0,84.28-16.67,84.28-16.67s-16.91-67.16-15.86-89.1c1-21.36,8.23-72,8.23-72S208.59,84.5,204.05,61.83Z"/><path class="cls-8" d="M81,118.13c-9.88-1.33-18.13,8.55,11.81,17.05S186,142.88,198,131.54s7.52-17.95-6.54-13.53c-15.24,4.8-18.81,16.64-53.94,13.24S102.07,121,81,118.13Z"/><path class="cls-2" d="M28.3,799.79c7.18-1.5,25.12-15.29,31.36-24.83S68.28,761,68,751.64c-.18-5.4,6.58-12.5,8.37-17.85L74.56,722.6l-41.07-2.67s-13.79,23.7-22.24,37.74C5.06,768,.34,781.2,0,789.8c3.28-1.19,7.18-2.26,10.06-1.92C16.07,788.57,21.13,801.29,28.3,799.79Z"/><path class="cls-3" d="M45.29,796.16C60.75,783,67.88,773.88,73.06,762s3.28-28.25,3.28-28.25l-.88-5.53c-8.28,7.14-7.67,18-7.49,23.38.31,9.38-2.07,13.77-8.31,23.32S35.48,798.29,28.3,799.79s-12.23-11.22-18.22-11.91c-2.88-.34-6.78.73-10.06,1.92-.11,2.93.28,5.32,1.31,6.86C8.67,807.62,29.83,809.31,45.29,796.16Z"/><path class="cls-4" d="M34.56,725.08s-11.65,19.64-16,31.29c-2.74,7.39-3.31,14.84.62,17.16s13.05-4,17.74-12.32,11.6-36.13,11.6-36.13Z"/><path class="cls-3" d="M30.49,725.08s7.4,4.47,25.05,3.18a43.35,43.35,0,0,0,19-5.66l-1.71-11.17s-7.09,2-15.41,3.7c-9.19,1.84-22.51-2.36-22.51-2.36Z"/><path class="cls-5" d="M90.86,511.81S82.7,523,80.21,533.64s7.58-.58,10.65-8.4S90.86,511.81,90.86,511.81Z"/></g></g></g></svg>