<svg xmlns="http://www.w3.org/2000/svg" viewBox="0 0 878.33 989.43"><defs><style>.cls-1{fill:#ffb680;}.cls-2{fill:#e8945b;}.cls-3{fill:#ffb27d;}.cls-4{fill:#008873;}.cls-5{fill:#076855;}.cls-6{fill:#fff;}.cls-7{fill:#ed8a40;}.cls-8{fill:#02b08d;}.cls-9{fill:#2c4255;}.cls-10{fill:#1c303f;}</style></defs><g id="Layer_2" data-name="Layer 2"><g id="_3_elements" data-name="#3 elements"><g id="woman"><path d="M432,.05s-36.3.18-58.82,33.59-24.33,117.23-18.52,131c0,0,36.08,11.12,83.25,11.11,24.56,0,64.3-2.54,81.64-17.53C523.82,154.56,518.28-3.17,432,.05Z"/><path class="cls-1" d="M484.17,188.2s-20.58-8-21.88-21c-1.48-14.75,0-39,0-39H414.36s1.12,24.24,0,39c-1,13-21.88,21-21.88,21s10.67,44.58,34.08,50.43c2.06,1.24,21.47,1.24,23.53,0C473.5,232.78,484.17,188.2,484.17,188.2Z"/><path class="cls-2" d="M413.83,148.28s10,23.12,26.35,21.74,23.12-22.25,23.12-22.25Z"/><path class="cls-3" d="M469.36,142.14c-13.37,12.71-30,29.66-65.6-1.87-7-6.17-9.42-18.78-9.78-32.35-.45-16.07-1.34-22.75.48-32,2.17-11.07,14.43-31.5,34.1-33.15,36.12-3,48.24,20.45,49.09,38.51C479.49,120.35,483,129.22,469.36,142.14Z"/><path d="M411.87,53.14s13.95,16.33,26.7,24,33.66,7.45,33.66,7.45-10.49-9.76-11.92-17.21c0,0,20.88,27,26.56,26.71s-5-49.57-23.57-53.68S397.3,33.48,411.87,53.14Z"/><path d="M426.77,47.6s-23.86,8.77-25.32,26.11c-1.32,15.66-17.86,40.41-17.86,40.41s-.41-22.3,3.36-36.34,6.43-28.09,14.86-33.22,22.13-5.83,22.13-5.83Z"/><path class="cls-1" d="M349.05,552.43S344,719,343.64,759.79s-11.78,126.36-10.28,141.72c1,10.39,10.44,49.81,10.44,49.81s22.14-7.61,29.05-59.53c2.79-21,22.74-81,26.61-103.67s5.31-48.73,6.15-73.67S428,554.52,428,554.52Z"/><path class="cls-1" d="M530.68,549.63s1.34,167.26,1.71,208.06,11.78,126.37,10.28,141.72c-1,10.4-10.44,49.81-10.44,49.81s-22.14-7.61-29.05-59.53c-2.79-21-22.74-81-26.61-103.67s-5.31-48.73-6.14-73.66-20.09-172.51-20.09-172.51Z"/><path class="cls-4" d="M548.33,983.76c-7.18-1.5-25.12-15.29-31.36-24.83s-8.62-13.94-8.3-23.32c.18-5.4-6.59-12.5-8.38-17.85l1.78-11.19,41.07-2.67s13.79,23.7,22.24,37.74c6.19,10.28,10.92,23.53,11.24,32.13-3.28-1.19-7.18-2.26-10.07-1.92C560.57,972.54,555.51,985.27,548.33,983.76Z"/><path class="cls-5" d="M531.35,980.13C515.88,967,508.76,957.86,503.57,946s-3.28-28.25-3.28-28.25l.88-5.53c8.28,7.14,7.68,18,7.5,23.38-.32,9.38,2.06,13.77,8.3,23.32s24.18,23.33,31.36,24.83,12.24-11.22,18.22-11.91c2.89-.34,6.79.73,10.07,1.92.1,2.93-.29,5.32-1.32,6.87C568,991.59,546.81,993.28,531.35,980.13Z"/><path class="cls-6" d="M542.07,909.05s11.65,19.64,16,31.29c2.74,7.39,3.31,14.84-.62,17.16s-13-4-17.74-12.32-11.6-36.13-11.6-36.13Z"/><path class="cls-5" d="M546.14,909.05s-7.4,4.47-25,3.18a43.37,43.37,0,0,1-19-5.66l1.72-11.17s7.08,2,15.4,3.7c9.19,1.84,22.52-2.36,22.52-2.36Z"/><path class="cls-7" d="M485.77,695.78s8.16,11.23,10.65,21.83-7.58-.58-10.65-8.4S485.77,695.78,485.77,695.78Z"/><path class="cls-8" d="M354.24,437.66c-1.6,13.39-2.69,25.64-3.47,41-2.71,53.45-2.94,90.49-2.94,90.49s20.6,10.9,34.77,10.9c16.43,0,42.6-3.22,42.6-3.22l13.25-77V435.07Z"/><path class="cls-8" d="M523,437.66l-84.53-2.59v64.84l15.39,77s29.66-1.65,45-1.65c16.44,0,33.06-10.92,33.06-10.92s-3-32.15-5.74-85.6C525.34,463.3,524.58,451.05,523,437.66Z"/><path class="cls-1" d="M379.24,187.62s-27.77-2.26-52.7,0-61.2,10.2-86.7,10.2c-21.8,0-70.84,1.14-91.24,2.27s-94.06,1.45-121.26,1.29-40,17.05-10.2,24.78c11.85,3.07,27.2,4.32,29.46,9.07s-1.31,11.51-2.83,15c-3.86,8.88,2.83,11.62,10.77,1.42s21-21.18,30-23.23,57.78,6,74.23,7.93c37.87,4.37,64.79,6.19,83.87,3.2,37.4-5.87,82.73,4.73,96.33,14.27,5.76,4,24,22.7,24,22.7S403.6,264.69,379.24,187.62Z"/><path class="cls-7" d="M342.27,234.34s11.34-6.23,18.14,0,5.74,27.77,5.74,27.77S347.94,247.94,342.27,234.34Z"/><path class="cls-1" d="M499.1,187.62s27.76-2.26,52.7,0,61.2,10.2,86.7,10.2c21.8,0,70.83,1.14,91.23,2.27s94.07,1.45,121.26,1.29,40,17.05,10.21,24.78c-11.86,3.07-27.2,4.32-29.47,9.07s1.31,11.51,2.83,15c3.86,8.88-2.83,11.62-10.76,1.42s-21-21.18-30-23.23-57.78,6-74.23,7.93c-37.86,4.37-64.79,6.19-83.87,3.2-37.4-5.87-82.73,4.73-96.33,14.27-5.76,4-24,22.7-24,22.7S474.73,264.69,499.1,187.62Z"/><path class="cls-7" d="M536.06,234.34s-11.34-6.23-18.14,0-5.73,27.77-5.73,27.77S530.39,247.94,536.06,234.34Z"/><path class="cls-9" d="M504.85,245.8c-4.54-22.66-5.2-57.61-5.2-57.61L478,184.54c-5.1,30-24.84,39.35-36.13,39.31-11,0-35-4.36-41-39.88l-21.62,3.65s-.44,33.13-4.35,55.92c-4.53,26.44-11.9,33-11.9,33s9.42,57,8.12,75.81c-1.59,23.16-16.87,85.32-16.87,85.32s35.28,16.68,84.46,16.68c53.57,0,84.28-16.68,84.28-16.68s-16.92-67.15-15.87-89.1c1-21.36,8.24-72,8.24-72S509.38,268.47,504.85,245.8Z"/><path class="cls-10" d="M381.82,302.1c-9.89-1.33-18.14,8.55,11.81,17s93.11,7.7,105.17-3.64,7.53-17.95-6.53-13.53c-15.24,4.8-18.81,16.64-53.94,13.24S402.86,304.94,381.82,302.1Z"/><path class="cls-4" d="M329.1,983.76c7.18-1.5,25.11-15.29,31.36-24.83s8.62-13.94,8.3-23.32c-.18-5.4,6.59-12.5,8.38-17.85l-1.78-11.19-41.07-2.67s-13.79,23.7-22.24,37.74c-6.19,10.28-10.92,23.53-11.24,32.13,3.28-1.19,7.18-2.26,10.06-1.92C316.86,972.54,321.92,985.27,329.1,983.76Z"/><path class="cls-5" d="M346.08,980.13C361.54,967,368.67,957.86,373.86,946s3.28-28.25,3.28-28.25l-.88-5.53c-8.29,7.14-7.68,18-7.5,23.38.32,9.38-2.06,13.77-8.3,23.32s-24.18,23.33-31.36,24.83-12.24-11.22-18.23-11.91c-2.88-.34-6.78.73-10.06,1.92-.11,2.93.29,5.32,1.32,6.87C309.47,991.59,330.62,993.28,346.08,980.13Z"/><path class="cls-6" d="M335.36,909.05s-11.65,19.64-16,31.29c-2.74,7.39-3.32,14.84.62,17.16s13-4,17.74-12.32,11.6-36.13,11.6-36.13Z"/><path class="cls-5" d="M331.28,909.05s7.4,4.47,25.05,3.18a43.43,43.43,0,0,0,19-5.66l-1.72-11.17s-7.08,2-15.4,3.7c-9.2,1.84-22.52-2.36-22.52-2.36Z"/><path class="cls-7" d="M391.66,695.78S383.5,707,381,717.61s7.59-.58,10.66-8.4S391.66,695.78,391.66,695.78Z"/><path d="M412.11,89.94a.9.9,0,0,1,.09-1.28h0a11.63,11.63,0,0,1,7.65-2.73h0a9.53,9.53,0,0,1,5.37,1.43h0a.91.91,0,0,1,.2,1.26h0a.9.9,0,0,1-1.26.2h0a7.85,7.85,0,0,0-4.31-1.09h0a9.83,9.83,0,0,0-6.47,2.3h0a.88.88,0,0,1-.59.22h0a.92.92,0,0,1-.68-.31Z"/><path d="M421,102.85a2.18,2.18,0,1,1-2.18-2.18A2.18,2.18,0,0,1,421,102.85Z"/><path d="M463.79,89.94a.9.9,0,0,0-.09-1.28h0a11.63,11.63,0,0,0-7.65-2.73h0a9.53,9.53,0,0,0-5.37,1.43h0a.91.91,0,0,0-.2,1.26h0a.9.9,0,0,0,1.26.2h0a7.85,7.85,0,0,1,4.31-1.09h0a9.82,9.82,0,0,1,6.47,2.3h0a.88.88,0,0,0,.59.22h0a.91.91,0,0,0,.68-.31Z"/><path d="M454.86,102.85a2.18,2.18,0,1,0,2.18-2.18A2.19,2.19,0,0,0,454.86,102.85Z"/><path class="cls-6" d="M425.65,131.52l27.81,3.16s-1.84,10.48-14.11,9.45C424.39,142.87,425.65,131.52,425.65,131.52Z"/></g></g></g></svg>